<svg width="104" height="104" viewBox="0 0 104 104" fill="none" xmlns="http://www.w3.org/2000/svg">
<path d="M65.0003 8.66602H39.0003C36.6071 8.66602 34.667 10.6061 34.667 12.9993V21.666C34.667 24.0592 36.6071 25.9993 39.0003 25.9993H65.0003C67.3936 25.9993 69.3337 24.0592 69.3337 21.666V12.9993C69.3337 10.6061 67.3936 8.66602 65.0003 8.66602Z" stroke="white" stroke-width="6.5" stroke-linecap="round" stroke-linejoin="round"/>
<path d="M69.333 17.334H77.9997C80.2982 17.334 82.5026 18.2471 84.1279 19.8724C85.7532 21.4977 86.6663 23.7021 86.6663 26.0007V86.6673C86.6663 88.9659 85.7532 91.1703 84.1279 92.7956C82.5026 94.4209 80.2982 95.334 77.9997 95.334H25.9997C23.7011 95.334 21.4967 94.4209 19.8714 92.7956C18.2461 91.1703 17.333 88.9659 17.333 86.6673V26.0007C17.333 23.7021 18.2461 21.4977 19.8714 19.8724C21.4967 18.2471 23.7011 17.334 25.9997 17.334H34.6663" stroke="white" stroke-width="6.5" stroke-linecap="round" stroke-linejoin="round"/>
<path d="M39 60.6667L47.6667 69.3333L65 52" stroke="white" stroke-width="6.5" stroke-linecap="round" stroke-linejoin="round"/>
</svg>
