<svg width="96" height="96" viewBox="0 0 96 96" fill="none" xmlns="http://www.w3.org/2000/svg">
<g clip-path="url(#clip0_971_1927)">
<path d="M59.1865 73.25C60.3323 73.25 61.249 74.1667 61.249 75.3125V82.4375C61.249 83.5833 60.3323 84.5 59.1865 84.5C58.0408 84.4999 57.124 83.5832 57.124 82.4375V75.3125C57.124 74.1668 58.0408 73.2501 59.1865 73.25ZM20.2441 68.0146L18.4434 72.5137C18.1615 73.2183 17.7393 73.8632 17.2021 74.4004L17.2012 74.4014L8.05762 83.5586C6.78793 84.8282 4.72473 84.8282 3.45508 83.5586C2.18563 82.2889 2.18556 80.2257 3.45508 78.9561L3.45605 78.9551L12.2588 70.1377L12.4756 69.9209L12.5889 69.6357L15.3682 62.6963L20.2441 68.0146ZM25.2988 30.5C31.3119 30.5002 36.7327 34.1124 39.0537 39.6533V39.6543L41.3252 45.1172L41.54 45.6348L42.042 45.8848L45.2305 47.4707V47.4717C46.8348 48.2739 47.4848 50.2228 46.6826 51.8271C45.8804 53.4313 43.9314 54.0805 42.3271 53.2783L42.3252 53.2773L38.3682 51.3066H38.3691C37.1583 50.6953 36.209 49.6743 35.6943 48.4346L35.6924 48.4316L34.2676 45.0176L32.6396 41.1162L31.4443 45.1709L28.5801 54.8936L28.3408 55.707L28.9131 56.332L36.2598 64.3457V64.3467C36.8993 65.0455 37.3519 65.8758 37.5713 66.7764L37.5732 66.7842L40.9873 80.4561L40.9883 80.458C41.4229 82.1862 40.3597 83.9586 38.6182 84.3965C36.8908 84.8307 35.1195 83.7694 34.6807 82.0293L31.415 68.9521L31.3223 68.583L31.0645 68.3018L20.5703 56.8574L20.5693 56.8564L20.3994 56.665C18.6792 54.6696 18.0544 51.9519 18.7324 49.3955L21.2412 39.9697L22.0098 37.0811L19.2344 38.1904C19.1457 38.2259 19.063 38.2611 18.9941 38.29C18.922 38.3204 18.8634 38.3453 18.8037 38.3691L18.5176 38.4834L18.4844 38.5156L17.5576 38.9219L17.5488 38.9258C14.7321 40.1796 12.5651 42.5518 11.585 45.4922L11.1992 46.6475C10.6302 48.3437 8.7773 49.267 7.08691 48.7002C5.39018 48.1311 4.46637 46.2913 5.03516 44.585L5.42188 43.4248C6.96618 38.7648 10.4101 34.9646 14.9072 32.9688L14.9062 32.9678L16.0879 32.4521L16.0938 32.4502C18.9917 31.1684 22.1252 30.5 25.2988 30.5ZM59.1865 59C60.3323 59 61.249 59.9167 61.249 61.0625V63.4375C61.249 64.5833 60.3323 65.5 59.1865 65.5C58.0408 65.4999 57.124 64.5832 57.124 63.4375V61.0625C57.124 59.9168 58.0408 59.0001 59.1865 59ZM77.0654 33.8311C78.3351 32.5614 80.3983 32.5615 81.668 33.8311L93.543 45.7061C94.8127 46.9757 94.8126 49.0389 93.543 50.3086L81.668 62.1836C80.3983 63.4533 78.3351 63.4533 77.0654 62.1836C75.7959 60.9139 75.7958 58.8507 77.0654 57.5811L83.3965 51.25H57.999C56.2002 51.2499 54.749 49.7988 54.749 48C54.749 46.2012 56.2002 44.7501 57.999 44.75H83.4062L80.834 42.1875L77.0635 38.4316C75.7958 37.1618 75.7964 35.1001 77.0654 33.8311ZM59.1865 30.5C60.3323 30.5 61.249 31.4167 61.249 32.5625V34.9375C61.249 36.0833 60.3323 37 59.1865 37C58.0408 36.9999 57.124 36.0832 57.124 34.9375V32.5625C57.124 31.4168 58.0408 30.5001 59.1865 30.5ZM31.874 11.5C33.3658 11.5 34.7967 12.0926 35.8516 13.1475C36.9065 14.2024 37.499 15.6332 37.499 17.125C37.499 18.6168 36.9065 20.0476 35.8516 21.1025C34.7967 22.1574 33.3658 22.75 31.874 22.75C30.3823 22.7499 28.9513 22.1574 27.8965 21.1025C26.8417 20.0477 26.249 18.6168 26.249 17.125C26.249 15.6332 26.8417 14.2023 27.8965 13.1475C28.9513 12.0926 30.3823 11.5001 31.874 11.5ZM59.1865 11.5C60.3323 11.5 61.249 12.4167 61.249 13.5625V20.6875C61.249 21.8333 60.3323 22.75 59.1865 22.75C58.0408 22.7499 57.124 21.8332 57.124 20.6875V13.5625C57.124 12.4168 58.0408 11.5001 59.1865 11.5Z" stroke="white" stroke-width="3"/>
</g>
<defs>
<clipPath id="clip0_971_1927">
<rect width="95" height="76" fill="white" transform="translate(1 10)"/>
</clipPath>
</defs>
</svg>
