<svg width="96" height="96" viewBox="0 0 96 96" fill="none" xmlns="http://www.w3.org/2000/svg">
<path d="M62.8574 11.5918C65.8726 10.3429 69.1312 9.81748 72.3779 10.0557C74.5399 10.2143 76.6584 10.7107 78.6621 11.5186L48.0059 42.5781L31.1191 25.4688L31.085 25.4346L30.7812 25.1523C29.2327 23.7853 27.2331 23.0321 25.1582 23.0527C22.945 23.0748 20.8354 23.9762 19.2803 25.5518C17.7262 27.1262 16.8487 29.2481 16.8271 31.4609C16.8057 33.6738 17.6413 35.8132 19.1641 37.418C19.1753 37.4298 19.1868 37.4415 19.1982 37.4531L46.2266 64.8369C46.6963 65.3127 47.3373 65.58 48.0059 65.5801C48.6744 65.5801 49.3154 65.3127 49.7852 64.8369L90.5225 23.5635C91.9601 27.2486 92.3682 31.2753 91.6855 35.1963C90.9292 39.5403 88.8728 43.5392 85.8008 46.6514L48.0059 84.9414L10.2119 46.6514C7.91649 44.3249 6.17797 41.4919 5.13281 38.3711C4.08772 35.2503 3.76441 31.9267 4.18945 28.6582C4.61452 25.3897 5.77549 22.2657 7.58105 19.5283C9.38658 16.791 11.7883 14.5138 14.5967 12.8711C17.4048 11.2286 20.5466 10.2636 23.7783 10.0488C27.01 9.83409 30.2478 10.3757 33.2422 11.6318C36.2368 12.8881 38.9091 14.8264 41.0508 17.2998C43.1925 19.7733 44.7461 22.715 45.5889 25.8984C45.8791 26.995 46.8716 27.7587 48.0059 27.7588C49.1403 27.7587 50.1327 26.9951 50.4229 25.8984C51.2694 22.6986 52.8342 19.743 54.9922 17.2617C57.15 14.7806 59.8422 12.8408 62.8574 11.5918Z" stroke="white" stroke-width="5" stroke-linecap="round" stroke-linejoin="round"/>
</svg>
