<svg width="96" height="96" viewBox="0 0 96 96" fill="none" xmlns="http://www.w3.org/2000/svg">
<path d="M42 82L82 42C83.8691 40.1683 85.3565 37.9842 86.3763 35.5741C87.3961 33.164 87.928 30.5756 87.9412 27.9586C87.9544 25.3416 87.4487 22.748 86.4533 20.3277C85.458 17.9074 83.9927 15.7084 82.1422 13.8579C80.2917 12.0074 78.0927 10.5421 75.6723 9.5467C73.252 8.55133 70.6584 8.04563 68.0414 8.05885C65.4245 8.07206 62.8361 8.60394 60.4259 9.62371C58.0158 10.6435 55.8317 12.1309 54 14L14 54C12.1309 55.8317 10.6435 58.0158 9.62371 60.4259C8.60394 62.8361 8.07206 65.4245 8.05885 68.0414C8.04563 70.6584 8.55133 73.252 9.5467 75.6723C10.5421 78.0927 12.0074 80.2917 13.8579 82.1422C15.7084 83.9927 17.9074 85.458 20.3277 86.4533C22.748 87.4487 25.3416 87.9544 27.9586 87.9412C30.5756 87.928 33.164 87.3961 35.5741 86.3763C37.9842 85.3565 40.1683 83.8691 42 82Z" stroke="white" stroke-width="6" stroke-linecap="round" stroke-linejoin="round"/>
<path d="M34 34L62 62" stroke="white" stroke-width="6" stroke-linecap="round" stroke-linejoin="round"/>
</svg>
