<svg width="96" height="96" viewBox="0 0 96 96" fill="none" xmlns="http://www.w3.org/2000/svg">
<g clip-path="url(#clip0_971_1881)">
<path d="M69.4196 80.5244L79.8836 79.9404L80.4956 69.4804L60.5836 49.5684L49.5156 60.6164L69.4196 80.5244Z" fill="white"/>
<path d="M40.9439 6.42844L34.7318 12.6404L26.6679 4.57644C25.2396 3.03518 23.5151 1.79786 21.5975 0.938524C19.68 0.0791834 17.6088 -0.384524 15.5079 -0.424856C13.407 -0.465188 11.3195 -0.0813144 9.37037 0.703797C7.42126 1.48891 5.65053 2.65912 4.16415 4.14443C2.67777 5.62973 1.50627 7.3996 0.719749 9.34815C-0.0667741 11.2967 -0.45216 13.3839 -0.41335 15.4848C-0.374541 17.5858 0.0876656 19.6573 0.945616 21.5755C1.80357 23.4936 3.03963 25.219 4.57985 26.6484L4.58785 26.6564L12.6559 34.7204L6.44385 40.9324L14.3119 48.8004L20.9639 42.1444L67.0919 88.2684L81.7039 87.4404L90.2479 95.9844L96.0479 90.1844L87.5039 81.6404L88.3319 67.0284L42.2079 20.9044L48.8638 14.2484L40.9439 6.42844ZM82.1439 82.2204L69.0799 82.9644L24.6319 38.5164L38.4439 24.7044L82.8919 69.1524L82.1439 82.2204Z" fill="white"/>
</g>
<defs>
<clipPath id="clip0_971_1881">
<rect width="96" height="96" fill="white"/>
</clipPath>
</defs>
</svg>
