<svg width="60" height="60" viewBox="0 0 60 60" fill="none" xmlns="http://www.w3.org/2000/svg">
<rect x="0.6" y="0.6" width="58.8" height="58.8" rx="29.4" stroke="white" stroke-width="1.2"/>
<path fill-rule="evenodd" clip-rule="evenodd" d="M25.0131 23.835V26.8864C25.0131 28.9215 27.8057 30.8017 28.6618 31.3296C29.9235 32.1074 30.3353 32.1074 31.5979 31.3296C32.4531 30.8017 35.2458 28.9215 35.2458 26.8872L35.2467 23.6142C35.2467 22.2865 34.8129 21.0045 33.9911 19.9056C33.4491 19.317 32.6528 18.9694 31.802 18.9527C30.367 18.9228 29.8787 19.5017 29.1413 20.3772C29.0085 20.5338 28.8712 20.6966 28.7225 20.8638C27.701 22.0058 26.4534 23.0044 25.0131 23.835ZM30.1294 32.6776C29.576 32.6776 29.0226 32.4444 28.2641 31.9772C27.0587 31.2337 24.2546 29.2497 24.2546 26.8872V23.6142C24.2546 23.4761 24.3285 23.3494 24.4491 23.2816C25.8991 22.4704 27.1476 21.4867 28.1577 20.357C28.3002 20.1977 28.4322 20.0402 28.5615 19.8871C29.3437 18.958 30.0203 18.1573 31.8179 18.1925C32.8816 18.2136 33.882 18.6571 34.5639 19.4067C34.5718 19.4155 34.5788 19.4243 34.5859 19.434C35.5141 20.6693 36.0042 22.1149 36.0042 23.6142V26.8864C36.0042 29.2497 33.2001 31.2337 31.9947 31.9772C31.2372 32.4444 30.6829 32.6784 30.1294 32.6784V32.6776Z" fill="white" stroke="white" stroke-width="0.3"/>
<path fill-rule="evenodd" clip-rule="evenodd" d="M24.5553 27.7339C22.8387 27.7339 22.002 25.9821 21.877 24.8454C21.8102 24.2374 21.9932 23.7235 22.3926 23.3971C22.7525 23.1024 23.4528 22.8384 24.7489 23.2546C24.9486 23.3188 25.0586 23.5326 24.9944 23.7323C24.931 23.9329 24.7172 24.0429 24.5175 23.9787C23.759 23.735 23.1757 23.7376 22.8721 23.9857C22.6117 24.1987 22.6091 24.5638 22.6311 24.7618C22.7129 25.5132 23.3165 27.0415 24.653 26.9711C24.8615 26.9596 25.041 27.1207 25.0524 27.3301C25.063 27.5395 24.9028 27.719 24.6943 27.7304C24.6468 27.7322 24.6011 27.7339 24.5553 27.7339Z" fill="white" stroke="white" stroke-width="0.3"/>
<mask id="mask0_1251_3106" style="mask-type:luminance" maskUnits="userSpaceOnUse" x="21" y="12" width="19" height="13">
<path d="M21.1809 12.6016H39.2003V24.6283H21.1809V12.6016Z" fill="white" stroke="white" stroke-width="0.3"/>
</mask>
<g mask="url(#mask0_1251_3106)">
<path fill-rule="evenodd" clip-rule="evenodd" d="M37.9126 24.4509C37.8677 24.4509 37.822 24.443 37.778 24.4254C37.5818 24.3506 37.4841 24.1315 37.558 23.9353C37.8088 23.2763 37.9953 22.6534 38.1141 22.0832C38.7801 18.8814 37.7296 17.1736 34.1002 15.5547C34.0492 15.5318 34.0052 15.4993 33.9691 15.4579C32.6282 13.9296 31.1465 13.2345 29.5628 13.392C26.7684 13.6692 24.1921 16.5164 22.8354 18.87C21.7506 20.7538 21.6678 22.7413 22.6322 23.8165C22.7729 23.9723 22.7589 24.2133 22.6031 24.3532C22.4483 24.4931 22.2081 24.4808 22.0682 24.3251C20.8839 23.0035 20.9288 20.6596 22.179 18.4899C23.6255 15.9797 26.4067 12.9415 29.488 12.6353C31.3067 12.455 32.9863 13.2152 34.4829 14.8939C37.7252 16.3536 39.7022 18.1731 38.8567 22.2381C38.73 22.8478 38.5311 23.5095 38.2663 24.2063C38.2091 24.3576 38.0648 24.4509 37.9126 24.4509Z" fill="white" stroke="white" stroke-width="0.3"/>
</g>
<path fill-rule="evenodd" clip-rule="evenodd" d="M34.2832 20.0435C34.2577 20.0435 34.2304 20.0409 34.2031 20.0356C33.9981 19.9908 33.8688 19.7884 33.9127 19.5834C34.4442 17.1207 34.4486 16.2241 33.9339 15.412C33.8221 15.2343 33.874 14.9993 34.0509 14.8876C34.2277 14.775 34.4618 14.8269 34.5744 15.0046C35.2123 16.0112 35.2308 17.0749 34.6536 19.7444C34.6149 19.9221 34.4583 20.0444 34.2832 20.0444V20.0435Z" fill="white" stroke="white" stroke-width="0.3"/>
<path fill-rule="evenodd" clip-rule="evenodd" d="M35.7031 27.7339C35.6582 27.7339 35.6116 27.7322 35.5641 27.7304C35.3564 27.719 35.1954 27.5395 35.2069 27.3301C35.2174 27.1207 35.3943 26.9596 35.6054 26.9711C36.9428 27.0424 37.5455 25.514 37.6274 24.7618C37.6502 24.5638 37.6476 24.1987 37.3863 23.9857C37.0836 23.7367 36.4994 23.735 35.7409 23.9787C35.5421 24.0429 35.3283 23.9329 35.2641 23.7323C35.2007 23.5326 35.3098 23.3188 35.5095 23.2546C36.8056 22.8384 37.5068 23.1024 37.8658 23.3971C38.2652 23.7235 38.4483 24.2374 38.3823 24.8454C38.2564 25.9821 37.4197 27.7339 35.7031 27.7339Z" fill="white" stroke="white" stroke-width="0.3"/>
<path fill-rule="evenodd" clip-rule="evenodd" d="M30.1296 37.8002C30.075 37.8002 30.0205 37.7887 29.9694 37.765C28.7323 37.186 27.0932 35.7897 26.2001 33.6041C26.1825 33.5584 26.1729 33.5091 26.1729 33.4598V30.2317C26.1729 30.0214 26.3427 29.8516 26.5521 29.8516C26.7615 29.8516 26.9313 30.0223 26.9313 30.2317V33.3842C27.7064 35.2336 29.057 36.4434 30.1296 36.9969C31.2021 36.4434 32.5527 35.2345 33.3287 33.3842V30.2317C33.3287 30.0214 33.4985 29.8516 33.7079 29.8516C33.9173 29.8516 34.0863 30.0223 34.0863 30.2317L34.0871 33.4598C34.0871 33.5091 34.0775 33.5584 34.059 33.6041C33.1668 35.7888 31.5276 37.186 30.2897 37.7641C30.2395 37.7878 30.1841 37.8002 30.1296 37.8002Z" fill="white" stroke="white" stroke-width="0.3"/>
<path fill-rule="evenodd" clip-rule="evenodd" d="M22.5604 37.6897C22.9748 38.1129 23.4165 38.5449 23.8459 38.9646C25.2483 40.3363 26.6904 41.745 27.5949 43.2002C27.6759 41.364 26.9253 39.855 26.2514 38.4974C25.4885 36.9629 24.7609 35.4989 25.6073 34.0383C24.1336 34.502 22.7584 35.7135 22.5604 37.6897ZM27.8078 44.813C27.6547 44.813 27.5157 44.7206 27.4568 44.5772C26.7635 42.8782 25.0108 41.1651 23.3162 39.5084C22.8419 39.0447 22.3519 38.5652 21.8961 38.0971C21.8213 38.0196 21.7826 37.9141 21.7896 37.8067C21.9832 34.8416 24.3764 33.2799 26.5171 33.0837C26.6772 33.0687 26.8294 33.1576 26.8963 33.3045C26.9641 33.4506 26.9306 33.6239 26.8154 33.7356C25.4067 35.0941 26.0455 36.3796 26.9297 38.1587C27.7533 39.8172 28.7792 41.8813 28.1774 44.5183C28.1404 44.6793 28.004 44.7989 27.8386 44.8121C27.829 44.813 27.8184 44.813 27.8078 44.813Z" fill="white" stroke="white" stroke-width="0.3"/>
<mask id="mask1_1251_3106" style="mask-type:luminance" maskUnits="userSpaceOnUse" x="15" y="34" width="31" height="14">
<path d="M15.3486 34.7656H44.9117V47.403H15.3486V34.7656Z" fill="white" stroke="white" stroke-width="0.3"/>
</mask>
<g mask="url(#mask1_1251_3106)">
<path fill-rule="evenodd" clip-rule="evenodd" d="M42.8176 47.4162H17.4418C16.8188 47.4162 16.2733 47.1664 15.8659 46.6939C15.4647 46.2302 15.2949 45.6565 15.3767 45.0336L15.9442 40.7056C16.1246 39.3224 16.9086 38.169 18.0937 37.5416L22.9039 34.9971C23.0887 34.8994 23.3174 34.9698 23.416 35.1555C23.5136 35.3411 23.4424 35.5708 23.2576 35.6693L18.4483 38.213C17.469 38.7321 16.847 39.6524 16.6948 40.805L16.129 45.1321C16.0762 45.5395 16.18 45.8976 16.4387 46.1968C16.7027 46.5012 17.0397 46.656 17.4418 46.656H42.8176C43.2197 46.656 43.5567 46.5021 43.8198 46.1968C44.0793 45.8976 44.1832 45.5395 44.1304 45.1321L43.5637 40.805C43.4124 39.6524 42.7895 38.7321 41.8111 38.2138L37.0018 35.6684C36.817 35.5708 36.7458 35.3411 36.8434 35.1555C36.9411 34.9698 37.1707 34.8994 37.3555 34.9971L42.1648 37.5416C43.3508 38.1681 44.1339 39.3225 44.3151 40.7065L44.8826 45.0336C44.9636 45.6556 44.7947 46.2302 44.3934 46.6947C43.9852 47.1664 43.4397 47.4162 42.8176 47.4162Z" fill="white" stroke="white" stroke-width="0.3"/>
</g>
<path fill-rule="evenodd" clip-rule="evenodd" d="M34.6506 34.0381C35.4979 35.4987 34.7711 36.9628 34.0083 38.4972C33.3334 39.8549 32.5838 41.3638 32.6647 43.2001C33.5692 41.7448 35.0104 40.3361 36.4129 38.9644C36.8423 38.5448 37.2848 38.1127 37.6993 37.6895C37.5013 35.7134 36.1261 34.5018 34.6506 34.0381ZM32.4518 44.8128C32.4412 44.8128 32.4307 44.8128 32.4201 44.812C32.2556 44.7988 32.1183 44.6791 32.0814 44.5181C31.4796 41.8803 32.5055 39.817 33.329 38.1585C34.2133 36.3794 34.8512 35.0948 33.4443 33.7355C33.3281 33.6237 33.2956 33.4504 33.3625 33.3043C33.4293 33.1574 33.5807 33.0694 33.7417 33.0835C35.8824 33.2797 38.2756 34.8415 38.4691 37.8066C38.477 37.9139 38.4375 38.0195 38.3627 38.0969C37.9078 38.565 37.4177 39.0445 36.9435 39.5082C35.248 41.165 33.4953 42.8789 32.802 44.577C32.7439 44.7205 32.604 44.8128 32.4509 44.8128H32.4518Z" fill="white" stroke="white" stroke-width="0.3"/>
<mask id="mask2_1251_3106" style="mask-type:luminance" maskUnits="userSpaceOnUse" x="26" y="43" width="3" height="5">
<path d="M26.5857 44H28.3876V47.4024H26.5857V44Z" fill="white" stroke="white" stroke-width="0.3"/>
</mask>
<g mask="url(#mask2_1251_3106)">
<path fill-rule="evenodd" clip-rule="evenodd" d="M27.1431 47.4145C27.0991 47.4145 27.0542 47.4066 27.0094 47.3899C26.814 47.316 26.7146 47.0978 26.7876 46.9007C27.1466 45.9408 27.3631 45.0987 27.4299 44.394C27.4493 44.1846 27.6349 44.0323 27.8435 44.0526C28.0529 44.0719 28.2051 44.2576 28.1849 44.467C28.111 45.2369 27.8804 46.1458 27.4977 47.1673C27.4414 47.3204 27.2962 47.4145 27.1431 47.4145Z" fill="white" stroke="white" stroke-width="0.3"/>
</g>
<mask id="mask3_1251_3106" style="mask-type:luminance" maskUnits="userSpaceOnUse" x="31" y="43" width="3" height="5">
<path d="M31.9919 44H33.5686V47.4024H31.9919V44Z" fill="white" stroke="white" stroke-width="0.3"/>
</mask>
<g mask="url(#mask3_1251_3106)">
<path fill-rule="evenodd" clip-rule="evenodd" d="M33.1149 47.4145C32.9618 47.4145 32.8175 47.3204 32.7604 47.1673C32.3785 46.1458 32.1471 45.2369 32.0732 44.467C32.0538 44.2576 32.2061 44.0719 32.4146 44.0526C32.6222 44.0323 32.8088 44.1854 32.8281 44.394C32.8959 45.0978 33.1123 45.9416 33.4704 46.9007C33.5443 47.0978 33.4449 47.316 33.2487 47.3899C33.2047 47.4066 33.1589 47.4145 33.1149 47.4145Z" fill="white" stroke="white" stroke-width="0.3"/>
</g>
<path fill-rule="evenodd" clip-rule="evenodd" d="M30.1296 40.9047C30.0856 40.9047 30.0407 40.8968 29.9985 40.8809C28.435 40.3029 26.9049 39.1397 25.9036 37.7689C25.7813 37.5991 25.8183 37.3615 25.9872 37.2374C26.1561 37.1134 26.3928 37.1503 26.516 37.3202C27.4046 38.537 28.7473 39.5752 30.1296 40.1181C31.5127 39.5743 32.8553 38.537 33.7431 37.3202C33.8663 37.1503 34.103 37.1134 34.2719 37.2374C34.4417 37.3615 34.4787 37.5991 34.3555 37.7689C33.3551 39.1397 31.8242 40.3037 30.2615 40.8809C30.2184 40.8968 30.1744 40.9047 30.1296 40.9047Z" fill="white" stroke="white" stroke-width="0.3"/>
<path fill-rule="evenodd" clip-rule="evenodd" d="M42.0548 45.2142H41.0588C40.8494 45.2142 40.6796 45.0444 40.6796 44.8341C40.6796 44.6247 40.8494 44.454 41.0588 44.454H41.6756V43.3568C41.6756 42.5429 41.0139 41.8804 40.2009 41.8804C39.3888 41.8804 38.7272 42.5429 38.7272 43.3577V44.454H39.3431C39.5525 44.454 39.7223 44.6247 39.7223 44.8341C39.7223 45.0435 39.5525 45.2142 39.3431 45.2142H38.348C38.1394 45.2142 37.9688 45.0444 37.9688 44.8341V43.3568C37.9688 42.1241 38.9709 41.1211 40.2009 41.1211C41.4319 41.1202 42.4331 42.1241 42.4331 43.3577L42.434 44.8341C42.434 45.0435 42.2633 45.2142 42.0548 45.2142Z" fill="white" stroke="white" stroke-width="0.3"/>
<path fill-rule="evenodd" clip-rule="evenodd" d="M40.2012 41.8783C39.9918 41.8783 39.822 41.7085 39.822 41.4982V36.93C39.822 36.7206 39.9918 36.5508 40.2012 36.5508C40.4106 36.5499 40.5805 36.7206 40.5805 36.9309V41.4982C40.5805 41.7085 40.4106 41.8783 40.2012 41.8783Z" fill="white" stroke="white" stroke-width="0.3"/>
<path fill-rule="evenodd" clip-rule="evenodd" d="M20.0577 41.8783C19.8483 41.8783 19.6785 41.7085 19.6785 41.4982V36.93C19.6785 36.7206 19.8483 36.5508 20.0577 36.5508C20.2671 36.5499 20.4369 36.7206 20.4369 36.9309V41.4982C20.4369 41.7085 20.2671 41.8783 20.0577 41.8783Z" fill="white" stroke="white" stroke-width="0.3"/>
<path fill-rule="evenodd" clip-rule="evenodd" d="M20.057 41.8804C19.2484 41.8804 18.5912 42.5394 18.5912 43.3498C18.5912 44.1601 19.2484 44.8191 20.057 44.8191C20.8665 44.8191 21.5229 44.1601 21.5229 43.3498C21.5229 42.5394 20.8656 41.8804 20.057 41.8804ZM20.057 45.5793C18.8305 45.5793 17.8328 44.5798 17.8328 43.3498C17.8328 42.1206 18.8305 41.1211 20.057 41.1211C21.2836 41.1202 22.2813 42.1206 22.2813 43.3498C22.2813 44.5798 21.2836 45.5793 20.057 45.5793Z" fill="white" stroke="white" stroke-width="0.3"/>
</svg>
