<svg width="60" height="60" viewBox="0 0 60 60" fill="none" xmlns="http://www.w3.org/2000/svg">
<rect x="0.6" y="0.6" width="58.8" height="58.8" rx="29.4" stroke="white" stroke-width="1.2"/>
<g clip-path="url(#clip0_1251_3140)">
<path d="M46.1504 45.2852L44.8818 46.5537L37.3271 38.999L36.3779 39.7148L37.7178 42.126C35.5073 43.3258 33.0276 43.872 30.3887 43.8721C27.7787 43.8721 25.2948 43.199 23.0605 42.0967C23.8865 40.5864 25.6956 37.5847 27.373 34.667C28.2613 35.0788 29.3101 35.4629 30.3887 35.4629C30.8492 35.4629 31.6076 35.4693 32.207 35.2695L33.1172 34.9658L32.4453 34.2803L24.6289 26.3008L23.5996 25.25V26.7207C23.5996 26.9135 23.5668 27.1524 23.5244 27.4492C23.511 27.5433 23.4977 27.645 23.4844 27.749H14.8779C14.9894 24.8323 15.9073 22.0662 17.3799 19.71L17.6328 19.3047L13.6475 15.3193L14.916 14.0508L46.1504 45.2852ZM38.9023 15.0195C43.1714 17.7965 46.0248 22.4163 46.2246 27.749H37.6406C37.4621 25.5524 36.3102 23.646 34.6123 22.4551L38.9023 15.0195ZM22.1855 15.0488C22.3591 15.3717 22.5722 15.7523 22.8125 16.1787L21.8838 15.25L22.1855 15.0488Z" stroke="white" stroke-width="1.2"/>
</g>
<defs>
<clipPath id="clip0_1251_3140">
<rect width="34.8" height="34.8" fill="white" transform="translate(12.3999 12.6016)"/>
</clipPath>
</defs>
</svg>
