<svg width="60" height="60" viewBox="0 0 60 60" fill="none" xmlns="http://www.w3.org/2000/svg">
<rect x="0.6" y="0.6" width="58.8" height="58.8" rx="29.4" stroke="white" stroke-width="1.2"/>
<mask id="mask0_1251_3143" style="mask-type:luminance" maskUnits="userSpaceOnUse" x="17" y="16" width="27" height="32">
<path d="M43.1365 16.6299V47.4336H17.3699V16.6299H43.1365Z" fill="white" stroke="white" stroke-width="0.06"/>
</mask>
<g mask="url(#mask0_1251_3143)">
<path d="M23.5393 16.7705C23.8564 16.7705 24.1135 17.0276 24.1135 17.3447C24.1134 17.6618 23.8564 17.918 23.5393 17.918H19.304C18.8708 17.9181 18.5179 18.2709 18.5178 18.7041V45.5C18.5178 45.9333 18.8707 46.286 19.304 46.2861H41.2024C41.6356 46.286 41.9885 45.9333 41.9885 45.5V18.7041C41.9884 18.2709 41.6356 17.9181 41.2024 17.918H36.967C36.65 17.918 36.3929 17.6618 36.3928 17.3447C36.3928 17.0276 36.6499 16.7705 36.967 16.7705H41.2024C42.268 16.7706 43.1349 17.6385 43.135 18.7041V45.5C43.135 46.5657 42.2681 47.4335 41.2024 47.4336H19.304C18.2383 47.4334 17.3713 46.5657 17.3713 45.5V18.7041C17.3715 17.6385 18.2383 16.7707 19.304 16.7705H23.5393Z" fill="white" stroke="white" stroke-width="0.06"/>
</g>
<path d="M23.5391 19.2861C23.8562 19.2861 24.1133 19.5432 24.1133 19.8604C24.1132 20.1774 23.8561 20.4336 23.5391 20.4336H21.2646V43.7656H39.2412V20.4336H36.9668C36.6498 20.4336 36.3937 20.1774 36.3936 19.8604C36.3936 19.5433 36.6497 19.2862 36.9668 19.2861H39.8145C40.1316 19.2861 40.3887 19.5432 40.3887 19.8604V44.3389C40.3887 44.656 40.1316 44.9131 39.8145 44.9131H20.6914C20.3743 44.9131 20.1172 44.656 20.1172 44.3389V19.8604C20.1172 19.5432 20.3743 19.2861 20.6914 19.2861H23.5391Z" fill="white" stroke="white" stroke-width="0.06"/>
<mask id="mask1_1251_3143" style="mask-type:luminance" maskUnits="userSpaceOnUse" x="22" y="12" width="16" height="11">
<path d="M37.5522 12.5713V22.2832H22.8032V12.5713H37.5522Z" fill="white" stroke="white" stroke-width="0.06"/>
</mask>
<g mask="url(#mask1_1251_3143)">
<path d="M30.189 12.5723C30.964 12.5557 31.694 12.8468 32.2417 13.3945C32.7692 13.9222 33.0602 14.6226 33.064 15.3682H35.5679C36.6555 15.3682 37.5404 16.2533 37.5405 17.3408V20.1387C37.5405 21.2263 36.6555 22.1113 35.5679 22.1113H24.938C23.8505 22.1112 22.9653 21.2262 22.9653 20.1387V17.3408C22.9654 16.2534 23.8506 15.3683 24.938 15.3682H27.4438C27.4742 13.8549 28.6931 12.6053 30.189 12.5723ZM30.2144 13.7188C29.3188 13.7393 28.5884 14.5052 28.5884 15.4277C28.5882 16.0279 28.1007 16.5155 27.5005 16.5156H24.938C24.483 16.5158 24.1129 16.8867 24.1128 17.3408V20.1387C24.1128 20.5938 24.4829 20.9637 24.938 20.9639H35.5679C36.0231 20.9639 36.3931 20.5939 36.3931 20.1387V17.3408C36.393 16.8866 36.023 16.5156 35.5679 16.5156H33.0063C32.4061 16.5156 31.9176 16.028 31.9175 15.4277V15.3828C31.9175 14.9381 31.7442 14.5201 31.4302 14.2061C31.1064 13.8814 30.6743 13.7089 30.2144 13.7188Z" fill="white" stroke="white" stroke-width="0.06"/>
</g>
<path d="M36.4082 31.376C36.7242 31.3762 36.9814 31.6332 36.9814 31.9502C36.9813 32.2671 36.7242 32.5232 36.4082 32.5234H30.2529C29.9368 32.5234 29.6798 32.2672 29.6797 31.9502C29.6797 31.6331 29.9367 31.376 30.2529 31.376H36.4082Z" fill="white" stroke="white" stroke-width="0.06"/>
<path d="M36.4082 34.1729C36.7242 34.173 36.9814 34.43 36.9814 34.7471C36.9813 35.064 36.7242 35.3201 36.4082 35.3203H30.2529C29.9368 35.3203 29.6798 35.0641 29.6797 34.7471C29.6797 34.43 29.9367 34.1729 30.2529 34.1729H36.4082Z" fill="white" stroke="white" stroke-width="0.06"/>
<path d="M27.4563 31.0947C27.7732 31.095 28.0295 31.352 28.0295 31.6689V35.0264C28.0293 35.3431 27.773 35.5993 27.4563 35.5996H24.0989C23.7829 35.5996 23.5249 35.3433 23.5247 35.0264V31.6689C23.5247 31.3518 23.7827 31.0947 24.0989 31.0947H27.4563ZM24.6721 34.4521H26.8821V32.2422H24.6721V34.4521Z" fill="white" stroke="white" stroke-width="0.06"/>
<path d="M36.4082 38.0908C36.7243 38.091 36.9814 38.3489 36.9814 38.665C36.9813 38.982 36.7242 39.2381 36.4082 39.2383H30.2529C29.9368 39.2383 29.6798 38.982 29.6797 38.665C29.6797 38.3489 29.9366 38.0908 30.2529 38.0908H36.4082Z" fill="white" stroke="white" stroke-width="0.06"/>
<path d="M36.4082 40.8877C36.7242 40.8879 36.9814 41.1449 36.9814 41.4619C36.9813 41.7789 36.7242 42.035 36.4082 42.0352H30.2529C29.9368 42.0352 29.6798 41.7789 29.6797 41.4619C29.6797 41.1448 29.9367 40.8877 30.2529 40.8877H36.4082Z" fill="white" stroke="white" stroke-width="0.06"/>
<path d="M27.4563 37.8096C27.7732 37.8098 28.0295 38.0668 28.0295 38.3838V41.7412C28.0293 42.058 27.773 42.3142 27.4563 42.3145H24.0989C23.7829 42.3145 23.5249 42.0581 23.5247 41.7412V38.3838C23.5247 38.0666 23.7827 37.8096 24.0989 37.8096H27.4563ZM24.6721 41.167H26.8821V38.957H24.6721V41.167Z" fill="white" stroke="white" stroke-width="0.06"/>
<path d="M31.2402 23.4814C32.5002 23.4816 33.5263 24.4998 33.5391 25.7568L33.5439 25.9766C33.5379 26.2841 33.4801 26.8362 33.2002 27.4658C32.8265 28.3061 32.0581 29.2833 30.4932 30.0039C30.4172 30.0395 30.3354 30.0566 30.2529 30.0566C30.1713 30.0566 30.0888 30.0395 30.0127 30.0039V30.0029C28.4481 29.2824 27.6793 28.306 27.3057 27.4658C26.9326 26.6269 26.9543 25.926 26.9668 25.7568C26.9796 24.4997 28.0065 23.4814 29.2666 23.4814C29.6111 23.4815 29.9464 23.5588 30.252 23.7041C30.5587 23.5584 30.8951 23.4814 31.2402 23.4814ZM31.2402 24.6289C31.0031 24.6289 30.7745 24.7001 30.5811 24.835C30.4088 24.9559 30.1867 24.9714 30.002 24.8809L29.9248 24.835C29.7315 24.7002 29.5044 24.629 29.2666 24.6289C28.6311 24.6289 28.1133 25.1467 28.1133 25.7822C28.1133 25.8023 28.1123 25.8227 28.1104 25.8428C28.1072 25.8797 28.0752 26.3385 28.3271 26.9336C28.579 27.5283 29.1154 28.2607 30.2529 28.8447C31.3905 28.2607 31.9269 27.5279 32.1787 26.9326C32.4317 26.3343 32.3979 25.8728 32.3945 25.8369C32.3926 25.8172 32.3926 25.8011 32.3926 25.7822C32.3925 25.1468 31.8756 24.6291 31.2402 24.6289Z" fill="white" stroke="white" stroke-width="0.06"/>
</svg>
