<svg width="60" height="60" viewBox="0 0 60 60" fill="none" xmlns="http://www.w3.org/2000/svg">
<rect x="0.6" y="0.6" width="58.8" height="58.8" rx="29.4" stroke="white" stroke-width="1.2"/>
<g clip-path="url(#clip0_1251_3164)">
<path fill-rule="evenodd" clip-rule="evenodd" d="M15.4775 14.8684C24.9219 11.8453 35.0796 11.846 44.5235 14.8704C46.9239 15.6399 47.9844 18.2877 47.0796 20.5289L40.9291 35.7565L40.8614 35.9241C40.642 36.4731 40.3964 37.0857 40.0223 37.5548C39.536 38.1654 38.8777 38.5044 37.9805 38.6008C37.853 38.6171 37.7234 38.6079 37.5995 38.5738C37.4756 38.5396 37.3597 38.4812 37.2587 38.4019C37.1577 38.3226 37.0736 38.224 37.0113 38.1119C36.9491 37.9998 36.9099 37.8764 36.8961 37.749C36.8822 37.6217 36.894 37.4928 36.9308 37.37C36.9676 37.2473 37.0286 37.133 37.1102 37.034C37.1919 36.9351 37.2925 36.8533 37.4062 36.7935C37.52 36.7338 37.6446 36.6972 37.7727 36.686C38.2338 36.6359 38.3895 36.5059 38.5084 36.3566C38.6979 36.1187 38.839 35.7691 39.1184 35.0785L45.2862 19.8095C45.8102 18.5092 45.1673 17.1001 43.9318 16.7042C34.8726 13.803 25.1288 13.8023 16.0692 16.7023C14.8337 17.0982 14.1898 18.5073 14.7148 19.8075L20.8826 35.0852C21.1591 35.771 21.2993 36.1177 21.4878 36.3556C21.6067 36.5049 21.7614 36.6349 22.2225 36.6841C22.4775 36.7118 22.711 36.8393 22.8717 37.0385C23.0323 37.2378 23.1069 37.4924 23.0791 37.7464C23.0513 38.0005 22.9233 38.2331 22.7233 38.3931C22.5233 38.5532 22.2677 38.6275 22.0128 38.5998C21.1166 38.5025 20.4592 38.1625 19.9729 37.5519C19.6007 37.0838 19.3561 36.4731 19.1367 35.9241L19.069 35.7546L12.9205 20.527C12.0156 18.2848 13.0771 15.637 15.4775 14.8684ZM24.8202 18.4437C27.2933 17.4228 30.0148 17.1555 32.6404 17.6757C35.266 18.1959 37.6778 19.4801 39.5708 21.3659C39.7522 21.5467 39.8541 21.7918 39.8541 22.0474C39.8541 22.303 39.7522 22.5481 39.5708 22.7288C39.3894 22.9095 39.1434 23.0111 38.8869 23.0111C38.6303 23.0111 38.3843 22.9095 38.2029 22.7288C36.0273 20.5614 33.0767 19.3438 30 19.3438C26.9234 19.3438 23.9728 20.5614 21.7972 22.7288C21.6158 22.9095 21.3697 23.0111 21.1132 23.0111C20.8567 23.0111 20.6106 22.9095 20.4292 22.7288C20.2478 22.5481 20.1459 22.303 20.1459 22.0474C20.1459 21.7918 20.2478 21.5467 20.4292 21.3659C21.6861 20.1141 23.1782 19.1211 24.8202 18.4437ZM24.2092 23.1892C25.8854 21.9398 27.9234 21.2661 30.0168 21.2696C32.1102 21.2731 34.1459 21.9535 35.8179 23.2085C36.0228 23.3622 36.1579 23.5908 36.1936 23.8439C36.2294 24.0969 36.1627 24.3538 36.0084 24.5579C35.854 24.762 35.6246 24.8966 35.3706 24.9322C35.1166 24.9678 34.8588 24.9014 34.654 24.7476C33.3165 23.7435 31.688 23.1991 30.0134 23.1962C28.3388 23.1932 26.7084 23.7319 25.3674 24.7312C25.266 24.81 25.1498 24.8678 25.0257 24.9014C24.9016 24.9349 24.7721 24.9434 24.6446 24.9264C24.5172 24.9094 24.3944 24.8673 24.2835 24.8024C24.1726 24.7376 24.0758 24.6514 23.9988 24.5488C23.9218 24.4462 23.866 24.3294 23.8349 24.2051C23.8037 24.0808 23.7978 23.9516 23.8174 23.825C23.837 23.6984 23.8817 23.5769 23.949 23.4677C24.0163 23.3586 24.1047 23.2639 24.2092 23.1892ZM25.1663 29.0356V30.777C25.2133 30.7577 25.2614 30.7394 25.3103 30.7221C26.3776 30.3224 27.9428 29.9381 30 29.9381C32.0573 29.9381 33.6224 30.3233 34.6897 30.7221L34.8338 30.777V29.0366C34.5669 28.8994 34.2922 28.7778 34.0111 28.6725C33.1449 28.3498 31.8098 28.0118 30 28.0118C28.1903 28.0118 26.8552 28.3489 25.989 28.6725C25.639 28.8035 25.3654 28.9316 25.1663 29.0356ZM36.3806 27.7238C36.5006 27.8135 36.5981 27.9298 36.6652 28.0636C36.7323 28.1973 36.7673 28.3448 36.7673 28.4943V32.6253C36.7671 33.5759 36.4845 34.5052 35.9552 35.2962L35.321 36.2449C35.0035 36.7192 34.834 37.2765 34.8338 37.8466V41.4758C34.834 42.586 34.4492 43.6622 33.7445 44.5222C33.0399 45.3822 32.0586 45.9733 30.9668 46.1953V46.3118C30.9667 46.4806 31.0115 46.6464 31.0967 46.7923C31.1818 46.9383 31.3042 47.0591 31.4515 47.1426C31.5987 47.2261 31.7655 47.2692 31.935 47.2676C32.1044 47.266 32.2703 47.2197 32.4159 47.1334L34.4635 45.9227C35.4222 45.3554 36.5664 45.1864 37.649 45.4522C38.7317 45.718 39.6661 46.3973 40.2505 47.3434L40.4912 47.7335C40.5577 47.8412 40.6023 47.961 40.6223 48.0859C40.6424 48.2108 40.6376 48.3385 40.6081 48.4616C40.5787 48.5846 40.5252 48.7007 40.4507 48.8032C40.3763 48.9056 40.2822 48.9925 40.1741 49.0588C40.0659 49.1251 39.9457 49.1695 39.8203 49.1895C39.6949 49.2094 39.5668 49.2046 39.4433 49.1753C39.3198 49.146 39.2032 49.0927 39.1004 49.0185C38.9975 48.9443 38.9104 48.8506 38.8438 48.7429L38.6031 48.3537C38.2848 47.8383 37.7758 47.4682 37.186 47.3233C36.5962 47.1785 35.9729 47.2704 35.4506 47.5794L33.403 48.7901C31.4743 49.9304 29.0333 48.5464 29.0333 46.3118V46.1953C27.9415 45.9733 26.9602 45.3822 26.2555 44.5222C25.5508 43.6622 25.1661 42.586 25.1663 41.4758V37.8466C25.1662 37.2762 24.9967 36.7185 24.679 36.2439L24.0449 35.2952C23.5157 34.5045 23.2332 33.5756 23.2328 32.6253V28.4933C23.2328 28.3438 23.2677 28.1963 23.3349 28.0626C23.402 27.9289 23.4994 27.8125 23.6195 27.7228L23.6224 27.7209L23.6272 27.717L23.6369 27.7103C23.6767 27.6805 23.7177 27.6522 23.7597 27.6255C23.867 27.5561 23.9766 27.4903 24.0884 27.4281C24.4806 27.2107 24.8892 27.024 25.3103 26.8694C26.3776 26.4697 27.9428 26.0854 30 26.0854C32.0573 26.0854 33.6224 26.4707 34.6897 26.8694C35.2224 27.0679 35.6304 27.2701 35.9117 27.4281C36.0664 27.5152 36.2171 27.6094 36.3632 27.7103L36.3728 27.717L36.3777 27.7209L36.3806 27.7238ZM34.8222 32.8844C34.5586 32.7496 34.2875 32.6299 34.0101 32.5261C33.1458 32.2025 31.8107 31.8644 30 31.8644C28.1893 31.8644 26.8552 32.2015 25.989 32.5251C25.712 32.629 25.4412 32.7486 25.1779 32.8834C25.2214 33.3638 25.3849 33.8257 25.6535 34.227L26.2877 35.1758C26.8169 35.9664 27.0994 36.8954 27.0998 37.8456V41.4748C27.0998 42.2412 27.4053 42.9761 27.9492 43.518C28.4931 44.0599 29.2308 44.3643 30 44.3643C30.7692 44.3643 31.5069 44.0599 32.0508 43.518C32.5947 42.9761 32.9003 42.2412 32.9003 41.4748V37.8456C32.9004 36.895 33.183 35.9657 33.7123 35.1748L34.3465 34.2261C34.6152 33.8248 34.7787 33.3629 34.8222 32.8825M30 36.6802C30.2564 36.6802 30.5023 36.7817 30.6836 36.9623C30.8649 37.1429 30.9668 37.3879 30.9668 37.6434V41.496C30.9668 41.7515 30.8649 41.9965 30.6836 42.1771C30.5023 42.3577 30.2564 42.4592 30 42.4592C29.7436 42.4592 29.4977 42.3577 29.3164 42.1771C29.1351 41.9965 29.0333 41.7515 29.0333 41.496V37.6434C29.0333 37.3879 29.1351 37.1429 29.3164 36.9623C29.4977 36.7817 29.7436 36.6802 30 36.6802Z" fill="white"/>
</g>
<defs>
<clipPath id="clip0_1251_3164">
<rect width="34.8" height="34.8" fill="white" transform="translate(12.6001 12.6016)"/>
</clipPath>
</defs>
</svg>
