<svg width="60" height="60" viewBox="0 0 60 60" fill="none" xmlns="http://www.w3.org/2000/svg">
<rect x="0.6" y="0.6" width="58.8" height="58.8" rx="29.4" stroke="white" stroke-width="1.2"/>
<path d="M12.7998 24.3281V19.8504C12.7998 19.0299 13.0774 18.3441 13.6326 17.7931C14.1878 17.2421 14.8785 16.966 15.7048 16.9648H42.272C43.0994 16.9648 43.7901 17.2409 44.3441 17.7931C44.8981 18.3453 45.1757 19.0329 45.1769 19.8558V29.4875H43.3782V19.8558C43.3782 19.5803 43.2631 19.3274 43.0328 19.0973C42.8026 18.8671 42.549 18.7526 42.272 18.7538H15.7048C15.4289 18.7538 15.1753 18.8683 14.9439 19.0973C14.7125 19.3263 14.5973 19.5791 14.5985 19.8558V24.3281H12.7998ZM15.7066 42.0101C14.8779 42.0101 14.1866 41.7346 13.6326 41.1836C13.0786 40.6326 12.801 39.9462 12.7998 39.1245V34.6486H14.5985V39.1209C14.5985 39.3952 14.7137 39.6475 14.9439 39.8777C15.1741 40.1078 15.4277 40.2223 15.7048 40.2211H27.1555V42.0101H15.7066ZM39.7807 46.7579L37.7985 45.0853C35.2995 42.9409 33.7022 41.4501 33.0067 40.6129C32.3112 39.7745 31.9635 38.9337 31.9635 38.0905C31.9635 37.0398 32.3292 36.1346 33.0607 35.3749C33.7922 34.6152 34.6831 34.2353 35.7336 34.2353C36.2744 34.2353 36.79 34.357 37.2805 34.6003C37.7686 34.8436 38.256 35.2049 38.7429 35.6844L39.7807 36.6128L40.7502 35.7184C41.2299 35.2389 41.7234 34.8716 42.2306 34.6164C42.7378 34.3611 43.2703 34.2341 43.8279 34.2353C44.8555 34.2353 45.7411 34.6152 46.4846 35.3749C47.2281 36.1346 47.5998 37.0404 47.5998 38.0923C47.5998 38.9343 47.2443 39.7739 46.5332 40.6111C45.8221 41.4496 44.217 42.9409 41.718 45.0853L39.7807 46.7579ZM39.7807 44.3572L41.1783 43.1908C43.1114 41.5533 44.3645 40.4203 44.9377 39.7918C45.5133 39.1645 45.8011 38.5968 45.8011 38.0887C45.8011 37.5377 45.6032 37.0559 45.2075 36.6432C44.8142 36.2306 44.3543 36.0243 43.8279 36.0243C43.5005 36.0243 43.2037 36.0875 42.9375 36.2139C42.6713 36.3403 42.3799 36.558 42.0633 36.8669L39.7807 39.0369L37.4532 36.8669C37.1366 36.5592 36.8434 36.3415 36.5736 36.2139C36.3038 36.0863 36.0238 36.0231 35.7336 36.0243C35.182 36.0243 34.7155 36.2306 34.3342 36.6432C33.9529 37.0559 33.7622 37.5377 33.7622 38.0887C33.7622 38.5849 34.0764 39.1782 34.7047 39.8687C35.3331 40.5604 36.579 41.6905 38.4425 43.2588L39.7807 44.3572ZM19.9947 37.5377C19.7969 37.5377 19.6302 37.5019 19.4947 37.4304C19.3604 37.3576 19.2524 37.2372 19.1709 37.069L15.8253 30.3819H12.7998V28.593H16.3973C16.5603 28.593 16.7126 28.6389 16.8541 28.7307C16.9944 28.8214 17.1018 28.943 17.1761 29.0957L19.9947 34.6575L26.3658 21.9381C26.4426 21.801 26.5571 21.6978 26.7094 21.6286C26.8617 21.5595 27.0218 21.5255 27.1896 21.5267C27.3575 21.5278 27.5134 21.5624 27.6573 21.6304C27.8012 21.6984 27.9085 21.8016 27.9793 21.9399L31.3123 28.593H37.0826V30.3819H30.7871C30.5892 30.3819 30.4225 30.3462 30.287 30.2746C30.1527 30.2019 30.0448 30.082 29.9633 29.915L27.1555 24.3603L20.7736 37.0708C20.692 37.2378 20.5823 37.357 20.4444 37.4286C20.3053 37.5013 20.1554 37.5377 19.9947 37.5377Z" fill="white"/>
</svg>
