<svg width="60" height="60" viewBox="0 0 60 60" fill="none" xmlns="http://www.w3.org/2000/svg">
<rect x="0.6" y="0.6" width="58.8" height="58.8" rx="29.4" stroke="white" stroke-width="1.2"/>
<path fill-rule="evenodd" clip-rule="evenodd" d="M14.6862 39.9162C14.4799 39.9162 14.2971 39.7613 14.2971 39.5619V33.8934C14.2971 31.4139 16.1974 30.3509 18.2121 29.2217C18.8758 28.8447 19.563 28.4686 20.2043 28.0037C20.3871 27.8931 20.6168 27.9375 20.7311 28.0925C20.868 28.2692 20.8221 28.4913 20.6618 28.6236C19.9755 29.0885 19.2883 29.4655 18.6012 29.8633C16.7009 30.9263 15.0752 31.8344 15.0752 33.8934V39.5619C15.0752 39.7613 14.8924 39.9162 14.6862 39.9162ZM34.3079 31.9005C34.1936 31.9005 34.0792 31.8561 34.0098 31.7682C33.3695 31.0151 32.3617 30.4614 31.3089 29.8633C30.6217 29.4872 29.9345 29.0885 29.2483 28.6018C29.088 28.4913 29.042 28.2692 29.1564 28.0925C29.2942 27.9375 29.523 27.8931 29.7058 28.0255C30.347 28.4686 31.0342 28.8673 31.698 29.2434C32.8201 29.8633 33.8504 30.4397 34.6051 31.2807C34.7204 31.4356 34.7204 31.6794 34.5601 31.8117C34.4683 31.8561 34.3998 31.9005 34.3079 31.9005ZM27.6911 27.4282C27.6227 27.4282 27.5308 27.4056 27.4849 27.3612L27.4164 27.3177C27.2336 27.2062 27.1877 26.9633 27.302 26.8084C27.4164 26.6307 27.6452 26.5863 27.8289 26.6969L27.8974 26.7413C28.0802 26.8519 28.1261 27.0957 28.0117 27.2506C27.9433 27.3612 27.8055 27.4282 27.6911 27.4282ZM22.2189 27.4282C22.1046 27.4282 21.9668 27.3612 21.8983 27.2506C21.784 27.0957 21.8299 26.8519 22.0127 26.7413L22.0821 26.6969C22.2424 26.5863 22.4936 26.6307 22.608 26.8084C22.7224 26.9633 22.6774 27.2062 22.4936 27.3177L22.4252 27.3612C22.3568 27.4056 22.2874 27.4282 22.2189 27.4282Z" fill="white" stroke="white" stroke-width="0.3"/>
<path fill-rule="evenodd" clip-rule="evenodd" d="M22.2882 27.3855C22.0829 27.3855 21.8992 27.2079 21.8992 27.0094V24.9278C21.8992 24.7284 22.0829 24.5508 22.2882 24.5508C22.4945 24.5508 22.6782 24.7284 22.6782 24.9278V27.0094C22.6782 27.2079 22.4945 27.3855 22.2882 27.3855Z" fill="white" stroke="white" stroke-width="0.3"/>
<path fill-rule="evenodd" clip-rule="evenodd" d="M27.6232 27.3855C27.4169 27.3855 27.2341 27.2079 27.2341 27.0094V24.9278C27.2341 24.7284 27.4169 24.5508 27.6232 24.5508C27.8294 24.5508 28.0123 24.7284 28.0123 24.9278V27.0094C28.0123 27.2079 27.8294 27.3855 27.6232 27.3855Z" fill="white" stroke="white" stroke-width="0.3"/>
<path fill-rule="evenodd" clip-rule="evenodd" d="M25.2415 26.1212H24.6462C22.3334 26.1212 20.4565 24.306 20.4565 22.0694V18.2388C20.4565 17.2201 21.0744 16.4453 21.8984 16.4453C22.2425 16.4453 22.7459 16.5785 23.2953 17.1757C23.6384 17.4639 24.1878 17.5971 24.9209 17.5971C25.7684 17.5971 26.5231 17.4195 26.569 17.3978C26.9131 17.309 27.2337 17.2646 27.5309 17.2646C28.2181 17.2646 28.6756 17.4857 28.9502 17.685C29.4537 18.0176 29.4537 18.3493 29.4312 18.7481C29.4312 18.8369 29.4312 18.9248 29.4312 19.0363V22.0694C29.4312 24.306 27.5534 26.1212 25.2415 26.1212ZM21.8984 17.1757C21.5318 17.1757 21.2347 17.6406 21.2347 18.2388V22.0694C21.2347 23.8846 22.7684 25.3681 24.6462 25.3681H25.2415C27.1184 25.3681 28.6531 23.8846 28.6531 22.0694V19.0363C28.6531 18.903 28.6756 18.7925 28.6756 18.6819C28.699 18.4164 28.699 18.4164 28.4927 18.2832C28.309 18.1499 28.0118 17.995 27.5309 17.995C27.3021 17.995 27.0499 18.0394 26.7987 18.1055C26.7753 18.1055 26.7753 18.1055 26.7753 18.1055C26.7528 18.1282 25.8828 18.3276 24.9209 18.3276C23.9825 18.3276 23.2493 18.1282 22.7684 17.7295C22.7459 17.7077 22.7459 17.7077 22.7225 17.685C22.4478 17.3534 22.1506 17.1757 21.8984 17.1757Z" fill="white" stroke="white" stroke-width="0.3"/>
<path fill-rule="evenodd" clip-rule="evenodd" d="M18.7392 39.9173C18.5329 39.9173 18.3501 39.7624 18.3501 39.563V34.7364C18.3501 34.537 18.5329 34.3594 18.7392 34.3594C18.9454 34.3594 19.1282 34.537 19.1282 34.7364V39.563C19.1282 39.7624 18.9454 39.9173 18.7392 39.9173Z" fill="white" stroke="white" stroke-width="0.3"/>
<path fill-rule="evenodd" clip-rule="evenodd" d="M31.171 38.3677C30.9648 38.3677 30.782 38.19 30.782 37.9907V34.7364C30.782 34.537 30.9648 34.3594 31.171 34.3594C31.3773 34.3594 31.5376 34.537 31.5376 34.7364V37.9907C31.5376 38.19 31.3773 38.3677 31.171 38.3677Z" fill="white" stroke="white" stroke-width="0.3"/>
<path fill-rule="evenodd" clip-rule="evenodd" d="M23.5701 31.5471C23.3639 31.5471 23.1576 31.481 23.0208 31.3478L20.0901 28.5139C19.8155 28.2484 19.8155 27.7835 20.0667 27.4736C20.0901 27.4736 20.0901 27.4509 20.0901 27.4509L21.097 26.5211C21.2348 26.3662 21.4176 26.2773 21.6473 26.2773C21.8526 26.2773 22.0364 26.3662 22.1967 26.4994L25.1039 29.3114C25.402 29.6214 25.402 30.0636 25.1039 30.3735L24.1195 31.3478C24.1195 31.3478 24.097 31.3478 24.097 31.3704C23.9367 31.481 23.7529 31.5471 23.5701 31.5471ZM23.5476 30.8167C23.5701 30.8167 23.5701 30.8167 23.5926 30.7949L24.5545 29.8425L21.6473 27.0304L20.6395 27.9602C20.6395 27.9829 20.6395 27.9829 20.6395 28.0046L23.5476 30.8167Z" fill="white" stroke="white" stroke-width="0.3"/>
<path fill-rule="evenodd" clip-rule="evenodd" d="M26.3404 31.5471C26.1575 31.5471 25.9513 31.481 25.8135 31.3704C25.8135 31.3478 25.791 31.3478 25.791 31.3478L24.7832 30.3735C24.7832 30.3518 24.7832 30.3518 24.7607 30.3518C24.5085 30.0636 24.5085 29.6214 24.7607 29.3332C24.7832 29.3332 24.7832 29.3114 24.7832 29.3114L27.7138 26.5211C27.8516 26.3662 28.0344 26.2773 28.2407 26.2773C28.4694 26.2773 28.6532 26.3662 28.8135 26.4994L29.7978 27.4509C29.8203 27.4509 29.8203 27.4736 29.8438 27.4736C30.095 27.7835 30.095 28.2484 29.8203 28.5139L26.8897 31.3478C26.7528 31.481 26.5466 31.5471 26.3404 31.5471ZM26.3179 30.7949C26.3179 30.8167 26.3404 30.8167 26.3404 30.8167L29.271 28.0046C29.271 27.9829 29.271 27.9829 29.2485 27.9602L28.2641 27.0304L25.3335 29.8198C25.3335 29.8425 25.3335 29.8425 25.3335 29.8642L26.3179 30.7949Z" fill="white" stroke="white" stroke-width="0.3"/>
<path fill-rule="evenodd" clip-rule="evenodd" d="M24.3718 32.1875C24.2115 32.1875 24.0737 32.0987 24.0277 31.9437L23.6387 31.0584C23.5477 30.8807 23.6387 30.6596 23.8224 30.5935C24.0277 30.5046 24.2574 30.5935 24.3258 30.7702L24.7149 31.6556C24.8068 31.8549 24.7149 32.077 24.5087 32.1431C24.4627 32.1649 24.4177 32.1875 24.3718 32.1875Z" fill="white" stroke="white" stroke-width="0.3"/>
<path fill-rule="evenodd" clip-rule="evenodd" d="M25.5396 32.1891C25.4937 32.1891 25.4487 32.1665 25.4027 32.1447C25.1965 32.0786 25.1046 31.8566 25.174 31.6798L25.5396 30.7944C25.6315 30.5951 25.8602 30.5063 26.044 30.5724C26.2493 30.6612 26.3412 30.8823 26.2493 31.06L25.8837 31.9454C25.8377 32.1003 25.6999 32.1891 25.5396 32.1891Z" fill="white" stroke="white" stroke-width="0.3"/>
<path fill-rule="evenodd" clip-rule="evenodd" d="M24.944 39.9181C24.8071 39.9181 24.6927 39.8737 24.6234 39.7631L23.4102 37.9035C23.3643 37.8365 23.3418 37.7476 23.3418 37.6597L23.983 31.7701C24.0055 31.5925 24.1659 31.4375 24.3721 31.4375H25.5393C25.723 31.4375 25.9058 31.5925 25.9058 31.7701L26.5471 37.6597C26.5696 37.7476 26.5471 37.8365 26.5012 37.9035L25.2646 39.7631C25.1962 39.8737 25.0818 39.9181 24.944 39.9181ZM24.1199 37.6153L24.944 38.8777L25.7915 37.6153L25.1962 32.1906H24.7152L24.1199 37.6153Z" fill="white" stroke="white" stroke-width="0.3"/>
<path fill-rule="evenodd" clip-rule="evenodd" d="M23.0207 21.1844C22.8144 21.1844 22.6316 21.0067 22.6316 20.8074V20.5645C22.6316 20.3651 22.8144 20.1875 23.0207 20.1875C23.2269 20.1875 23.4097 20.3651 23.4097 20.5645V20.8074C23.4097 21.0067 23.2269 21.1844 23.0207 21.1844Z" fill="white" stroke="white" stroke-width="0.3"/>
<path fill-rule="evenodd" clip-rule="evenodd" d="M26.9134 21.1844C26.7072 21.1844 26.5234 21.0067 26.5234 20.8074V20.5645C26.5234 20.3651 26.7072 20.1875 26.9134 20.1875C27.1187 20.1875 27.3025 20.3651 27.3025 20.5645V20.8074C27.3025 21.0067 27.1187 21.1844 26.9134 21.1844Z" fill="white" stroke="white" stroke-width="0.3"/>
<path fill-rule="evenodd" clip-rule="evenodd" d="M24.9673 23.9304C24.6007 23.9304 24.2116 23.8642 23.7991 23.7537C23.5929 23.7092 23.4785 23.4881 23.5479 23.2888C23.5929 23.1111 23.8226 23.0006 24.0279 23.045C24.3485 23.1338 24.6691 23.1782 24.9673 23.1782C25.2645 23.1782 25.5851 23.1338 25.9057 23.045C26.1119 23.0006 26.3182 23.1111 26.3866 23.2888C26.4326 23.4881 26.3182 23.7092 26.1119 23.7537C25.7229 23.8642 25.3338 23.9304 24.9673 23.9304Z" fill="white" stroke="white" stroke-width="0.3"/>
<path fill-rule="evenodd" clip-rule="evenodd" d="M20.8459 22.5361H20.1822C19.5869 22.5361 19.106 22.0712 19.106 21.4957V20.4327C19.106 19.879 19.5869 19.4141 20.1822 19.4141H20.8459C21.0522 19.4141 21.235 19.5908 21.235 19.7902C21.235 19.9895 21.0522 20.1671 20.8459 20.1671H20.1822C19.9985 20.1671 19.8841 20.2777 19.8841 20.4327V21.4957C19.8841 21.6507 19.9985 21.783 20.1822 21.783H20.8459C21.0522 21.783 21.235 21.9606 21.235 22.16C21.235 22.3593 21.0522 22.5361 20.8459 22.5361Z" fill="white" stroke="white" stroke-width="0.3"/>
<path fill-rule="evenodd" clip-rule="evenodd" d="M29.7296 22.5361H29.0424C28.8361 22.5361 28.6533 22.3593 28.6533 22.16C28.6533 21.9606 28.8361 21.783 29.0424 21.783H29.7296C29.8889 21.783 30.0268 21.6507 30.0268 21.4957V20.4327C30.0268 20.2995 29.8889 20.1671 29.7296 20.1671H29.0424C28.8361 20.1671 28.6533 19.9895 28.6533 19.7902C28.6533 19.5908 28.8361 19.4141 29.0424 19.4141H29.7296C30.3014 19.4141 30.8049 19.879 30.8049 20.4327V21.4957C30.8049 22.0494 30.3014 22.5361 29.7296 22.5361Z" fill="white" stroke="white" stroke-width="0.3"/>
<mask id="mask0_1251_3170" style="mask-type:luminance" maskUnits="userSpaceOnUse" x="18" y="12" width="14" height="9">
<path d="M18.9478 12.6016H31.1877V20.349H18.9478V12.6016Z" fill="white" stroke="white" stroke-width="0.3"/>
</mask>
<g mask="url(#mask0_1251_3170)">
<path fill-rule="evenodd" clip-rule="evenodd" d="M19.7471 20.3197C19.5868 20.3197 19.4265 20.2092 19.3806 20.0542C18.8762 18.3931 18.8312 16.799 19.2202 15.426C19.4265 14.6729 20.0218 13.7658 20.8224 13.5664C21.0971 13.4994 21.4871 13.4776 21.8987 13.7431C22.1509 13.522 22.6084 13.2121 23.2271 12.9683C24.1655 12.5922 25.6993 12.3258 27.6914 13.1015C29.1568 13.677 30.1871 14.7174 30.668 16.1121C31.0346 17.2195 30.9652 18.2381 30.9192 18.5263C30.8967 18.7918 30.7599 19.2785 30.5761 19.8548L30.5302 20.0315C30.4617 20.2309 30.2555 20.3415 30.0492 20.2753C29.8439 20.2309 29.7296 20.0098 29.798 19.8104L29.8439 19.6328C30.0042 19.1461 30.1411 18.6586 30.1646 18.4592V18.4375C30.233 17.862 30.4158 14.9611 27.4168 13.7876C24.0737 12.4808 22.2193 14.4518 22.1968 14.4736C22.1274 14.5624 22.0365 14.6068 21.9446 14.6068C21.8302 14.6068 21.7384 14.5624 21.6474 14.4962C21.3268 14.1863 21.0971 14.2525 21.0062 14.2751C20.5477 14.4074 20.1127 15.0499 19.9524 15.6254C19.4949 17.1751 19.7921 18.7692 20.1127 19.8322C20.1821 20.0315 20.0443 20.2527 19.8615 20.2971C19.8156 20.3197 19.7921 20.3197 19.7471 20.3197Z" fill="white" stroke="white" stroke-width="0.3"/>
</g>
<mask id="mask1_1251_3170" style="mask-type:luminance" maskUnits="userSpaceOnUse" x="10" y="38" width="21" height="7">
<path d="M10.1992 39.1406H30.7069V44.0126H10.1992V39.1406Z" fill="white" stroke="white" stroke-width="0.3"/>
</mask>
<g mask="url(#mask1_1251_3170)">
<path fill-rule="evenodd" clip-rule="evenodd" d="M29.6597 43.8592H12.6255C11.298 43.8592 10.1992 42.8188 10.1992 41.5347C10.1992 40.2496 11.298 39.1875 12.6255 39.1875H30.1407C30.3469 39.1875 30.5297 39.3642 30.5297 39.5636C30.5297 39.763 30.3469 39.9179 30.1407 39.9179H12.6255C11.7095 39.9179 10.9773 40.6484 10.9773 41.5347C10.9773 42.4201 11.7095 43.1287 12.6255 43.1287H29.6597C29.866 43.1287 30.0488 43.3055 30.0488 43.5048C30.0488 43.7042 29.866 43.8592 29.6597 43.8592Z" fill="white" stroke="white" stroke-width="0.3"/>
</g>
<mask id="mask2_1251_3170" style="mask-type:luminance" maskUnits="userSpaceOnUse" x="29" y="35" width="21" height="13">
<path d="M29.2673 35.6602H49.2594V47.4005H29.2673V35.6602Z" fill="white" stroke="white" stroke-width="0.3"/>
</mask>
<g mask="url(#mask2_1251_3170)">
<path fill-rule="evenodd" clip-rule="evenodd" d="M48.8925 47.4006H29.6598C29.4536 47.4006 29.2708 47.2457 29.2708 47.0463V41.8209C29.2708 38.4334 32.1095 35.6875 35.6129 35.6875H42.9394C46.4194 35.6875 49.2591 38.4334 49.2591 41.8209V47.0463C49.2591 47.2457 49.0988 47.4006 48.8925 47.4006ZM30.0489 46.6702H48.5035V41.8209C48.5035 38.8539 46.0078 36.4406 42.9394 36.4406H35.6129C32.5445 36.4406 30.0489 38.8539 30.0489 41.8209V46.6702Z" fill="white" stroke="white" stroke-width="0.3"/>
</g>
<path fill-rule="evenodd" clip-rule="evenodd" d="M42.597 36.4405C42.4826 36.4405 42.3682 36.3961 42.2988 36.3072C42.162 36.1523 42.1845 35.9094 42.3448 35.7762C43.3526 34.9352 43.9245 33.6946 43.9245 32.3887C43.9245 29.9083 41.8413 27.8937 39.2773 27.8937C36.6898 27.8937 34.5833 29.9083 34.5833 32.3887C34.5833 33.6946 35.1786 34.9352 36.1864 35.7762C36.3467 35.9094 36.3467 36.1523 36.2089 36.3072C36.0711 36.4622 35.8423 36.4849 35.682 36.3299C34.5148 35.3557 33.8276 33.9166 33.8276 32.3887C33.8276 29.4878 36.2773 27.1406 39.2773 27.1406C42.2529 27.1406 44.6801 29.4878 44.6801 32.3887C44.6801 33.9166 44.0163 35.3557 42.8482 36.3299C42.7573 36.3961 42.6879 36.4405 42.597 36.4405Z" fill="white" stroke="white" stroke-width="0.3"/>
<path fill-rule="evenodd" clip-rule="evenodd" d="M39.2765 34.3387C36.9862 34.3387 34.9256 32.9214 34.1699 30.8624C34.1015 30.663 34.2159 30.4419 34.3996 30.3748C34.6049 30.3087 34.8112 30.4192 34.8796 30.5969C35.5443 32.3903 37.3068 33.5856 39.2765 33.5856C41.2218 33.5856 42.9852 32.3903 43.6489 30.5969C43.7174 30.4192 43.9471 30.3087 44.1299 30.3748C44.3361 30.4419 44.4271 30.663 44.3586 30.8624C43.5805 32.944 41.5424 34.3387 39.2765 34.3387Z" fill="white" stroke="white" stroke-width="0.3"/>
<mask id="mask3_1251_3170" style="mask-type:luminance" maskUnits="userSpaceOnUse" x="32" y="42" width="2" height="6">
<path d="M32.6272 42.8555H33.5872V47.4039H32.6272V42.8555Z" fill="white" stroke="white" stroke-width="0.3"/>
</mask>
<g mask="url(#mask3_1251_3170)">
<path fill-rule="evenodd" clip-rule="evenodd" d="M33.2096 47.4017C33.0034 47.4017 32.8206 47.2468 32.8206 47.0474V43.2394C32.8206 43.04 33.0034 42.8633 33.2096 42.8633C33.4149 42.8633 33.5752 43.04 33.5752 43.2394V47.0474C33.5752 47.2468 33.4149 47.4017 33.2096 47.4017Z" fill="white" stroke="white" stroke-width="0.3"/>
</g>
<mask id="mask4_1251_3170" style="mask-type:luminance" maskUnits="userSpaceOnUse" x="44" y="42" width="2" height="6">
<path d="M44.8674 42.8555H45.8274V47.4039H44.8674V42.8555Z" fill="white" stroke="white" stroke-width="0.3"/>
</mask>
<g mask="url(#mask4_1251_3170)">
<path fill-rule="evenodd" clip-rule="evenodd" d="M45.3209 47.4017C45.0922 47.4017 44.9319 47.2468 44.9319 47.0474V43.2394C44.9319 43.04 45.0922 42.8633 45.3209 42.8633C45.5272 42.8633 45.6875 43.04 45.6875 43.2394V47.0474C45.6875 47.2468 45.5272 47.4017 45.3209 47.4017Z" fill="white" stroke="white" stroke-width="0.3"/>
</g>
<path fill-rule="evenodd" clip-rule="evenodd" d="M34.6748 25.2353C34.6289 25.2353 34.583 25.2126 34.537 25.2126C34.3767 25.1465 34.2858 25.0142 34.2858 24.8592V22.29C33.3699 21.2941 32.8655 20.0317 32.8655 18.6814C32.8655 15.7361 35.3386 13.3672 38.3611 13.3672C41.3826 13.3672 43.8557 15.7361 43.8557 18.6814C43.8557 21.6257 41.3826 24.0173 38.3611 24.0173C37.6739 24.0173 36.9867 23.8841 36.3689 23.6412L34.9495 25.1021C34.8802 25.1909 34.7658 25.2353 34.6748 25.2353ZM38.3611 14.0976C35.7511 14.0976 33.6211 16.1566 33.6211 18.6814C33.6211 19.8767 34.102 21.0285 34.9495 21.8913C35.018 21.9583 35.0405 22.0472 35.0405 22.1351V23.9285L36.0023 22.9543C36.0942 22.822 36.277 22.7993 36.4373 22.8664C37.0326 23.1319 37.6739 23.2642 38.3611 23.2642C40.9711 23.2642 43.1001 21.2053 43.1001 18.6814C43.1001 16.1566 40.9711 14.0976 38.3611 14.0976Z" fill="white" stroke="white" stroke-width="0.3"/>
<path fill-rule="evenodd" clip-rule="evenodd" d="M40.7191 17.1562H36.026C35.8197 17.1562 35.636 16.9786 35.636 16.7792C35.636 16.5807 35.8197 16.4258 36.026 16.4258H40.7191C40.9253 16.4258 41.0856 16.5807 41.0856 16.7792C41.0856 16.9786 40.9253 17.1562 40.7191 17.1562Z" fill="white" stroke="white" stroke-width="0.3"/>
<path fill-rule="evenodd" clip-rule="evenodd" d="M40.7191 19.0578H36.026C35.8197 19.0578 35.636 18.8811 35.636 18.6817C35.636 18.4823 35.8197 18.3047 36.026 18.3047H40.7191C40.9253 18.3047 41.0856 18.4823 41.0856 18.6817C41.0856 18.8811 40.9253 19.0578 40.7191 19.0578Z" fill="white" stroke="white" stroke-width="0.3"/>
<path fill-rule="evenodd" clip-rule="evenodd" d="M40.7191 20.9836H36.026C35.8197 20.9836 35.636 20.8059 35.636 20.6066C35.636 20.4072 35.8197 20.2305 36.026 20.2305H40.7191C40.9253 20.2305 41.0856 20.4072 41.0856 20.6066C41.0856 20.8059 40.9253 20.9836 40.7191 20.9836Z" fill="white" stroke="white" stroke-width="0.3"/>
</svg>
