<svg width="31" height="47" viewBox="0 0 31 47" fill="none" xmlns="http://www.w3.org/2000/svg">
<mask id="path-1-inside-1_1085_2948" fill="white">
<path d="M0 25.1517C0.150199 22.5567 0.493722 20.1818 1.94961 18.1192C3.41888 16.0417 3.71184 13.6504 3.67764 11.2115C3.66128 10.0575 3.58246 8.8931 3.2315 7.75546C2.8166 6.40367 3.29842 5.60509 4.66657 5.20952C5.24357 5.04147 5.84883 4.96117 6.44516 4.87491C7.71962 4.68903 8.76357 4.97753 9.29001 6.30255C9.40155 6.58212 9.55621 6.93457 9.89378 6.89739C10.2611 6.85724 10.4247 6.47505 10.5347 6.15681C10.6805 5.73893 10.6403 5.30172 10.4723 4.8883C10.3578 4.60872 10.218 4.34104 10.096 4.06295C9.51903 2.72901 9.71979 2.21298 11.0374 1.6211C11.8954 1.23594 12.2033 1.28502 12.8888 1.9453C13.0747 2.12375 13.2145 2.35128 13.4034 2.52378C13.5238 2.63383 13.7053 2.76172 13.8451 2.74685C14.1023 2.72008 14.1261 2.46579 14.138 2.24718C14.1454 2.1178 14.1544 1.98842 14.1499 1.85756C14.1246 1.04113 14.4012 0.459667 15.2444 0.168192C16.1159 -0.130718 16.9204 -0.065285 17.4855 0.642582C17.8945 1.15564 18.1711 1.11102 18.7466 0.947441C20.262 0.511716 21.4457 1.64787 21.0501 3.18555C20.7319 4.41391 20.9133 5.36418 21.8621 6.21332C22.448 6.7353 22.7544 7.47886 23.1291 8.15549C23.4221 8.68193 23.8043 8.88121 24.3976 8.79941C25.0386 8.71019 25.687 8.67152 26.3353 8.76967C26.9451 8.86336 27.3808 9.15186 27.5206 9.79132C27.6217 10.2553 27.7615 10.7133 27.8269 11.1818C28.0515 12.7849 27.6708 13.2965 26.1019 13.7664C25.4014 13.9761 24.6564 14.0415 24.0035 14.4073C23.4251 14.7315 23.37 14.9709 23.9113 15.316C24.7218 15.832 25.4565 16.4224 26.0736 17.1525C27.3377 18.6441 27.9979 20.3097 27.5221 22.295C27.3644 22.9493 27.4522 23.5293 27.8254 24.1405C30.2018 28.0338 30.6138 32.3122 30.2033 36.7408C30.0234 38.686 29.4925 40.5523 28.9333 42.4082C28.1734 44.9289 25.0579 46.6852 22.1982 46.3045C20.1787 46.0353 18.2529 45.4702 16.333 44.7951C12.5765 43.4745 9.23202 41.4877 6.36188 38.7499C4.89559 37.3535 3.62559 35.7638 2.78537 33.8781C2.29462 32.7762 1.78157 31.6891 1.17631 30.6392C0.176967 28.9022 0.187377 26.9214 0 25.1517ZM10.2983 30.4905C10.1109 31.0779 10.392 31.4437 10.5243 31.8438C10.7965 32.6691 10.9779 33.5138 10.8173 34.3867C10.7712 34.6395 10.618 34.879 10.2998 34.8715C10.0083 34.8656 9.81645 34.6961 9.74507 34.4194C9.70195 34.2544 9.68707 34.0774 9.68559 33.9064C9.67369 32.8372 9.27812 31.9107 8.76952 30.9797C8.03191 29.6324 6.85709 28.5305 6.57008 26.914C6.47936 26.3965 6.00498 26.6969 5.76258 26.9288C4.63832 28.0055 3.99885 29.3603 3.60923 30.84C3.36683 31.762 3.54826 32.623 3.99886 33.4617C5.09486 35.5065 6.59685 37.2063 8.31447 38.744C10.566 40.759 13.2264 42.0885 15.9449 43.3035C17.9584 44.2032 20.1162 44.682 22.2844 45.0494C24.5701 45.436 26.4885 44.3757 27.4462 42.2833C27.8418 41.4208 28.1422 40.5256 28.4084 39.6139C29.0493 37.416 28.8724 35.1615 28.9229 32.9189C28.9809 30.3566 28.3831 27.949 27.2722 25.6663C26.7844 24.664 26.0602 23.8535 24.8661 23.7152C24.2608 23.6438 23.6793 23.5115 23.0919 23.3627C22.1595 23.1263 21.9974 23.3077 22.2383 24.203C22.3053 24.4528 22.4138 24.7056 22.4138 24.9569C22.4183 26.5273 23.1098 27.7245 24.2221 28.8041C25.2274 29.7782 25.5382 31.1047 25.5397 32.4877C25.5397 32.8386 25.504 33.2268 25.0475 33.2714C24.5508 33.319 24.3738 32.9799 24.3337 32.5427C24.3218 32.4148 24.3129 32.284 24.3173 32.1546C24.3456 31.0288 23.6838 30.2124 23.0518 29.393C22.7469 28.9989 22.393 28.987 22.1417 29.4674C21.5989 30.5128 21.2122 31.5924 21.3119 32.8104C21.3832 33.6937 21.7178 34.4819 22.0182 35.2909C22.5714 36.778 22.5105 38.2443 21.9082 39.7076C21.7461 40.1017 21.5662 40.4616 21.0873 40.3278C20.6174 40.1954 20.6114 39.7641 20.6679 39.3641C20.7482 38.8079 20.8494 38.2547 20.9386 37.7C20.9669 37.5245 20.9579 37.3268 20.8092 37.2256C20.5936 37.0769 20.4092 37.2212 20.2426 37.3684C19.9169 37.6539 19.6076 37.9603 19.2582 38.2116C18.9563 38.4287 18.5696 38.4867 18.3317 38.1491C18.1086 37.8324 18.2157 37.4918 18.5295 37.236C18.9637 36.8821 19.3994 36.5282 19.8218 36.1609C20.3512 35.6984 20.5817 35.1496 20.375 34.4269C20.1489 33.6328 20.1028 32.8149 20.1623 31.9865C20.1891 31.6266 20.4166 31.1567 19.969 30.9292C19.508 30.6957 19.163 31.0928 18.809 31.3203C18.5086 31.5151 18.3629 31.8334 18.2172 32.1516C18.0744 32.4654 17.9168 32.7762 17.7294 33.0647C17.5688 33.3115 17.3056 33.3383 17.0379 33.2431C16.8029 33.1584 16.7271 32.9546 16.7256 32.7301C16.7241 32.5159 16.6929 32.2691 16.7836 32.0906C17.3368 31.005 17.9391 29.9745 19.2715 29.6532C20.7691 29.2919 21.1765 28.7907 21.3044 27.2516C21.4606 25.3867 20.8181 23.7702 19.6567 22.356C18.8343 21.3551 18.1473 20.2918 18.4209 18.9534C19.0678 15.7903 20.6427 13.9344 24.3887 12.8964C24.8051 12.7819 25.2319 12.7061 25.6394 12.5663C26.5168 12.2659 26.5941 12.0607 26.3636 10.8397C26.2179 10.0768 26.084 9.95936 25.2096 9.98464C23.376 10.0367 21.6361 10.575 19.9511 11.2175C18.9607 11.5952 18.1473 11.7677 17.1539 11.1803C16.2542 10.6494 15.4928 11.0985 15.1701 12.1201C15.0526 12.4919 14.9054 12.8905 15.0452 13.2622C15.3961 14.1947 14.9797 14.9278 14.538 15.6892C13.7588 17.0306 12.9751 18.3779 12.8041 19.9706C12.7371 20.5893 12.4353 21.1127 12.0888 21.6169C11.2917 22.7753 10.2611 23.6572 9.0491 24.3725C7.62742 25.2097 7.36568 26.3518 8.17319 27.7646C8.64014 28.5781 9.35842 28.993 10.273 29.0956C11.0627 29.1833 11.7899 29.4599 12.4368 29.9016C12.8873 30.2094 13.0405 30.8905 12.7669 31.1478C12.3683 31.524 11.9817 31.356 11.6203 31.0437C11.2575 30.7314 10.853 30.5039 10.2983 30.4905ZM13.7127 13.3872C13.7439 12.9678 13.738 12.5306 13.8168 12.1097C14.2332 9.84188 16.1977 9.38385 17.4825 9.96829C18.4967 10.4293 19.279 10.2077 20.1772 9.84337C22.3945 8.94515 22.3722 8.82916 20.8628 7.06098C19.853 5.87723 19.0306 4.75148 19.7073 3.12309C19.7236 3.08591 19.7177 3.03833 19.7177 2.9952C19.7177 2.78106 19.7325 2.54758 19.4738 2.46579C19.2448 2.39589 19.0217 2.47322 18.9161 2.67696C18.6767 3.13499 18.4908 3.61979 18.2543 4.07931C18.0774 4.42134 17.8707 4.84963 17.4171 4.74851C17.0364 4.66226 16.7762 4.31427 16.733 3.88598C16.675 3.32831 16.6468 2.76618 16.5828 2.21C16.5427 1.8635 16.4713 1.47685 16.0281 1.45603C15.5076 1.43224 15.408 1.85161 15.3649 2.24718C15.2994 2.84798 15.3069 3.45769 15.2191 4.05403C15.1448 4.56262 14.7909 4.91358 14.309 5.05486C13.848 5.19167 13.4703 4.95076 13.1729 4.60426C13.0048 4.40945 12.8799 4.17746 12.7119 3.98116C12.3683 3.58261 12.2077 2.69629 11.5742 2.97289C10.8753 3.27626 11.4716 3.94398 11.6278 4.42134C12.0337 5.66903 11.9564 6.8394 11.0403 7.81346C9.42088 9.53405 8.91823 11.5967 8.98367 13.8794C9.00895 14.736 9.23796 15.3635 10.1525 15.6491C10.7221 15.826 11.2411 16.1621 11.6991 16.5726C11.9594 16.8046 12.3341 16.8417 12.4903 16.5309C12.9929 15.5242 14.1454 14.7672 13.7127 13.3872ZM1.32056 25.0774C1.52876 26.3176 1.48265 27.7155 1.98233 29.0287C2.07304 29.2666 2.11617 29.5774 2.42697 29.5833C2.73183 29.5893 2.85824 29.3082 2.90731 29.0539C3.14079 27.8523 3.87394 26.9497 4.6859 26.1109C5.43541 25.3391 6.24886 24.6417 7.17533 24.0661C8.41559 23.2958 9.68856 22.5389 10.6269 21.3849C12.0754 19.6063 12.1572 18.0716 9.80902 16.931C7.54117 15.829 5.13799 16.4298 3.42185 18.4359C1.82023 20.3067 1.47373 22.6028 1.32056 25.0774ZM26.319 21.0815C26.4097 20.3439 26.1896 19.6747 25.8401 19.0843C25.0148 17.6894 23.895 16.6142 22.3811 15.9257C21.7015 15.6178 21.2985 15.8275 20.9431 16.3004C20.1742 17.3236 19.7221 18.4657 19.7861 19.7758C19.8322 20.6904 20.2605 21.2927 21.1319 21.6198C22.4733 22.1225 23.8905 22.2638 25.2795 22.5225C25.9636 22.6489 26.2134 22.3946 26.313 21.7061C26.3443 21.4949 26.319 21.2778 26.319 21.0815ZM8.59107 8.71762C8.46764 7.92053 8.42451 7.04462 7.81777 6.44977C7.29133 5.93225 6.58346 6.36352 5.95441 6.38582C5.78191 6.39177 5.61089 6.41557 5.43838 6.41557C4.77513 6.41408 4.47919 6.75166 4.58329 7.39706C4.98927 9.91921 5.23762 12.4414 4.69334 14.9769C4.65765 15.1449 4.67698 15.3279 4.82867 15.4483C5.13799 15.6967 7.50696 14.9412 7.61552 14.559C7.63783 14.4787 7.64229 14.3865 7.63485 14.3017C7.48465 12.5841 7.94269 10.9706 8.47359 9.36898C8.54051 9.16673 8.55092 8.94664 8.59107 8.71762Z"/>
</mask>
<path d="M0 25.1517C0.150199 22.5567 0.493722 20.1818 1.94961 18.1192C3.41888 16.0417 3.71184 13.6504 3.67764 11.2115C3.66128 10.0575 3.58246 8.8931 3.2315 7.75546C2.8166 6.40367 3.29842 5.60509 4.66657 5.20952C5.24357 5.04147 5.84883 4.96117 6.44516 4.87491C7.71962 4.68903 8.76357 4.97753 9.29001 6.30255C9.40155 6.58212 9.55621 6.93457 9.89378 6.89739C10.2611 6.85724 10.4247 6.47505 10.5347 6.15681C10.6805 5.73893 10.6403 5.30172 10.4723 4.8883C10.3578 4.60872 10.218 4.34104 10.096 4.06295C9.51903 2.72901 9.71979 2.21298 11.0374 1.6211C11.8954 1.23594 12.2033 1.28502 12.8888 1.9453C13.0747 2.12375 13.2145 2.35128 13.4034 2.52378C13.5238 2.63383 13.7053 2.76172 13.8451 2.74685C14.1023 2.72008 14.1261 2.46579 14.138 2.24718C14.1454 2.1178 14.1544 1.98842 14.1499 1.85756C14.1246 1.04113 14.4012 0.459667 15.2444 0.168192C16.1159 -0.130718 16.9204 -0.065285 17.4855 0.642582C17.8945 1.15564 18.1711 1.11102 18.7466 0.947441C20.262 0.511716 21.4457 1.64787 21.0501 3.18555C20.7319 4.41391 20.9133 5.36418 21.8621 6.21332C22.448 6.7353 22.7544 7.47886 23.1291 8.15549C23.4221 8.68193 23.8043 8.88121 24.3976 8.79941C25.0386 8.71019 25.687 8.67152 26.3353 8.76967C26.9451 8.86336 27.3808 9.15186 27.5206 9.79132C27.6217 10.2553 27.7615 10.7133 27.8269 11.1818C28.0515 12.7849 27.6708 13.2965 26.1019 13.7664C25.4014 13.9761 24.6564 14.0415 24.0035 14.4073C23.4251 14.7315 23.37 14.9709 23.9113 15.316C24.7218 15.832 25.4565 16.4224 26.0736 17.1525C27.3377 18.6441 27.9979 20.3097 27.5221 22.295C27.3644 22.9493 27.4522 23.5293 27.8254 24.1405C30.2018 28.0338 30.6138 32.3122 30.2033 36.7408C30.0234 38.686 29.4925 40.5523 28.9333 42.4082C28.1734 44.9289 25.0579 46.6852 22.1982 46.3045C20.1787 46.0353 18.2529 45.4702 16.333 44.7951C12.5765 43.4745 9.23202 41.4877 6.36188 38.7499C4.89559 37.3535 3.62559 35.7638 2.78537 33.8781C2.29462 32.7762 1.78157 31.6891 1.17631 30.6392C0.176967 28.9022 0.187377 26.9214 0 25.1517ZM10.2983 30.4905C10.1109 31.0779 10.392 31.4437 10.5243 31.8438C10.7965 32.6691 10.9779 33.5138 10.8173 34.3867C10.7712 34.6395 10.618 34.879 10.2998 34.8715C10.0083 34.8656 9.81645 34.6961 9.74507 34.4194C9.70195 34.2544 9.68707 34.0774 9.68559 33.9064C9.67369 32.8372 9.27812 31.9107 8.76952 30.9797C8.03191 29.6324 6.85709 28.5305 6.57008 26.914C6.47936 26.3965 6.00498 26.6969 5.76258 26.9288C4.63832 28.0055 3.99885 29.3603 3.60923 30.84C3.36683 31.762 3.54826 32.623 3.99886 33.4617C5.09486 35.5065 6.59685 37.2063 8.31447 38.744C10.566 40.759 13.2264 42.0885 15.9449 43.3035C17.9584 44.2032 20.1162 44.682 22.2844 45.0494C24.5701 45.436 26.4885 44.3757 27.4462 42.2833C27.8418 41.4208 28.1422 40.5256 28.4084 39.6139C29.0493 37.416 28.8724 35.1615 28.9229 32.9189C28.9809 30.3566 28.3831 27.949 27.2722 25.6663C26.7844 24.664 26.0602 23.8535 24.8661 23.7152C24.2608 23.6438 23.6793 23.5115 23.0919 23.3627C22.1595 23.1263 21.9974 23.3077 22.2383 24.203C22.3053 24.4528 22.4138 24.7056 22.4138 24.9569C22.4183 26.5273 23.1098 27.7245 24.2221 28.8041C25.2274 29.7782 25.5382 31.1047 25.5397 32.4877C25.5397 32.8386 25.504 33.2268 25.0475 33.2714C24.5508 33.319 24.3738 32.9799 24.3337 32.5427C24.3218 32.4148 24.3129 32.284 24.3173 32.1546C24.3456 31.0288 23.6838 30.2124 23.0518 29.393C22.7469 28.9989 22.393 28.987 22.1417 29.4674C21.5989 30.5128 21.2122 31.5924 21.3119 32.8104C21.3832 33.6937 21.7178 34.4819 22.0182 35.2909C22.5714 36.778 22.5105 38.2443 21.9082 39.7076C21.7461 40.1017 21.5662 40.4616 21.0873 40.3278C20.6174 40.1954 20.6114 39.7641 20.6679 39.3641C20.7482 38.8079 20.8494 38.2547 20.9386 37.7C20.9669 37.5245 20.9579 37.3268 20.8092 37.2256C20.5936 37.0769 20.4092 37.2212 20.2426 37.3684C19.9169 37.6539 19.6076 37.9603 19.2582 38.2116C18.9563 38.4287 18.5696 38.4867 18.3317 38.1491C18.1086 37.8324 18.2157 37.4918 18.5295 37.236C18.9637 36.8821 19.3994 36.5282 19.8218 36.1609C20.3512 35.6984 20.5817 35.1496 20.375 34.4269C20.1489 33.6328 20.1028 32.8149 20.1623 31.9865C20.1891 31.6266 20.4166 31.1567 19.969 30.9292C19.508 30.6957 19.163 31.0928 18.809 31.3203C18.5086 31.5151 18.3629 31.8334 18.2172 32.1516C18.0744 32.4654 17.9168 32.7762 17.7294 33.0647C17.5688 33.3115 17.3056 33.3383 17.0379 33.2431C16.8029 33.1584 16.7271 32.9546 16.7256 32.7301C16.7241 32.5159 16.6929 32.2691 16.7836 32.0906C17.3368 31.005 17.9391 29.9745 19.2715 29.6532C20.7691 29.2919 21.1765 28.7907 21.3044 27.2516C21.4606 25.3867 20.8181 23.7702 19.6567 22.356C18.8343 21.3551 18.1473 20.2918 18.4209 18.9534C19.0678 15.7903 20.6427 13.9344 24.3887 12.8964C24.8051 12.7819 25.2319 12.7061 25.6394 12.5663C26.5168 12.2659 26.5941 12.0607 26.3636 10.8397C26.2179 10.0768 26.084 9.95936 25.2096 9.98464C23.376 10.0367 21.6361 10.575 19.9511 11.2175C18.9607 11.5952 18.1473 11.7677 17.1539 11.1803C16.2542 10.6494 15.4928 11.0985 15.1701 12.1201C15.0526 12.4919 14.9054 12.8905 15.0452 13.2622C15.3961 14.1947 14.9797 14.9278 14.538 15.6892C13.7588 17.0306 12.9751 18.3779 12.8041 19.9706C12.7371 20.5893 12.4353 21.1127 12.0888 21.6169C11.2917 22.7753 10.2611 23.6572 9.0491 24.3725C7.62742 25.2097 7.36568 26.3518 8.17319 27.7646C8.64014 28.5781 9.35842 28.993 10.273 29.0956C11.0627 29.1833 11.7899 29.4599 12.4368 29.9016C12.8873 30.2094 13.0405 30.8905 12.7669 31.1478C12.3683 31.524 11.9817 31.356 11.6203 31.0437C11.2575 30.7314 10.853 30.5039 10.2983 30.4905ZM13.7127 13.3872C13.7439 12.9678 13.738 12.5306 13.8168 12.1097C14.2332 9.84188 16.1977 9.38385 17.4825 9.96829C18.4967 10.4293 19.279 10.2077 20.1772 9.84337C22.3945 8.94515 22.3722 8.82916 20.8628 7.06098C19.853 5.87723 19.0306 4.75148 19.7073 3.12309C19.7236 3.08591 19.7177 3.03833 19.7177 2.9952C19.7177 2.78106 19.7325 2.54758 19.4738 2.46579C19.2448 2.39589 19.0217 2.47322 18.9161 2.67696C18.6767 3.13499 18.4908 3.61979 18.2543 4.07931C18.0774 4.42134 17.8707 4.84963 17.4171 4.74851C17.0364 4.66226 16.7762 4.31427 16.733 3.88598C16.675 3.32831 16.6468 2.76618 16.5828 2.21C16.5427 1.8635 16.4713 1.47685 16.0281 1.45603C15.5076 1.43224 15.408 1.85161 15.3649 2.24718C15.2994 2.84798 15.3069 3.45769 15.2191 4.05403C15.1448 4.56262 14.7909 4.91358 14.309 5.05486C13.848 5.19167 13.4703 4.95076 13.1729 4.60426C13.0048 4.40945 12.8799 4.17746 12.7119 3.98116C12.3683 3.58261 12.2077 2.69629 11.5742 2.97289C10.8753 3.27626 11.4716 3.94398 11.6278 4.42134C12.0337 5.66903 11.9564 6.8394 11.0403 7.81346C9.42088 9.53405 8.91823 11.5967 8.98367 13.8794C9.00895 14.736 9.23796 15.3635 10.1525 15.6491C10.7221 15.826 11.2411 16.1621 11.6991 16.5726C11.9594 16.8046 12.3341 16.8417 12.4903 16.5309C12.9929 15.5242 14.1454 14.7672 13.7127 13.3872ZM1.32056 25.0774C1.52876 26.3176 1.48265 27.7155 1.98233 29.0287C2.07304 29.2666 2.11617 29.5774 2.42697 29.5833C2.73183 29.5893 2.85824 29.3082 2.90731 29.0539C3.14079 27.8523 3.87394 26.9497 4.6859 26.1109C5.43541 25.3391 6.24886 24.6417 7.17533 24.0661C8.41559 23.2958 9.68856 22.5389 10.6269 21.3849C12.0754 19.6063 12.1572 18.0716 9.80902 16.931C7.54117 15.829 5.13799 16.4298 3.42185 18.4359C1.82023 20.3067 1.47373 22.6028 1.32056 25.0774ZM26.319 21.0815C26.4097 20.3439 26.1896 19.6747 25.8401 19.0843C25.0148 17.6894 23.895 16.6142 22.3811 15.9257C21.7015 15.6178 21.2985 15.8275 20.9431 16.3004C20.1742 17.3236 19.7221 18.4657 19.7861 19.7758C19.8322 20.6904 20.2605 21.2927 21.1319 21.6198C22.4733 22.1225 23.8905 22.2638 25.2795 22.5225C25.9636 22.6489 26.2134 22.3946 26.313 21.7061C26.3443 21.4949 26.319 21.2778 26.319 21.0815ZM8.59107 8.71762C8.46764 7.92053 8.42451 7.04462 7.81777 6.44977C7.29133 5.93225 6.58346 6.36352 5.95441 6.38582C5.78191 6.39177 5.61089 6.41557 5.43838 6.41557C4.77513 6.41408 4.47919 6.75166 4.58329 7.39706C4.98927 9.91921 5.23762 12.4414 4.69334 14.9769C4.65765 15.1449 4.67698 15.3279 4.82867 15.4483C5.13799 15.6967 7.50696 14.9412 7.61552 14.559C7.63783 14.4787 7.64229 14.3865 7.63485 14.3017C7.48465 12.5841 7.94269 10.9706 8.47359 9.36898C8.54051 9.16673 8.55092 8.94664 8.59107 8.71762Z" fill="black" stroke="black" stroke-width="0.4" mask="url(#path-1-inside-1_1085_2948)"/>
</svg>
