<svg width="44" height="49" viewBox="0 0 44 49" fill="none" xmlns="http://www.w3.org/2000/svg">
<mask id="mask0_1085_2981" style="mask-type:luminance" maskUnits="userSpaceOnUse" x="3" y="0" width="18" height="40">
<path d="M3.3252 0H20.4114V39.2971H3.3252V0Z" fill="white"/>
</mask>
<g mask="url(#mask0_1085_2981)">
<path d="M19.4263 38.9621C14.6452 38.9621 8.77506 33.717 7.66322 26.0969C7.22043 26.1295 6.80044 26.0318 6.39998 25.8153C4.81442 24.9639 4.05908 22.33 3.7563 20.8307C3.48607 19.5349 3.86374 18.2066 4.69559 17.5066C5.14814 17.1273 5.69836 16.9449 6.30393 16.9987C6.30393 13.9773 6.36742 10.0916 6.73532 8.65577C7.19927 6.83254 10.7074 0.0214844 19.4263 0.0214844C19.7828 0.0214844 20.0742 0.312875 20.0742 0.669382C20.0742 1.02589 19.7828 1.31728 19.4263 1.31728C16.0712 1.30588 13.1996 2.39656 10.9108 4.55514C8.96878 6.38976 8.13856 8.36438 7.98716 8.96833C7.72833 10.0053 7.5981 12.8866 7.5981 17.5375V17.798C7.5981 18.0128 7.49066 18.2066 7.3181 18.3368C7.14555 18.4556 6.91765 18.4882 6.71253 18.4019C6.21603 18.2066 5.82859 18.2391 5.52581 18.4882C5.06186 18.8772 4.84698 19.7514 5.01953 20.5605C5.36465 22.2111 6.06626 24.1532 7.01532 24.6611C7.30671 24.8239 7.61926 24.8337 7.97577 24.6937C8.15972 24.6188 8.3746 24.6399 8.54878 24.7474C8.72134 24.8548 8.84017 25.029 8.86134 25.2325C9.21784 28.6331 10.6308 31.8384 12.8545 34.2347C14.8405 36.3819 17.2905 37.6549 19.4263 37.6549C19.7828 37.6549 20.0742 37.9463 20.0742 38.3028C20.0742 38.6593 19.7828 38.9621 19.4263 38.9621Z" fill="black"/>
</g>
<path d="M19.4271 33.8249C18.5318 33.8249 17.6788 33.4033 17.5827 33.3496C17.2685 33.1884 17.1399 32.7994 17.3011 32.4754C17.4639 32.1629 17.8513 32.0326 18.1753 32.1954C18.1753 32.1954 18.8346 32.5291 19.4271 32.5291C19.7836 32.5291 20.075 32.8205 20.075 33.177C20.075 33.5335 19.7836 33.8249 19.4271 33.8249Z" fill="black"/>
<path d="M16.4703 31.5789C16.2652 31.5789 16.0601 31.4813 15.9412 31.2973C15.7361 31.0059 15.811 30.5957 16.1024 30.402C17.7758 29.2478 18.4889 29.269 19.2116 29.7329C19.3402 29.8192 19.3728 29.8306 19.4167 29.8306C19.7733 29.8306 20.0646 30.122 20.0646 30.4785C20.0646 30.8334 19.7733 31.1248 19.4167 31.1248C18.9854 31.1248 18.7037 30.9522 18.5198 30.8334C18.3586 30.7373 18.3375 30.7259 18.2284 30.7373C18.0347 30.7699 17.6245 30.9196 16.8268 31.4715C16.7291 31.535 16.5989 31.5789 16.4703 31.5789Z" fill="black"/>
<mask id="mask1_1085_2981" style="mask-type:luminance" maskUnits="userSpaceOnUse" x="18" y="0" width="15" height="14">
<path d="M18.7451 0H32.4975V13.4593H18.7451V0Z" fill="white"/>
</mask>
<g mask="url(#mask1_1085_2981)">
<path d="M31.8391 13.264C31.494 13.264 31.2026 12.984 31.1912 12.6373C31.1147 10.3387 30.9747 9.36846 30.8673 8.95824C30.7159 8.35266 29.8857 6.38944 27.942 4.54342C25.6548 2.38485 22.7946 1.29579 19.4265 1.29579C19.0717 1.29579 18.7803 1.0044 18.7803 0.647897C18.7803 0.291391 19.0717 0 19.4265 0C28.1471 0 31.6552 6.80943 32.1191 8.63429C32.2917 9.32451 32.4105 10.6203 32.4854 12.5835C32.4968 12.94 32.2168 13.2428 31.8603 13.2526C31.8489 13.264 31.8391 13.264 31.8391 13.264Z" fill="black"/>
</g>
<path d="M19.4265 38.9615C19.0717 38.9615 18.7803 38.6701 18.7803 38.3136C18.7803 37.9571 19.0717 37.6657 19.4265 37.6657C22.6009 37.6657 26.2376 34.9129 28.2871 30.9637C28.4499 30.6511 28.839 30.5209 29.1629 30.6837C29.4755 30.8449 29.6041 31.2339 29.4429 31.5579C27.1443 35.9824 23.1186 38.9615 19.4265 38.9615Z" fill="black"/>
<path d="M19.4265 33.8249C19.0717 33.8249 18.7803 33.5335 18.7803 33.177C18.7803 32.8205 19.0717 32.5291 19.4265 32.5291C20.0207 32.5291 20.6784 32.2052 20.6784 32.1954C21.0023 32.0326 21.3914 32.1629 21.5526 32.4754C21.7153 32.788 21.5851 33.177 21.2726 33.3496C21.1749 33.4033 20.3235 33.8249 19.4265 33.8249Z" fill="black"/>
<path d="M22.3844 31.5794C22.2542 31.5794 22.1256 31.5469 22.0181 31.4606C21.2188 30.9104 20.82 30.759 20.6149 30.7264C20.5058 30.715 20.4847 30.715 20.3235 30.8241C20.1396 30.9429 19.8596 31.1155 19.4265 31.1155C19.0717 31.1155 18.7803 30.8241 18.7803 30.4676C18.7803 30.1111 19.0717 29.8197 19.4265 29.8197C19.4705 29.8197 19.5031 29.8099 19.6317 29.722C20.3658 29.2695 21.0788 29.2369 22.7409 30.3927C23.0323 30.5978 23.1072 30.9967 22.9021 31.288C22.7832 31.4818 22.5895 31.5794 22.3844 31.5794Z" fill="black"/>
<path d="M19.2327 26.6464C18.4887 26.6464 17.7334 26.3013 17.2792 25.6859C17.0627 25.3945 17.1278 24.9957 17.4094 24.7792C17.7008 24.5627 18.0996 24.6278 18.3162 24.9094C18.5848 25.2643 19.1041 25.4369 19.524 25.2969C19.8692 25.1894 20.2257 25.3734 20.3445 25.7185C20.4633 26.0636 20.2696 26.4201 19.9229 26.5389C19.708 26.6138 19.4703 26.6464 19.2327 26.6464Z" fill="black"/>
<path d="M14.0092 20.5826C13.9441 20.5826 13.8904 20.5712 13.8269 20.5614C13.4802 20.4638 13.2865 20.0975 13.3939 19.7524L13.4053 19.7084C13.4379 19.601 13.4916 19.5147 13.5665 19.4284L13.6218 19.3731C13.8692 19.1256 14.2795 19.1256 14.5383 19.3731C14.776 19.6107 14.7874 19.9787 14.5823 20.2375C14.4634 20.4524 14.2469 20.5826 14.0092 20.5826Z" fill="black"/>
<path d="M11.7853 23.8078H11.7543C11.3978 23.8078 11.1064 23.5164 11.1064 23.1616C11.1064 22.8051 11.3978 22.5137 11.7543 22.5137H11.7853C12.1418 22.5137 12.4332 22.8051 12.4332 23.1616C12.4332 23.5164 12.1418 23.8078 11.7853 23.8078Z" fill="black"/>
<path d="M14.0626 26.6457C13.9438 26.6457 13.8152 26.6132 13.7077 26.5383L13.6101 26.4732C13.3073 26.2795 13.2324 25.8692 13.4261 25.5778C13.6215 25.275 14.0301 25.2002 14.3214 25.3939L14.4191 25.459C14.7219 25.6527 14.7968 26.0629 14.6031 26.3543C14.4842 26.5481 14.2791 26.6457 14.0626 26.6457Z" fill="black"/>
<path d="M13.0815 29.8193C12.725 29.8193 12.4336 29.5279 12.4336 29.1714V29.0525C12.4336 28.6976 12.725 28.4062 13.0815 28.4062C13.438 28.4062 13.7294 28.6976 13.7294 29.0525V29.1714C13.7294 29.5279 13.438 29.8193 13.0815 29.8193Z" fill="black"/>
<path d="M0.649239 48.9887C0.637844 48.9887 0.616682 48.9887 0.605286 48.9887C0.24878 48.9659 -0.0214487 48.6534 0.00134188 48.2969C0.281337 44.1962 4.18826 42.8369 7.33984 41.7349C7.7175 41.6063 8.07401 41.476 8.41912 41.3572C11.0091 40.4081 10.9993 38.9186 10.9765 34.9254C10.9765 34.5689 10.9765 34.1913 10.9765 33.7924C10.9765 33.4359 11.2679 33.1445 11.6244 33.1445C11.9809 33.1445 12.2723 33.4359 12.2723 33.7924C12.2723 34.1815 12.2723 34.5592 12.2723 34.914C12.2935 38.9072 12.3049 41.3149 8.87167 42.5667C8.5168 42.6969 8.14889 42.8255 7.77122 42.9558C4.69615 44.0237 1.51202 45.1355 1.29551 48.3831C1.27435 48.7299 0.982955 48.9887 0.649239 48.9887Z" fill="black"/>
<path d="M38.2055 48.9887C37.8718 48.9887 37.5804 48.7299 37.5592 48.3831C37.3427 45.1355 34.1586 44.0351 31.0835 42.9558C30.7059 42.8255 30.338 42.6969 29.9815 42.5667C26.5385 41.3035 26.5613 38.8975 26.5824 34.914C26.5824 34.5592 26.5824 34.1815 26.5824 33.7924C26.5824 33.4359 26.8738 33.1445 27.2303 33.1445C27.5868 33.1445 27.8782 33.4359 27.8782 33.7924C27.8782 34.1913 27.8782 34.5689 27.8782 34.9254C27.8554 38.9186 27.8457 40.4081 30.4356 41.3572C30.7807 41.4874 31.1373 41.6063 31.5149 41.7349C34.6665 42.8369 38.5734 44.1962 38.8534 48.2969C38.8746 48.6534 38.606 48.9659 38.2495 48.9887C38.2381 48.9887 38.2169 48.9887 38.2055 48.9887Z" fill="black"/>
<path d="M40.2779 37.0186C40.0305 37.0186 39.7928 36.8786 39.6854 36.6409L38.217 33.4145C38.0657 33.0905 38.2056 32.7015 38.541 32.5501C38.8649 32.4003 39.2524 32.5403 39.4038 32.874L40.8819 36.1021C41.0333 36.4261 40.8933 36.8135 40.5596 36.9649C40.4619 36.9974 40.3642 37.0186 40.2779 37.0186Z" fill="black"/>
<path d="M43.2686 35.6596C42.9984 35.6596 42.7493 35.4968 42.6533 35.2282L41.4877 31.9252C41.3689 31.5898 41.5415 31.2122 41.8752 31.0933C42.2105 30.9761 42.5882 31.1487 42.707 31.4824L43.8726 34.7854C43.9914 35.1191 43.8189 35.4968 43.4835 35.6156C43.4086 35.6482 43.3321 35.6596 43.2686 35.6596Z" fill="black"/>
<path d="M29.8286 26.1884C27.4293 26.1884 25.4736 24.2377 25.4736 21.8334C25.4736 19.4341 27.4243 17.4785 29.8286 17.4785C32.2336 17.4785 34.1835 19.4284 34.1835 21.8334C34.1835 24.2377 32.2278 26.1884 29.8286 26.1884ZM29.8286 18.1411C27.7911 18.1411 26.1313 19.801 26.1313 21.8392C26.1313 23.8766 27.7911 25.5365 29.8286 25.5365C31.866 25.5365 33.5258 23.8766 33.5258 21.8392C33.5258 19.801 31.866 18.1411 29.8286 18.1411Z" fill="black"/>
<path d="M29.828 27.6676C28.5136 27.6676 27.2205 27.2182 26.1969 26.3969C24.7998 25.2849 24 23.6193 24 21.8338C24 19.4073 25.5285 17.2104 27.7956 16.3668C28.4425 16.1264 29.1274 16 29.828 16C33.0436 16 35.6561 18.6182 35.6561 21.828C35.6561 25.0544 33.0436 27.6676 29.828 27.6676ZM29.828 16.6626C29.2034 16.6626 28.6011 16.7725 28.0261 16.9857C26.0102 17.7367 24.6577 19.6865 24.6577 21.8338C24.6577 23.4168 25.369 24.89 26.6075 25.8814C27.5328 26.6208 28.6449 27.01 29.828 27.01C32.6817 27.01 34.9993 24.6875 34.9993 21.8396C34.9993 18.9909 32.6817 16.6626 29.828 16.6626Z" fill="black"/>
<mask id="mask2_1085_2981" style="mask-type:luminance" maskUnits="userSpaceOnUse" x="31" y="27" width="7" height="9">
<path d="M31.418 27.4707H37.1287V35.3395H31.418V27.4707Z" fill="white"/>
</mask>
<g mask="url(#mask2_1085_2981)">
<path d="M35.5584 35.4016C35.0271 35.4016 34.5174 35.1058 34.2769 34.596L31.6422 29.0753C31.6033 28.9985 31.5984 28.9051 31.6306 28.8234C31.6636 28.7407 31.7182 28.6755 31.8008 28.6366L33.882 27.6452C34.0464 27.5683 34.2439 27.6344 34.3207 27.7989L36.9555 33.3204C37.1191 33.6599 37.1356 34.0483 37.01 34.4044C36.8836 34.7605 36.6267 35.0513 36.2813 35.2099L36.1665 35.2644C35.969 35.3578 35.7608 35.4016 35.5584 35.4016ZM32.3758 29.0861L34.8685 34.3118C35.0486 34.6894 35.5038 34.8538 35.8814 34.6729L35.9963 34.6183C36.183 34.5308 36.3193 34.3771 36.3854 34.1854C36.4515 33.9937 36.4399 33.7855 36.3524 33.6046L33.8605 28.3797L32.3758 29.0861Z" fill="black"/>
</g>
<path d="M29.0835 23.4768C28.9909 23.4768 28.9034 23.438 28.8431 23.3669L27.5286 21.9269C27.4079 21.7947 27.4129 21.5873 27.55 21.4609C27.6814 21.3403 27.8896 21.346 28.016 21.4832L29.0835 22.6547L31.5927 19.8886C31.7133 19.7523 31.9215 19.7465 32.0578 19.8671C32.195 19.9878 32.2007 20.196 32.0801 20.3323L29.3247 23.3669C29.2644 23.438 29.1768 23.4768 29.0835 23.4768Z" fill="black"/>
</svg>
