<svg width="50" height="50" viewBox="0 0 50 50" fill="none" xmlns="http://www.w3.org/2000/svg">
<mask id="mask0_1085_2956" style="mask-type:luminance" maskUnits="userSpaceOnUse" x="31" y="0" width="19" height="19">
<path d="M31.002 0H49.9997V18.9899H31.002V0Z" fill="white"/>
</mask>
<g mask="url(#mask0_1085_2956)">
<path d="M40.582 0.498047C45.5362 0.498154 49.5547 4.51681 49.5547 9.47266C49.5546 14.4283 45.5362 18.4452 40.582 18.4453C35.6261 18.4453 31.6075 14.4283 31.6074 9.47266C31.6074 4.51675 35.6247 0.498047 40.582 0.498047ZM39.4561 3.35254C38.8416 3.35279 38.3428 3.85027 38.3428 4.46484V7.23438H35.5742C34.9605 7.23438 34.4622 7.733 34.4619 8.34668V10.5996C34.4621 11.2134 34.9604 11.7119 35.5742 11.7119H38.3428V14.4805C38.3428 15.0957 38.8408 15.5945 39.4561 15.5947H41.707C42.3225 15.5947 42.8212 15.0959 42.8213 14.4805V11.7119H45.5898C46.2043 11.7118 46.704 11.2142 46.7041 10.5996V8.34668C46.7038 7.7322 46.2043 7.23444 45.5898 7.23438H42.8213V4.46484C42.8213 3.85011 42.3217 3.35254 41.707 3.35254H39.4561Z" stroke="black"/>
</g>
<mask id="mask1_1085_2956" style="mask-type:luminance" maskUnits="userSpaceOnUse" x="14" y="0" width="21" height="23">
<path d="M14.8408 0H34.2347V22.6262H14.8408V0Z" fill="white"/>
</mask>
<g mask="url(#mask1_1085_2956)">
<path d="M31.1426 0.478516C31.195 0.480811 31.2351 0.482747 31.2607 0.484375C31.2732 0.485167 31.2823 0.485909 31.2881 0.486328C31.291 0.486539 31.2938 0.486244 31.2949 0.486328L31.3184 0.488281C31.8736 0.50755 32.4066 0.551875 32.9199 0.613281C31.1598 2.13766 29.8595 4.17548 29.249 6.49414C27.7965 6.68828 25.8492 7.17093 24.1572 8.36719C22.3041 9.67741 20.7931 11.8175 20.5479 15.2402L20.5469 15.2617V15.2832L20.5488 15.3857V15.3877C20.5694 16.5138 21.3045 17.4209 22.2969 17.8096L22.499 17.8809C23.7161 18.26 24.7182 19.1177 25.2979 20.2324C24.3559 19.4842 23.1665 19.0342 21.8711 19.0342C19.9799 19.0342 18.316 19.991 17.3193 21.4355H16.0674L15.3965 19.8906V16.1934C15.7045 11.9163 16.8636 8.81816 18.4043 6.57031C19.9464 4.32058 21.8883 2.89659 23.7979 1.99512C25.7108 1.09207 27.5908 0.713669 28.9961 0.5625C29.6977 0.487031 30.2781 0.468658 30.6807 0.46875C30.8815 0.468798 31.0378 0.47393 31.1426 0.478516Z" stroke="black"/>
</g>
<mask id="mask2_1085_2956" style="mask-type:luminance" maskUnits="userSpaceOnUse" x="14" y="18" width="33" height="32">
<path d="M14.8408 18.5859H46.7599V49.0909H14.8408V18.5859Z" fill="white"/>
</mask>
<g mask="url(#mask2_1085_2956)">
<path d="M45.9365 19.8896C45.3255 24.3923 43.1225 28.013 40.9883 30.5645C39.848 31.9277 38.733 32.979 37.9043 33.6885C37.4902 34.043 37.1481 34.3122 36.9111 34.4912C36.7928 34.5806 36.7005 34.6473 36.6387 34.6914C36.608 34.7133 36.5845 34.7297 36.5693 34.7402C36.5667 34.7421 36.5637 34.7436 36.5615 34.7451C35.0211 35.6012 34.2325 36.7333 33.834 37.667C33.635 38.1333 33.5341 38.5471 33.4834 38.8477C33.458 38.998 33.4452 39.1211 33.4385 39.209C33.4353 39.2503 33.4336 39.2843 33.4326 39.3096C32.5921 44.544 29.8128 46.8406 27.2744 47.8604C25.9883 48.3769 24.7491 48.5712 23.8291 48.6348C23.37 48.6665 22.9923 48.6648 22.7324 48.6562C22.6028 48.652 22.502 48.6466 22.4355 48.6416C22.4026 48.6391 22.378 48.6362 22.3623 48.6348C22.3547 48.6341 22.349 48.6341 22.3457 48.6338C22.3441 48.6336 22.3423 48.6329 22.3418 48.6328H22.3428L22.335 48.6318H22.3271C18.8589 48.3495 17.1474 46.3554 16.2783 44.4053C15.8398 43.4212 15.6178 42.4494 15.5068 41.7207C15.4515 41.3574 15.4248 41.0571 15.4111 40.8496C15.4043 40.7459 15.4011 40.6655 15.3994 40.6123C15.3986 40.586 15.3976 40.5663 15.3975 40.5537V27.6953H17.3193C18.0812 28.8 19.2335 29.6109 20.5791 29.9346V31.7891L20.8574 31.9268L21.3047 32.1475C21.8531 32.4439 22.4937 32.2183 22.957 31.9258C23.4649 31.6051 23.9568 31.0909 24.3105 30.4873L24.3125 30.4854C24.5388 30.0935 24.6842 29.6732 24.7686 29.2695C25.0635 29.0878 25.3398 28.8798 25.5938 28.6475C25.5679 29.4 25.351 30.1948 24.9658 30.8633C24.2116 32.1517 22.9561 33.0586 21.8701 33.0586C21.6779 33.0586 21.4739 33.0145 21.249 32.9336L20.5791 32.6924V38.6123C20.5791 40.7267 22.7469 42.2239 24.7129 41.3711L24.7119 41.3701C25.9633 40.8299 26.9851 39.906 27.7695 38.9775C28.9438 37.5874 29.6837 35.8843 29.9385 34.0938L29.9824 33.7344C30.2244 31.4631 31.008 30.1446 31.6924 29.4004C32.0372 29.0254 32.3639 28.789 32.5977 28.6484C32.7146 28.5781 32.8082 28.5315 32.8691 28.5039C32.8996 28.4901 32.9217 28.4806 32.9346 28.4756C32.9408 28.4732 32.9446 28.4713 32.9463 28.4707L32.9736 28.4619L33.002 28.4482C37.0908 26.4705 39.1146 23.6859 40.0918 21.1816C40.2511 21.1912 40.4151 21.1992 40.582 21.1992C42.5127 21.1992 44.3308 20.7212 45.9365 19.8896Z" stroke="black"/>
</g>
<mask id="mask3_1085_2956" style="mask-type:luminance" maskUnits="userSpaceOnUse" x="0" y="15" width="26" height="19">
<path d="M0 15.3535H25.3456V33.5353H0V15.3535Z" fill="white"/>
</mask>
<g mask="url(#mask3_1085_2956)">
<path d="M10.4199 15.9121C10.6702 15.8724 10.9224 16.0088 11.0264 16.252L11.0273 16.2539L14.3174 23.8076L14.3965 23.9873H18.9521L19.0137 23.7686C19.3658 22.5138 20.5056 21.584 21.875 21.584C23.5153 21.584 24.8467 22.9229 24.8467 24.5654C24.8464 26.2078 23.5152 27.5459 21.875 27.5459C20.5058 27.5459 19.3658 26.6147 19.0137 25.3613L18.9521 25.1426H14.0137C13.7828 25.1426 13.5728 25.0027 13.4795 24.793L11.2793 19.7168L10.834 18.6895L10.7061 19.8018L9.22363 32.7158V32.7168C9.19493 32.9718 8.99453 33.1767 8.7373 33.2178L8.73242 33.2188C8.71866 33.2212 8.70068 33.2217 8.65234 33.2217C8.42661 33.2217 8.21231 33.0867 8.12109 32.877L4.83984 25.3232L4.76172 25.1426H0.923828C0.607071 25.1426 0.345966 24.8813 0.345703 24.5654C0.345703 24.2482 0.606559 23.9873 0.923828 23.9873H5.14355C5.37036 23.9873 5.57358 24.123 5.66797 24.335L7.87891 29.4131L8.3252 30.4385L8.45117 29.3271L9.92285 16.4189C9.95873 16.1551 10.1561 15.9531 10.4189 15.9121H10.4199Z" stroke="black" stroke-width="0.6"/>
</g>
</svg>
