<svg width="50" height="51" viewBox="0 0 50 51" fill="none" xmlns="http://www.w3.org/2000/svg">
<mask id="mask0_1085_3039" style="mask-type:luminance" maskUnits="userSpaceOnUse" x="0" y="0" width="50" height="51">
<path d="M0 0H50V50.0214H0V0Z" fill="white"/>
</mask>
<g mask="url(#mask0_1085_3039)">
<path d="M22.0762 0.152344H27.8584C28.4387 0.152344 28.9316 0.685249 28.8838 1.30273C28.7796 2.0748 28.6847 3.44087 28.7402 4.93164C28.7957 6.42037 29.0018 8.04761 29.5098 9.33398L29.5928 9.54492L29.7549 9.38574C31.4631 7.70653 33.1917 6.78099 34.873 6.45508C36.5536 6.12935 38.1991 6.40001 39.7461 7.13477C42.8454 8.60688 45.5469 11.9396 47.2998 16.0303L47.3008 16.0312C49.1412 20.2649 49.8695 25.0235 49.3457 29.0732L49.3447 29.0801V29.0879C49.2565 32.1122 48.2679 35.2572 46.4307 38.1719L46.4297 38.1729C42.3134 44.8589 34.2848 49.9902 26.6846 49.9902C21.7166 49.9902 18.2133 47.646 15.625 45.5146C14.9774 44.9813 14.3887 44.4637 13.8467 43.9971C13.3063 43.5319 12.8108 43.1171 12.3555 42.7979C11.9017 42.4797 11.4749 42.247 11.0723 42.1582C10.713 42.0791 10.3732 42.115 10.0566 42.2988L9.92285 42.3867C9.29003 42.8462 8.89971 43.3163 8.66309 43.7842C8.42655 44.252 8.3478 44.7087 8.32324 45.1309C8.31104 45.341 8.3122 45.544 8.31445 45.7344C8.31673 45.9265 8.31982 46.1036 8.3125 46.2705C8.29783 46.6046 8.24161 46.8701 8.07324 47.082L8.07031 47.085C7.91883 47.286 7.66491 47.4393 7.38672 47.4658C7.20127 47.4712 5.76694 47.5882 4.19531 47.2236C2.63831 46.8624 0.987611 46.0381 0.293945 44.1982L0.230469 44.0166C0.190821 43.8728 0.169282 43.7252 0.180664 43.5908L0.204102 43.459L0.206055 43.4521C1.40431 38.3391 3.58487 35.2844 6.77734 34.0469C9.65382 32.9338 12.9056 33.4733 15.9219 33.9336C17.4219 34.1625 18.8657 34.3716 20.1562 34.333C21.4488 34.2943 22.6067 34.0074 23.5234 33.2285C24.4214 32.4674 25.0788 31.2602 25.5195 29.6006C25.9605 27.9402 26.188 25.8131 26.2178 23.1943V23.1934C26.244 20.5086 25.2421 18.3272 24.0693 16.1172L23.5586 15.167C21.6232 11.5005 19.3904 7.40835 21.0742 0.924805C21.2037 0.484128 21.6184 0.152344 22.0762 0.152344ZM22.8672 2.31934C21.8736 7.00944 23.2736 10.2268 24.8936 13.2754C26.5146 16.3261 28.3389 19.1867 28.2959 23.2197C28.2301 28.4637 27.3447 31.6857 25.9668 33.624C24.5965 35.5512 22.7232 36.2305 20.6143 36.3516C18.4938 36.4733 16.1604 36.0306 13.877 35.7256C11.7505 35.4415 9.66538 35.277 7.89844 35.8447L7.55078 35.9678C5.04373 36.9043 3.35324 39.4327 2.32031 43.5576L2.30664 43.6113L2.33105 43.6611C2.6779 44.3539 3.32729 44.7775 4.02539 45.0342C4.72396 45.2909 5.48914 45.3879 6.09863 45.418L6.24805 45.4248L6.25586 45.2764C6.42878 42.0248 8.87024 40.0461 10.7148 40.0459C11.5772 40.0459 12.3964 40.3798 13.2402 40.9248C14.0858 41.471 14.9425 42.219 15.8828 43.0322C17.7565 44.6528 19.9432 46.5164 22.9434 47.4072V47.4062C27.5802 48.8037 33.3517 47.4324 38.4277 43.7451L38.4268 43.7441C43.7371 39.9071 47.1464 34.2331 47.2949 28.9795V28.8584C47.7937 25.1336 47.1142 20.7697 45.4346 16.8213L45.4336 16.8203C43.7525 12.9283 41.3241 10.0431 38.751 8.90527L38.4746 8.79102C37.0972 8.25396 35.7335 8.22319 34.3906 8.7002C33.0518 9.17581 31.7443 10.1529 30.4648 11.6133L30.209 11.9111C29.7715 12.4261 29.0058 12.3955 28.625 11.8877L28.623 11.8848C27.6195 10.6099 27.1037 8.81387 26.8594 7.0332C26.6156 5.25591 26.6448 3.51272 26.7178 2.35938L26.7275 2.2002H22.8926L22.8672 2.31934ZM35.1445 38.1055C35.4202 37.8887 35.6999 37.8346 35.9473 37.8789C36.1984 37.9239 36.4281 38.0731 36.5918 38.2793C36.7552 38.4854 36.847 38.7414 36.833 38.9941C36.8191 39.2432 36.702 39.5012 36.4268 39.7178C33.2481 42.1971 29.5513 43.5615 26.1553 43.5615C25.0532 43.5615 23.9533 43.4159 22.9736 43.0986L22.9697 43.0977L22.8496 43.0566C22.5845 42.9503 22.4171 42.7765 22.3252 42.5811C22.2188 42.3545 22.2087 42.0861 22.2822 41.8379C22.3559 41.5897 22.5113 41.3705 22.7227 41.2383C22.9309 41.1082 23.2033 41.0562 23.5303 41.1543H23.5312C27.0537 42.1708 31.4776 40.9737 35.1436 38.1064L35.1445 38.1055ZM8.57129 10.3369H14.8242C15.3877 10.3369 15.8496 10.7998 15.8496 11.3633V16.415H20.8135C21.3768 16.4153 21.8369 16.8761 21.8369 17.4395V23.7217C21.8369 24.2835 21.3766 24.7449 20.8135 24.7451H15.8496V29.6787C15.8496 30.2422 15.3877 30.705 14.8242 30.7051H8.57129C8.00963 30.705 7.54785 30.2423 7.54785 29.6787V24.7451H2.49512C1.93332 24.7451 1.47174 24.2835 1.47168 23.7217V17.4395C1.47168 16.8761 1.93315 16.4151 2.49512 16.415H7.54785V11.3633C7.54785 10.7997 8.00963 10.337 8.57129 10.3369ZM9.59668 17.4395C9.59655 18.0011 9.13488 18.4629 8.57129 18.4629H3.51953V22.6963H8.57129C9.13482 22.6963 9.59668 23.1581 9.59668 23.7217V28.6553H13.7998V23.7217C13.7998 23.158 14.2625 22.6963 14.8242 22.6963H19.7891V18.4629H14.8242C14.2624 18.4629 13.7999 18.0012 13.7998 17.4395V12.3867H9.59668V17.4395Z" fill="black" stroke="#7A8287" stroke-width="0.3"/>
</g>
</svg>
