<svg width="62" height="50" viewBox="0 0 62 50" fill="none" xmlns="http://www.w3.org/2000/svg">
<mask id="mask0_1087_3068" style="mask-type:luminance" maskUnits="userSpaceOnUse" x="0" y="0" width="62" height="50">
<path d="M0 0H61.25V50H0V0Z" fill="white"/>
</mask>
<g mask="url(#mask0_1087_3068)">
<mask id="path-2-inside-1_1087_3068" fill="white">
<path d="M61.25 7.69596C61.25 3.97852 59.209 1.92773 55.5111 1.92773C51.5527 1.92773 50.1335 3.83529 49.0006 5.36849C48.1283 6.53711 47.4674 7.42253 45.8398 7.64388C45.4395 5.72656 43.929 3.91016 41.556 2.53646C38.7207 0.902343 34.8372 0.00390625 30.625 0.00390625C26.4095 0.00390625 22.526 0.902343 19.6973 2.5332C17.3275 3.89714 15.8138 5.72005 15.4167 7.64063C13.7793 7.41927 13.1185 6.5306 12.2559 5.36198C11.1165 3.82878 9.70052 1.92122 5.74544 1.92122C2.03776 1.92122 0 3.97201 0 7.69596C0 10.6842 2.0931 12.4746 2.98177 13.0964C2.9069 13.373 2.87109 13.6628 2.87109 13.9655C2.87109 15.2708 3.55143 16.612 4.72656 17.6504C5.91471 18.6953 7.37956 19.2389 8.7207 19.2389C9.72005 19.2389 10.6445 18.9362 11.3477 18.321C11.3672 18.3014 11.3867 18.2852 11.4095 18.2656C11.4355 18.2656 11.4583 18.2721 11.4844 18.2721C14.7591 18.2721 16.7448 17.5885 17.4056 17.3184C18.5449 19.4961 19.9837 21.2572 21.2728 22.8262C23.2064 25.196 24.8861 27.237 24.8861 29.8086C24.8861 32.1914 24.6582 33.5521 24.4141 34.9909C24.1732 36.4232 23.9225 37.9141 23.9225 40.388V49.0371C23.9225 49.5677 24.3522 49.9974 24.8796 49.9974C25.1172 49.9974 27.1647 49.9128 29.2025 47.1133H32.0345C34.0723 49.9128 36.123 49.9974 36.3574 49.9974C36.8848 49.9974 37.3112 49.5677 37.3112 49.0371V40.3815C37.3112 37.9076 37.0605 36.4232 36.8229 34.9844C36.5853 33.5456 36.3509 32.1849 36.3509 29.8021C36.3509 27.2305 38.0241 25.1895 39.9642 22.8197C41.25 21.2507 42.6888 19.4896 43.8281 17.3118C44.4922 17.582 46.4746 18.2656 49.7526 18.2656C49.7786 18.2656 49.8014 18.2656 49.8275 18.2591C49.8438 18.2786 49.8633 18.2982 49.8861 18.3145C50.5859 18.9297 51.5169 19.2324 52.5163 19.2324C53.8574 19.2324 55.319 18.6921 56.5072 17.6439C57.6921 16.6055 58.3659 15.2643 58.3659 13.959C58.3659 13.6563 58.3268 13.3665 58.2552 13.0898C59.1471 12.4746 61.25 10.6842 61.25 7.69596ZM20.651 4.19987C23.1934 2.73503 26.735 1.92122 30.625 1.92122C34.515 1.92122 38.0534 2.72851 40.5957 4.19987C42.0117 5.01693 43.0273 5.98372 43.571 6.99284C41.2272 6.10742 36.748 4.80859 30.625 4.80859C24.4987 4.80859 20.0228 6.10742 17.6758 6.99284C18.2161 5.99023 19.2383 5.01693 20.651 4.19987ZM30.625 18.5293C29.7852 15.668 28.4082 13.3177 26.4909 11.5143C24.4629 9.60677 22.1842 8.64323 20.2865 8.16146C22.6855 7.45508 26.2142 6.73568 30.625 6.73568C35.0326 6.73568 38.5677 7.45508 40.9635 8.16146C39.0658 8.64974 36.7871 9.61328 34.7591 11.5143C32.8418 13.3177 31.4583 15.668 30.625 18.5293ZM10.0879 16.8757C9.1862 17.6699 7.30469 17.3607 5.98958 16.2051C5.23763 15.541 4.7819 14.7044 4.7819 13.9655C4.7819 13.5391 4.92839 13.194 5.22461 12.9434C6.12305 12.1491 8.00456 12.4583 9.32292 13.6139C10.0749 14.278 10.5273 15.1146 10.5273 15.8535C10.5273 16.2734 10.3809 16.6185 10.0879 16.8757ZM12.4089 16.3288C12.4316 16.1725 12.4382 16.013 12.4382 15.847C12.4382 14.5417 11.7578 13.2005 10.5827 12.1621C8.52539 10.3522 5.64128 10.0527 3.9974 11.459C3.35612 10.9935 1.91732 9.72396 1.91732 7.69596C1.91732 5.03646 3.09896 3.84831 5.74544 3.84831C8.74675 3.84831 9.6582 5.08529 10.7227 6.51432C11.6927 7.81641 12.7832 9.28125 15.3353 9.56445C15.4329 11.8724 15.9115 13.8418 16.6048 15.5703C16.1068 15.7624 14.7005 16.2246 12.4089 16.3288ZM25.8333 47.7155V40.3815C25.8333 38.0671 26.0612 36.7259 26.2923 35.3034C26.5397 33.8451 26.7904 32.3444 26.7904 29.8021C26.7904 26.5436 24.8242 24.1413 22.7409 21.6022C20.2897 18.6042 17.5358 15.2318 17.2461 9.63281C18.877 9.73047 22.3665 10.2741 25.1921 12.9368C28.1315 15.7201 29.6387 20.056 29.6549 25.8275C29.375 26.8366 27.7441 32.9303 27.7441 37.4941V45.8503C27.0345 46.8659 26.3542 47.4193 25.8333 47.7155ZM29.6615 45.1927V37.5007C29.6615 35.1504 30.1465 32.2891 30.6185 30.0365C31.097 32.2891 31.5723 35.1504 31.5723 37.5007V45.1927H29.6615ZM38.4961 21.6022C36.4128 24.1413 34.4466 26.5469 34.4466 29.8021C34.4466 32.3444 34.6973 33.8451 34.9414 35.3034C35.1823 36.7259 35.4004 38.0671 35.4004 40.3815V47.7155C34.8796 47.4128 34.2025 46.8659 33.4896 45.8503V37.5007C33.4896 32.9369 31.8555 26.8431 31.5788 25.834C31.6048 20.056 33.1055 15.7201 36.0449 12.9434C38.8672 10.2741 42.36 9.73698 43.9876 9.63932C43.7077 15.2383 40.944 18.6107 38.4961 21.6022ZM45.9115 9.56445C48.4668 9.28125 49.5573 7.81641 50.5241 6.51432C51.5853 5.08529 52.5033 3.84831 55.5046 3.84831C58.151 3.84831 59.3327 5.03646 59.3327 7.69596C59.3327 9.73047 57.8939 11 57.2493 11.459C55.6022 10.0527 52.7181 10.3522 50.6576 12.1621C49.4759 13.2005 48.8021 14.5417 48.8021 15.847C48.8021 16.0065 48.8151 16.1693 48.8346 16.3288C46.543 16.2246 45.1335 15.7624 44.6387 15.5703C45.3353 13.8483 45.8138 11.8724 45.9115 9.56445ZM55.2604 16.1986C53.9421 17.3542 52.0605 17.6634 51.1621 16.8691C50.8659 16.612 50.7194 16.2669 50.7194 15.847C50.7194 15.1081 51.1686 14.2715 51.9271 13.6074C52.7474 12.888 53.7891 12.4941 54.6712 12.4941C55.2051 12.4941 55.6803 12.6341 56.0254 12.9368C56.3184 13.194 56.4648 13.5391 56.4648 13.959C56.4583 14.6979 56.0124 15.541 55.2604 16.1986Z"/>
</mask>
<path d="M61.25 7.69596C61.25 3.97852 59.209 1.92773 55.5111 1.92773C51.5527 1.92773 50.1335 3.83529 49.0006 5.36849C48.1283 6.53711 47.4674 7.42253 45.8398 7.64388C45.4395 5.72656 43.929 3.91016 41.556 2.53646C38.7207 0.902343 34.8372 0.00390625 30.625 0.00390625C26.4095 0.00390625 22.526 0.902343 19.6973 2.5332C17.3275 3.89714 15.8138 5.72005 15.4167 7.64063C13.7793 7.41927 13.1185 6.5306 12.2559 5.36198C11.1165 3.82878 9.70052 1.92122 5.74544 1.92122C2.03776 1.92122 0 3.97201 0 7.69596C0 10.6842 2.0931 12.4746 2.98177 13.0964C2.9069 13.373 2.87109 13.6628 2.87109 13.9655C2.87109 15.2708 3.55143 16.612 4.72656 17.6504C5.91471 18.6953 7.37956 19.2389 8.7207 19.2389C9.72005 19.2389 10.6445 18.9362 11.3477 18.321C11.3672 18.3014 11.3867 18.2852 11.4095 18.2656C11.4355 18.2656 11.4583 18.2721 11.4844 18.2721C14.7591 18.2721 16.7448 17.5885 17.4056 17.3184C18.5449 19.4961 19.9837 21.2572 21.2728 22.8262C23.2064 25.196 24.8861 27.237 24.8861 29.8086C24.8861 32.1914 24.6582 33.5521 24.4141 34.9909C24.1732 36.4232 23.9225 37.9141 23.9225 40.388V49.0371C23.9225 49.5677 24.3522 49.9974 24.8796 49.9974C25.1172 49.9974 27.1647 49.9128 29.2025 47.1133H32.0345C34.0723 49.9128 36.123 49.9974 36.3574 49.9974C36.8848 49.9974 37.3112 49.5677 37.3112 49.0371V40.3815C37.3112 37.9076 37.0605 36.4232 36.8229 34.9844C36.5853 33.5456 36.3509 32.1849 36.3509 29.8021C36.3509 27.2305 38.0241 25.1895 39.9642 22.8197C41.25 21.2507 42.6888 19.4896 43.8281 17.3118C44.4922 17.582 46.4746 18.2656 49.7526 18.2656C49.7786 18.2656 49.8014 18.2656 49.8275 18.2591C49.8438 18.2786 49.8633 18.2982 49.8861 18.3145C50.5859 18.9297 51.5169 19.2324 52.5163 19.2324C53.8574 19.2324 55.319 18.6921 56.5072 17.6439C57.6921 16.6055 58.3659 15.2643 58.3659 13.959C58.3659 13.6563 58.3268 13.3665 58.2552 13.0898C59.1471 12.4746 61.25 10.6842 61.25 7.69596ZM20.651 4.19987C23.1934 2.73503 26.735 1.92122 30.625 1.92122C34.515 1.92122 38.0534 2.72851 40.5957 4.19987C42.0117 5.01693 43.0273 5.98372 43.571 6.99284C41.2272 6.10742 36.748 4.80859 30.625 4.80859C24.4987 4.80859 20.0228 6.10742 17.6758 6.99284C18.2161 5.99023 19.2383 5.01693 20.651 4.19987ZM30.625 18.5293C29.7852 15.668 28.4082 13.3177 26.4909 11.5143C24.4629 9.60677 22.1842 8.64323 20.2865 8.16146C22.6855 7.45508 26.2142 6.73568 30.625 6.73568C35.0326 6.73568 38.5677 7.45508 40.9635 8.16146C39.0658 8.64974 36.7871 9.61328 34.7591 11.5143C32.8418 13.3177 31.4583 15.668 30.625 18.5293ZM10.0879 16.8757C9.1862 17.6699 7.30469 17.3607 5.98958 16.2051C5.23763 15.541 4.7819 14.7044 4.7819 13.9655C4.7819 13.5391 4.92839 13.194 5.22461 12.9434C6.12305 12.1491 8.00456 12.4583 9.32292 13.6139C10.0749 14.278 10.5273 15.1146 10.5273 15.8535C10.5273 16.2734 10.3809 16.6185 10.0879 16.8757ZM12.4089 16.3288C12.4316 16.1725 12.4382 16.013 12.4382 15.847C12.4382 14.5417 11.7578 13.2005 10.5827 12.1621C8.52539 10.3522 5.64128 10.0527 3.9974 11.459C3.35612 10.9935 1.91732 9.72396 1.91732 7.69596C1.91732 5.03646 3.09896 3.84831 5.74544 3.84831C8.74675 3.84831 9.6582 5.08529 10.7227 6.51432C11.6927 7.81641 12.7832 9.28125 15.3353 9.56445C15.4329 11.8724 15.9115 13.8418 16.6048 15.5703C16.1068 15.7624 14.7005 16.2246 12.4089 16.3288ZM25.8333 47.7155V40.3815C25.8333 38.0671 26.0612 36.7259 26.2923 35.3034C26.5397 33.8451 26.7904 32.3444 26.7904 29.8021C26.7904 26.5436 24.8242 24.1413 22.7409 21.6022C20.2897 18.6042 17.5358 15.2318 17.2461 9.63281C18.877 9.73047 22.3665 10.2741 25.1921 12.9368C28.1315 15.7201 29.6387 20.056 29.6549 25.8275C29.375 26.8366 27.7441 32.9303 27.7441 37.4941V45.8503C27.0345 46.8659 26.3542 47.4193 25.8333 47.7155ZM29.6615 45.1927V37.5007C29.6615 35.1504 30.1465 32.2891 30.6185 30.0365C31.097 32.2891 31.5723 35.1504 31.5723 37.5007V45.1927H29.6615ZM38.4961 21.6022C36.4128 24.1413 34.4466 26.5469 34.4466 29.8021C34.4466 32.3444 34.6973 33.8451 34.9414 35.3034C35.1823 36.7259 35.4004 38.0671 35.4004 40.3815V47.7155C34.8796 47.4128 34.2025 46.8659 33.4896 45.8503V37.5007C33.4896 32.9369 31.8555 26.8431 31.5788 25.834C31.6048 20.056 33.1055 15.7201 36.0449 12.9434C38.8672 10.2741 42.36 9.73698 43.9876 9.63932C43.7077 15.2383 40.944 18.6107 38.4961 21.6022ZM45.9115 9.56445C48.4668 9.28125 49.5573 7.81641 50.5241 6.51432C51.5853 5.08529 52.5033 3.84831 55.5046 3.84831C58.151 3.84831 59.3327 5.03646 59.3327 7.69596C59.3327 9.73047 57.8939 11 57.2493 11.459C55.6022 10.0527 52.7181 10.3522 50.6576 12.1621C49.4759 13.2005 48.8021 14.5417 48.8021 15.847C48.8021 16.0065 48.8151 16.1693 48.8346 16.3288C46.543 16.2246 45.1335 15.7624 44.6387 15.5703C45.3353 13.8483 45.8138 11.8724 45.9115 9.56445ZM55.2604 16.1986C53.9421 17.3542 52.0605 17.6634 51.1621 16.8691C50.8659 16.612 50.7194 16.2669 50.7194 15.847C50.7194 15.1081 51.1686 14.2715 51.9271 13.6074C52.7474 12.888 53.7891 12.4941 54.6712 12.4941C55.2051 12.4941 55.6803 12.6341 56.0254 12.9368C56.3184 13.194 56.4648 13.5391 56.4648 13.959C56.4583 14.6979 56.0124 15.541 55.2604 16.1986Z" fill="black" stroke="#7A8287" stroke-width="0.6" mask="url(#path-2-inside-1_1087_3068)"/>
</g>
</svg>
