<svg width="50" height="39" viewBox="0 0 50 39" fill="none" xmlns="http://www.w3.org/2000/svg">
<path d="M11.1504 6.13574H11.1514C11.5831 6.1512 11.9216 6.51446 11.9062 6.94629C11.8908 7.37751 11.5308 7.71213 11.0947 7.70215H11.0938C11.021 7.70006 9.9936 7.68491 8.64648 8.0127C7.2744 8.34661 5.56267 9.03823 4.19336 10.4688C2.25455 12.4936 1.43163 15.5189 1.72559 19.4404V19.4414C1.72739 19.4621 1.81471 20.3664 2.27637 21.5156C2.73814 22.665 3.57744 24.0651 5.08789 25.0693C7.79469 26.8713 11.7925 26.9248 16.9443 25.2725H16.9453C17.3575 25.14 17.7993 25.3667 17.9307 25.7783C18.063 26.1902 17.835 26.632 17.4229 26.7646C14.7851 27.6107 12.4124 28.0332 10.3164 28.0332C7.90189 28.0332 5.85842 27.4723 4.19629 26.3594C1.00714 24.2236 0.321561 20.7525 0.19043 19.8027L0.162109 19.5615C-0.168981 15.1388 0.818628 11.7164 3.07715 9.36914C6.3124 6.00566 10.9514 6.12712 11.1504 6.13574Z" fill="black" stroke="#7A8287" stroke-width="0.2"/>
<path d="M20.6738 11.0527C21.1054 11.053 21.457 11.4048 21.457 11.8379V15.668C21.457 15.9039 21.3507 16.1247 21.1709 16.2725L21.0898 16.3311C21.0674 16.3453 20.0957 16.9711 19.1016 18.0098C18.1716 18.9815 17.2094 20.3275 17.001 21.8838L16.9697 22.1982C16.8459 24.0537 17.8729 25.8878 19.9746 27.6465C20.0968 27.7533 21.3722 28.8379 23.2734 29.2461C25.1883 29.6572 27.7265 29.3793 30.3447 26.7607L30.3525 26.7529L30.3584 26.7451C30.551 26.4531 31.2053 25.5192 32.2607 24.583C33.3165 23.6465 34.7682 22.712 36.5537 22.4072C38.8593 22.0134 41.2017 22.7469 43.5215 24.6064C43.8384 24.8602 43.906 25.3098 43.6904 25.6426L43.6436 25.708C43.3729 26.0461 42.8788 26.0997 42.542 25.8291C40.6066 24.2778 38.6833 23.6388 36.8291 23.9502C35.2388 24.2184 33.9436 25.1416 33.0469 25.9951C32.1492 26.8496 31.6421 27.642 31.6299 27.6611L31.6289 27.6631C31.5994 27.7111 31.5634 27.7569 31.5244 27.7959L31.5234 27.7969C29.1408 30.214 26.787 30.9657 24.7773 30.9658C23.0981 30.9664 21.65 30.4423 20.6162 29.9121C20.0998 29.6473 19.6876 29.3813 19.4023 29.1797C19.2597 29.0789 19.1483 28.9939 19.0723 28.9336C19.0347 28.9038 19.0055 28.8801 18.9854 28.8633C18.9753 28.8549 18.9674 28.8475 18.9619 28.8428C18.9591 28.8404 18.9566 28.8383 18.9551 28.8369C18.9538 28.8358 18.9532 28.8351 18.9531 28.835L18.9502 28.833L18.4932 28.4365C16.2897 26.4429 15.2562 24.3033 15.4053 22.0859C15.5217 20.3622 16.3439 18.8682 17.2852 17.6992C18.226 16.5307 19.2805 15.6933 19.8477 15.2832L19.8887 15.2539V11.8379C19.8887 11.4048 20.2407 11.0527 20.6738 11.0527Z" fill="black" stroke="#7A8287" stroke-width="0.2"/>
<path d="M20.6729 14.8848H26.333C26.766 14.8848 27.116 15.2351 27.1162 15.668C27.1162 16.1011 26.7661 16.4512 26.333 16.4512H20.6729C20.2396 16.4512 19.8877 16.1009 19.8877 15.668C19.8879 15.2352 20.2397 14.8848 20.6729 14.8848Z" fill="black" stroke="#7A8287" stroke-width="0.2"/>
<path d="M41.5107 13.8633C42.8321 13.7126 44.471 13.7907 45.9736 14.6094C47.9069 15.6616 49.1629 17.6754 49.6914 20.6201L49.6924 20.6211C49.7164 20.7469 50.0053 22.3422 49.8594 24.25C49.7131 26.1629 49.1308 28.3661 47.4336 29.7314C46.3959 30.5664 45.0743 30.988 43.4707 30.9893C41.8039 30.9893 39.836 30.5338 37.5762 29.6182L37.1201 29.4287C36.7222 29.2585 36.537 28.7983 36.7061 28.3994C36.8752 28.0021 37.3358 27.8164 37.7334 27.9854C39.755 28.8447 41.4992 29.3238 42.9541 29.415C44.4099 29.5062 45.5842 29.2094 46.4521 28.5107C47.5793 27.6032 48.0702 26.0648 48.248 24.5859C48.4263 23.1036 48.2928 21.6567 48.1504 20.9033C47.714 18.4753 46.7392 16.8141 45.2324 15.9893C43.9915 15.3106 42.577 15.2978 41.4775 15.4512C40.3765 15.6048 39.5776 15.927 39.5586 15.9346L39.5557 15.9355C39.5401 15.9424 39.523 15.9486 39.502 15.9561C36.4632 16.9606 34.297 16.8172 32.8818 16.415C31.8205 16.1134 31.1771 15.6655 30.9023 15.4404L30.749 15.3037C30.4649 15.0134 30.4515 14.5589 30.7051 14.2539L30.7588 14.1953C31.0647 13.8938 31.5556 13.8957 31.8594 14.1973L31.8613 14.1992C31.9231 14.2573 32.4598 14.7368 33.6055 14.9961C34.7514 15.2554 36.5004 15.2929 38.9834 14.4766V14.4775L38.9893 14.4746C39.1951 14.3918 40.1899 14.0139 41.5107 13.8633Z" fill="black" stroke="#7A8287" stroke-width="0.2"/>
<path d="M34.4102 29.2734C34.2817 29.8062 34.1317 31.9286 37.8955 36.1309C38.167 36.4334 38.1596 36.8876 37.8916 37.1807L37.835 37.2373C37.6862 37.3717 37.4996 37.4365 37.3125 37.4365C37.0979 37.4365 36.8834 37.3493 36.7275 37.1758C34.1038 34.2464 33.1601 32.1012 32.8896 30.6611C32.6566 29.4199 32.9228 28.6975 33.0508 28.4404L34.4102 29.2734Z" fill="black" stroke="#7A8287" stroke-width="0.2"/>
<mask id="mask0_1085_3047" style="mask-type:luminance" maskUnits="userSpaceOnUse" x="24" y="29" width="12" height="10">
<path d="M35.4551 29.3633V38.2529H24.4922V29.3633H35.4551Z" fill="white" stroke="white" stroke-width="0.2"/>
</mask>
<g mask="url(#mask0_1085_3047)">
<path d="M24.7754 29.7607C25.0216 29.4053 25.5102 29.3179 25.8662 29.5645C26.0144 29.667 27.8301 30.9303 29.8652 32.4756C31.9045 34.024 34.1524 35.847 35.1709 37.0693C35.4308 37.3812 35.4073 37.836 35.1289 38.1201L35.0703 38.1738C34.9231 38.2955 34.7451 38.3555 34.5684 38.3555C34.344 38.3554 34.1213 38.2587 33.9668 38.0732C33.0068 36.921 30.7701 35.1249 28.7754 33.6172C26.7826 32.1109 25.0178 30.883 24.9727 30.8516H24.9717C24.6383 30.6206 24.5405 30.1767 24.7334 29.8291L24.7754 29.7607Z" fill="black" stroke="#7A8287" stroke-width="0.2"/>
</g>
<path d="M24.4951 20.2197C25.7803 19.6148 27.2113 19.6349 28.7559 20.291C28.8022 20.3109 28.8467 20.3345 28.8887 20.3633L28.8906 20.3652C28.9129 20.3797 29.5834 20.8147 30.3906 21.0957C30.7966 21.237 31.2442 21.3418 31.6641 21.3311C32.0856 21.3202 32.4867 21.1921 32.7861 20.8613C33.0767 20.541 33.5732 20.5171 33.8936 20.8076C34.2147 21.0981 34.2389 21.5925 33.9473 21.9141C33.134 22.8115 32.0416 23.0047 30.959 22.8496C29.8745 22.6942 28.8117 22.1898 28.085 21.7119L28.0771 21.707L28.0684 21.7031C26.9845 21.2582 26.0314 21.2306 25.168 21.6338V21.6348C24.234 22.0719 23.5711 22.9378 23.1436 23.6865C22.9293 24.0618 22.7723 24.4113 22.668 24.6689L22.5098 25.1006C22.4071 25.4396 22.0954 25.658 21.7598 25.6582C21.6852 25.6582 21.6099 25.6472 21.5342 25.625C21.1458 25.509 20.9148 25.12 20.9893 24.7305L21.0078 24.6523C21.0264 24.5895 21.276 23.7717 21.834 22.8232C22.3926 21.8737 23.2547 20.8031 24.4951 20.2197Z" fill="black" stroke="#7A8287" stroke-width="0.2"/>
<path d="M28.0078 16.2607C28.3128 15.9546 28.8091 15.952 29.1162 16.2568C29.4232 16.5617 29.4241 17.058 29.1201 17.3652C28.6066 17.8838 28.1794 18.4646 27.9072 18.9473C27.7715 19.188 27.6722 19.4086 27.6211 19.5869C27.5956 19.6758 27.5803 19.7596 27.5811 19.832C27.5818 19.9028 27.5977 19.9779 27.6494 20.0332C27.9442 20.3491 27.9279 20.8448 27.6123 21.1396C27.4609 21.2811 27.2684 21.3506 27.0771 21.3506C26.867 21.3506 26.6585 21.268 26.5039 21.1025C25.7571 20.303 25.9741 19.2481 26.4785 18.29C26.9799 17.3378 27.7443 16.5262 28.0078 16.2607Z" fill="black" stroke="#7A8287" stroke-width="0.2"/>
<path d="M13.5869 9.16504C13.8 8.78959 14.2776 8.65712 14.6543 8.87012C15.0299 9.0833 15.163 9.55885 14.9512 9.93555L14.9502 9.93652C14.8458 10.1241 14.6813 10.4965 14.5859 10.918C14.4911 11.3373 14.4604 11.8235 14.6455 12.2246C14.8815 12.7361 15.4647 13.0693 16.3291 13.2432C16.7268 13.323 16.9935 13.6916 16.9551 14.0869L16.9434 14.166C16.8682 14.5382 16.5412 14.7957 16.1758 14.7959C16.1256 14.7959 16.0728 14.7905 16.0195 14.7803H16.0205C14.596 14.4941 13.6628 13.847 13.2168 12.8711C12.8442 12.0542 12.9041 11.1825 13.0762 10.4824C13.248 9.78333 13.5296 9.26598 13.5869 9.16504Z" fill="black" stroke="#7A8287" stroke-width="0.2"/>
<path d="M13.5879 11.2725C13.982 11.1762 14.3788 11.3985 14.5107 11.7734L14.5342 11.8506C14.6347 12.2705 14.3767 12.6922 13.958 12.7949L13.957 12.7959C13.8172 12.8313 12.3137 13.2367 11.0752 14.6094C9.86847 15.9469 8.92718 18.1875 9.71484 21.8535L9.7959 22.2129C9.89748 22.6336 9.6384 23.0565 9.21777 23.1572H9.2168C9.15578 23.1725 9.09513 23.1797 9.03418 23.1797C8.67957 23.1797 8.35862 22.9371 8.27246 22.5781C7.14589 17.8783 8.46659 15.0623 10.0625 13.417C10.863 12.5918 11.7365 12.0576 12.415 11.7285C12.7541 11.5641 13.0439 11.4503 13.251 11.3779C13.3544 11.3418 13.4374 11.316 13.4951 11.2988C13.5239 11.2903 13.5467 11.2836 13.5625 11.2793C13.5703 11.2772 13.5767 11.2756 13.5811 11.2744C13.5831 11.2739 13.5847 11.2737 13.5859 11.2734H13.5879V11.2725Z" fill="black" stroke="#7A8287" stroke-width="0.2"/>
<path d="M4.35742 13.8076C4.76002 13.8575 5.05162 14.2026 5.04395 14.5986L5.03906 14.6787C5.0106 14.9206 5.00114 15.3842 5.09082 15.8672C5.18013 16.3478 5.37093 16.866 5.75684 17.1992C6.32624 17.6909 7.26136 17.7429 8.49609 17.4111C8.88889 17.3065 9.29104 17.5186 9.43164 17.8896L9.45605 17.9658C9.56866 18.3831 9.32021 18.813 8.90234 18.9258C8.24769 19.1008 7.64586 19.1875 7.09961 19.1875C6.25484 19.1874 5.54195 18.9791 4.96387 18.5674L4.72363 18.3789C3.96 17.714 3.64475 16.7727 3.52344 15.9746C3.40238 15.1778 3.47716 14.5366 3.4834 14.4883V14.4873C3.53655 14.0579 3.92748 13.7546 4.35742 13.8076Z" fill="black" stroke="#7A8287" stroke-width="0.2"/>
<path d="M18.0186 4.25586C18.4202 4.30261 18.7165 4.64608 18.7119 5.04297L18.7061 5.12305C18.6809 5.3523 18.6745 5.73663 18.7207 6.12207C18.7664 6.5029 18.8665 6.90734 19.0713 7.1582V7.15918C19.1582 7.2632 19.2572 7.33269 19.3857 7.37012L19.4131 7.37793L19.4404 7.37109C20.1616 7.17353 22.4408 6.68914 24.5967 7.76953C26.208 8.57834 27.3726 10.0539 28.0527 12.1719C28.1842 12.5839 27.9577 13.0244 27.5459 13.1572C27.4661 13.1827 27.3851 13.1953 27.3057 13.1953C27.0156 13.1953 26.7439 13.0326 26.6094 12.7695L26.5605 12.6504L26.4551 12.3418C25.9089 10.8279 25.0547 9.75961 23.9072 9.17871C22.9286 8.68436 21.8877 8.61971 21.0928 8.67773C20.2977 8.7358 19.74 8.91671 19.7227 8.92285C19.646 8.94818 19.5643 8.96179 19.4824 8.96289L19.4004 8.95996C18.7753 8.90378 18.2421 8.62134 17.8545 8.14551C17.4022 7.58951 17.2177 6.84667 17.1514 6.20703C17.0853 5.56946 17.1384 5.04781 17.1504 4.94531C17.2001 4.51524 17.5866 4.20615 18.0186 4.25586Z" fill="black" stroke="#7A8287" stroke-width="0.2"/>
<path d="M18.6748 7.81738C18.9788 7.50892 19.4743 7.50345 19.7822 7.80664L19.7832 7.80762C20.0919 8.11015 20.0965 8.60567 19.7939 8.91504L18.1035 10.6377C17.9499 10.7936 17.7462 10.8721 17.5439 10.8721C17.3448 10.872 17.1473 10.7984 16.9951 10.6484V10.6475C16.6862 10.3449 16.6817 9.84948 16.9844 9.54004L18.6748 7.81738Z" fill="black" stroke="#7A8287" stroke-width="0.2"/>
<path d="M28.4014 7.75195C29.7416 7.45247 31.0991 7.54688 31.376 7.57031C31.808 7.60812 32.1274 7.98719 32.0898 8.41895C32.0521 8.84912 31.6733 9.16596 31.2422 9.13086C30.6151 9.07855 29.6406 9.09423 28.7988 9.27344C28.3782 9.36298 27.9841 9.49537 27.6816 9.68457C27.3786 9.87415 27.1574 10.1286 27.1094 10.4639C27.0541 10.8534 26.7181 11.1367 26.335 11.1367C26.2984 11.1367 26.2615 11.1327 26.2207 11.1279H26.2197C25.7928 11.0642 25.497 10.6683 25.5586 10.2412C25.7731 8.73731 27.0567 8.05246 28.4014 7.75195Z" fill="black" stroke="#7A8287" stroke-width="0.2"/>
<path d="M36.3896 10.5693C36.6802 10.2491 37.1768 10.225 37.4971 10.5166C37.8173 10.807 37.8404 11.3025 37.5508 11.623C37.3183 11.8804 36.8158 12.525 36.4766 13.207C36.3071 13.5477 36.1747 13.9047 36.1406 14.2314C36.1107 14.5186 36.1568 14.7923 36.3301 15.0068L36.4121 15.0957C36.7279 15.3907 36.7457 15.8864 36.4512 16.2021L36.4502 16.2031C36.2971 16.3692 36.0873 16.4521 35.877 16.4521C35.7334 16.4521 35.5898 16.4135 35.4639 16.335L35.3438 16.2422C34.4755 15.4342 34.4207 14.3683 34.7461 13.3174C35.0721 12.2645 35.776 11.2458 36.3896 10.5703V10.5693Z" fill="black" stroke="#7A8287" stroke-width="0.2"/>
<path d="M17.1943 1.40039C17.2779 1.40098 18.3642 1.42209 19.6777 1.83594C20.9917 2.2499 22.5234 3.0538 23.5127 4.61426C23.7447 4.97996 23.6362 5.46426 23.2705 5.69629C22.9049 5.92815 22.4215 5.81965 22.1895 5.4541C21.4583 4.30059 20.2955 3.68398 19.2812 3.35352C18.2666 3.02291 17.3889 2.97517 17.21 2.96875V2.96777L17.1982 2.96875C14.9905 3.14116 13.5143 4.62758 12.5928 6.05957C11.9011 7.13441 11.5147 8.18848 11.3613 8.66211L11.2832 8.92188C11.1917 9.27263 10.8736 9.50577 10.5254 9.50586C10.4599 9.50586 10.3934 9.4981 10.3262 9.48047C9.90791 9.37113 9.6583 8.94328 9.76758 8.52441C9.80243 8.3904 10.2603 6.70181 11.4043 5C12.5477 3.29911 14.3675 1.59615 17.127 1.40137L17.1279 1.40234C17.1483 1.40127 17.1693 1.40039 17.1943 1.40039Z" fill="black" stroke="#7A8287" stroke-width="0.2"/>
<path d="M22.9766 1.29785C24.2909 0.574268 26.0531 -0.0735063 27.9336 0.141602C29.9953 0.379113 31.7749 1.58849 33.2217 3.75684C33.4464 4.09451 33.3747 4.54356 33.0684 4.7959L33.0039 4.84375C32.8704 4.9331 32.7187 4.97559 32.5693 4.97559C32.3163 4.97543 32.0683 4.85236 31.917 4.62598C30.7516 2.87862 29.3551 1.88623 27.7637 1.70117C26.234 1.52395 24.7511 2.10141 23.6543 2.71875C22.5554 3.33729 21.8304 4.00314 21.8135 4.01855L21.8125 4.01953C21.4963 4.31447 21.0007 4.29886 20.7061 3.9834C20.4099 3.6673 20.4253 3.17198 20.7412 2.87598C20.8084 2.81304 21.6644 2.02028 22.9766 1.29785Z" fill="black" stroke="#7A8287" stroke-width="0.2"/>
<path d="M32.8447 3.80957C34.9763 3.59977 37.7038 3.71243 40.2314 4.95117C42.9898 6.30385 44.962 8.72712 46.0889 12.167C46.2236 12.5778 45.9996 13.0204 45.5889 13.1553V13.1562C45.5086 13.1826 45.4256 13.1943 45.3447 13.1943C45.0155 13.1943 44.7079 12.9845 44.5996 12.6543C43.6127 9.64585 41.9133 7.52226 39.541 6.35938C37.2981 5.25962 34.8226 5.18445 32.9072 5.38379C30.9907 5.58327 29.6246 6.05859 29.5938 6.06934H29.5928C29.1854 6.21494 28.7376 6.00201 28.5928 5.59473L28.5918 5.59375C28.4556 5.21198 28.6343 4.79485 28.9932 4.62402L29.0674 4.59375C29.1868 4.55114 30.7138 4.01934 32.8447 3.80957Z" fill="black" stroke="#7A8287" stroke-width="0.2"/>
<path d="M42.3672 11.6328C42.435 11.624 43.318 11.5148 44.4404 11.6719C45.5638 11.8291 46.9166 12.2523 47.9365 13.3008C49.2171 14.6179 49.6693 16.5778 49.2549 19.1484C49.1929 19.5338 48.86 19.8076 48.4824 19.8076L48.3564 19.7979C47.929 19.7294 47.6384 19.3257 47.708 18.8994C48.0327 16.8796 47.7443 15.3524 46.8125 14.3936C46.0656 13.6263 45.0069 13.3265 44.1436 13.2168C43.2784 13.1069 42.5922 13.1856 42.5723 13.1885C42.1681 13.2396 41.7987 12.9785 41.707 12.5928L41.6924 12.5146C41.6361 12.0848 41.9382 11.6913 42.3682 11.6338L42.3672 11.6328Z" fill="black" stroke="#7A8287" stroke-width="0.2"/>
</svg>
