<svg width="50" height="47" viewBox="0 0 50 47" fill="none" xmlns="http://www.w3.org/2000/svg">
<path d="M25.6738 34.6846C25.5353 34.6846 25.3983 34.638 25.2734 34.5476L18.4377 29.3573C18.1517 29.1405 18.0945 28.7296 18.3113 28.4315C18.5295 28.1455 18.9405 28.0883 19.237 28.3066L26.0727 33.4954C26.3587 33.7122 26.4159 34.1247 26.1991 34.4212C26.0727 34.6048 25.868 34.6846 25.6738 34.6846Z" fill="black"/>
<path d="M25.6741 34.6846C25.4784 34.6846 25.2736 34.5928 25.1472 34.4212C24.9304 34.1352 24.9876 33.7242 25.2736 33.4954L32.1093 28.3066C32.3953 28.0883 32.8063 28.1455 33.0351 28.4315C33.2639 28.7175 33.1946 29.1285 32.9086 29.3573L26.073 34.5476C25.9586 34.65 25.811 34.6846 25.6741 34.6846Z" fill="black"/>
<path d="M18.438 26.5587C16.8605 26.5587 14.9171 25.1181 13.5804 22.809C13.3967 22.4883 13.5111 22.0894 13.8197 21.9058C14.1403 21.7236 14.5393 21.838 14.7229 22.1466C16.0942 24.5356 18.0376 25.633 18.9062 25.1302C19.3186 24.8893 19.5459 24.2496 19.5128 23.3915C19.4662 22.3634 19.0778 21.1637 18.426 20.0196C18.2438 19.7005 18.3582 19.3001 18.6668 19.1164C18.986 18.9343 19.3864 19.0487 19.57 19.3573C20.3347 20.6835 20.7803 22.0894 20.8375 23.3343C20.8947 24.7298 20.4491 25.7699 19.5806 26.2727C19.2268 26.4549 18.8384 26.5587 18.438 26.5587Z" fill="black"/>
<path d="M33.709 21.8245C33.4802 21.8245 33.2634 21.7101 33.1369 21.4933C32.9548 21.1727 33.0692 20.7722 33.3778 20.5901L38.7262 17.5042C39.0468 17.3205 39.4472 17.435 39.6294 17.7435C39.813 18.0642 39.6986 18.4646 39.39 18.6467L34.0401 21.7326C33.9378 21.8019 33.8234 21.8245 33.709 21.8245Z" fill="black"/>
<mask id="mask0_1085_2255" style="mask-type:luminance" maskUnits="userSpaceOnUse" x="37" y="10" width="13" height="11">
<path d="M37.3789 10.4043H49.9995V20.4237H37.3789V10.4043Z" fill="white"/>
</mask>
<g mask="url(#mask0_1085_2255)">
<path d="M40.1901 20.2709C39.8243 20.2709 39.4585 20.0767 39.2643 19.7335L37.7334 17.0826C37.4353 16.5678 37.619 15.916 38.1218 15.6194L46.6374 10.7031C47.1522 10.4065 47.804 10.5902 48.1005 11.0929L49.6329 13.7438C49.9295 14.2586 49.7473 14.9104 49.2446 15.207L40.7275 20.1233C40.5559 20.2257 40.3737 20.2709 40.1901 20.2709ZM38.9903 16.637L40.2819 18.8649L48.3745 14.1909L47.0829 11.9615L38.9903 16.637Z" fill="black"/>
</g>
<path d="M32.6226 24.9328C32.5097 24.9328 32.3832 24.8997 32.2809 24.8305C29.6165 23.1852 29.9491 20.4635 30.5091 19.2638C30.6566 18.9326 31.0465 18.7836 31.3777 18.9432C31.7089 19.0922 31.8579 19.4806 31.7089 19.8132C31.6968 19.8238 31.4228 20.4756 31.4454 21.2764C31.48 22.2925 31.9949 23.1159 32.9778 23.7226C33.2864 23.9167 33.3783 24.3156 33.1946 24.6242C33.0576 24.8199 32.8409 24.9328 32.6226 24.9328Z" fill="black"/>
<path d="M16.0597 13.9501C15.9453 13.9501 15.8309 13.9276 15.7286 13.8583L10.3787 10.7724C10.0595 10.5903 9.95567 10.1899 10.1393 9.86923C10.3215 9.5486 10.7219 9.44624 11.0425 9.62988L16.3924 12.7158C16.7115 12.8979 16.8154 13.2983 16.6318 13.619C16.5053 13.8357 16.2885 13.9501 16.0597 13.9501Z" fill="black"/>
<path d="M9.58977 12.3946C9.40763 12.3946 9.22398 12.3494 9.05237 12.2471L0.536786 7.33068C0.285398 7.1937 0.113791 6.95435 0.0340094 6.68038C-0.0337302 6.40491 -0.000613017 6.1189 0.136371 5.86751L1.66879 3.21665C1.96533 2.70183 2.61714 2.53022 3.13195 2.82677L11.6475 7.74314C12.1624 8.03969 12.334 8.69149 12.0359 9.20631L10.505 11.8572C10.368 12.1086 10.1272 12.2802 9.8532 12.3615C9.77342 12.384 9.68159 12.3946 9.58977 12.3946ZM1.40535 6.31459L9.49945 10.9886L10.791 8.76074L2.69692 4.08522L1.40535 6.31459Z" fill="black"/>
<path d="M16.7232 16.4872C16.505 16.4872 16.2882 16.3728 16.1633 16.1786C15.9691 15.87 16.0714 15.4575 16.38 15.2754C17.351 14.6688 17.8658 13.8469 17.9109 12.8293C17.9456 12.0179 17.6595 11.3766 17.649 11.3661C17.5 11.0349 17.649 10.645 17.9802 10.4975C18.3113 10.3485 18.6997 10.4975 18.8487 10.8166C19.3982 12.0284 19.7399 14.738 17.077 16.3833C16.9626 16.4646 16.8376 16.4872 16.7232 16.4872Z" fill="black"/>
<mask id="mask1_1085_2255" style="mask-type:luminance" maskUnits="userSpaceOnUse" x="24" y="33" width="3" height="14">
<path d="M24.6621 33.1406H26.5889V46.821H24.6621V33.1406Z" fill="white"/>
</mask>
<g mask="url(#mask1_1085_2255)">
<path d="M25.6736 46.928C25.3078 46.928 25.0098 46.6299 25.0098 46.2641V34.0334C25.0098 33.6676 25.3078 33.3711 25.6736 33.3711C26.0394 33.3711 26.336 33.6676 26.336 34.0334V46.2762C26.336 46.642 26.0394 46.928 25.6736 46.928Z" fill="black"/>
</g>
<path d="M25.6736 13.2299C24.1637 13.2299 22.9414 12.0061 22.9414 10.4978C22.9414 8.98794 24.1637 7.76562 25.6736 7.76562C27.1819 7.76562 28.4042 8.98794 28.4042 10.4978C28.4042 12.0061 27.1819 13.2299 25.6736 13.2299ZM25.6736 9.07977C24.8953 9.07977 24.2555 9.71953 24.2555 10.4978C24.2555 11.2745 24.8953 11.9143 25.6736 11.9143C26.4503 11.9143 27.0901 11.2745 27.0901 10.4978C27.0901 9.71953 26.4503 9.07977 25.6736 9.07977Z" fill="black"/>
<path d="M43.815 35.7021C43.7458 35.7021 43.666 35.69 43.5967 35.6675C43.255 35.541 43.0714 35.1752 43.1978 34.8335C44.1341 32.1811 43.1858 28.1348 43.1737 28.1002C43.0939 27.7465 43.3107 27.3912 43.666 27.3114C44.0197 27.2316 44.375 27.4484 44.4548 27.8022C44.4999 27.9858 45.5055 32.2609 44.4322 35.2791C44.3404 35.541 44.089 35.7021 43.815 35.7021Z" fill="black"/>
<path d="M7.98931 35.7025C7.78458 35.7025 7.57835 35.6107 7.45191 35.427C5.22404 32.2734 7.30439 27.8493 7.39471 27.6551C7.55577 27.3239 7.94415 27.1854 8.27532 27.3465C8.60649 27.5061 8.74347 27.8944 8.58391 28.2256C8.56133 28.2723 6.75494 32.147 8.5267 34.6729C8.73293 34.9709 8.66369 35.3819 8.36714 35.5881C8.25274 35.6679 8.11575 35.7025 7.98931 35.7025Z" fill="black"/>
<mask id="mask2_1085_2255" style="mask-type:luminance" maskUnits="userSpaceOnUse" x="40" y="0" width="10" height="47">
<path d="M40.8477 0H50V46.8214H40.8477V0Z" fill="white"/>
</mask>
<g mask="url(#mask2_1085_2255)">
<path d="M45.1287 46.881C45.0715 46.881 45.0143 46.8705 44.9571 46.8584C44.6034 46.7666 44.3971 46.4008 44.489 46.0576L48.5127 30.878C49.5062 24.1342 45.8137 17.4129 45.3922 16.6693C45.2085 16.3501 45.3229 15.9497 45.6315 15.7661C45.9521 15.5839 46.351 15.6983 46.5347 16.0069C46.9803 16.7957 50.9016 23.8933 49.8148 31.0947C49.8148 31.1188 49.8042 31.1414 49.8042 31.164L45.7685 46.3782C45.6887 46.6868 45.4253 46.881 45.1287 46.881ZM44.2481 13.4915C43.9742 13.4915 43.7228 13.3199 43.6309 13.058C41.7568 7.85714 41.1728 1.02149 41.1502 0.723437C41.1171 0.357645 41.391 0.0385171 41.7568 0.014432C42.1226 -0.0186848 42.4417 0.255283 42.4658 0.621075C42.4658 0.688815 43.0589 7.57113 44.8773 12.6124C45.0023 12.9542 44.8201 13.332 44.4769 13.4584C44.3971 13.481 44.3279 13.4915 44.2481 13.4915Z" fill="black"/>
</g>
<mask id="mask3_1085_2255" style="mask-type:luminance" maskUnits="userSpaceOnUse" x="1" y="0" width="10" height="47">
<path d="M1.15527 0H10.4039V46.8214H1.15527V0Z" fill="white"/>
</mask>
<g mask="url(#mask3_1085_2255)">
<path d="M6.21736 46.8813C5.93135 46.8813 5.65738 46.6871 5.5776 46.3906L1.55388 31.1763C1.54184 31.1522 1.54184 31.1296 1.54184 31.1071C0.399304 23.6091 4.66387 16.2706 4.84601 15.962C4.85806 15.95 4.86859 15.938 4.86859 15.9154C5.71458 14.7036 6.46875 12.9093 7.13259 10.5655C7.23495 10.2117 7.5887 10.0175 7.94396 10.1094C8.29771 10.2117 8.4919 10.5655 8.40158 10.9207C7.70311 13.3895 6.89174 15.3208 5.97801 16.647C5.73716 17.0579 1.82785 24.0321 2.84545 30.8677L6.86916 46.0473C6.96099 46.4011 6.75476 46.7564 6.40101 46.8467C6.33176 46.8708 6.27456 46.8813 6.21736 46.8813ZM8.67555 7.44496C8.62888 7.44496 8.59576 7.44496 8.5491 7.43442C8.19535 7.36517 7.9545 7.02196 8.02374 6.66821C8.64092 3.39866 8.86973 0.655969 8.88177 0.631884C8.91489 0.266092 9.22348 0.00416664 9.58927 0.0267461C9.95507 0.0613686 10.2185 0.369959 10.1959 0.735751C10.1959 0.758331 9.95507 3.57027 9.32735 6.90756C9.27015 7.21615 8.98414 7.44496 8.67555 7.44496Z" fill="black"/>
</g>
</svg>
