<svg width="50" height="52" viewBox="0 0 50 52" fill="none" xmlns="http://www.w3.org/2000/svg">
<mask id="mask0_1085_3019" style="mask-type:luminance" maskUnits="userSpaceOnUse" x="16" y="0" width="23" height="28">
<path d="M16.4375 0H38.5032V27.4281H16.4375V0Z" fill="white"/>
</mask>
<g mask="url(#mask0_1085_3019)">
<path fill-rule="evenodd" clip-rule="evenodd" d="M21.35 15.4321C21.372 15.4211 21.3903 15.4101 21.4105 15.3972C23.9523 13.7302 25.0912 12.5858 26.4281 9.47552L30.1271 0.868928C30.2628 0.555328 30.118 0.190378 29.8025 0.0565016C29.4908 -0.0792087 29.1258 0.067505 28.9919 0.381106L25.2929 8.98586C24.066 11.8394 23.1289 12.7894 20.7613 14.3446C18.2397 15.6247 17.2934 17.266 16.9467 18.4195C16.5561 19.7125 16.7028 21.0622 17.3594 22.2213C18.0599 23.45 19.2483 24.3009 20.6256 24.554C22.2284 24.8493 23.9615 24.3083 25.5075 23.0319C25.7679 22.8155 26.1017 22.7513 26.4208 22.854C26.7417 22.9585 26.9746 23.2061 27.059 23.5325C27.4753 25.139 28.2474 26.2192 29.4137 26.8317C29.9951 27.138 30.6333 27.2865 31.2715 27.2865C32.293 27.2865 33.3181 26.9069 34.1232 26.1789C35.6931 24.7594 36.0415 22.4487 35.053 19.9985C33.7931 16.8772 33.828 13.7284 35.1557 10.6364L38.4018 3.08614C38.5375 2.77254 38.3926 2.40759 38.0772 2.27371C37.7636 2.13984 37.4005 2.28288 37.2647 2.59832L34.0205 10.1486C32.5571 13.5523 32.5186 17.0239 33.905 20.4625C34.7028 22.4395 34.479 24.1891 33.2925 25.2619C32.3682 26.0982 31.0404 26.2889 29.9896 25.7369C29.1478 25.2949 28.5811 24.4733 28.2565 23.2226C28.0658 22.489 27.523 21.9113 26.8022 21.6784C26.0833 21.4455 25.3039 21.5941 24.7189 22.0764C23.105 23.4096 21.7241 23.4977 20.8493 23.3381C19.8333 23.1511 18.9549 22.5202 18.4359 21.6106C17.9462 20.7486 17.838 19.7436 18.1315 18.7772C18.5312 17.4494 19.6444 16.2922 21.35 15.4321Z" fill="black"/>
</g>
<mask id="mask1_1085_3019" style="mask-type:luminance" maskUnits="userSpaceOnUse" x="12" y="25" width="23" height="27">
<path d="M12.6816 25.5508H34.7474V51.7612H12.6816V25.5508Z" fill="white"/>
</mask>
<g mask="url(#mask1_1085_3019)">
<path fill-rule="evenodd" clip-rule="evenodd" d="M14.6953 51.1992C14.7229 51.5219 14.9924 51.7658 15.3115 51.7658C15.328 51.7658 15.3464 51.7658 15.3647 51.764C15.7058 51.7347 15.9571 51.4339 15.9277 51.0946C15.5646 46.8454 15.3225 44.6594 14.3707 40.0746C13.5803 36.2655 14.0663 33.9658 16.0011 32.5445C16.4027 33.4303 16.9822 34.1895 17.5783 34.9708C17.8479 35.3266 18.1229 35.6842 18.3834 36.062C17.7158 36.9661 17.1528 37.8666 16.8979 39.8509C16.61 42.0791 16.7292 45.5819 17.2885 51.2083C17.3179 51.5274 17.5874 51.7658 17.9029 51.7658C17.923 51.7658 17.9432 51.764 17.9634 51.7622C18.3045 51.7292 18.5521 51.4266 18.5191 51.0855C17.5177 40.9769 18.0533 38.7798 19.0894 37.21C19.6854 38.3397 20.1109 39.7078 20.1109 41.6188V51.146C20.1109 51.4889 20.3878 51.7658 20.7289 51.7658C21.0719 51.7658 21.3488 51.4889 21.3488 51.146V41.6188C21.3488 37.8702 19.867 35.9318 18.5612 34.2189C17.4371 32.7481 16.5494 31.5835 16.7255 29.5167C16.7365 29.403 16.83 29.3278 16.9437 29.3407C19.7405 29.6854 21.9063 29.0656 23.5679 27.4481C24.3564 26.6778 25.642 26.6778 26.4324 27.4481C28.0921 29.0656 30.258 29.6854 33.0566 29.3407C33.1684 29.326 33.2638 29.4048 33.273 29.5167C33.4508 31.5835 32.5614 32.7481 31.439 34.2189C30.1315 35.9318 28.6515 37.8702 28.6515 41.6188V51.146C28.6515 51.4889 28.9284 51.7658 29.2695 51.7658C29.6125 51.7658 29.8894 51.4889 29.8894 51.146V41.6188C29.8894 38.2902 31.1768 36.603 32.422 34.969C33.6049 33.4193 34.7236 31.954 34.5054 29.4122C34.4375 28.5998 33.7131 28.0129 32.9043 28.1119C30.4707 28.4127 28.69 27.9194 27.2962 26.5604C26.029 25.3262 23.9695 25.3262 22.7022 26.5604C21.3103 27.9194 19.5277 28.4127 17.0959 28.1119C16.2854 28.0147 15.5628 28.5979 15.4931 29.4122C15.4326 30.1237 15.4766 30.7509 15.5976 31.3195C12.2067 33.5367 12.5717 37.4979 13.1585 40.324C14.0975 44.8446 14.3359 47.0031 14.6953 51.1992Z" fill="black"/>
</g>
<mask id="mask2_1085_3019" style="mask-type:luminance" maskUnits="userSpaceOnUse" x="0" y="3" width="50" height="45">
<path d="M0 3.95508H50V47.1476H0V3.95508Z" fill="white"/>
</mask>
<g mask="url(#mask2_1085_3019)">
<path fill-rule="evenodd" clip-rule="evenodd" d="M7.79604 36.5683L2.72342 40.3407C2.45016 40.5443 2.39148 40.9331 2.59688 41.2063C2.71791 41.3696 2.90497 41.4557 3.09203 41.4557C3.22041 41.4557 3.35062 41.4154 3.46249 41.3347L8.53511 37.5623C8.8102 37.3569 8.86522 36.97 8.66165 36.6949C8.45809 36.4216 8.07113 36.3648 7.79604 36.5683ZM40.7993 20.4537C40.8946 20.6958 41.1275 20.8443 41.3733 20.8443C41.4503 20.8443 41.5273 20.8296 41.6007 20.8003L46.0883 19.0141C46.2644 18.9425 46.4001 18.794 46.4532 18.6106C46.5064 18.4254 46.4716 18.2273 46.3579 18.0733L45.2374 16.5438L49.6186 14.9684C49.9377 14.8511 50.1064 14.4971 49.9909 14.1762C49.8753 13.8552 49.5196 13.6884 49.1986 13.8039L44.038 15.6598C43.8546 15.7258 43.7134 15.8762 43.6565 16.0615C43.5997 16.2485 43.6345 16.4502 43.75 16.608L44.8871 18.1595L41.144 19.6504C40.8268 19.777 40.6709 20.1364 40.7993 20.4537ZM38.9158 33.1499C38.6811 33.3993 38.6921 33.7918 38.9415 34.0247L42.4095 37.2927C42.547 37.423 42.7359 37.4835 42.923 37.456C43.11 37.4285 43.2732 37.3166 43.3686 37.1515L44.3369 35.4753L47.7957 38.9359C47.9167 39.0551 48.0744 39.1175 48.234 39.1175C48.3917 39.1175 48.5494 39.0551 48.6705 38.9359C48.9125 38.6939 48.9125 38.3014 48.6705 38.0593L44.6432 34.032C44.5056 33.8963 44.3149 33.8303 44.1242 33.856C43.9334 33.8798 43.7647 33.9917 43.6694 34.1586L42.6882 35.8568L39.7906 33.1242C39.5412 32.8895 39.1487 32.9023 38.9158 33.1518V33.1499ZM48.3202 25.5722L42.536 26.2562C42.1967 26.2966 41.9546 26.6028 41.9932 26.9439C42.0317 27.2575 42.2994 27.4886 42.6075 27.4886C42.6314 27.4886 42.657 27.4868 42.6809 27.4849L48.4651 26.7991C48.8043 26.7605 49.0464 26.4524 49.0061 26.1132C48.9676 25.7739 48.6595 25.5318 48.3202 25.5722ZM37.2506 37.2029L37.8467 41.0303L39.6586 40.4122C39.8328 40.3536 40.0254 40.3737 40.1812 40.4709C40.339 40.5681 40.4453 40.7295 40.471 40.9111L41.2082 46.1157C41.2559 46.455 41.0212 46.7668 40.6837 46.8163C40.6526 46.82 40.625 46.8218 40.5957 46.8218C40.2913 46.8218 40.0272 46.5981 39.9832 46.29L39.3505 41.8244L37.5496 42.4387C37.3753 42.4974 37.1864 42.4772 37.0306 42.3837C36.8728 42.2883 36.7665 42.1288 36.7371 41.9472L36.0292 37.3936C35.9761 37.0562 36.2071 36.7407 36.5446 36.6857C36.882 36.6344 37.1993 36.8654 37.2506 37.2029ZM11.4144 26.9329C11.5024 26.6028 11.3062 26.2636 10.9761 26.1755L6.46461 24.967C6.28122 24.9175 6.08132 24.956 5.92911 25.0733C5.77689 25.1907 5.68703 25.3723 5.68703 25.5648V27.5968L0.783128 26.2636C0.453023 26.1737 0.113748 26.3681 0.0238854 26.6982C-0.0659766 27.0283 0.128419 27.3676 0.458525 27.4574L6.14368 29.0034C6.19686 29.0181 6.25188 29.0236 6.30506 29.0236C6.43894 29.0236 6.57098 28.9814 6.68102 28.8971C6.83323 28.7815 6.92309 28.5981 6.92309 28.4056V26.3699L10.657 27.3712C10.9852 27.4593 11.3245 27.263 11.4144 26.9329ZM12.5367 21.0974C12.6779 21.0974 12.8191 21.0497 12.9347 20.9525C13.1969 20.7343 13.2318 20.3437 13.0117 20.0814L10.2205 16.74C10.1104 16.6098 9.95273 16.5291 9.78034 16.5199C9.60979 16.5108 9.4429 16.5713 9.31819 16.6887L7.75203 18.1796L4.6362 14.4476C4.41796 14.1854 4.0255 14.1505 3.76508 14.3687C3.50283 14.5888 3.46799 14.9776 3.68622 15.2399L7.22569 19.478C7.33573 19.6101 7.49528 19.6889 7.66583 19.7C7.83639 19.7091 8.00511 19.6486 8.12798 19.5312L9.69415 18.0403L12.0636 20.8755C12.1846 21.0204 12.3607 21.0974 12.5367 21.0974ZM15.5352 10.3855C15.636 10.6184 15.8635 10.7559 16.1 10.7559C16.1844 10.7559 16.2688 10.7394 16.3494 10.7027C16.663 10.567 16.8043 10.2021 16.6667 9.88848L14.3248 4.55544C14.1891 4.24184 13.8241 4.10063 13.5105 4.23817C13.1988 4.37571 13.0557 4.73883 13.1933 5.05243L15.5352 10.3855Z" fill="black"/>
</g>
</svg>
