<svg width="37" height="50" viewBox="0 0 37 50" fill="none" xmlns="http://www.w3.org/2000/svg">
<mask id="mask0_1085_3049" style="mask-type:luminance" maskUnits="userSpaceOnUse" x="5" y="0" width="19" height="18">
<path d="M23.1533 0.474609V17.3711H5.53809V0.474609H23.1533Z" fill="white" stroke="white" stroke-width="0.949335"/>
</mask>
<g mask="url(#mask0_1085_3049)">
<path d="M14.3174 0.498047C18.9634 0.498084 22.7422 4.27781 22.7422 8.92383C22.742 13.568 18.9633 17.3466 14.3174 17.3467C9.67311 17.3467 5.89376 13.5681 5.89355 8.92383C5.89355 4.27773 9.67305 0.498047 14.3174 0.498047Z" stroke="black" stroke-width="0.949335"/>
</g>
<mask id="mask1_1085_3049" style="mask-type:luminance" maskUnits="userSpaceOnUse" x="0" y="18" width="37" height="32">
<path d="M0 18.2695H36.6714V49.9997H0V18.2695Z" fill="white"/>
</mask>
<g mask="url(#mask1_1085_3049)">
<path d="M22.4512 19.5488C23.8259 18.8673 25.3703 18.7286 26.834 19.1445L27.126 19.2354C28.5792 19.7241 29.7711 20.7164 30.5137 22.0459L30.6562 22.3164C31.3834 23.7831 31.4965 25.442 30.9736 26.9922C30.666 27.9045 30.1554 28.7099 29.4922 29.3701L29.1572 29.7041L29.4717 30.0566C34.9812 36.2484 35.7971 39.9509 35.8232 40.042C36.2205 41.4273 35.8556 42.8672 34.6416 43.6152H34.6406L26.9727 48.3418C26.2909 48.762 25.4771 48.8537 24.7324 48.5967C24.1286 48.3885 23.6203 47.9613 23.3018 47.3926C23.1938 47.1998 23.1151 46.9964 23.0625 46.7871C23.0536 46.5498 23.028 46.3121 22.9844 46.0762C23.0087 45.1433 23.5107 44.2076 24.3867 43.667L24.3896 43.665L32.6377 38.5156C32.7114 38.4699 32.7652 38.4201 32.7979 38.3867C32.8139 38.3704 32.8288 38.3535 32.8369 38.3447C32.8469 38.334 32.8517 38.33 32.8545 38.3271L32.8535 38.3262C32.8572 38.3229 32.8626 38.3197 32.8672 38.3154C32.8781 38.3053 32.896 38.2878 32.915 38.2656L32.917 38.2627C32.9998 38.1645 33.0539 38.0625 33.0928 37.9766L33.0938 37.9775C33.1012 37.9616 33.0959 37.9737 33.1104 37.9434C33.1187 37.9257 33.1314 37.8978 33.1436 37.8652L33.1504 37.8477L33.1553 37.8291C33.1852 37.7259 33.1929 37.6291 33.1973 37.582H33.1982V37.5723C33.1995 37.5551 33.2096 37.4584 33.2002 37.3584H33.2012C33.201 37.3567 33.2003 37.3552 33.2002 37.3535C33.2 37.3519 33.2004 37.3502 33.2002 37.3486H33.1992C33.1934 37.291 33.183 37.2434 33.1748 37.2139C33.1707 37.1989 33.1664 37.1845 33.1641 37.1768L33.1631 37.1748C33.162 37.1681 33.1594 37.1506 33.1572 37.1387C33.151 37.1041 33.1372 37.0372 33.1045 36.9629L33.1006 36.9531L32.7246 36.1494C31.6867 33.6585 29.9734 31.7741 27.8574 30.7256L27.6553 30.626L27.4473 30.71C26.714 31.0069 25.9454 31.1631 25.1777 31.1631C24.601 31.1631 24.0238 31.0815 23.457 30.916L23.2148 30.8398C22.7539 30.6842 22.319 30.4694 21.9072 30.2119L21.7188 30.0938L21.5039 30.1553C19.8268 30.6392 18.2828 31.6143 17.0215 33.0312C15.1543 35.1289 14.0608 38.0087 13.8945 41.1523C12.4964 40.8622 10.8071 40.4794 8.81445 39.9727H8.81543C8.66908 39.9352 8.56208 39.8985 8.48535 39.8691C8.45772 39.6415 8.4532 39.3264 8.47363 38.9336C8.50062 38.415 8.5688 37.8087 8.6582 37.1816C8.83685 35.9287 9.09408 34.626 9.25098 33.8291C9.36829 33.2393 9.45599 32.7892 9.49316 32.5166L9.49414 32.5127C9.58024 31.8442 9.1093 31.2319 8.44141 31.1426H8.44238C7.7801 31.0528 7.1562 31.5232 7.06934 32.1953C7.04358 32.3863 6.95971 32.821 6.85449 33.3555C6.56366 34.8244 6.28249 36.3236 6.13281 37.6309C5.98614 38.9121 5.95266 40.1031 6.22168 40.9062V40.9072C6.44681 41.5757 7.06067 41.9836 7.85742 42.2402L8.20996 42.3408C14.0671 43.8317 17.4534 44.2996 18.4111 44.4141C19.1474 44.5475 19.7725 44.9515 20.1797 45.5469C20.357 45.8062 20.4793 46.0878 20.5488 46.3789C20.559 46.5962 20.5808 46.816 20.6191 47.0352C20.6146 47.1762 20.6006 47.3163 20.5732 47.4531V47.4551C20.3423 48.6327 19.3097 49.5235 18.04 49.5967H18.0381C17.8162 49.6105 17.5897 49.5966 17.3623 49.5557L17.3613 49.5566C17.284 49.5421 17.1613 49.5299 17.0293 49.5186H17.0303C14.5451 49.2978 11.2617 48.674 7.26074 47.6553C4.11691 46.8557 2.81085 44.9752 1.80664 43.5234H1.80762L1.70996 43.3818L1.70898 43.3799L1.5293 43.1006C1.3551 42.8082 1.19573 42.4752 1.05664 42.1055C0.625784 40.9621 0.470143 39.6311 0.619141 38.2568L0.620117 38.2559L1.11426 33.6592L1.11523 33.6475L1.11621 33.6348C1.30747 30.3572 2.72188 26.8739 4.96191 24.2148C7.20081 21.5573 10.2253 19.7656 13.626 19.7656H15.0117C16.7986 19.7656 18.5654 20.1626 20.1699 20.9189L20.4961 21.0732L20.7451 20.8125C21.2326 20.3021 21.8041 19.8723 22.4521 19.5498L22.4512 19.5488ZM25.166 19.3555C24.409 19.3555 23.658 19.5078 22.9492 19.8105L22.6475 19.9502C21.2899 20.6238 20.2731 21.7868 19.7891 23.2227C19.305 24.6603 19.4106 26.2 20.084 27.5596V27.5605C20.7156 28.8337 21.7771 29.8056 23.0898 30.3223L23.3564 30.4189C24.7028 30.8728 26.1438 30.8092 27.4365 30.2441L27.6924 30.125C29.0519 29.4515 30.0685 28.2882 30.5527 26.8506C31.0368 25.4146 30.9323 23.8727 30.2588 22.5146C29.5852 21.1566 28.4213 20.1394 26.9834 19.6553H26.9844C26.3907 19.455 25.7776 19.3555 25.166 19.3555Z" stroke="black"/>
</g>
</svg>
