<svg width="50" height="49" viewBox="0 0 50 49" fill="none" xmlns="http://www.w3.org/2000/svg">
<mask id="mask0_1087_3050" style="mask-type:luminance" maskUnits="userSpaceOnUse" x="1" y="19" width="48" height="30">
<path d="M1.73047 19.6992H48.5992V48.4839H1.73047V19.6992Z" fill="white"/>
</mask>
<g mask="url(#mask0_1087_3050)">
<path d="M47.5865 48.4133H2.53123C2.43338 48.4133 2.33868 48.3943 2.24714 48.3565C2.15718 48.3202 2.07668 48.2665 2.00724 48.1971C1.9378 48.1276 1.88413 48.0471 1.84783 47.9572C1.80996 47.8656 1.79102 47.7709 1.79102 47.6731V20.6387C1.79102 20.5408 1.80996 20.4461 1.84783 20.3546C1.88413 20.2646 1.9378 20.1841 2.00724 20.1147C2.07668 20.0452 2.15718 19.9916 2.24714 19.9553C2.33868 19.9174 2.43338 19.8984 2.53123 19.8984C2.62908 19.8984 2.72378 19.9174 2.81374 19.9553C2.90528 19.9916 2.9842 20.0452 3.05364 20.1147C3.12309 20.1841 3.17675 20.2646 3.21463 20.3546C3.25251 20.4461 3.27145 20.5408 3.27145 20.6387V46.9328H46.8463V20.6387C46.8463 20.5408 46.8652 20.4461 46.9031 20.3546C46.941 20.2646 46.9946 20.1841 47.0625 20.1147C47.1319 20.0452 47.2124 19.9916 47.304 19.9553C47.3939 19.9174 47.4886 19.8984 47.5865 19.8984C47.6843 19.8984 47.779 19.9174 47.869 19.9553C47.9605 19.9916 48.041 20.0452 48.1105 20.1147C48.1799 20.1841 48.232 20.2646 48.2699 20.3546C48.3077 20.4461 48.3267 20.5408 48.3267 20.6387V47.6731C48.3267 47.7709 48.3077 47.8656 48.2699 47.9572C48.232 48.0471 48.1799 48.1276 48.1105 48.1971C48.041 48.2665 47.9605 48.3202 47.869 48.3565C47.779 48.3943 47.6843 48.4133 47.5865 48.4133Z" fill="black"/>
</g>
<mask id="mask1_1087_3050" style="mask-type:luminance" maskUnits="userSpaceOnUse" x="0" y="10" width="50" height="12">
<path d="M0 10.8105H50V21.7196H0V10.8105Z" fill="white"/>
</mask>
<g mask="url(#mask1_1087_3050)">
<path d="M49.3734 21.3795H0.740215C0.642361 21.3795 0.547664 21.3606 0.457702 21.3243C0.366162 21.2864 0.287248 21.2327 0.217803 21.1633C0.148359 21.0938 0.094697 21.0134 0.0568182 20.9234C0.0189394 20.8319 0 20.7387 0 20.6393V11.6289C0 11.531 0.0189394 11.4363 0.0568182 11.3464C0.094697 11.2548 0.148359 11.1759 0.217803 11.1065C0.287248 11.037 0.366162 10.9834 0.457702 10.9455C0.547664 10.9076 0.642361 10.8887 0.740215 10.8887H49.3734C49.4729 10.8887 49.566 10.9076 49.6575 10.9455C49.7475 10.9834 49.828 11.037 49.8974 11.1065C49.9669 11.1759 50.0205 11.2548 50.0584 11.3464C50.0947 11.4363 50.1136 11.531 50.1136 11.6289V20.6393C50.1136 20.7387 50.0947 20.8319 50.0584 20.9234C50.0205 21.0134 49.9669 21.0938 49.8974 21.1633C49.828 21.2327 49.7475 21.2864 49.6575 21.3243C49.566 21.3606 49.4729 21.3795 49.3734 21.3795ZM1.48043 19.9007H48.6348V12.3691H1.48043V19.9007Z" fill="black"/>
</g>
<mask id="mask2_1087_3050" style="mask-type:luminance" maskUnits="userSpaceOnUse" x="6" y="31" width="3" height="18">
<path d="M6.57812 31.0137H8.19429V48.4853H6.57812V31.0137Z" fill="white"/>
</mask>
<g mask="url(#mask2_1087_3050)">
<path d="M7.44725 48.4134C7.34939 48.4134 7.2547 48.3945 7.16473 48.3566C7.07319 48.3203 6.9927 48.2666 6.92326 48.1972C6.85381 48.1277 6.80173 48.0472 6.76385 47.9573C6.72597 47.8657 6.70703 47.771 6.70703 47.6732V31.7988C6.70703 31.701 6.72597 31.6063 6.76385 31.5163C6.80173 31.4248 6.85381 31.3443 6.92326 31.2748C6.9927 31.2054 7.07319 31.1533 7.16473 31.1154C7.2547 31.0775 7.34939 31.0586 7.44725 31.0586C7.5451 31.0586 7.6398 31.0775 7.72976 31.1154C7.8213 31.1533 7.90179 31.2054 7.97124 31.2748C8.04068 31.3443 8.09276 31.4248 8.13064 31.5163C8.16852 31.6063 8.18746 31.701 8.18746 31.7988V47.6732C8.18746 47.771 8.16852 47.8657 8.13064 47.9573C8.09276 48.0472 8.04068 48.1277 7.97124 48.1972C7.90179 48.2666 7.8213 48.3203 7.72976 48.3566C7.6398 48.3945 7.5451 48.4134 7.44725 48.4134Z" fill="black"/>
</g>
<mask id="mask3_1087_3050" style="mask-type:luminance" maskUnits="userSpaceOnUse" x="16" y="31" width="3" height="18">
<path d="M16.2754 31.0137H18.2956V48.4853H16.2754V31.0137Z" fill="white"/>
</mask>
<g mask="url(#mask3_1087_3050)">
<path d="M17.3554 48.4134C17.2576 48.4134 17.1629 48.3945 17.0714 48.3566C16.9814 48.3203 16.9009 48.2666 16.8315 48.1972C16.762 48.1277 16.7084 48.0472 16.6705 47.9573C16.6342 47.8657 16.6152 47.771 16.6152 47.6732V31.7988C16.6152 31.701 16.6342 31.6063 16.6705 31.5163C16.7084 31.4248 16.762 31.3443 16.8315 31.2748C16.9009 31.2054 16.9814 31.1533 17.0714 31.1154C17.1629 31.0775 17.2576 31.0586 17.3554 31.0586C17.4533 31.0586 17.548 31.0775 17.638 31.1154C17.7295 31.1533 17.8084 31.2054 17.8779 31.2748C17.9473 31.3443 18.001 31.4248 18.0388 31.5163C18.0767 31.6063 18.0957 31.701 18.0957 31.7988V47.6732C18.0957 47.771 18.0767 47.8657 18.0388 47.9573C18.001 48.0472 17.9473 48.1277 17.8779 48.1972C17.8084 48.2666 17.7295 48.3203 17.638 48.3566C17.548 48.3945 17.4533 48.4134 17.3554 48.4134Z" fill="black"/>
</g>
<path d="M20.1041 32.5371H4.69529C4.59744 32.5371 4.50274 32.5181 4.41278 32.4818C4.32124 32.444 4.24233 32.3903 4.17288 32.3208C4.10344 32.2514 4.04978 32.1709 4.0119 32.0809C3.97402 31.9894 3.95508 31.8947 3.95508 31.7969C3.95508 31.699 3.97402 31.6043 4.0119 31.5143C4.04978 31.4228 4.10344 31.3439 4.17288 31.2744C4.24233 31.205 4.32124 31.1513 4.41278 31.1135C4.50274 31.0756 4.59744 31.0566 4.69529 31.0566H20.1041C20.2019 31.0566 20.2966 31.0756 20.3866 31.1135C20.4781 31.1513 20.5586 31.205 20.6281 31.2744C20.6975 31.3439 20.7496 31.4228 20.7875 31.5143C20.8253 31.6043 20.8443 31.699 20.8443 31.7969C20.8443 31.8947 20.8253 31.9894 20.7875 32.0809C20.7496 32.1709 20.6975 32.2514 20.6281 32.3208C20.5586 32.3903 20.4781 32.444 20.3866 32.4818C20.2966 32.5181 20.2019 32.5371 20.1041 32.5371Z" fill="black"/>
<path d="M43.068 37.799H31.7754C31.6775 37.799 31.5828 37.7801 31.4913 37.7422C31.4013 37.7059 31.3208 37.6523 31.2514 37.5828C31.1819 37.5134 31.1283 37.4329 31.092 37.3429C31.0541 37.2514 31.0352 37.1567 31.0352 37.0588V28.8691C31.0352 28.7713 31.0541 28.6766 31.092 28.585C31.1283 28.4951 31.1819 28.4146 31.2514 28.3451C31.3208 28.2757 31.4013 28.222 31.4913 28.1857C31.5828 28.1478 31.6775 28.1289 31.7754 28.1289C31.8732 28.1289 31.9679 28.1478 32.0579 28.1857C32.1494 28.222 32.2283 28.2757 32.2978 28.3451C32.3672 28.4146 32.4209 28.4951 32.4588 28.585C32.4966 28.6766 32.5156 28.7713 32.5156 28.8691V36.3218H42.3278V28.8691C42.3278 28.7713 42.3467 28.6766 42.383 28.585C42.4209 28.4951 42.4746 28.4146 42.544 28.3451C42.6134 28.2757 42.6939 28.222 42.7839 28.1857C42.8754 28.1478 42.9686 28.1289 43.068 28.1289C43.1658 28.1289 43.2605 28.1478 43.3505 28.1857C43.442 28.222 43.521 28.2757 43.5904 28.3451C43.6598 28.4146 43.7135 28.4951 43.7514 28.585C43.7893 28.6766 43.8082 28.7713 43.8082 28.8691V37.062C43.8066 37.1598 43.7877 37.2545 43.7498 37.3445C43.7119 37.4345 43.6583 37.515 43.5904 37.5844C43.521 37.6523 43.4405 37.7059 43.3505 37.7438C43.259 37.7801 43.1658 37.799 43.068 37.799Z" fill="black"/>
<mask id="mask4_1087_3050" style="mask-type:luminance" maskUnits="userSpaceOnUse" x="14" y="0" width="22" height="13">
<path d="M14.6582 0H35.6683V12.4274H14.6582V0Z" fill="white"/>
</mask>
<g mask="url(#mask4_1087_3050)">
<path d="M34.6329 12.3668C34.5351 12.3668 34.4404 12.3479 34.3504 12.3116C34.2589 12.2737 34.1784 12.22 34.1105 12.1506C34.0411 12.0811 33.9874 12.0007 33.9495 11.9107C33.9116 11.8191 33.8927 11.726 33.8927 11.6266V1.50034H16.2207V11.6266C16.2207 11.726 16.2017 11.8191 16.1638 11.9107C16.126 12.0007 16.0723 12.0811 16.0029 12.1506C15.9334 12.22 15.8545 12.2737 15.763 12.3116C15.673 12.3479 15.5783 12.3668 15.4804 12.3668C15.381 12.3668 15.2879 12.3479 15.1964 12.3116C15.1064 12.2737 15.0259 12.22 14.9565 12.1506C14.887 12.0811 14.8334 12.0007 14.7955 11.9107C14.7592 11.8191 14.7402 11.726 14.7402 11.6266V0.760121C14.7402 0.662267 14.7592 0.567571 14.7955 0.477608C14.8334 0.387646 14.887 0.307154 14.9565 0.237709C15.0259 0.168265 15.1064 0.114603 15.1964 0.0767243C15.2879 0.0388455 15.381 0.0214844 15.4804 0.0214844H34.6329C34.7308 0.0214844 34.8255 0.0388455 34.917 0.0767243C35.007 0.114603 35.0875 0.168265 35.1569 0.237709C35.2263 0.307154 35.28 0.387646 35.3163 0.477608C35.3542 0.567571 35.3731 0.662267 35.3731 0.760121V11.6266C35.3731 11.726 35.3542 11.8191 35.3163 11.9107C35.28 12.0007 35.2263 12.0811 35.1569 12.1506C35.0875 12.22 35.007 12.2737 34.917 12.3116C34.8255 12.3479 34.7308 12.3668 34.6329 12.3668Z" fill="black"/>
</g>
<path d="M26.1828 10.3846H23.9338C23.8344 10.3846 23.7412 10.3656 23.6497 10.3278C23.5597 10.2899 23.4792 10.2362 23.4098 10.1668C23.3404 10.0973 23.2867 10.0184 23.2488 9.92689C23.2125 9.83692 23.1936 9.74223 23.1936 9.64437V8.0582H21.6074C21.5095 8.0582 21.4149 8.03926 21.3233 8.00138C21.2333 7.9635 21.1529 7.91142 21.0834 7.84197C21.014 7.77253 20.9603 7.69204 20.924 7.6005C20.8861 7.51054 20.8672 7.41584 20.8672 7.31799V5.06893C20.8672 4.97108 20.8861 4.87638 20.924 4.78642C20.9603 4.69488 21.014 4.61596 21.0834 4.54652C21.1529 4.47708 21.2333 4.42341 21.3233 4.38554C21.4149 4.34766 21.5095 4.32872 21.6074 4.32872H23.1936V2.74254C23.1936 2.64469 23.2125 2.55157 23.2488 2.46003C23.2867 2.37007 23.3404 2.28958 23.4098 2.22013C23.4792 2.15069 23.5597 2.09702 23.6497 2.05915C23.7412 2.02127 23.8344 2.00391 23.9338 2.00391H26.1828C26.2807 2.00391 26.3754 2.02127 26.4669 2.05915C26.5569 2.09702 26.6374 2.15069 26.7068 2.22013C26.7763 2.28958 26.8299 2.37007 26.8662 2.46003C26.9041 2.55157 26.9231 2.64469 26.9231 2.74254V4.32872H28.5092C28.6071 4.32872 28.7018 4.34766 28.7917 4.38554C28.8833 4.42341 28.9622 4.47708 29.0316 4.54652C29.1011 4.61596 29.1548 4.69488 29.1926 4.78642C29.2305 4.87638 29.2494 4.97108 29.2494 5.06893V7.31956C29.2494 7.41742 29.2305 7.51211 29.1926 7.60208C29.1548 7.69362 29.1011 7.77253 29.0316 7.84197C28.9622 7.91142 28.8833 7.96508 28.7917 8.00296C28.7018 8.04084 28.6071 8.05978 28.5092 8.05978H26.9231V9.64437C26.9231 9.74381 26.9041 9.83692 26.8662 9.92846C26.8284 10.0184 26.7747 10.0989 26.7053 10.1684C26.6374 10.2362 26.5569 10.2899 26.4654 10.3278C26.3754 10.3656 26.2807 10.3846 26.1828 10.3846ZM24.674 8.90416H25.4426V7.31799C25.4426 7.22013 25.4616 7.12543 25.4994 7.03547C25.5373 6.94393 25.591 6.86344 25.6604 6.79399C25.7299 6.72613 25.8088 6.67247 25.9003 6.63459C25.9903 6.59671 26.085 6.57777 26.1828 6.57777H27.769V5.80915H26.1828C26.085 5.80915 25.9903 5.79021 25.9003 5.75233C25.8088 5.71603 25.7299 5.66237 25.6604 5.59292C25.591 5.52348 25.5373 5.44298 25.4994 5.35302C25.4616 5.26148 25.4426 5.16679 25.4426 5.06893V3.48276H24.674V5.06893C24.674 5.16679 24.6551 5.26148 24.6172 5.35302C24.5793 5.44298 24.5256 5.52348 24.4562 5.59292C24.3868 5.66237 24.3078 5.71603 24.2163 5.75233C24.1263 5.79021 24.0316 5.80915 23.9338 5.80915H22.3476V6.57935H23.9338C24.0316 6.57935 24.1263 6.59829 24.2163 6.63459C24.3078 6.67247 24.3868 6.72613 24.4562 6.79557C24.5256 6.86502 24.5793 6.94551 24.6172 7.03547C24.6551 7.12701 24.674 7.22171 24.674 7.31956V8.90416Z" fill="black"/>
<path d="M17.8473 16.8734H5.18786C5.09 16.8734 4.9953 16.8544 4.90534 16.8181C4.81538 16.7803 4.73489 16.7266 4.66544 16.6572C4.596 16.5877 4.54234 16.5072 4.50446 16.4173C4.46658 16.3257 4.44922 16.2326 4.44922 16.1332C4.44922 16.0353 4.46658 15.9406 4.50446 15.8507C4.54234 15.7607 4.596 15.6802 4.66544 15.6108C4.73489 15.5413 4.81538 15.4876 4.90534 15.4498C4.9953 15.4119 5.09 15.3945 5.18786 15.3945H17.8473C17.9451 15.3945 18.0398 15.4119 18.1298 15.4498C18.2213 15.4876 18.3002 15.5413 18.3697 15.6108C18.4391 15.6802 18.4928 15.7607 18.5307 15.8507C18.5685 15.9406 18.5875 16.0353 18.5875 16.1332C18.5875 16.2326 18.5685 16.3257 18.5307 16.4173C18.4928 16.5072 18.4391 16.5877 18.3697 16.6572C18.3002 16.7266 18.2213 16.7803 18.1298 16.8181C18.0398 16.8544 17.9451 16.8734 17.8473 16.8734Z" fill="black"/>
<path d="M44.9254 16.8734H32.2676C32.1697 16.8734 32.075 16.8544 31.9835 16.8181C31.8935 16.7803 31.813 16.7266 31.7436 16.6572C31.6741 16.5877 31.6205 16.5072 31.5842 16.4173C31.5463 16.3257 31.5273 16.2326 31.5273 16.1332C31.5273 16.0353 31.5463 15.9406 31.5842 15.8507C31.6205 15.7607 31.6741 15.6802 31.7436 15.6108C31.813 15.5413 31.8935 15.4876 31.9835 15.4498C32.075 15.4119 32.1697 15.3945 32.2676 15.3945H44.9254C45.0232 15.3945 45.1179 15.4119 45.2095 15.4498C45.2994 15.4876 45.3799 15.5413 45.4494 15.6108C45.5188 15.6802 45.5725 15.7607 45.6104 15.8507C45.6467 15.9406 45.6656 16.0353 45.6656 16.1332C45.6656 16.2326 45.6467 16.3257 45.6104 16.4173C45.5725 16.5072 45.5188 16.5877 45.4494 16.6572C45.3799 16.7266 45.2994 16.7803 45.2095 16.8181C45.1179 16.8544 45.0232 16.8734 44.9254 16.8734Z" fill="black"/>
</svg>
