<svg width="50" height="49" viewBox="0 0 50 49" fill="none" xmlns="http://www.w3.org/2000/svg">
<path d="M39.3271 2.75488C40.1586 1.9235 41.5211 1.92347 42.3525 2.75488C43.1318 3.53425 43.1807 4.78039 42.499 5.61816L42.3525 5.78027L38.8613 9.24902L38.8604 9.25098C38.4708 9.65085 37.9195 9.88177 37.3486 9.88184C36.7772 9.88184 36.2364 9.66115 35.8359 9.26074L34.4824 7.90723C33.6412 7.07603 33.6406 5.72435 34.4727 4.88184C35.2232 4.12101 36.4261 4.04162 37.2773 4.68262L37.3467 4.73535L39.3271 2.75488ZM41.3076 3.79688C41.0486 3.53844 40.6299 3.53903 40.3711 3.79785L37.875 6.29395C37.737 6.43181 37.5537 6.50486 37.3594 6.50488C37.162 6.50488 36.9681 6.43086 36.8311 6.29395L36.4639 5.92676H36.4629C36.3377 5.79104 36.1762 5.72955 35.9961 5.72949C35.6232 5.72949 35.3408 6.02773 35.3408 6.39551C35.3409 6.56948 35.4145 6.74162 35.5371 6.86426L36.8896 8.2168C37.1487 8.47697 37.5692 8.47721 37.8281 8.2168L41.3076 4.73535C41.5682 4.47626 41.5684 4.05584 41.3076 3.79688Z" fill="black" stroke="#7A8287" stroke-width="0.2"/>
<path d="M9.85645 1.02344H12.9287C13.3352 1.0236 13.668 1.35696 13.668 1.76172V3.18262H15.0889C15.4951 3.18262 15.827 3.51523 15.8271 3.92188V6.99414C15.827 7.40078 15.4951 7.7334 15.0889 7.7334H13.668V9.1543C13.6571 9.55058 13.3234 9.88281 12.9189 9.88281H9.8457C9.43947 9.88275 9.10841 9.55029 9.1084 9.14355V7.72266H7.69629C7.29159 7.72266 6.95827 7.38984 6.95801 6.9834V3.92188C6.95817 3.51535 7.29153 3.18262 7.69629 3.18262H9.11719V1.76172C9.11719 1.35696 9.44992 1.0236 9.85645 1.02344ZM10.5742 3.92188C10.5742 4.32839 10.2415 4.6611 9.83496 4.66113H8.43555V6.25488H9.85645C10.2377 6.25488 10.5539 6.54724 10.5918 6.91895L10.5957 6.99414L10.585 8.30371L10.584 8.4043H12.1689V6.9834C12.1689 6.57854 12.5015 6.24512 12.9082 6.24512H14.3291V4.66113H12.9082C12.5017 4.66113 12.1689 4.32841 12.1689 3.92188V2.50098H10.5742V3.92188Z" fill="black" stroke="#7A8287" stroke-width="0.2"/>
<mask id="mask0_1085_2227" style="mask-type:luminance" maskUnits="userSpaceOnUse" x="20" y="39" width="10" height="10">
<path d="M29.5322 39.627V48.4131H20.1475V39.627H29.5322Z" fill="white" stroke="white" stroke-width="0.2"/>
</mask>
<g mask="url(#mask0_1085_2227)">
<path d="M23.4346 39.6699H26.5068C26.9134 39.6701 27.2461 40.0034 27.2461 40.4082V41.8291H28.6562C29.0627 41.8291 29.3953 42.162 29.3955 42.5684V45.6309C29.3955 46.0357 29.0629 46.3691 28.6562 46.3691H27.2461V47.79C27.2352 48.1976 26.9012 48.529 26.4961 48.5293H23.4238C23.0174 48.5292 22.6846 48.1965 22.6846 47.79V46.3691H21.2744C20.8694 46.3691 20.5361 46.0358 20.5361 45.6309V42.5684C20.5363 42.1618 20.8697 41.8291 21.2744 41.8291H22.6953V40.4082C22.6953 40.0034 23.028 39.6701 23.4346 39.6699ZM24.1738 42.5684C24.1738 42.9749 23.8411 43.3076 23.4346 43.3076H22.0244V44.8916H23.4453C23.8249 44.8916 24.1416 45.184 24.1797 45.5557L24.1836 45.6309L24.1738 46.9502V47.0508H25.7676V45.6309C25.7676 45.2244 26.1003 44.8916 26.5068 44.8916H27.917V43.3076H26.5068C26.1003 43.3076 25.7676 42.9749 25.7676 42.5684V41.1475H24.1738V42.5684Z" fill="black" stroke="#7A8287" stroke-width="0.2"/>
</g>
<mask id="mask1_1085_2227" style="mask-type:luminance" maskUnits="userSpaceOnUse" x="0" y="12" width="22" height="37">
<path d="M21.1455 12.4707V48.4131H0.0996094V12.4707H21.1455Z" fill="white" stroke="white" stroke-width="0.2"/>
</mask>
<g mask="url(#mask1_1085_2227)">
<path d="M13.7363 12.7402C14.8692 12.3657 15.9241 12.4745 16.8447 13.0234C17.768 13.574 18.5659 14.5734 19.1689 15.9971C19.3572 16.4468 19.5474 16.9006 19.7578 17.3232V17.3242C20.1702 18.1717 20.4593 19.3955 20.6475 20.877C20.8354 22.3567 20.9225 24.0859 20.9375 25.9375C20.9637 29.1779 20.7683 32.7892 20.5049 36.0918L20.3877 37.4863C20.1063 40.7546 18.2072 43.7114 15.4102 45.2598L15.1367 45.4053C13.6941 46.142 12.3668 46.3648 11.2021 46.0791C10.1466 45.8156 8.96305 46.0273 7.88086 46.4033C6.79674 46.78 5.80143 47.3264 5.11719 47.748L5.11426 47.75C4.64824 48.0627 4.08149 48.2255 3.51367 48.2256C3.11707 48.2256 2.72105 48.1447 2.35547 47.9922L2.35352 47.9912C1.44024 47.6251 0.74887 46.8543 0.505859 45.9004V45.8994L0.439453 45.6289C-0.213699 42.7772 0.0856192 38.1829 1.3457 31.9473C2.7474 24.9653 5.2376 19.6283 8.73242 16.0713C11.2541 13.5062 13.4292 12.8228 13.7305 12.7422L13.7363 12.7402ZM16.4971 14.585C15.8989 14.0725 15.1361 13.8216 14.1963 14.1436L14.1328 14.165L14.127 14.167C14.1225 14.1684 14.1162 14.171 14.1074 14.1738C14.0907 14.1792 14.0663 14.1866 14.0352 14.1973C13.972 14.2188 13.8807 14.2521 13.7646 14.2988C13.5323 14.3924 13.2 14.5413 12.7949 14.7676C11.9848 15.2201 10.8813 15.9809 9.68945 17.2197C7.46287 19.5311 4.46677 24.0061 2.80664 32.2422C1.34019 39.472 1.4491 43.2305 1.85352 45.167L1.9375 45.5303C2.16052 46.4023 3.05538 46.915 3.91602 46.6924H3.91797C4.07064 46.6485 4.21601 46.5924 4.36133 46.5039V46.5029C5.32732 45.9073 6.51498 45.2912 7.77148 44.9014C9.02843 44.5115 10.3479 44.35 11.582 44.6582C12.4121 44.8661 13.3931 44.6673 14.4834 44.1064C16.9796 42.8204 18.6876 40.2414 18.9307 37.3672C19.3559 32.4106 19.5267 28.1679 19.4453 24.8643C19.4046 23.2128 19.3007 21.7943 19.1338 20.6377C18.9672 19.4831 18.736 18.5825 18.4385 17.9707H18.4395C18.2206 17.5113 18.0214 17.042 17.8232 16.5693V16.5684C17.5215 15.8557 17.0894 15.0925 16.4971 14.585Z" fill="black" stroke="#7A8287" stroke-width="0.2"/>
</g>
<path d="M17.3438 14.8564C17.5565 14.5065 18.0076 14.3951 18.3584 14.5967H18.3594C18.6672 14.7831 18.7913 15.1533 18.6816 15.4795L18.6201 15.6162C18.616 15.622 18.6115 15.6261 18.6094 15.6299L18.6055 15.6348L18.5996 15.6436L11.7949 26.4951L11.7783 26.5215L11.7803 26.5527L11.9902 31.2295V31.3184C11.984 31.4026 11.961 31.4856 11.9248 31.5713L8.90723 38.1943C8.7768 38.4552 8.51547 38.6211 8.23047 38.6211C7.82407 38.6209 7.49131 38.2884 7.49121 37.8838C7.49121 37.7793 7.51168 37.6684 7.55469 37.5811L7.55566 37.5791L10.4922 31.1406L10.502 31.1191L10.501 31.0947L10.292 26.3555V26.3535L10.2949 26.2461C10.3073 26.1379 10.3462 26.028 10.4043 25.9268L17.3438 14.8574V14.8564Z" fill="black" stroke="#7A8287" stroke-width="0.2"/>
<path d="M10.9092 30.6504C11.2005 30.4978 11.5564 30.5582 11.7822 30.7852L11.8701 30.8926L13.7354 33.9814C13.9467 34.3316 13.8356 34.7842 13.4863 34.9961C13.3749 35.0607 13.2457 35.0976 13.1064 35.0977C12.8815 35.0977 12.6689 34.9919 12.5254 34.8154L12.4688 34.7363L10.6025 31.6436C10.413 31.2855 10.5505 30.845 10.9102 30.6514L10.9092 30.6504Z" fill="black" stroke="#7A8287" stroke-width="0.2"/>
<path d="M5.14258 34.1982C5.21677 33.7915 5.59139 33.5255 5.99512 33.5957L6.00098 33.6016L6.03125 33.6074L9.65918 34.3193V34.3203C10.0584 34.4034 10.3243 34.7937 10.2412 35.1875L10.2402 35.1895C10.176 35.5283 9.87206 35.7793 9.52148 35.7793C9.46885 35.7793 9.42527 35.7787 9.37109 35.7695H9.37207L5.74512 35.0566H5.74414C5.33542 34.9821 5.06861 34.6043 5.14258 34.1982Z" fill="black" stroke="#7A8287" stroke-width="0.2"/>
<path d="M10.7803 27.5811C11.147 27.406 11.5907 27.5727 11.7568 27.9414L11.7578 27.9424C11.9034 28.2576 11.8075 28.6295 11.541 28.835L11.416 28.9121L8.1875 30.4639L8.18652 30.4648C8.09537 30.5097 7.98402 30.5371 7.875 30.5371C7.79752 30.5371 7.72359 30.528 7.66211 30.5098H7.66113L5.36426 29.8496C4.97766 29.7384 4.74599 29.3229 4.85547 28.9346C4.96656 28.5478 5.38384 28.3169 5.77051 28.4277L7.7627 29.0029L7.7998 29.0137L7.83398 28.9971L10.7812 27.582L10.7803 27.5811Z" fill="black" stroke="#7A8287" stroke-width="0.2"/>
<path d="M7.21387 29.4541C7.43721 29.1122 7.88974 29.0105 8.23145 29.2217C8.5444 29.4152 8.66443 29.8111 8.50781 30.1416L7.33691 32.3408H7.33594L7.33496 32.3428C7.21567 32.58 6.96908 32.7275 6.68945 32.7275C6.28342 32.7273 5.95231 32.3957 5.96191 31.9814V31.9795C5.96191 31.857 5.98941 31.7383 6.04395 31.6396L6.04492 31.6377L7.21387 29.4541Z" fill="black" stroke="#7A8287" stroke-width="0.2"/>
<path d="M10.5498 25.6484C10.8015 25.3529 11.2228 25.3016 11.5342 25.5176L11.5947 25.5645L11.626 25.5957L15.084 28.7188H15.085C15.1661 28.7906 15.2316 28.893 15.2793 29V28.999L16.4414 31.9014L16.4424 31.9023C16.6001 32.2794 16.4148 32.7132 16.0381 32.8613H16.0371C15.9428 32.8987 15.8507 32.917 15.748 32.917C15.4431 32.9169 15.1767 32.7326 15.0654 32.4551L13.9756 29.7305L13.9668 29.709L13.9502 29.6934L10.6367 26.6934L10.6338 26.6914L10.5781 26.6387C10.3158 26.3659 10.2998 25.9425 10.5498 25.6484Z" fill="black" stroke="#7A8287" stroke-width="0.2"/>
<path d="M18.0088 28.1123C18.4156 28.0475 18.7937 28.3171 18.8584 28.7227V28.7236C18.923 29.1305 18.6548 29.5088 18.249 29.5732H18.248L14.7793 30.1592C14.7529 30.16 14.7293 30.1618 14.71 30.1641C14.6857 30.1668 14.6674 30.1689 14.6475 30.1689C14.2426 30.1689 13.9092 29.8363 13.9092 29.4297C13.9092 29.0709 14.1668 28.7668 14.5293 28.7002L14.5283 28.6992L18.0098 28.1133L18.0088 28.1123Z" fill="black" stroke="#7A8287" stroke-width="0.2"/>
<mask id="mask2_1085_2227" style="mask-type:luminance" maskUnits="userSpaceOnUse" x="28" y="12" width="22" height="37">
<path d="M49.9004 12.4707V48.4131H28.9336V12.4707H49.9004Z" fill="white" stroke="white" stroke-width="0.2"/>
</mask>
<g mask="url(#mask2_1085_2227)">
<path d="M33.0762 13.0254C33.9968 12.4769 35.0518 12.3711 36.1846 12.751L36.1885 12.7529C36.5005 12.8429 38.6761 13.5166 41.1885 16.0801C44.6726 19.6372 47.1612 24.965 48.5645 31.958C49.8232 38.1945 50.124 42.7979 49.4707 45.6416L49.4043 45.9111C49.1595 46.8645 48.4797 47.6362 47.5654 48.002C47.2101 48.1441 46.8142 48.2265 46.4189 48.2266C45.8389 48.2266 45.2813 48.0627 44.793 47.7588L44.2246 47.4238C43.6049 47.0745 42.8415 46.6966 42.0283 46.4141C41.0136 46.0615 39.9104 45.8542 38.9072 46.0469L38.708 46.0908C37.5439 46.3872 36.2169 46.1644 34.7744 45.417H34.7734C31.8269 43.9027 29.8125 40.8712 29.5312 37.498V37.4971C29.217 33.8388 28.961 29.6513 28.9912 25.9482C29.0063 24.0967 29.0928 22.3676 29.2793 20.8877C29.466 19.4064 29.7519 18.1819 30.1611 17.334C30.3732 16.9021 30.5631 16.4579 30.752 16.0068C31.3543 14.5781 32.1526 13.5758 33.0762 13.0254ZM35.7441 14.1338C34.8047 13.817 34.0424 14.0672 33.4443 14.5781C32.8518 15.0844 32.42 15.8459 32.1182 16.5596C31.9199 17.0311 31.7213 17.5012 31.4922 17.958L31.4912 17.959C31.1936 18.5708 30.9634 19.4721 30.7969 20.627C30.6301 21.7836 30.5269 23.202 30.4863 24.8535C30.4051 28.1572 30.5755 32.3999 31 37.3564C31.2446 40.2305 32.9517 42.8112 35.4463 44.0957H35.4473C36.5469 44.6557 37.5266 44.8545 38.3457 44.6475L38.3467 44.6484C38.7911 44.5454 39.2535 44.4845 39.7158 44.4951H39.7188C41.8068 44.4952 43.9787 45.5303 45.5693 46.5029C46.3289 46.9716 47.3346 46.7378 47.8037 45.9775L47.8027 45.9766C47.8944 45.8378 47.9497 45.6811 47.9922 45.5332L47.9932 45.5303C48.4605 43.7251 48.6878 39.9539 47.1348 32.2324C45.5435 24.3326 42.741 19.8189 40.3184 17.2764C37.8961 14.7344 35.858 14.1672 35.8018 14.1523H35.8008L35.7432 14.1338H35.7441Z" fill="black" stroke="#7A8287" stroke-width="0.2"/>
</g>
<path d="M31.5518 14.6152C31.8938 14.393 32.3462 14.4858 32.5781 14.8281L32.583 14.8359L32.5898 14.8428L32.5986 14.8545L32.5977 14.8564L39.5381 25.9287L39.5391 25.9307C39.6223 26.059 39.6589 26.206 39.6494 26.3516V26.3535L39.4404 31.0928L39.4395 31.1172L39.4492 31.1387L42.3838 37.5771C42.5503 37.9481 42.3921 38.3892 42.0166 38.5547L42.0117 38.5566C41.9236 38.6007 41.8248 38.6201 41.6992 38.6201C41.4131 38.6201 41.1451 38.453 41.0244 38.1855L38.0059 31.5596C37.9574 31.4433 37.9323 31.3343 37.9414 31.2207V31.2178L38.1504 26.54L38.1514 26.5088L38.1348 26.4824L31.3408 15.6426V15.6416L31.2725 15.5078C31.1466 15.1891 31.2533 14.8182 31.5518 14.6152Z" fill="black" stroke="#7A8287" stroke-width="0.2"/>
<path d="M38.0508 30.8896C38.2464 30.5895 38.6172 30.4745 38.9355 30.5928L39.0684 30.6582C39.4003 30.8716 39.5088 31.3044 39.3174 31.6436L37.4521 34.7373L37.4512 34.7383C37.3224 34.9587 37.0819 35.0977 36.8242 35.0977C36.418 35.0974 36.0851 34.7647 36.085 34.3584C36.085 34.2203 36.1231 34.089 36.1875 33.9795L36.1865 33.9785L38.0508 30.8896Z" fill="black" stroke="#7A8287" stroke-width="0.2"/>
<path d="M43.9014 33.6084C44.2999 33.5243 44.6969 33.7758 44.7803 34.1709C44.8629 34.5699 44.612 34.966 44.2178 35.0479C44.2037 35.0493 44.1846 35.0516 44.165 35.0625L40.5615 35.7705C40.5087 35.7797 40.4634 35.7803 40.4102 35.7803C40.0053 35.7803 39.6719 35.4476 39.6719 35.041C39.6719 34.691 39.921 34.3868 40.2725 34.3223L40.2734 34.3213L43.9004 33.6084H43.9014Z" fill="black" stroke="#7A8287" stroke-width="0.2"/>
<path d="M38.1621 27.9229C38.3359 27.5647 38.7696 27.415 39.1299 27.5811L42.0752 28.9961L42.1104 29.0127L42.1465 29.002L44.1387 28.4268C44.5268 28.3153 44.9422 28.5373 45.0518 28.9326C45.1636 29.3318 44.9419 29.7375 44.5459 29.8486H44.5449L42.248 30.5088C42.1776 30.5215 42.1243 30.5361 42.0566 30.5361C41.9476 30.5361 41.8363 30.5088 41.7324 30.4629L38.4932 28.9111H38.4922C38.1224 28.7241 37.9774 28.2827 38.1611 27.9258L38.1621 27.9229Z" fill="black" stroke="#7A8287" stroke-width="0.2"/>
<path d="M41.6934 29.1318C42.0556 28.9377 42.4989 29.0668 42.7031 29.418C42.7044 29.4205 42.7047 29.4235 42.7061 29.4258C42.7066 29.4267 42.7074 29.4278 42.708 29.4287L42.7129 29.4375L43.8877 31.6279C44.0807 31.9868 43.9432 32.4306 43.582 32.625L43.5762 32.6289C43.4804 32.6897 43.3616 32.7171 43.2354 32.7275C42.9585 32.7256 42.712 32.5791 42.584 32.3408L41.4102 30.1387L41.3525 30C41.2522 29.6718 41.3878 29.3111 41.6934 29.1318Z" fill="black" stroke="#7A8287" stroke-width="0.2"/>
<path d="M38.3193 25.583C38.597 25.3222 39.0283 25.3154 39.3076 25.5576L39.3613 25.6094C39.6396 25.9055 39.6289 26.3776 39.335 26.6523L39.333 26.6543C39.326 26.6613 39.3193 26.6686 39.3145 26.6738C39.3108 26.6778 39.3075 26.6807 39.3047 26.6836L35.9805 29.6934L35.9639 29.709L35.9551 29.7305L34.8643 32.4551V32.4561C34.7547 32.7321 34.4767 32.917 34.1816 32.917C33.7754 32.9168 33.4426 32.584 33.4424 32.1777C33.4424 32.0855 33.4626 31.9842 33.498 31.9053L33.5 31.9004L34.6631 28.9854L34.6641 28.9824C34.6998 28.8844 34.7728 28.7826 34.8564 28.71L34.8574 28.709L38.3174 25.584L38.3193 25.583Z" fill="black" stroke="#7A8287" stroke-width="0.2"/>
<path d="M31.0713 28.7256C31.1356 28.33 31.5253 28.0501 31.9219 28.1143V28.1152L35.4023 28.7012L35.4033 28.7021C35.8082 28.7681 36.0763 29.1539 36.0127 29.5508C35.9476 29.9034 35.6411 30.1709 35.2832 30.1709C35.2377 30.1709 35.1982 30.1702 35.1709 30.1631V30.1621L35.1621 30.1611L31.6816 29.5742H31.6807C31.2756 29.5096 31.0069 29.1231 31.0713 28.7256Z" fill="black" stroke="#7A8287" stroke-width="0.2"/>
<path d="M22.9199 0.0996094H26.9795C27.3841 0.0997949 27.7166 0.432515 27.7168 0.838867V24.1582L27.7266 24.6074C27.8296 26.8489 28.766 28.9714 30.3467 30.5713V30.5723C30.614 30.8396 30.6305 31.2697 30.3887 31.5576L30.3369 31.6133L30.3311 31.6201C30.2173 31.7522 30.0371 31.8271 29.8398 31.8271C29.6957 31.8271 29.5502 31.781 29.4277 31.6992L29.3135 31.6055C27.3511 29.6322 26.251 26.9524 26.251 24.1582V1.57812H23.6699V24.1592C23.6806 26.9505 22.5808 29.6168 20.6104 31.6006C20.3034 31.8702 19.8333 31.8486 19.5674 31.5459L19.5664 31.5449C19.3181 31.2705 19.3161 30.855 19.5566 30.5674C21.1438 28.9678 22.072 26.8469 22.1729 24.6152L22.1826 24.167V0.838867C22.1828 0.432427 22.5152 0.0996506 22.9199 0.0996094Z" fill="black" stroke="#7A8287" stroke-width="0.2"/>
<path d="M24.3916 31.5186C24.6531 31.2017 25.1149 31.149 25.4258 31.4053L25.4268 31.4072C25.4748 31.4454 25.5104 31.4813 25.5352 31.5146L25.5381 31.5176L31.0742 38.416L31.0752 38.417C31.332 38.7302 31.2758 39.1995 30.9629 39.4492L30.958 39.4541C30.8314 39.5713 30.6774 39.627 30.5098 39.6357C30.3126 39.6351 30.1223 39.562 29.998 39.4287L29.9951 39.4258L29.96 39.3857C29.9489 39.3722 29.9348 39.356 29.918 39.3389L25.043 33.2686L24.9648 33.1719L24.8867 33.2686L20.001 39.3604L19.998 39.3652C19.7587 39.6958 19.2975 39.7624 18.9629 39.5205C18.6321 39.2813 18.5657 38.82 18.8076 38.4854L18.7266 38.4268L18.8086 38.4854L18.8145 38.4736C18.8159 38.4711 18.8194 38.4668 18.8281 38.4551C18.8328 38.4488 18.8393 38.4382 18.8467 38.4268L24.3916 31.5186Z" fill="black" stroke="#7A8287" stroke-width="0.2"/>
</svg>
