<svg width="50" height="50" viewBox="0 0 50 50" fill="none" xmlns="http://www.w3.org/2000/svg">
<mask id="mask0_1082_2450" style="mask-type:luminance" maskUnits="userSpaceOnUse" x="0" y="0" width="50" height="50">
<path d="M0 0H50V50H0V0Z" fill="white"/>
</mask>
<g mask="url(#mask0_1082_2450)">
<mask id="path-2-outside-1_1082_2450" maskUnits="userSpaceOnUse" x="-1" y="-1" width="52" height="52" fill="black">
<rect fill="white" x="-1" y="-1" width="52" height="52"/>
<path d="M24.6745 43.252C25.9294 44.7396 26.0905 46.0433 26.0026 46.8766C25.9033 47.8239 25.4378 48.6621 24.6924 49.235C24.0951 49.6956 23.3757 49.9365 22.6432 49.9365C22.404 49.9365 22.1647 49.9121 21.9287 49.86C20.8122 49.6143 19.8421 48.8005 19.196 47.5651C19.0885 47.3617 18.9014 47.3242 18.8249 47.3177C18.75 47.3112 18.5596 47.3161 18.4196 47.4984C17.723 48.4098 16.9043 48.9111 15.9863 48.9909C14.777 49.0951 13.6068 48.4017 13.0762 47.2656C12.443 45.9115 12.8402 44.3229 14.139 43.0143C14.9202 42.2266 15.5111 41.3444 15.8936 40.3923C16.0173 40.0863 16.3639 39.9382 16.6699 40.0618C16.9759 40.1839 17.124 40.5322 17.002 40.8382C16.5592 41.9385 15.8805 42.9541 14.9854 43.8542C14.0413 44.8063 13.7386 45.8659 14.1569 46.7594C14.4775 47.4447 15.1709 47.863 15.8838 47.8011C16.4616 47.7523 16.9808 47.4154 17.4707 46.7741C17.8174 46.3216 18.361 46.0807 18.9274 46.1279C19.4938 46.1768 19.9886 46.5072 20.2523 47.0117C20.7406 47.9411 21.4079 48.5238 22.1842 48.693C22.8044 48.8298 23.4538 48.6833 23.9648 48.2894C24.4482 47.9167 24.751 47.3714 24.8161 46.7529C24.9072 45.8822 24.5361 44.93 23.7435 43.999C23.7288 43.9811 23.7142 43.9632 23.7028 43.9453C22.9248 42.7897 22.4642 41.9336 22.2542 40.7161C22.1973 40.3923 22.4154 40.083 22.7409 40.0277C23.0648 39.9707 23.374 40.1888 23.4294 40.5143C23.6035 41.5153 23.986 42.2249 24.6745 43.252ZM22.1273 33.597C22.1061 33.9258 22.3568 34.209 22.6855 34.2301C23.0127 34.2497 23.2975 33.999 23.3187 33.6702C23.4375 31.7399 24.2074 30.0439 25.6071 28.6344C26.9059 27.3258 27.3031 25.7373 26.6699 24.3831C26.1393 23.2471 24.9658 22.5537 23.7598 22.6579C22.8402 22.736 22.0231 23.2389 21.3265 24.1488C21.1865 24.3327 20.9961 24.3359 20.9196 24.3311C20.8447 24.3245 20.6576 24.2871 20.5501 24.0837C19.904 22.8483 18.9339 22.0329 17.8174 21.7887C16.8522 21.5771 15.8431 21.8034 15.0521 22.4137C14.3083 22.9867 13.8428 23.8249 13.7435 24.7721C13.6556 25.6055 13.8151 26.9092 15.0716 28.3968C16.097 29.9251 16.4209 30.7357 16.4372 32.7523L16.4388 33.7109C16.4388 34.0397 16.7057 34.3066 17.0345 34.3066H17.0361C17.3649 34.3066 17.6318 34.0381 17.6318 33.7077L17.6302 32.7474C17.6123 30.4395 17.1989 29.4206 16.0433 27.7034C16.0303 27.6839 16.0173 27.666 16.0026 27.6497C15.21 26.7187 14.8389 25.7666 14.93 24.8958C14.9951 24.2773 15.2979 23.7305 15.7812 23.3594C16.2923 22.9655 16.9417 22.8174 17.5618 22.9541C18.3382 23.125 19.0055 23.7061 19.4922 24.637C19.7575 25.1416 20.2523 25.472 20.8187 25.5192C21.3851 25.568 21.9287 25.3271 22.2754 24.8747C22.7653 24.2334 23.2845 23.8965 23.8623 23.8477C24.5736 23.7858 25.2686 24.2041 25.5892 24.8893C26.0075 25.7829 25.7048 26.8408 24.7591 27.793C23.1494 29.4157 22.264 31.3688 22.1257 33.597H22.1273ZM30.9098 8.77441C31.1328 8.53027 31.1149 8.15267 30.8708 7.93131C27.8743 5.19694 23.9893 3.69141 19.93 3.69141C10.9766 3.69141 3.69141 10.9766 3.69141 19.93C3.69141 28.8851 10.9766 36.1702 19.93 36.1702C23.457 36.1702 26.8115 35.0586 29.6322 32.9541C32.3568 30.9212 34.4141 28.0241 35.4264 24.7949C35.5257 24.4808 35.3516 24.1455 35.0358 24.0479C34.7217 23.9486 34.3864 24.1243 34.2887 24.4385C32.3112 30.7406 26.5413 34.9756 19.93 34.9756C11.6341 34.9756 4.88444 28.2275 4.88444 19.93C4.88444 11.6341 11.6341 4.88607 19.93 4.88607C23.6898 4.88607 27.29 6.2793 30.0667 8.81185C30.3109 9.03483 30.6885 9.01693 30.9098 8.77441ZM28.1071 8.78581C28.2373 8.48307 28.0973 8.13151 27.7946 8.0013C27.4919 7.87109 27.1403 8.01107 27.0101 8.3138L26.1963 10.21C25.1986 12.5293 25.1725 14.8926 26.1182 17.2363C26.6195 18.4798 26.4876 19.5736 25.7552 20.2344C25.1953 20.7422 24.3929 20.8577 23.7598 20.5257C23.2471 20.2555 22.8988 19.7445 22.6953 18.9632C22.5521 18.4131 22.1436 17.9785 21.6032 17.8044C21.0628 17.6286 20.4785 17.7409 20.0391 18.1038C19.2301 18.7728 18.3887 19.0495 17.6074 18.9062C16.9824 18.7907 16.4404 18.4033 16.1214 17.8434C15.8203 17.3112 15.7536 16.6911 15.9342 16.0954C16.1865 15.2588 16.8978 14.5247 17.9899 13.9746C18.0094 13.9632 18.029 13.9518 18.0485 13.9404C19.7786 12.806 20.555 12.0247 21.4665 9.9056L22.8776 6.61947C23.0078 6.31673 22.8678 5.9668 22.5651 5.83659C22.2624 5.70638 21.9124 5.84635 21.7822 6.14909L20.3695 9.43359C19.5719 11.2907 18.96 11.9124 17.4219 12.9232C15.6868 13.8086 15.0342 14.9479 14.7917 15.7503C14.515 16.6618 14.6191 17.6139 15.0846 18.4326C15.5778 19.3001 16.4176 19.9007 17.391 20.0798C18.514 20.2865 19.7249 19.9121 20.7992 19.0234C20.9766 18.877 21.1637 18.916 21.2354 18.9388C21.3086 18.9632 21.4827 19.0413 21.5397 19.2643C21.8294 20.3727 22.3893 21.154 23.2048 21.582C23.6198 21.8001 24.0739 21.9059 24.5296 21.9059C25.2555 21.9059 25.9847 21.6374 26.556 21.1198C27.6644 20.1188 27.915 18.4993 27.2249 16.7887C26.403 14.7526 26.4258 12.6969 27.2933 10.6803L28.1071 8.78581ZM49.9365 45.459C49.9365 46.6602 49.471 47.7848 48.6279 48.6296C47.7848 49.4727 46.6585 49.9365 45.4574 49.9365C44.2578 49.9365 43.1315 49.4727 42.2884 48.6296L33.3284 39.6696C32.6921 39.0332 32.6725 38.0111 33.265 37.3486C32.3779 36.5771 31.1312 36.46 30.1042 37.0719C27.0361 38.8965 23.5189 39.86 19.93 39.86C8.94043 39.86 0 30.9196 0 19.93C0 8.94206 8.94043 0 19.93 0C25.1074 0 30.013 1.97591 33.7435 5.56478C33.9811 5.79264 33.9876 6.17025 33.7598 6.40788C33.5303 6.64551 33.1527 6.65365 32.915 6.42415C29.4092 3.05176 24.7965 1.19466 19.93 1.19466C9.59961 1.19466 1.19303 9.59961 1.19303 19.9316C1.19303 30.262 9.59798 38.667 19.93 38.667C23.304 38.667 26.6113 37.7604 29.4938 36.0449C30.9977 35.1514 32.8255 35.3385 34.1081 36.499L36.499 34.1081C35.3385 32.8271 35.1497 30.9977 36.0449 29.4938C36.8717 28.1055 37.5146 26.613 37.9557 25.0618C38.0452 24.7445 38.374 24.5605 38.693 24.6517C39.0088 24.7412 39.1927 25.0716 39.1032 25.389C38.6344 27.0394 37.9508 28.6263 37.0703 30.1042C36.46 31.1328 36.5771 32.3779 37.347 33.2666C38.0111 32.6725 39.0316 32.6937 39.668 33.3301L48.6279 42.2884C49.471 43.1331 49.9365 44.2578 49.9365 45.459ZM35.2995 39.9528L39.9512 35.2995L38.8249 34.1732C38.7272 34.0771 38.6003 34.0283 38.4733 34.0283C38.3464 34.0283 38.2178 34.0771 38.1217 34.1732L34.1732 38.1217C34.0804 38.2145 34.0283 38.3398 34.0283 38.4733C34.0283 38.6068 34.0804 38.7321 34.1732 38.8249L35.2995 39.9528ZM48.7435 45.459C48.7435 44.5768 48.4017 43.7516 47.7832 43.1331L40.7959 36.1442L36.1442 40.7959L43.1315 47.7848C43.75 48.4033 44.5768 48.7435 45.4574 48.7435C46.3395 48.7435 47.1663 48.4033 47.7832 47.7848C48.4017 47.1663 48.7435 46.3411 48.7435 45.459ZM9.38314 24.7949C9.43522 24.7949 9.48568 24.7884 9.53776 24.7754L11.5202 24.2432C11.8392 24.1585 12.028 23.8314 11.9434 23.5124C11.8571 23.195 11.5299 23.0062 11.2126 23.0908L9.22852 23.6214C8.91113 23.7077 8.72233 24.0348 8.80697 24.3538C8.87858 24.6191 9.11947 24.7949 9.38314 24.7949ZM13.2682 14.751C13.4196 14.751 13.5726 14.6924 13.6898 14.5752C13.9225 14.3424 13.9225 13.9648 13.6898 13.7321L12.2119 12.2542C11.9792 12.0215 11.6016 12.0215 11.3688 12.2542C11.1344 12.487 11.1344 12.8646 11.3688 13.099L12.8451 14.5752C12.9622 14.6924 13.1152 14.751 13.2682 14.751ZM11.0433 19.2529C11.3053 19.2529 11.5479 19.0771 11.6195 18.8102C11.7041 18.4912 11.5153 18.1641 11.1963 18.0794L9.10645 17.5195C8.78906 17.4349 8.46191 17.6221 8.37565 17.9411C8.29102 18.2601 8.47982 18.5872 8.7972 18.6719L10.887 19.2318C10.9391 19.2464 10.9912 19.2529 11.0433 19.2529ZM38.3529 5.87565C43.3594 5.87565 47.4316 9.94954 47.4316 14.9544C47.4316 19.9609 43.3594 24.0348 38.3529 24.0348C33.3464 24.0348 29.2741 19.9609 29.2741 14.9544C29.2741 9.94954 33.348 5.87565 38.3529 5.87565ZM30.4687 14.9544C30.4687 19.3034 34.0055 22.8402 38.3529 22.8402C42.7018 22.8402 46.2386 19.3034 46.2386 14.9544C46.2386 10.6071 42.7018 7.07031 38.3529 7.07031C34.0055 7.07031 30.4687 10.6071 30.4687 14.9544ZM36.1279 17.8792C36.2256 18.0143 36.3753 18.1038 36.543 18.125C36.5658 18.1283 36.5902 18.1299 36.6146 18.1299C36.7562 18.1299 36.8945 18.0794 37.0036 17.985L43.0225 12.832C43.2731 12.6172 43.3024 12.2412 43.0876 11.9906C42.8727 11.7399 42.4967 11.7106 42.2461 11.9255L36.722 16.6553L34.5589 13.6165C34.3669 13.3496 33.9941 13.2861 33.7256 13.4782C33.457 13.6686 33.3952 14.0413 33.5856 14.3099L36.1279 17.8792Z"/>
</mask>
<path d="M24.6745 43.252C25.9294 44.7396 26.0905 46.0433 26.0026 46.8766C25.9033 47.8239 25.4378 48.6621 24.6924 49.235C24.0951 49.6956 23.3757 49.9365 22.6432 49.9365C22.404 49.9365 22.1647 49.9121 21.9287 49.86C20.8122 49.6143 19.8421 48.8005 19.196 47.5651C19.0885 47.3617 18.9014 47.3242 18.8249 47.3177C18.75 47.3112 18.5596 47.3161 18.4196 47.4984C17.723 48.4098 16.9043 48.9111 15.9863 48.9909C14.777 49.0951 13.6068 48.4017 13.0762 47.2656C12.443 45.9115 12.8402 44.3229 14.139 43.0143C14.9202 42.2266 15.5111 41.3444 15.8936 40.3923C16.0173 40.0863 16.3639 39.9382 16.6699 40.0618C16.9759 40.1839 17.124 40.5322 17.002 40.8382C16.5592 41.9385 15.8805 42.9541 14.9854 43.8542C14.0413 44.8063 13.7386 45.8659 14.1569 46.7594C14.4775 47.4447 15.1709 47.863 15.8838 47.8011C16.4616 47.7523 16.9808 47.4154 17.4707 46.7741C17.8174 46.3216 18.361 46.0807 18.9274 46.1279C19.4938 46.1768 19.9886 46.5072 20.2523 47.0117C20.7406 47.9411 21.4079 48.5238 22.1842 48.693C22.8044 48.8298 23.4538 48.6833 23.9648 48.2894C24.4482 47.9167 24.751 47.3714 24.8161 46.7529C24.9072 45.8822 24.5361 44.93 23.7435 43.999C23.7288 43.9811 23.7142 43.9632 23.7028 43.9453C22.9248 42.7897 22.4642 41.9336 22.2542 40.7161C22.1973 40.3923 22.4154 40.083 22.7409 40.0277C23.0648 39.9707 23.374 40.1888 23.4294 40.5143C23.6035 41.5153 23.986 42.2249 24.6745 43.252ZM22.1273 33.597C22.1061 33.9258 22.3568 34.209 22.6855 34.2301C23.0127 34.2497 23.2975 33.999 23.3187 33.6702C23.4375 31.7399 24.2074 30.0439 25.6071 28.6344C26.9059 27.3258 27.3031 25.7373 26.6699 24.3831C26.1393 23.2471 24.9658 22.5537 23.7598 22.6579C22.8402 22.736 22.0231 23.2389 21.3265 24.1488C21.1865 24.3327 20.9961 24.3359 20.9196 24.3311C20.8447 24.3245 20.6576 24.2871 20.5501 24.0837C19.904 22.8483 18.9339 22.0329 17.8174 21.7887C16.8522 21.5771 15.8431 21.8034 15.0521 22.4137C14.3083 22.9867 13.8428 23.8249 13.7435 24.7721C13.6556 25.6055 13.8151 26.9092 15.0716 28.3968C16.097 29.9251 16.4209 30.7357 16.4372 32.7523L16.4388 33.7109C16.4388 34.0397 16.7057 34.3066 17.0345 34.3066H17.0361C17.3649 34.3066 17.6318 34.0381 17.6318 33.7077L17.6302 32.7474C17.6123 30.4395 17.1989 29.4206 16.0433 27.7034C16.0303 27.6839 16.0173 27.666 16.0026 27.6497C15.21 26.7187 14.8389 25.7666 14.93 24.8958C14.9951 24.2773 15.2979 23.7305 15.7812 23.3594C16.2923 22.9655 16.9417 22.8174 17.5618 22.9541C18.3382 23.125 19.0055 23.7061 19.4922 24.637C19.7575 25.1416 20.2523 25.472 20.8187 25.5192C21.3851 25.568 21.9287 25.3271 22.2754 24.8747C22.7653 24.2334 23.2845 23.8965 23.8623 23.8477C24.5736 23.7858 25.2686 24.2041 25.5892 24.8893C26.0075 25.7829 25.7048 26.8408 24.7591 27.793C23.1494 29.4157 22.264 31.3688 22.1257 33.597H22.1273ZM30.9098 8.77441C31.1328 8.53027 31.1149 8.15267 30.8708 7.93131C27.8743 5.19694 23.9893 3.69141 19.93 3.69141C10.9766 3.69141 3.69141 10.9766 3.69141 19.93C3.69141 28.8851 10.9766 36.1702 19.93 36.1702C23.457 36.1702 26.8115 35.0586 29.6322 32.9541C32.3568 30.9212 34.4141 28.0241 35.4264 24.7949C35.5257 24.4808 35.3516 24.1455 35.0358 24.0479C34.7217 23.9486 34.3864 24.1243 34.2887 24.4385C32.3112 30.7406 26.5413 34.9756 19.93 34.9756C11.6341 34.9756 4.88444 28.2275 4.88444 19.93C4.88444 11.6341 11.6341 4.88607 19.93 4.88607C23.6898 4.88607 27.29 6.2793 30.0667 8.81185C30.3109 9.03483 30.6885 9.01693 30.9098 8.77441ZM28.1071 8.78581C28.2373 8.48307 28.0973 8.13151 27.7946 8.0013C27.4919 7.87109 27.1403 8.01107 27.0101 8.3138L26.1963 10.21C25.1986 12.5293 25.1725 14.8926 26.1182 17.2363C26.6195 18.4798 26.4876 19.5736 25.7552 20.2344C25.1953 20.7422 24.3929 20.8577 23.7598 20.5257C23.2471 20.2555 22.8988 19.7445 22.6953 18.9632C22.5521 18.4131 22.1436 17.9785 21.6032 17.8044C21.0628 17.6286 20.4785 17.7409 20.0391 18.1038C19.2301 18.7728 18.3887 19.0495 17.6074 18.9062C16.9824 18.7907 16.4404 18.4033 16.1214 17.8434C15.8203 17.3112 15.7536 16.6911 15.9342 16.0954C16.1865 15.2588 16.8978 14.5247 17.9899 13.9746C18.0094 13.9632 18.029 13.9518 18.0485 13.9404C19.7786 12.806 20.555 12.0247 21.4665 9.9056L22.8776 6.61947C23.0078 6.31673 22.8678 5.9668 22.5651 5.83659C22.2624 5.70638 21.9124 5.84635 21.7822 6.14909L20.3695 9.43359C19.5719 11.2907 18.96 11.9124 17.4219 12.9232C15.6868 13.8086 15.0342 14.9479 14.7917 15.7503C14.515 16.6618 14.6191 17.6139 15.0846 18.4326C15.5778 19.3001 16.4176 19.9007 17.391 20.0798C18.514 20.2865 19.7249 19.9121 20.7992 19.0234C20.9766 18.877 21.1637 18.916 21.2354 18.9388C21.3086 18.9632 21.4827 19.0413 21.5397 19.2643C21.8294 20.3727 22.3893 21.154 23.2048 21.582C23.6198 21.8001 24.0739 21.9059 24.5296 21.9059C25.2555 21.9059 25.9847 21.6374 26.556 21.1198C27.6644 20.1188 27.915 18.4993 27.2249 16.7887C26.403 14.7526 26.4258 12.6969 27.2933 10.6803L28.1071 8.78581ZM49.9365 45.459C49.9365 46.6602 49.471 47.7848 48.6279 48.6296C47.7848 49.4727 46.6585 49.9365 45.4574 49.9365C44.2578 49.9365 43.1315 49.4727 42.2884 48.6296L33.3284 39.6696C32.6921 39.0332 32.6725 38.0111 33.265 37.3486C32.3779 36.5771 31.1312 36.46 30.1042 37.0719C27.0361 38.8965 23.5189 39.86 19.93 39.86C8.94043 39.86 0 30.9196 0 19.93C0 8.94206 8.94043 0 19.93 0C25.1074 0 30.013 1.97591 33.7435 5.56478C33.9811 5.79264 33.9876 6.17025 33.7598 6.40788C33.5303 6.64551 33.1527 6.65365 32.915 6.42415C29.4092 3.05176 24.7965 1.19466 19.93 1.19466C9.59961 1.19466 1.19303 9.59961 1.19303 19.9316C1.19303 30.262 9.59798 38.667 19.93 38.667C23.304 38.667 26.6113 37.7604 29.4938 36.0449C30.9977 35.1514 32.8255 35.3385 34.1081 36.499L36.499 34.1081C35.3385 32.8271 35.1497 30.9977 36.0449 29.4938C36.8717 28.1055 37.5146 26.613 37.9557 25.0618C38.0452 24.7445 38.374 24.5605 38.693 24.6517C39.0088 24.7412 39.1927 25.0716 39.1032 25.389C38.6344 27.0394 37.9508 28.6263 37.0703 30.1042C36.46 31.1328 36.5771 32.3779 37.347 33.2666C38.0111 32.6725 39.0316 32.6937 39.668 33.3301L48.6279 42.2884C49.471 43.1331 49.9365 44.2578 49.9365 45.459ZM35.2995 39.9528L39.9512 35.2995L38.8249 34.1732C38.7272 34.0771 38.6003 34.0283 38.4733 34.0283C38.3464 34.0283 38.2178 34.0771 38.1217 34.1732L34.1732 38.1217C34.0804 38.2145 34.0283 38.3398 34.0283 38.4733C34.0283 38.6068 34.0804 38.7321 34.1732 38.8249L35.2995 39.9528ZM48.7435 45.459C48.7435 44.5768 48.4017 43.7516 47.7832 43.1331L40.7959 36.1442L36.1442 40.7959L43.1315 47.7848C43.75 48.4033 44.5768 48.7435 45.4574 48.7435C46.3395 48.7435 47.1663 48.4033 47.7832 47.7848C48.4017 47.1663 48.7435 46.3411 48.7435 45.459ZM9.38314 24.7949C9.43522 24.7949 9.48568 24.7884 9.53776 24.7754L11.5202 24.2432C11.8392 24.1585 12.028 23.8314 11.9434 23.5124C11.8571 23.195 11.5299 23.0062 11.2126 23.0908L9.22852 23.6214C8.91113 23.7077 8.72233 24.0348 8.80697 24.3538C8.87858 24.6191 9.11947 24.7949 9.38314 24.7949ZM13.2682 14.751C13.4196 14.751 13.5726 14.6924 13.6898 14.5752C13.9225 14.3424 13.9225 13.9648 13.6898 13.7321L12.2119 12.2542C11.9792 12.0215 11.6016 12.0215 11.3688 12.2542C11.1344 12.487 11.1344 12.8646 11.3688 13.099L12.8451 14.5752C12.9622 14.6924 13.1152 14.751 13.2682 14.751ZM11.0433 19.2529C11.3053 19.2529 11.5479 19.0771 11.6195 18.8102C11.7041 18.4912 11.5153 18.1641 11.1963 18.0794L9.10645 17.5195C8.78906 17.4349 8.46191 17.6221 8.37565 17.9411C8.29102 18.2601 8.47982 18.5872 8.7972 18.6719L10.887 19.2318C10.9391 19.2464 10.9912 19.2529 11.0433 19.2529ZM38.3529 5.87565C43.3594 5.87565 47.4316 9.94954 47.4316 14.9544C47.4316 19.9609 43.3594 24.0348 38.3529 24.0348C33.3464 24.0348 29.2741 19.9609 29.2741 14.9544C29.2741 9.94954 33.348 5.87565 38.3529 5.87565ZM30.4687 14.9544C30.4687 19.3034 34.0055 22.8402 38.3529 22.8402C42.7018 22.8402 46.2386 19.3034 46.2386 14.9544C46.2386 10.6071 42.7018 7.07031 38.3529 7.07031C34.0055 7.07031 30.4687 10.6071 30.4687 14.9544ZM36.1279 17.8792C36.2256 18.0143 36.3753 18.1038 36.543 18.125C36.5658 18.1283 36.5902 18.1299 36.6146 18.1299C36.7562 18.1299 36.8945 18.0794 37.0036 17.985L43.0225 12.832C43.2731 12.6172 43.3024 12.2412 43.0876 11.9906C42.8727 11.7399 42.4967 11.7106 42.2461 11.9255L36.722 16.6553L34.5589 13.6165C34.3669 13.3496 33.9941 13.2861 33.7256 13.4782C33.457 13.6686 33.3952 14.0413 33.5856 14.3099L36.1279 17.8792Z" fill="black"/>
<path d="M24.6745 43.252C25.9294 44.7396 26.0905 46.0433 26.0026 46.8766C25.9033 47.8239 25.4378 48.6621 24.6924 49.235C24.0951 49.6956 23.3757 49.9365 22.6432 49.9365C22.404 49.9365 22.1647 49.9121 21.9287 49.86C20.8122 49.6143 19.8421 48.8005 19.196 47.5651C19.0885 47.3617 18.9014 47.3242 18.8249 47.3177C18.75 47.3112 18.5596 47.3161 18.4196 47.4984C17.723 48.4098 16.9043 48.9111 15.9863 48.9909C14.777 49.0951 13.6068 48.4017 13.0762 47.2656C12.443 45.9115 12.8402 44.3229 14.139 43.0143C14.9202 42.2266 15.5111 41.3444 15.8936 40.3923C16.0173 40.0863 16.3639 39.9382 16.6699 40.0618C16.9759 40.1839 17.124 40.5322 17.002 40.8382C16.5592 41.9385 15.8805 42.9541 14.9854 43.8542C14.0413 44.8063 13.7386 45.8659 14.1569 46.7594C14.4775 47.4447 15.1709 47.863 15.8838 47.8011C16.4616 47.7523 16.9808 47.4154 17.4707 46.7741C17.8174 46.3216 18.361 46.0807 18.9274 46.1279C19.4938 46.1768 19.9886 46.5072 20.2523 47.0117C20.7406 47.9411 21.4079 48.5238 22.1842 48.693C22.8044 48.8298 23.4538 48.6833 23.9648 48.2894C24.4482 47.9167 24.751 47.3714 24.8161 46.7529C24.9072 45.8822 24.5361 44.93 23.7435 43.999C23.7288 43.9811 23.7142 43.9632 23.7028 43.9453C22.9248 42.7897 22.4642 41.9336 22.2542 40.7161C22.1973 40.3923 22.4154 40.083 22.7409 40.0277C23.0648 39.9707 23.374 40.1888 23.4294 40.5143C23.6035 41.5153 23.986 42.2249 24.6745 43.252ZM22.1273 33.597C22.1061 33.9258 22.3568 34.209 22.6855 34.2301C23.0127 34.2497 23.2975 33.999 23.3187 33.6702C23.4375 31.7399 24.2074 30.0439 25.6071 28.6344C26.9059 27.3258 27.3031 25.7373 26.6699 24.3831C26.1393 23.2471 24.9658 22.5537 23.7598 22.6579C22.8402 22.736 22.0231 23.2389 21.3265 24.1488C21.1865 24.3327 20.9961 24.3359 20.9196 24.3311C20.8447 24.3245 20.6576 24.2871 20.5501 24.0837C19.904 22.8483 18.9339 22.0329 17.8174 21.7887C16.8522 21.5771 15.8431 21.8034 15.0521 22.4137C14.3083 22.9867 13.8428 23.8249 13.7435 24.7721C13.6556 25.6055 13.8151 26.9092 15.0716 28.3968C16.097 29.9251 16.4209 30.7357 16.4372 32.7523L16.4388 33.7109C16.4388 34.0397 16.7057 34.3066 17.0345 34.3066H17.0361C17.3649 34.3066 17.6318 34.0381 17.6318 33.7077L17.6302 32.7474C17.6123 30.4395 17.1989 29.4206 16.0433 27.7034C16.0303 27.6839 16.0173 27.666 16.0026 27.6497C15.21 26.7187 14.8389 25.7666 14.93 24.8958C14.9951 24.2773 15.2979 23.7305 15.7812 23.3594C16.2923 22.9655 16.9417 22.8174 17.5618 22.9541C18.3382 23.125 19.0055 23.7061 19.4922 24.637C19.7575 25.1416 20.2523 25.472 20.8187 25.5192C21.3851 25.568 21.9287 25.3271 22.2754 24.8747C22.7653 24.2334 23.2845 23.8965 23.8623 23.8477C24.5736 23.7858 25.2686 24.2041 25.5892 24.8893C26.0075 25.7829 25.7048 26.8408 24.7591 27.793C23.1494 29.4157 22.264 31.3688 22.1257 33.597H22.1273ZM30.9098 8.77441C31.1328 8.53027 31.1149 8.15267 30.8708 7.93131C27.8743 5.19694 23.9893 3.69141 19.93 3.69141C10.9766 3.69141 3.69141 10.9766 3.69141 19.93C3.69141 28.8851 10.9766 36.1702 19.93 36.1702C23.457 36.1702 26.8115 35.0586 29.6322 32.9541C32.3568 30.9212 34.4141 28.0241 35.4264 24.7949C35.5257 24.4808 35.3516 24.1455 35.0358 24.0479C34.7217 23.9486 34.3864 24.1243 34.2887 24.4385C32.3112 30.7406 26.5413 34.9756 19.93 34.9756C11.6341 34.9756 4.88444 28.2275 4.88444 19.93C4.88444 11.6341 11.6341 4.88607 19.93 4.88607C23.6898 4.88607 27.29 6.2793 30.0667 8.81185C30.3109 9.03483 30.6885 9.01693 30.9098 8.77441ZM28.1071 8.78581C28.2373 8.48307 28.0973 8.13151 27.7946 8.0013C27.4919 7.87109 27.1403 8.01107 27.0101 8.3138L26.1963 10.21C25.1986 12.5293 25.1725 14.8926 26.1182 17.2363C26.6195 18.4798 26.4876 19.5736 25.7552 20.2344C25.1953 20.7422 24.3929 20.8577 23.7598 20.5257C23.2471 20.2555 22.8988 19.7445 22.6953 18.9632C22.5521 18.4131 22.1436 17.9785 21.6032 17.8044C21.0628 17.6286 20.4785 17.7409 20.0391 18.1038C19.2301 18.7728 18.3887 19.0495 17.6074 18.9062C16.9824 18.7907 16.4404 18.4033 16.1214 17.8434C15.8203 17.3112 15.7536 16.6911 15.9342 16.0954C16.1865 15.2588 16.8978 14.5247 17.9899 13.9746C18.0094 13.9632 18.029 13.9518 18.0485 13.9404C19.7786 12.806 20.555 12.0247 21.4665 9.9056L22.8776 6.61947C23.0078 6.31673 22.8678 5.9668 22.5651 5.83659C22.2624 5.70638 21.9124 5.84635 21.7822 6.14909L20.3695 9.43359C19.5719 11.2907 18.96 11.9124 17.4219 12.9232C15.6868 13.8086 15.0342 14.9479 14.7917 15.7503C14.515 16.6618 14.6191 17.6139 15.0846 18.4326C15.5778 19.3001 16.4176 19.9007 17.391 20.0798C18.514 20.2865 19.7249 19.9121 20.7992 19.0234C20.9766 18.877 21.1637 18.916 21.2354 18.9388C21.3086 18.9632 21.4827 19.0413 21.5397 19.2643C21.8294 20.3727 22.3893 21.154 23.2048 21.582C23.6198 21.8001 24.0739 21.9059 24.5296 21.9059C25.2555 21.9059 25.9847 21.6374 26.556 21.1198C27.6644 20.1188 27.915 18.4993 27.2249 16.7887C26.403 14.7526 26.4258 12.6969 27.2933 10.6803L28.1071 8.78581ZM49.9365 45.459C49.9365 46.6602 49.471 47.7848 48.6279 48.6296C47.7848 49.4727 46.6585 49.9365 45.4574 49.9365C44.2578 49.9365 43.1315 49.4727 42.2884 48.6296L33.3284 39.6696C32.6921 39.0332 32.6725 38.0111 33.265 37.3486C32.3779 36.5771 31.1312 36.46 30.1042 37.0719C27.0361 38.8965 23.5189 39.86 19.93 39.86C8.94043 39.86 0 30.9196 0 19.93C0 8.94206 8.94043 0 19.93 0C25.1074 0 30.013 1.97591 33.7435 5.56478C33.9811 5.79264 33.9876 6.17025 33.7598 6.40788C33.5303 6.64551 33.1527 6.65365 32.915 6.42415C29.4092 3.05176 24.7965 1.19466 19.93 1.19466C9.59961 1.19466 1.19303 9.59961 1.19303 19.9316C1.19303 30.262 9.59798 38.667 19.93 38.667C23.304 38.667 26.6113 37.7604 29.4938 36.0449C30.9977 35.1514 32.8255 35.3385 34.1081 36.499L36.499 34.1081C35.3385 32.8271 35.1497 30.9977 36.0449 29.4938C36.8717 28.1055 37.5146 26.613 37.9557 25.0618C38.0452 24.7445 38.374 24.5605 38.693 24.6517C39.0088 24.7412 39.1927 25.0716 39.1032 25.389C38.6344 27.0394 37.9508 28.6263 37.0703 30.1042C36.46 31.1328 36.5771 32.3779 37.347 33.2666C38.0111 32.6725 39.0316 32.6937 39.668 33.3301L48.6279 42.2884C49.471 43.1331 49.9365 44.2578 49.9365 45.459ZM35.2995 39.9528L39.9512 35.2995L38.8249 34.1732C38.7272 34.0771 38.6003 34.0283 38.4733 34.0283C38.3464 34.0283 38.2178 34.0771 38.1217 34.1732L34.1732 38.1217C34.0804 38.2145 34.0283 38.3398 34.0283 38.4733C34.0283 38.6068 34.0804 38.7321 34.1732 38.8249L35.2995 39.9528ZM48.7435 45.459C48.7435 44.5768 48.4017 43.7516 47.7832 43.1331L40.7959 36.1442L36.1442 40.7959L43.1315 47.7848C43.75 48.4033 44.5768 48.7435 45.4574 48.7435C46.3395 48.7435 47.1663 48.4033 47.7832 47.7848C48.4017 47.1663 48.7435 46.3411 48.7435 45.459ZM9.38314 24.7949C9.43522 24.7949 9.48568 24.7884 9.53776 24.7754L11.5202 24.2432C11.8392 24.1585 12.028 23.8314 11.9434 23.5124C11.8571 23.195 11.5299 23.0062 11.2126 23.0908L9.22852 23.6214C8.91113 23.7077 8.72233 24.0348 8.80697 24.3538C8.87858 24.6191 9.11947 24.7949 9.38314 24.7949ZM13.2682 14.751C13.4196 14.751 13.5726 14.6924 13.6898 14.5752C13.9225 14.3424 13.9225 13.9648 13.6898 13.7321L12.2119 12.2542C11.9792 12.0215 11.6016 12.0215 11.3688 12.2542C11.1344 12.487 11.1344 12.8646 11.3688 13.099L12.8451 14.5752C12.9622 14.6924 13.1152 14.751 13.2682 14.751ZM11.0433 19.2529C11.3053 19.2529 11.5479 19.0771 11.6195 18.8102C11.7041 18.4912 11.5153 18.1641 11.1963 18.0794L9.10645 17.5195C8.78906 17.4349 8.46191 17.6221 8.37565 17.9411C8.29102 18.2601 8.47982 18.5872 8.7972 18.6719L10.887 19.2318C10.9391 19.2464 10.9912 19.2529 11.0433 19.2529ZM38.3529 5.87565C43.3594 5.87565 47.4316 9.94954 47.4316 14.9544C47.4316 19.9609 43.3594 24.0348 38.3529 24.0348C33.3464 24.0348 29.2741 19.9609 29.2741 14.9544C29.2741 9.94954 33.348 5.87565 38.3529 5.87565ZM30.4687 14.9544C30.4687 19.3034 34.0055 22.8402 38.3529 22.8402C42.7018 22.8402 46.2386 19.3034 46.2386 14.9544C46.2386 10.6071 42.7018 7.07031 38.3529 7.07031C34.0055 7.07031 30.4687 10.6071 30.4687 14.9544ZM36.1279 17.8792C36.2256 18.0143 36.3753 18.1038 36.543 18.125C36.5658 18.1283 36.5902 18.1299 36.6146 18.1299C36.7562 18.1299 36.8945 18.0794 37.0036 17.985L43.0225 12.832C43.2731 12.6172 43.3024 12.2412 43.0876 11.9906C42.8727 11.7399 42.4967 11.7106 42.2461 11.9255L36.722 16.6553L34.5589 13.6165C34.3669 13.3496 33.9941 13.2861 33.7256 13.4782C33.457 13.6686 33.3952 14.0413 33.5856 14.3099L36.1279 17.8792Z" stroke="black" stroke-width="0.4" mask="url(#path-2-outside-1_1082_2450)"/>
</g>
</svg>
