<svg width="50" height="46" viewBox="0 0 50 46" fill="none" xmlns="http://www.w3.org/2000/svg">
<mask id="mask0_1085_3048" style="mask-type:luminance" maskUnits="userSpaceOnUse" x="0" y="0" width="17" height="25">
<path d="M16.6055 0.150391V24.5127H0.150391V0.150391H16.6055Z" fill="white" stroke="white" stroke-width="0.3"/>
</mask>
<g mask="url(#mask0_1085_3048)">
<path d="M6.8877 1.43652C8.62115 0.527757 10.2523 0.183066 11.6592 0.350586C13.0629 0.517734 14.2528 1.19566 15.1123 2.35059C16.1903 3.80119 16.6165 5.87114 16.1641 7.37402C15.906 8.23467 15.4684 8.91495 15.0703 9.5332V9.53418C14.9338 9.74813 14.8023 9.95348 14.6836 10.1572C14.5994 10.1492 14.5148 10.1413 14.4326 10.1348C14.3429 10.1276 14.2555 10.1181 14.1709 10.1084C13.8634 9.57165 13.7591 8.9819 13.7393 8.47754C14.0618 7.97458 14.3717 7.47126 14.5469 6.8877C14.6802 6.44237 14.685 5.83511 14.5586 5.20801C14.4318 4.57875 14.17 3.91562 13.7559 3.3584C13.0735 2.43702 12.1298 1.97172 10.9639 1.97168C9.98774 1.97168 8.87958 2.29808 7.67285 2.93262C5.65092 3.99459 4.19517 5.38194 3.26465 7.20117C2.33538 9.01801 1.93613 11.2532 2.00195 14C2.0853 17.4702 2.99606 19.5998 4.27539 20.8604C5.55495 22.1211 7.17916 22.4893 8.63672 22.4893C10.25 22.4892 11.6873 22.0322 12.5 21.5996C13.836 20.8885 14.4354 20.1542 14.5098 19.2109C14.5461 18.7497 14.4553 18.2523 14.2852 17.7031C14.115 17.1538 13.8622 16.5417 13.5664 15.8516C13.4485 15.5738 13.3321 15.2952 13.2188 15.0146C13.919 14.6505 14.521 14.5795 14.5508 14.5762C14.66 14.5698 14.7598 14.5524 14.8506 14.5303C14.9373 14.745 15.0228 14.9635 15.1172 15.1855V15.1865C15.6416 16.4117 16.2429 17.823 16.1865 19.2119C16.1585 19.9013 15.9681 20.5847 15.5225 21.2363C15.0759 21.8891 14.3674 22.5181 13.293 23.0898C12.0184 23.7678 10.2757 24.1748 8.63672 24.1748C7.41676 24.1748 5.39298 23.9266 3.64941 22.5459C1.91177 21.1698 0.425051 18.6465 0.314453 14.041C0.221536 10.1372 0.805355 4.63151 6.8877 1.43652Z" fill="black" stroke="#7A8287" stroke-width="0.3"/>
</g>
<path d="M20.3389 15.5996C20.3275 15.4814 20.2599 15.3602 20.1758 15.248C20.0885 15.1318 19.9687 15.0065 19.8252 14.8779C19.5375 14.6203 19.1422 14.338 18.6914 14.0742C17.7932 13.5486 16.6465 13.0802 15.6484 13.0342C15.3211 13.0193 15.0172 12.9929 14.71 12.9658L14.6738 12.9619L14.6406 12.9756C14.5598 13.0082 14.5014 13.0302 14.4414 13.0332H14.4395C14.2964 13.0431 11.5935 13.2946 10.2139 15.9004C10.1042 16.1063 9.88996 16.2255 9.66895 16.2256C9.57088 16.2256 9.47226 16.2036 9.38379 16.1553L9.38184 16.1543L9.27832 16.085C9.05824 15.9036 8.98846 15.586 9.12695 15.3232C9.82298 14.0121 10.7855 13.2053 11.6992 12.6865L12.0078 12.5117L11.668 12.4121C8.23373 11.4057 7.31516 9.5689 7.2793 9.49219L7.27832 9.49023L7.23633 9.37305C7.16803 9.09649 7.30135 8.79934 7.56836 8.67188C7.83876 8.54809 8.14796 8.62891 8.31934 8.85059L8.38379 8.9541L8.38867 8.96289C8.42987 9.03491 9.07826 10.1467 11.209 10.9629L11.5293 11.085L11.4023 10.7666C10.5944 8.74073 11.1084 6.73813 11.1387 6.63086L11.1396 6.62891C11.229 6.30181 11.5672 6.11144 11.8926 6.20215L11.8936 6.20312C12.1789 6.28034 12.3634 6.5482 12.3457 6.83398L12.3252 6.95703C12.306 7.02908 12.1556 7.66695 12.1875 8.5166C12.2208 9.40164 12.453 10.5328 13.2539 11.4922L13.2881 11.5342L13.3418 11.5439C14.0373 11.67 14.8146 11.7666 15.7051 11.8076H15.7061C16.9781 11.8648 18.8151 12.5776 20.1016 13.5332L20.3408 13.7109V3.81055H22.6719V24.8047C21.9838 24.8257 21.1846 24.8758 20.3389 24.9941V15.5996Z" fill="black" stroke="#7A8287" stroke-width="0.3"/>
<mask id="mask1_1085_3048" style="mask-type:luminance" maskUnits="userSpaceOnUse" x="33" y="0" width="17" height="25">
<path d="M49.8496 0.150391V24.5127H33.8613V0.150391H49.8496Z" fill="white" stroke="white" stroke-width="0.3"/>
</mask>
<g mask="url(#mask1_1085_3048)">
<path d="M38.5693 0.348633C39.9762 0.181481 41.6071 0.527006 43.3398 1.43652C49.4223 4.63156 50.0072 10.1371 49.9053 14.0391C49.7947 18.6454 48.3082 21.169 46.5703 22.5449C44.8267 23.9253 42.8032 24.1728 41.584 24.1729C39.9451 24.1729 38.2024 23.7667 36.9277 23.0889C35.8532 22.5171 35.1447 21.888 34.6982 21.2354C34.2525 20.5838 34.0621 19.9004 34.0342 19.2109C33.9779 17.8224 34.5789 16.4115 35.1025 15.1855C35.2001 14.9623 35.2837 14.742 35.3701 14.5273C35.4113 14.5371 35.453 14.5468 35.4961 14.5537L35.6562 14.5732C35.693 14.5765 36.2999 14.6465 37.002 15.0117L36.6572 15.8477C36.3617 16.538 36.1087 17.1498 35.9385 17.6992C35.7683 18.2486 35.6776 18.7466 35.7139 19.208C35.788 20.1512 36.3868 20.8855 37.7227 21.5967C38.5354 22.0293 39.9719 22.4854 41.5869 22.4854C43.0444 22.4853 44.6678 22.1171 45.9473 20.8564C47.2266 19.5959 48.1383 17.4672 48.2217 13.9971C48.2875 11.2511 47.8878 9.01624 46.959 7.19922C46.0288 5.37974 44.5738 3.99072 42.5518 2.92871C41.3452 2.2943 40.2368 1.96777 39.2607 1.96777C38.1689 1.96785 37.2709 2.37847 36.5996 3.1875L36.4688 3.35449C36.0545 3.91171 35.7921 4.57558 35.665 5.20508C35.5385 5.83232 35.5436 6.43998 35.6777 6.88477C35.8529 7.4682 36.1605 7.97275 36.4834 8.47363C36.4635 8.97834 36.3599 9.56845 36.0527 10.1035C35.969 10.1144 35.8831 10.1255 35.7939 10.1328C35.7119 10.1395 35.6263 10.1473 35.541 10.1553C35.423 9.95328 35.2939 9.74832 35.1572 9.53418V9.5332L34.8535 9.05566C34.55 8.56279 34.256 8.01754 34.0625 7.37207C33.6115 5.86915 34.0365 3.79764 35.1143 2.34863L35.1152 2.34961C35.9755 1.19386 37.1657 0.515491 38.5693 0.348633Z" fill="black" stroke="#7A8287" stroke-width="0.3"/>
</g>
<path d="M29.8906 24.9922C29.0438 24.8739 28.2436 24.8237 27.5557 24.8027V3.81055H29.8877V13.7109L30.1279 13.5332C31.4145 12.5777 33.2496 11.8647 34.5215 11.8076C35.4121 11.7667 36.1901 11.67 36.8857 11.5439L36.9385 11.5342L36.9736 11.4922C37.7745 10.5328 38.0067 9.40242 38.04 8.51758C38.065 7.85491 37.9785 7.32143 37.9307 7.08496L37.9014 6.95312C37.8152 6.62536 38.0095 6.28945 38.332 6.20312L38.333 6.20215C38.6177 6.12276 38.9131 6.25875 39.043 6.51367L39.0879 6.62988C39.1194 6.7472 39.6313 8.74528 38.8252 10.7666L38.6982 11.085L39.0186 10.9629C41.1793 10.1349 41.8169 9.00566 41.8418 8.95996L41.8438 8.95703C41.9982 8.65658 42.3672 8.53346 42.665 8.68359H42.666C42.9668 8.83156 43.0938 9.18927 42.9521 9.49023C42.9179 9.56182 42.0031 11.4038 38.5625 12.4121L38.2217 12.5127L38.5312 12.6875C39.446 13.2046 40.4075 14.0116 41.1035 15.3242C41.2617 15.6225 41.1469 15.9957 40.8467 16.1543L40.8447 16.1553C40.7563 16.2035 40.6597 16.2255 40.5605 16.2256C40.34 16.2256 40.1261 16.1068 40.0146 15.8984H40.0156C38.6313 13.2832 35.9132 13.043 35.791 13.0332H35.792C35.7297 13.0278 35.6686 13.0058 35.5928 12.9746L35.5586 12.9609L35.5225 12.9639C35.3688 12.9774 35.2149 12.991 35.0586 13.0029L34.5791 13.0332C33.581 13.0792 32.4338 13.5472 31.5361 14.0732C31.0857 14.3372 30.6917 14.6199 30.4043 14.8779C30.2608 15.0068 30.1408 15.1323 30.0537 15.249C29.9697 15.3615 29.9027 15.483 29.8916 15.6016L30.041 15.6152L29.8906 15.6016V24.9922Z" fill="black" stroke="#7A8287" stroke-width="0.3"/>
<path d="M23.3369 41.8643L23.2363 41.8291C21.5516 41.2422 19.3597 40.0457 17.5947 38.3994C15.8285 36.752 14.5085 34.6716 14.5225 32.3145C14.5321 30.8027 15.0106 29.7035 15.7598 28.8984C16.512 28.0901 17.5471 27.5671 18.6865 27.2314C20.9703 26.5588 23.6208 26.6504 25.1143 26.6504C26.6085 26.6504 29.2585 26.559 31.542 27.2314C32.6813 27.567 33.7167 28.0891 34.4688 28.8975C35.2178 29.7026 35.6964 30.8023 35.7061 32.3145C35.72 34.6707 34.3999 36.751 32.6338 38.3984C30.8687 40.0448 28.676 41.2415 26.9912 41.8291L26.8906 41.8643V45.6816H23.3369V41.8643ZM32.9473 32.3291C32.9454 32.0885 32.9434 31.771 32.8301 31.4395C32.715 31.1029 32.4883 30.7595 32.0508 30.4551C31.1865 29.8539 29.5019 29.4033 26.2158 29.4033H24.0117C20.7261 29.4034 19.0421 29.854 18.1777 30.4551C17.7401 30.7595 17.5126 31.1028 17.3975 31.4395C17.2842 31.771 17.2831 32.0885 17.2812 32.3291V32.3301C17.2782 32.9616 17.4599 33.5734 17.7471 34.1523L17.7881 34.2354H32.4404L32.4814 34.1523C32.7686 33.5734 32.9503 32.9616 32.9473 32.3301V32.3291Z" fill="black" stroke="#7A8287" stroke-width="0.3"/>
</svg>
