<svg width="1000" height="1000" viewBox="0 0 1000 1000" fill="none" xmlns="http://www.w3.org/2000/svg">
<g clip-path="url(#clip0_68_1060)">
<path d="M809.265 431.531L915.842 432.287H915.843C923.881 432.36 930.264 438.88 930.191 446.787C930.12 454.629 923.939 460.936 916.14 461.131L915.767 461.136H915.625L809.049 460.38V460.379C801.075 460.376 794.627 453.853 794.699 445.88C794.771 437.983 801.217 431.531 809.123 431.531H809.265Z" fill="black" stroke="black" stroke-width="1.5"/>
<path d="M899.369 328.258C906.54 324.854 915.165 327.822 918.645 335C922.123 342.175 919.081 350.873 911.9 354.282L815.842 400.525L815.832 400.53C813.804 401.471 811.634 401.905 809.606 401.905C804.18 401.905 799.034 398.936 796.497 393.791L796.49 393.778C793.091 386.545 796.05 377.919 803.303 374.505L899.366 328.26L899.369 328.258Z" fill="black" stroke="black" stroke-width="1.5"/>
<path d="M795.866 493.309C799.362 486.246 807.777 483.326 814.881 486.623L815.218 486.785L815.22 486.786L910.662 534.335C917.843 537.889 920.664 546.587 917.188 553.685L917.185 553.69L917.181 553.697C914.579 558.757 909.511 561.731 904.214 561.731C902.033 561.731 899.861 561.222 897.772 560.214L897.764 560.21L802.319 512.659V512.658C795.14 509.103 792.319 500.475 795.866 493.309Z" fill="black" stroke="black" stroke-width="1.5"/>
<path d="M203.812 445.887C203.812 453.848 197.441 460.377 189.461 460.379L82.8857 461.136H82.7432C74.768 461.136 68.3949 454.754 68.25 446.794V446.781C68.25 438.88 74.6274 432.36 82.667 432.287H82.6689L189.245 431.531H189.25C197.143 431.531 203.739 437.902 203.812 445.88V445.887Z" fill="black" stroke="black" stroke-width="1.5"/>
<path d="M79.8696 335C83.2951 327.935 91.7043 324.949 98.8062 328.104L99.144 328.258L99.147 328.26L195.207 374.503L195.54 374.667C202.481 378.181 205.372 386.651 202.023 393.778L202.017 393.791L201.344 393.458L202.016 393.791C199.479 398.936 194.333 401.905 188.907 401.905C186.879 401.905 184.709 401.471 182.681 400.53L182.671 400.525L86.6128 354.282C79.4317 350.872 76.3907 342.175 79.8696 335Z" fill="black" stroke="black" stroke-width="1.5"/>
<path d="M183.278 486.785C190.451 483.235 199.078 486.134 202.629 493.309C206.179 500.48 203.282 509.107 196.177 512.659H196.176L100.732 560.21L100.723 560.214C98.6346 561.222 96.4623 561.731 94.2817 561.731C88.9859 561.731 83.9134 558.757 81.3794 553.689V553.688C77.7576 546.581 80.6611 537.885 87.8335 534.335L183.276 486.786L183.278 486.785Z" fill="black" stroke="black" stroke-width="1.5"/>
<path d="M310.057 586.216C317.892 584.838 325.353 590.134 326.729 598.026L326.789 598.393C327.942 606.094 322.687 613.342 314.926 614.766L314.917 614.768L206.741 633.38C176.632 642.043 153.474 665.07 144.548 695.187L144.547 695.192L96.584 853.647C94.6989 859.881 88.9029 863.937 82.7412 863.937C81.3594 863.937 79.909 863.719 78.5303 863.283V863.282C70.9262 860.961 66.5813 852.92 68.8994 845.241L116.862 686.855C128.618 647.099 159.596 616.536 199.63 605.404L199.64 605.401L200.945 605.058L200.977 605.049L201.009 605.043L310.057 586.217V586.216Z" fill="black" stroke="black" stroke-width="1.5"/>
<path d="M499.819 -0.75C628.435 -0.75 733.076 120.876 734.813 270.951C748.829 296.654 752.567 321.403 745.71 344.401L745.711 344.402C737.453 372.343 715.825 389.258 705.367 395.997C692.253 441.37 667.272 482.615 632.958 515.623L632.955 515.626C626.207 522.04 623.622 531.234 626.08 539.676C633.076 561.942 651.954 578.715 675.115 583.267L802.771 605.391L802.808 605.396L802.844 605.407C842.567 616.453 873.374 646.628 885.334 686L885.614 686.932L885.618 686.947L931.725 857.016L931.727 857.021C933.755 864.77 929.193 872.669 921.511 874.771L921.51 874.77C920.262 875.135 918.957 875.277 917.671 875.277C911.356 875.277 905.561 870.998 903.823 864.554V864.555L857.784 694.83V694.829C848.992 665.068 825.842 642.048 795.74 633.385L669.829 611.679L669.811 611.675C636.011 605.026 608.788 580.714 598.397 548.226L598.385 548.19L598.377 548.154L598.175 547.214C592.818 528.937 598.478 508.601 612.884 494.752L612.885 494.751C644.945 464.062 667.824 425.359 679.057 382.822V382.82L680.638 376.91L680.724 376.587L681.024 376.436L686.452 373.687L686.501 373.662L686.503 373.661C686.511 373.657 686.521 373.652 686.532 373.646C686.579 373.622 686.65 373.584 686.743 373.533C686.929 373.431 687.201 373.278 687.547 373.074C688.241 372.667 689.232 372.058 690.441 371.252C692.859 369.639 696.141 367.234 699.643 364.06C706.654 357.705 714.502 348.3 718.091 336.009C722.756 319.984 719.336 301.853 707.855 281.967V281.966L706.002 278.811L705.899 278.635V274.72C705.899 138.674 613.35 28.167 499.819 28.167C386.288 28.1671 293.807 138.673 293.807 274.72V278.641L293.698 278.82L291.774 281.981C280.301 301.86 276.95 319.987 281.615 336.009C285.204 348.3 293.036 357.705 300.046 364.068C303.548 367.247 306.835 369.658 309.266 371.281C310.481 372.093 311.482 372.706 312.186 373.12C312.538 373.327 312.815 373.484 313.008 373.59L313.263 373.729L313.297 373.742L313.331 373.759L318.622 376.508L318.91 376.657L318.998 376.97L320.647 382.81L320.65 382.822C328.116 411.111 340.651 437.551 357.776 461.39C362.483 467.908 361.038 476.901 354.51 481.543C348.056 486.25 339.07 484.794 334.365 478.278L334.364 478.277C316.297 453.135 302.819 425.526 294.27 395.996C283.811 389.257 262.185 372.343 253.927 344.472L253.926 344.471C247.138 321.405 250.877 296.724 264.892 270.953C266.629 120.877 371.271 -0.749922 499.819 -0.75Z" fill="black" stroke="black" stroke-width="1.5"/>
<path d="M472.159 497.893C475.926 490.867 484.761 488.181 491.727 491.952C498.754 495.719 501.439 504.487 497.669 511.52L497.668 511.521C491.187 523.597 486.822 538.132 485.868 551.212V551.215C474.38 701.107 393.918 888.101 294.509 996.11L294.506 996.113C291.679 999.157 287.767 1000.75 283.855 1000.75C280.378 1000.75 276.9 999.517 274.078 996.985L274.069 996.977C268.2 991.543 267.838 982.41 273.273 976.54C367.157 874.557 446.179 690.701 457.023 548.97V548.969C458.337 532.027 463.866 513.373 472.159 497.893Z" fill="black" stroke="black" stroke-width="1.5"/>
<path d="M484.928 436.131C496.382 436.131 507.059 441.893 513.449 451.444H513.448C517.934 458.102 516.204 467.084 509.54 471.511L509.541 471.512C503.01 476.011 493.948 474.269 489.525 467.599V467.598C488.436 465.965 486.616 465.048 484.653 465.048C457.36 465.048 427.322 480.378 406.271 505.119C393.032 520.668 384.869 547.747 382.88 583.49V583.491C379.781 637.82 364.219 689.613 337.903 733.289L337.902 733.29C293.314 807.122 231.386 869.603 158.719 913.85L158.718 913.849C156.391 915.301 153.781 915.951 151.251 915.951C146.39 915.951 141.614 913.415 138.864 909.002L138.859 908.994C134.726 902.178 136.906 893.338 143.711 889.139L143.715 889.137C212.324 847.354 270.92 788.278 313.187 718.36C337.1 678.755 351.223 631.532 354.034 581.826C356.375 539.353 366.497 507.211 384.24 486.418C410.608 455.426 449.081 436.131 484.653 436.131H484.928Z" fill="black" stroke="black" stroke-width="1.5"/>
<path d="M384.783 153.704C387.102 146.022 395.148 141.748 402.825 144.063C430.956 152.455 459.775 162.84 488.316 174.944H488.315C499.508 179.64 509 183.185 518.095 185.922L519.91 186.459L519.913 186.46C572.982 202.141 631.742 196.731 681.045 171.668L681.049 171.666C688.149 168.116 696.842 170.94 700.466 178.04H700.467C704.094 185.076 701.266 193.849 694.086 197.402L694.085 197.401C659.346 215.183 620.409 224.21 581.474 224.21C557.904 224.21 534.331 220.902 511.72 214.146V214.146C500.966 211.043 489.945 206.979 477.081 201.544H477.08C449.481 189.873 421.678 179.85 394.495 171.75L394.49 171.748C386.881 169.429 382.536 161.388 384.781 153.711L384.783 153.704Z" fill="black" stroke="black" stroke-width="1.5"/>
<path d="M446.345 174.429C448.843 167.007 456.816 162.961 464.251 165.187L464.604 165.297L464.608 165.299C472.219 167.836 476.275 176.027 473.74 183.632V183.633C457.406 232.392 410.466 258.694 367.003 272.844C323.509 287.003 283.269 289.069 279.974 289.208L279.958 289.209H279.323C271.636 289.209 265.263 283.119 264.9 275.369V275.368C264.538 267.396 270.698 260.656 278.669 260.293L280.495 260.181C288.264 259.648 319.583 256.965 353.283 246.744C391.852 235.046 433.242 213.565 446.344 174.43L446.345 174.429Z" fill="black" stroke="black" stroke-width="1.5"/>
<path d="M518.898 627.997C525.277 623.213 534.336 624.518 539.119 630.896L539.12 630.896L612.3 728.746L612.809 729.426L612.072 729.847L484.744 802.478L484.009 802.896L483.681 802.117L433.933 684L433.792 683.655C430.924 676.41 434.411 668.148 441.613 665.082L441.622 665.078L441.968 664.94C449.271 662.147 457.534 665.624 460.534 672.836H460.533L497.996 761.656L570.049 720.512L515.999 648.218V648.217C511.216 641.838 512.521 632.78 518.898 627.997Z" fill="black" stroke="black" stroke-width="1.5"/>
<path d="M475.069 494.126C480.78 488.773 489.716 488.974 495.243 494.508L495.504 494.775L495.507 494.779L621.392 629.185L621.905 629.732L621.356 630.245L563.225 684.598C560.468 687.207 556.916 688.511 553.367 688.511C549.526 688.511 545.686 686.988 542.792 683.949L542.787 683.944V683.943C537.351 678.144 537.641 669.009 543.513 663.572L581.029 628.356L474.348 514.563C468.912 508.765 469.2 499.564 475.069 494.126Z" fill="black" stroke="black" stroke-width="1.5"/>
</g>
<defs>
<clipPath id="clip0_68_1060">
<rect width="1000" height="1000" fill="white"/>
</clipPath>
</defs>
</svg>
