<svg width="1000" height="1000" viewBox="0 0 1000 1000" fill="none" xmlns="http://www.w3.org/2000/svg">
<g clip-path="url(#clip0_75_1071)">
<path d="M326.214 673.792C236.606 584.01 167.693 475.736 124.297 356.542C100.422 291.376 122.297 219.792 171.38 170.709L201.755 140.376C209.921 132.193 219.621 125.701 230.299 121.272C240.977 116.843 252.424 114.563 263.984 114.563C275.545 114.563 286.992 116.843 297.67 121.272C308.348 125.701 318.047 132.193 326.214 140.376L397.339 211.501C405.521 219.667 412.013 229.367 416.442 240.045C420.872 250.723 423.152 262.17 423.152 273.73C423.152 285.29 420.872 296.737 416.442 307.415C412.013 318.093 405.521 327.793 397.339 335.959L379.839 353.459C372.834 360.462 367.277 368.777 363.486 377.928C359.695 387.079 357.744 396.887 357.744 406.792C357.744 416.698 359.695 426.506 363.486 435.657C367.277 444.808 372.834 453.122 379.839 460.126L539.839 620.167C546.842 627.172 555.157 632.729 564.308 636.52C573.459 640.311 583.267 642.262 593.172 642.262C603.077 642.262 612.885 640.311 622.036 636.52C631.187 632.729 639.502 627.172 646.505 620.167L664.047 602.667C672.213 594.485 681.913 587.993 692.591 583.564C703.269 579.134 714.716 576.854 726.276 576.854C737.836 576.854 749.283 579.134 759.961 583.564C770.639 587.993 780.339 594.485 788.505 602.667L859.63 673.792C867.813 681.958 874.305 691.658 878.734 702.336C883.163 713.014 885.443 724.461 885.443 736.022C885.443 747.582 883.163 759.029 878.734 769.707C874.305 780.385 867.813 790.085 859.63 798.251L829.297 828.584C780.214 877.709 708.63 899.584 643.464 875.709C524.27 832.313 415.996 763.4 326.214 673.792Z" stroke="black" stroke-width="40" stroke-linejoin="round"/>
</g>
<defs>
<clipPath id="clip0_75_1071">
<rect width="1000" height="1000" fill="white"/>
</clipPath>
</defs>
</svg>
