<svg width="1000" height="1000" viewBox="0 0 1000 1000" fill="none" xmlns="http://www.w3.org/2000/svg">
<g clip-path="url(#clip0_68_1058)">
<mask id="mask0_68_1058" style="mask-type:luminance" maskUnits="userSpaceOnUse" x="0" y="124" width="1001" height="752">
<path d="M0.464844 124.322H1000.46V875.452H0.464844V124.322Z" fill="white"/>
</mask>
<g mask="url(#mask0_68_1058)">
<path d="M97.5647 619.439C154.109 768.072 313.41 875.614 500.573 875.614C687.766 875.614 847.067 768.072 903.611 619.439C956.643 617.691 999.49 570.274 999.49 512.258C999.49 457.349 961.063 411.874 911.923 405.77C864.247 244.374 697.951 125.012 500.573 125.012C303.225 125.012 136.929 244.374 89.2528 405.77C40.1133 411.874 1.65625 457.349 1.65625 512.258C1.65625 570.274 44.5326 617.691 97.5647 619.439ZM962.555 512.258C962.994 519.666 962.204 526.963 960.214 534.149C958.194 541.335 955.063 548.05 950.819 554.292C946.575 560.563 941.424 566.056 935.337 570.773C929.279 575.49 922.576 579.236 915.23 581.955C926.937 536.23 928.781 490.172 920.791 443.754C927.376 446.972 933.376 450.995 938.732 455.851C944.088 460.679 948.624 466.144 952.341 472.221C956.029 478.297 958.751 484.734 960.507 491.532C962.233 498.357 962.906 505.238 962.555 512.258ZM436.098 164.91C400.802 198.039 374.929 246.649 403.377 304.332C404.899 307.412 407.182 309.881 410.226 311.712C413.269 313.544 416.606 314.459 420.206 314.431C421.728 314.431 423.25 314.237 424.742 313.849C426.206 313.488 427.61 312.961 428.957 312.24C430.303 311.546 431.532 310.686 432.644 309.715C433.756 308.716 434.722 307.606 435.571 306.385C436.39 305.164 437.034 303.888 437.532 302.501C438 301.141 438.293 299.726 438.41 298.283C438.527 296.841 438.439 295.398 438.176 293.983C437.912 292.568 437.473 291.181 436.829 289.877C401.533 217.183 485.442 169.266 504.846 159.333C512.046 159.333 519.07 159.333 526.27 160.388C505.198 194.182 491.53 239.324 526.27 268.096C528.114 269.178 530.075 269.927 532.182 270.371C534.289 270.788 536.426 270.871 538.562 270.621C540.728 270.344 542.747 269.733 544.679 268.79C546.581 267.847 548.279 266.626 549.742 265.127C551.206 263.601 552.347 261.909 553.166 260.05C554.015 258.163 554.483 256.193 554.571 254.168C554.688 252.115 554.396 250.117 553.781 248.175C553.137 246.233 552.142 244.429 550.854 242.82C528.494 225.396 554.922 183.222 567.654 165.798C749.666 193.322 888.626 332.744 888.626 500.383C888.626 688.082 714.575 840.766 500.573 840.766C286.601 840.766 112.549 688.082 112.549 500.383C112.549 331.883 252.798 192.101 436.098 164.91ZM80.3849 443.754C72.3949 490.172 74.2388 536.23 85.9164 581.955C78.5996 579.236 71.8974 575.49 65.8391 570.773C59.7515 566.056 54.6005 560.563 50.3568 554.292C46.1131 548.05 42.9815 541.335 40.962 534.149C38.9719 526.963 38.1817 519.666 38.6207 512.258C38.2987 505.266 39.0011 498.413 40.7572 491.643C42.5132 484.845 45.235 478.464 48.952 472.415C52.6396 466.366 57.176 460.956 62.5027 456.128C67.8585 451.328 73.829 447.305 80.3849 444.114V443.754Z" fill="black"/>
</g>
<path d="M291.401 499.879C293.86 499.879 296.231 499.435 298.484 498.547C300.738 497.66 302.757 496.411 304.484 494.774C306.211 493.137 307.557 491.25 308.494 489.114C309.43 486.978 309.898 484.758 309.898 482.427C309.664 480.346 309.635 478.265 309.84 476.157C310.015 474.076 310.425 472.023 311.04 469.997C311.654 467.972 312.474 466.03 313.498 464.171C314.493 462.284 315.693 460.536 317.069 458.871C318.444 457.234 319.996 455.708 321.664 454.349C323.361 452.961 325.176 451.768 327.107 450.714C329.039 449.687 331.058 448.827 333.166 448.134C335.273 447.468 337.439 446.996 339.634 446.719C341.858 446.996 343.995 447.468 346.102 448.134C348.238 448.827 350.258 449.687 352.189 450.714C354.121 451.768 355.936 452.961 357.604 454.349C359.301 455.708 360.823 457.234 362.199 458.871C363.574 460.536 364.774 462.284 365.799 464.171C366.794 466.03 367.613 467.972 368.228 469.997C368.842 472.023 369.252 474.076 369.457 476.157C369.633 478.265 369.633 480.346 369.398 482.427C369.398 484.758 369.867 486.978 370.803 489.114C371.74 491.25 373.057 493.137 374.813 494.774C376.54 496.411 378.53 497.66 380.783 498.547C383.066 499.435 385.408 499.879 387.866 499.879C390.324 499.879 392.666 499.435 394.949 498.547C397.202 497.66 399.192 496.411 400.948 494.774C402.675 493.137 403.992 491.25 404.929 489.114C405.865 486.978 406.334 484.758 406.334 482.427C406.597 478.071 406.363 473.715 405.719 469.359C405.046 465.031 403.934 460.786 402.383 456.652C400.861 452.517 398.9 448.578 396.529 444.804C394.188 441.031 391.437 437.507 388.364 434.233C385.261 430.959 381.866 427.99 378.179 425.354C374.462 422.719 370.511 420.444 366.355 418.501C362.169 416.587 357.838 415.089 353.331 413.951C348.853 412.841 344.287 412.148 339.634 411.87C335.01 412.148 330.444 412.841 325.937 413.951C321.459 415.089 317.127 416.587 312.942 418.501C308.757 420.444 304.835 422.719 301.118 425.354C297.401 427.99 294.006 430.959 290.933 434.233C287.831 437.507 285.109 441.031 282.738 444.804C280.368 448.578 278.436 452.517 276.885 456.652C275.334 460.786 274.251 465.031 273.578 469.359C272.905 473.715 272.7 478.071 272.934 482.427C272.934 484.758 273.402 486.978 274.339 489.114C275.275 491.25 276.622 493.137 278.348 494.774C280.075 496.411 282.065 497.66 284.348 498.547C286.602 499.435 288.972 499.879 291.401 499.879Z" fill="black"/>
<path d="M597.241 499.879C599.67 499.879 602.041 499.435 604.294 498.547C606.548 497.66 608.567 496.411 610.294 494.774C612.021 493.137 613.367 491.25 614.304 489.114C615.24 486.978 615.708 484.758 615.708 482.427C615.474 480.346 615.445 478.265 615.65 476.157C615.855 474.076 616.235 472.023 616.85 469.997C617.464 467.972 618.284 466.03 619.308 464.171C620.333 462.284 621.503 460.536 622.879 458.871C624.254 457.234 625.806 455.708 627.474 454.349C629.171 452.961 630.986 451.768 632.917 450.714C634.849 449.687 636.869 448.827 638.976 448.134C641.083 447.468 643.249 446.996 645.444 446.719C647.668 446.996 649.834 447.468 651.941 448.134C654.048 448.827 656.068 449.687 657.999 450.714C659.931 451.768 661.746 452.961 663.414 454.349C665.111 455.708 666.633 457.234 668.009 458.871C669.384 460.536 670.584 462.284 671.609 464.171C672.633 466.03 673.423 467.972 674.038 469.997C674.652 472.023 675.062 474.076 675.267 476.157C675.472 478.265 675.443 480.346 675.208 482.427C675.208 484.758 675.677 486.978 676.613 489.114C677.55 491.25 678.896 493.137 680.623 494.774C682.35 496.411 684.34 497.66 686.623 498.547C688.876 499.435 691.247 499.879 693.676 499.879C696.135 499.879 698.505 499.435 700.759 498.547C703.012 497.66 705.032 496.411 706.758 494.774C708.485 493.137 709.832 491.25 710.768 489.114C711.705 486.978 712.173 484.758 712.173 482.427C712.407 478.071 712.202 473.715 711.529 469.359C710.856 465.031 709.744 460.786 708.222 456.652C706.671 452.517 704.71 448.578 702.368 444.804C699.998 441.031 697.276 437.507 694.174 434.233C691.071 430.959 687.676 427.99 683.989 425.354C680.272 422.719 676.321 420.444 672.165 418.501C667.98 416.587 663.648 415.089 659.141 413.951C654.663 412.841 650.097 412.148 645.444 411.87C640.82 412.148 636.254 412.841 631.747 413.951C627.269 415.089 622.937 416.587 618.752 418.501C614.567 420.444 610.645 422.719 606.928 425.354C603.241 427.99 599.816 430.959 596.743 434.233C593.641 437.507 590.919 441.031 588.548 444.804C586.207 448.578 584.246 452.517 582.695 456.652C581.144 460.786 580.061 465.031 579.388 469.359C578.715 473.715 578.51 478.071 578.744 482.427C578.744 484.758 579.212 486.978 580.149 489.114C581.085 491.25 582.432 493.137 584.158 494.774C585.885 496.411 587.905 497.66 590.158 498.547C592.412 499.435 594.782 499.879 597.241 499.879Z" fill="black"/>
<path d="M500.568 719.986C507.095 719.958 513.533 719.348 519.914 718.155C526.294 716.934 532.499 715.158 538.498 712.8C544.527 710.414 550.234 707.528 555.649 704.115C561.034 700.675 566.039 696.791 570.634 692.435C575.229 688.078 579.326 683.334 582.926 678.229C586.526 673.124 589.54 667.713 592.028 662.025C594.486 656.365 596.359 650.511 597.618 644.462C598.847 638.442 599.462 632.365 599.433 626.206C599.433 623.903 598.964 621.683 598.028 619.547C597.091 617.41 595.774 615.524 594.018 613.887C592.291 612.25 590.301 611.001 588.048 610.113C585.765 609.225 583.423 608.781 580.965 608.781C578.507 608.781 576.165 609.225 573.882 610.113C571.629 611.001 569.639 612.25 567.883 613.887C566.156 615.524 564.839 617.41 563.902 619.547C562.966 621.683 562.497 623.903 562.497 626.206C562.497 630.062 562.088 633.836 561.297 637.609C560.507 641.383 559.337 645.017 557.785 648.569C556.205 652.092 554.303 655.477 552.049 658.668C549.795 661.831 547.22 664.8 544.352 667.491C541.484 670.21 538.352 672.624 534.986 674.761C531.591 676.897 528.021 678.7 524.274 680.171C520.528 681.614 516.636 682.724 512.655 683.473C508.675 684.222 504.636 684.61 500.568 684.61C496.529 684.61 492.49 684.222 488.51 683.473C484.53 682.724 480.637 681.614 476.891 680.171C473.145 678.7 469.574 676.897 466.179 674.761C462.813 672.624 459.682 670.21 456.814 667.491C453.946 664.8 451.37 661.831 449.116 658.668C446.863 655.477 444.961 652.092 443.38 648.569C441.829 645.017 440.658 641.383 439.868 637.609C439.078 633.836 438.668 630.062 438.668 626.206C438.668 623.903 438.2 621.683 437.263 619.547C436.327 617.41 435.01 615.524 433.254 613.887C431.527 612.25 429.537 611.001 427.283 610.113C425 609.225 422.659 608.781 420.201 608.781C417.742 608.781 415.401 609.225 413.118 610.113C410.864 611.001 408.874 612.25 407.147 613.887C405.391 615.524 404.074 617.41 403.138 619.547C402.201 621.683 401.733 623.903 401.733 626.206C401.704 632.365 402.318 638.442 403.547 644.462C404.806 650.511 406.679 656.365 409.138 662.025C411.596 667.713 414.64 673.124 418.24 678.229C421.839 683.334 425.937 688.078 430.532 692.435C435.127 696.791 440.131 700.675 445.517 704.115C450.931 707.528 456.638 710.414 462.638 712.772C468.667 715.158 474.842 716.934 481.252 718.155C487.632 719.348 494.071 719.958 500.568 719.986Z" fill="black"/>
</g>
<defs>
<clipPath id="clip0_68_1058">
<rect width="1000" height="1000" fill="white"/>
</clipPath>
</defs>
</svg>
