<svg width="61" height="60" viewBox="0 0 61 60" fill="none" xmlns="http://www.w3.org/2000/svg">
<path fill-rule="evenodd" clip-rule="evenodd" d="M37.2496 6.74999C37.2496 10.4779 34.2276 13.5 30.4996 13.5C26.7717 13.5 23.7496 10.4779 23.7496 6.74999C23.7496 3.02207 26.7717 0 30.4996 0C34.2276 0 37.2496 3.02207 37.2496 6.74999ZM39.4996 44.9999H32.3964L33.5119 57.2715C33.6571 58.8689 35.0332 60.0695 36.6355 59.9969C38.238 59.9241 39.4996 58.6038 39.4996 56.9999V44.9999ZM28.6029 44.9999H21.4996V56.9999C21.4996 58.6038 22.7614 59.9241 24.3637 59.9969C25.966 60.0695 27.3421 58.8689 27.4873 57.2715L28.6029 44.9999ZM48.4328 15H48.569C48.5237 14.9989 48.4784 14.9989 48.4328 15ZM12.4307 15C12.4755 14.9989 12.5204 14.9989 12.5654 15H12.4307Z" fill="white"/>
<path fill-rule="evenodd" clip-rule="evenodd" d="M2.17857 10.5059C0.975347 10.5059 0 11.4803 0 12.6823V45.3294C0 46.5315 0.975347 47.5059 2.17857 47.5059H58.8214C60.0247 47.5059 61 46.5315 61 45.3294V12.6823C61 11.4803 60.0247 10.5059 58.8214 10.5059H2.17857ZM28.3214 14.8588V18.1235H27.2321C25.2041 18.1235 23.0038 18.7782 21.4498 19.3428C20.6431 19.6357 19.9485 19.928 19.4542 20.1474C19.2063 20.2575 19.0069 20.3503 18.8666 20.4166C18.7965 20.4499 18.7412 20.4767 18.7017 20.4959L18.6549 20.5189L18.6407 20.5259L18.6359 20.5283L18.6335 20.5294C18.6331 20.5296 18.6329 20.5298 19.6071 22.4764C20.5814 24.4231 20.5812 24.4233 20.581 24.4233L20.5847 24.4216L20.6121 24.4081C20.638 24.3954 20.6794 24.3754 20.7348 24.3493C20.8457 24.2966 21.0121 24.2191 21.2239 24.1253C21.6485 23.9366 22.2476 23.6848 22.9386 23.4337C24.3802 22.91 25.9923 22.4764 27.2321 22.4764H28.3214V26.8294H26.5786C23.9702 26.8294 21.2334 28.2132 19.4039 29.321C18.4333 29.9087 17.6002 30.493 17.0101 30.9296C16.7138 31.149 16.4759 31.3332 16.3094 31.4646C16.226 31.5306 16.1604 31.5835 16.114 31.6211L16.0589 31.6662L16.0426 31.6797L16.0373 31.684L16.0354 31.6855C16.0349 31.686 16.0338 31.6868 17.4286 33.3588C18.8233 35.0308 18.8231 35.031 18.8226 35.0312L18.8285 35.0266L18.8625 34.9988C18.8947 34.9727 18.9451 34.932 19.0124 34.8788C19.147 34.7724 19.3483 34.6164 19.6037 34.4277C20.1163 34.0481 20.8354 33.5442 21.6622 33.0436C23.4273 31.975 25.2655 31.1823 26.5786 31.1823H28.3214V35.9005C26.7934 36.3297 25.3263 37.0812 24.1373 37.9329C23.2663 38.5569 22.458 39.2953 21.8458 40.1072C21.2609 40.8833 20.6964 41.9393 20.6964 43.1529H25.0536C25.0536 43.1623 25.0534 43.1703 25.0531 43.1766C25.0529 43.1823 25.0525 43.1866 25.0525 43.1901C25.052 43.1947 25.052 43.1973 25.0523 43.1973C25.0525 43.1973 25.0534 43.1949 25.0551 43.1901C25.0664 43.1562 25.1183 43.0021 25.3263 42.7259C25.6104 42.3491 26.0681 41.9062 26.6764 41.4705C27.897 40.596 29.3839 39.9892 30.5697 39.8891C31.5756 39.9137 33.0006 40.4639 34.2565 41.3763C34.8726 41.824 35.3493 42.2895 35.6504 42.6904C35.8708 42.984 35.9292 43.1503 35.9436 43.1908L35.9453 43.196C35.9464 43.1991 35.9471 43.2006 35.9475 43.2006C35.9486 43.2004 35.9464 43.1845 35.9464 43.1529H40.3036C40.3036 41.9295 39.7206 40.8572 39.1361 40.0787C38.5178 39.2553 37.701 38.4966 36.8194 37.856C35.6578 37.012 34.2012 36.2441 32.6786 35.838V31.1823H35.075C36.7065 31.1823 38.3834 31.9796 39.7875 32.964C40.4637 33.438 41.0192 33.9151 41.4033 34.2723C41.5944 34.4496 41.7401 34.5948 41.8342 34.6912C41.8811 34.7393 41.9151 34.775 41.9349 34.7964L41.953 34.8157C41.9525 34.8153 41.9521 34.8149 43.5714 33.3588C45.1908 31.9027 45.1903 31.9023 45.1899 31.9019L45.1866 31.8984L45.1812 31.8923L45.1657 31.8753L45.1176 31.8235C45.0779 31.7811 45.023 31.7232 44.9539 31.6524C44.8156 31.5108 44.6191 31.3157 44.371 31.085C43.8771 30.626 43.1662 30.0149 42.2902 29.4007C40.5898 28.2086 38.0185 26.8294 35.075 26.8294H32.6786V22.4764H34.3125C35.8251 22.4764 37.2956 22.9141 38.437 23.394C38.9971 23.6298 39.4522 23.8646 39.7609 24.0368C39.9147 24.1227 40.0306 24.1919 40.1031 24.2366C40.1395 24.2588 40.1648 24.2749 40.1787 24.2838L40.1853 24.2879C40.1848 24.2877 40.1844 24.2875 41.3929 22.4764C42.6013 20.6654 42.6009 20.6652 42.6002 20.6648L42.597 20.6626L42.5913 20.6589L42.5763 20.6491L42.5318 20.6204C42.4959 20.5973 42.4473 20.5666 42.3867 20.5294C42.2658 20.4549 42.0965 20.3542 41.8843 20.236C41.4615 20.0001 40.8611 19.6908 40.1278 19.3824C38.6821 18.7741 36.6124 18.1235 34.3125 18.1235H32.6805L32.6786 14.8588H28.3214Z" fill="white"/>
</svg>
