<svg width="34" height="40" viewBox="0 0 34 40" fill="none" xmlns="http://www.w3.org/2000/svg">
<path d="M16.7615 12.043C23.766 12.0431 30.1197 15.8983 33.3777 22.0879L33.3787 22.0898C33.4732 22.2801 33.4731 22.5021 33.3787 22.6924L33.3777 22.6943C30.1197 28.884 23.7661 32.7402 16.7615 32.7402C9.78339 32.7402 3.42962 28.884 0.171631 22.6943L0.170654 22.6924C0.0762739 22.5021 0.0761923 22.2801 0.170654 22.0898L0.171631 22.0879C3.42962 15.8982 9.78339 12.043 16.7615 12.043ZM16.7615 13.3232C10.3625 13.3232 4.55105 16.7933 1.45581 22.3779C4.551 27.9892 10.3624 31.46 16.7615 31.46C23.1607 31.4599 28.998 27.9886 32.0662 22.3779C28.9979 16.7939 23.1606 13.3233 16.7615 13.3232Z" fill="#E7000B" stroke="#E7000B" stroke-width="0.2"/>
<path d="M10.1975 13.248C10.4798 13.0594 10.8901 13.1168 11.0872 13.4043C11.3128 13.6944 11.2449 14.0808 10.9622 14.3008L10.9592 14.3037C8.33887 16.1758 6.78839 19.1963 6.78833 22.3779C6.78833 25.4863 8.24362 28.4186 10.717 30.3008L10.9592 30.4795L10.9622 30.4824C11.2448 30.7023 11.3134 31.0879 11.0881 31.3779L11.0872 31.3789C10.9619 31.5358 10.7717 31.6327 10.5774 31.6328C10.4522 31.6328 10.3282 31.601 10.2083 31.541L10.2004 31.5381L10.1936 31.5332C7.27882 29.4083 5.50806 26.002 5.50806 22.3779C5.50812 18.7805 7.27906 15.3748 10.1936 13.25L10.1975 13.248Z" fill="#E7000B" stroke="#E7000B" stroke-width="0.2"/>
<path d="M16.7612 4.3457C17.1068 4.3457 17.4017 4.59892 17.4019 4.95801V8.76562C17.4019 9.1182 17.1138 9.40625 16.7612 9.40625C16.4094 9.40615 16.1216 9.11821 16.1216 8.76562V4.95801C16.1217 4.59892 16.4164 4.3458 16.7612 4.3457Z" fill="#E7000B" stroke="#E7000B" stroke-width="0.2"/>
<path d="M24.4832 5.82129C24.6489 5.57276 24.961 5.46635 25.2312 5.55176L25.3435 5.60059L25.3464 5.60254C25.6609 5.79085 25.7607 6.17331 25.5984 6.46582L25.5974 6.46777L23.6804 9.7627C23.5759 9.99174 23.3459 10.082 23.1345 10.082C23.0616 10.082 22.923 10.0846 22.8132 10.0127C22.4961 9.82244 22.3996 9.43737 22.5896 9.12012L24.4792 5.82715L24.4832 5.82129Z" fill="#E7000B" stroke="#E7000B" stroke-width="0.2"/>
<path d="M8.18286 5.59863C8.49195 5.44382 8.87938 5.53074 9.04419 5.82812H9.04224L10.9602 9.12109L10.9631 9.12695C11.1194 9.43956 11.028 9.81945 10.7405 10.0107L10.7297 10.0176V10.0166C10.5998 10.0822 10.4983 10.082 10.4143 10.082C10.224 10.082 10.0274 10.0095 9.89478 9.83984L9.84204 9.76172L7.95435 6.47266L7.92114 6.41504C7.77304 6.12439 7.91248 5.77699 8.17212 5.60449L8.18286 5.59766V5.59863Z" fill="#E7000B" stroke="#E7000B" stroke-width="0.2"/>
<path d="M16.7612 34.457C17.1137 34.457 17.4018 34.7442 17.4019 35.0967V38.9043C17.4019 39.2569 17.1138 39.5449 16.7612 39.5449C16.4094 39.5448 16.1216 39.2569 16.1216 38.9043V35.0967C16.1217 34.7442 16.4094 34.4571 16.7612 34.457Z" fill="#E7000B" stroke="#E7000B" stroke-width="0.2"/>
<path d="M22.8201 34.7656C23.1383 34.5788 23.5196 34.7058 23.6804 34.9932L25.5974 38.2881L25.6003 38.2939C25.7573 38.6081 25.6638 38.9896 25.3464 39.1797L25.3376 39.1855L25.3269 39.1895C25.2486 39.2157 25.1515 39.248 25.0515 39.248C24.8614 39.2479 24.6646 39.1759 24.532 39.0059L24.4792 38.9277L22.5886 35.6328L22.5896 35.6318C22.4014 35.3417 22.4956 34.9262 22.8201 34.7646V34.7656Z" fill="#E7000B" stroke="#E7000B" stroke-width="0.2"/>
<path d="M9.84595 34.9883C10.0324 34.7077 10.4135 34.5745 10.7366 34.7686L10.7356 34.7695C10.8843 34.8529 10.979 34.9987 11.0178 35.1543C11.0568 35.3108 11.0425 35.4856 10.9612 35.6318L10.9602 35.6338L9.04224 38.9287C8.93815 39.1583 8.70823 39.248 8.49731 39.248C8.40038 39.248 8.27956 39.2169 8.19556 39.1885L8.18286 39.1846L8.17212 39.1777C7.8917 38.9914 7.75964 38.611 7.95239 38.2881H7.95142L9.84204 34.9941L9.84497 34.9883H9.84595Z" fill="#E7000B" stroke="#E7000B" stroke-width="0.2"/>
<path d="M21.7883 12.835C21.8166 12.8394 21.8399 12.8519 21.8567 12.8643C21.8882 12.8875 21.9127 12.9217 21.9309 12.9502C21.9503 12.9805 21.969 13.0163 21.9875 13.0518C22.0263 13.1257 22.0652 13.2026 22.1106 13.2715C22.1565 13.3412 22.2009 13.3883 22.2444 13.4102L22.2512 13.4141L22.3176 13.4365C22.3416 13.4393 22.3681 13.437 22.3967 13.4316C22.4552 13.4206 22.5145 13.3953 22.5686 13.3691C22.5921 13.3577 22.6223 13.3421 22.6418 13.333C22.6527 13.3279 22.6652 13.3226 22.677 13.3184C22.6868 13.3149 22.7065 13.3086 22.7288 13.3086C22.7409 13.3086 22.7604 13.3108 22.7805 13.3213C22.8029 13.333 22.8198 13.3522 22.8293 13.375C22.845 13.4125 22.8354 13.4477 22.8323 13.458C22.8239 13.486 22.8052 13.5188 22.7854 13.5518L22.7844 13.5527L20.5344 17.1396V17.166L20.5198 17.1904L11.8625 31.4238C11.8642 31.4263 11.8669 31.428 11.8684 31.4307C11.882 31.4547 11.8854 31.4802 11.8831 31.502C11.8789 31.5404 11.8581 31.569 11.8459 31.583C11.8316 31.5996 11.814 31.613 11.7981 31.624C11.7822 31.635 11.7638 31.6461 11.7444 31.6533C11.7346 31.6569 11.7219 31.6603 11.7083 31.6621C11.6956 31.6638 11.6747 31.6652 11.6516 31.6572C11.6249 31.648 11.5996 31.6268 11.5862 31.5947C11.583 31.587 11.5817 31.5795 11.5803 31.5723C11.5584 31.5716 11.5344 31.5738 11.509 31.5791C11.4514 31.5913 11.3935 31.6166 11.3401 31.6416C11.3154 31.6532 11.2878 31.6666 11.2659 31.6758C11.2547 31.6805 11.2417 31.6848 11.2288 31.6885C11.2172 31.6917 11.1959 31.6969 11.1721 31.6943C11.1438 31.6912 11.1057 31.6761 11.0842 31.6357C11.0671 31.6033 11.0701 31.5707 11.0725 31.5557C11.0776 31.5243 11.093 31.4893 11.1096 31.4561L12.72 28.1338C10.8716 26.8149 9.74842 24.6774 9.74829 22.3779C9.74829 18.5146 12.8982 15.3645 16.761 15.3643C17.7962 15.3643 18.8077 15.5719 19.72 16.0107L21.6145 12.9473C21.6334 12.9112 21.6609 12.8715 21.7034 12.8496C21.7291 12.8364 21.7585 12.8304 21.7883 12.835ZM11.7502 31.5332L11.759 31.5391L11.761 31.5381V31.5371L11.7522 31.5312L11.7502 31.5332ZM11.7004 31.5L11.719 31.4688L11.717 31.4678L11.7161 31.4668L11.7004 31.5Z" fill="#E7000B" stroke="#E7000B" stroke-width="0.2"/>
</svg>
