<svg width="1000" height="1000" viewBox="0 0 1000 1000" fill="none" xmlns="http://www.w3.org/2000/svg">
<mask id="mask0_79_1126" style="mask-type:luminance" maskUnits="userSpaceOnUse" x="160" y="268" width="840" height="660">
<path d="M160.667 268.562H1000V927.912H160.667V268.562Z" fill="white"/>
<path d="M1000 268.562V927.912H160.667V268.562H1000ZM170.646 916.69H990.02V279.785H170.646V916.69Z" fill="white"/>
</mask>
<g mask="url(#mask0_79_1126)">
<path d="M158.457 966.061V1521.22H203.783V966.061C203.783 872.911 274.878 797.115 362.251 797.115H567.655L592.791 1145.43L562.766 1157.51C509.099 1174.38 471.596 1228.04 471.596 1288.07C471.596 1298.86 472.632 1308.74 474.645 1317.81C482.065 1354.3 503.578 1386.25 533.661 1405.44C563.629 1424.52 600.096 1429.61 633.976 1419.24L815.049 1360.13V1521.22H860.317V1345.35L900.006 1332.35C956.606 1313.95 996.18 1256.73 996.18 1193.2V967.288C996.18 846.787 904.78 748.792 792.386 748.792H731.357C795.55 700.714 837.654 621.362 837.654 531.584C837.654 385.205 725.95 266.053 588.65 266.053C451.349 266.053 339.588 385.205 339.588 531.584C339.588 621.362 381.75 700.714 445.885 748.792H362.251C249.856 748.792 158.457 846.296 158.457 966.061ZM556.899 1363.99C537.284 1351.42 523.71 1331.37 518.763 1307.14C517.497 1301.38 516.865 1295.12 516.865 1288.07C516.865 1249.31 541.023 1214.67 577.088 1203.2L596.415 1195.47L609.357 1375.21C591.238 1377.79 573.004 1374.23 556.899 1363.99ZM653.878 1362.27L613.096 797.115H641.338L835.468 1302.97L653.878 1362.27ZM792.386 797.115C879.759 797.115 950.854 873.463 950.854 967.288V1193.2C950.854 1235.7 924.51 1273.91 886.719 1286.23L878.954 1288.75L817.062 1127.46L866.702 1111.83L853.932 1065.53L799.806 1082.58L690.288 797.115H792.386ZM776.338 447.019L652.727 411.084L741.768 388.762C755.976 406.055 767.767 425.617 776.338 447.019ZM588.65 314.376C629.604 314.376 667.74 327.438 699.721 349.699L413.271 421.57C448.703 357.548 513.931 314.376 588.65 314.376ZM391.759 476.577L560.35 434.264L728.999 483.323H390.148C390.608 481.054 391.183 478.846 391.759 476.577ZM384.856 531.584H792.386C792.386 651.349 700.986 748.792 588.65 748.792C476.255 748.792 384.856 651.349 384.856 531.584Z" fill="black"/>
</g>
<mask id="mask1_79_1126" style="mask-type:luminance" maskUnits="userSpaceOnUse" x="0" y="280" width="261" height="158">
<path d="M0 280.337H260.048V437.325H0V280.337Z" fill="white"/>
</mask>
<g mask="url(#mask1_79_1126)">
<path d="M139.892 301.734C135.751 296.705 129.826 293.762 123.614 293.516L0.75099 289.346L-0.687012 337.608L98.0174 340.981L91.9778 408.62C91.2876 415.795 93.761 422.97 98.5927 428.06C102.849 432.537 108.601 435.051 114.526 435.051C115.331 435.051 116.136 434.99 116.942 434.867L255.335 418.8L250.388 370.845L139.662 383.662L145.356 319.947C145.989 313.324 143.976 306.701 139.892 301.734Z" fill="black"/>
</g>
<mask id="mask2_79_1126" style="mask-type:luminance" maskUnits="userSpaceOnUse" x="156" y="73" width="149" height="255">
<path d="M156.969 73H304.22V327.431H156.969V73Z" fill="white"/>
</mask>
<g mask="url(#mask2_79_1126)">
<path d="M270.405 157.439L194.364 74.1613L161.865 107.828L223.871 175.652L180.731 232.008C176.417 237.65 174.692 245.07 176.072 252.183C177.453 259.297 181.767 265.368 187.864 268.741L280.126 319.455L300.891 276.529L233.42 239.489L271.671 189.511C278.976 180.006 278.458 166.208 270.405 157.439Z" fill="black"/>
</g>
</svg>
