<svg width="1074" height="1000" viewBox="0 0 1074 1000" fill="none" xmlns="http://www.w3.org/2000/svg">
<mask id="path-1-outside-1_68_1054" maskUnits="userSpaceOnUse" x="31" y="63.9999" width="1012" height="872" fill="black">
<rect fill="white" x="31" y="63.9999" width="1012" height="872"/>
<path fill-rule="evenodd" clip-rule="evenodd" d="M353.825 148.172V93.3675C353.825 87.7301 349.247 83.1525 343.61 83.1525H223.7C218.105 83.1525 213.57 87.6453 213.528 93.2403L212.341 204.206C208.06 207.555 203.864 211.031 199.795 214.676C180.212 189.287 158.638 166.865 132.189 151.818C123.754 147.028 113.709 147.24 103.113 152.114C84.7595 160.507 63.6514 184.497 50.5117 207.894C41.2716 224.424 36.1429 240.743 37.1178 251.17C37.8384 258.672 41.1021 264.098 46.3155 267.404C74.5021 285.333 99.0012 309.578 121.127 337.934C114.048 361.458 110.191 385.957 109.81 410.668C81.8349 517.947 137.53 629.548 220.098 713.939C265.45 760.309 318.857 798.329 370.228 822.998C371.245 823.676 372.305 824.227 373.45 824.523C414.14 843.639 453.474 854.363 486.493 854.066C488.188 854.151 489.926 853.77 491.537 852.922C559.269 817.53 609.03 768.744 642.176 714.235C671.21 717.33 700.923 712.498 727.795 699.739L772.216 710.251L989.697 927.691C993.682 931.675 1000.12 931.675 1004.11 927.691L1031.36 900.437C1035.35 896.452 1035.35 890.01 1031.36 886.025L813.881 668.543L803.369 624.123C831.556 564.825 821.129 491.71 772.089 442.627C741.528 412.109 701.686 396.511 661.631 395.918C659.003 390.619 656.163 385.406 653.196 380.32H719.149C723.472 380.32 727.329 377.565 728.77 373.496L743.987 330.135L761.195 374.513C762.806 378.667 766.96 381.295 771.41 380.998C775.903 380.659 779.633 377.48 780.65 373.114L810.49 244.303L845.077 425.757C845.925 430.25 849.697 433.641 854.232 434.023C858.81 434.404 863.091 431.691 864.659 427.368L889.752 359.763L900.941 376.505C902.849 379.302 906.028 380.998 909.419 380.998H1026.83C1032.42 380.998 1037 376.42 1037 370.783C1037 365.146 1032.42 360.61 1026.83 360.61H914.886L895.601 331.83C893.439 328.651 889.709 326.914 885.895 327.38C882.122 327.804 878.858 330.389 877.544 333.95L858.259 385.957L821.468 193.017C820.578 188.269 816.466 184.794 811.634 184.709C806.803 184.624 802.606 187.93 801.504 192.593L768.231 336.196L753.057 296.947C751.489 293.005 747.632 290.377 743.351 290.462C739.112 290.504 735.34 293.217 733.899 297.286L711.901 359.89H639.929C610.598 318.903 569.569 286.859 517.943 269.523C521.207 251.467 532.778 238.878 551.767 231.164C576.351 221.203 612.124 218.872 657.859 222.814H657.901H657.943H657.986C667.226 223.619 675.449 219.72 682.061 211.836C689.478 203.104 694.904 188.524 697.489 171.908C701.135 148.342 699.142 120.622 691.089 101.463C684.519 85.8652 673.838 75.6502 660.105 73.9123C558.464 60.8151 470.556 79.5073 395.448 146.604C381.121 146.223 367.261 146.774 353.825 148.172ZM804.641 688.168L791.798 700.969L996.903 906.074L1009.75 893.231L804.641 688.168ZM293.807 337.383C287.449 349.378 283.507 366.375 285.88 379.006C287.406 387.059 291.051 393.968 295.078 400.707C295.587 401.555 296.095 402.403 296.604 403.25C310.93 399.224 326.486 405.2 335.98 417.662C342.932 426.775 347.552 436.65 352.553 445.848C358.36 456.572 364.676 466.321 379.553 470.22C385.021 471.661 388.242 477.256 386.843 482.682C385.402 488.149 379.807 491.371 374.34 489.972C356.156 485.14 346.28 474.925 338.608 462.506C332.335 452.376 327.8 440.592 319.747 430.038C316.737 426.096 312.456 423.341 308.006 422.621C308.43 423.468 308.811 424.316 309.235 425.164C316.695 441.059 318.306 461.149 316.356 478.443C314.788 492.006 310.803 505.951 303.852 517.735C297.536 528.373 288.212 536.893 282.32 547.871C274.521 562.367 270.24 577.88 272.19 594.411C272.868 600.006 268.841 605.092 263.246 605.728C257.651 606.406 252.565 602.379 251.929 596.827C249.471 575.973 254.515 556.391 264.348 538.165C270.367 526.975 279.819 518.201 286.262 507.308C291.814 497.983 294.824 486.878 296.053 476.112C297.621 462.421 296.689 446.442 290.755 433.811C288.975 430.081 286.982 426.478 284.906 422.917C284.651 422.578 284.354 422.239 284.1 421.858C283.676 421.222 283.295 420.501 283.041 419.739C276.004 408.04 268.46 396.681 265.832 382.778C263.331 369.469 265.917 352.43 271.3 338.019C242.604 339.968 214.206 346.411 190.173 356.838C160.164 369.85 136.809 389.009 129.9 414.525C129.9 414.652 129.858 414.737 129.816 414.864C102.985 515.785 157.027 620.266 234.678 699.655C271.893 737.717 314.66 770.1 356.961 793.497C355.436 785.02 355.478 776.288 357.64 768.277C359.208 762.471 361.963 757.088 364.506 751.62C363.107 751.789 361.709 751.959 360.31 752.044C354.334 752.425 348.484 752.001 343.017 749.585C330.343 743.948 324.155 733.521 319.874 721.568C316.822 713.091 314.999 703.724 309.998 696.518C306.777 691.898 307.963 685.54 312.583 682.319C317.204 679.098 323.561 680.242 326.783 684.904C332.759 693.509 335.429 704.529 339.075 714.702C341.491 721.356 344.203 727.799 351.282 730.893C355.605 732.843 360.437 731.571 365.227 731.147C367.007 730.935 368.787 730.808 370.525 730.766C371.5 721.399 370.398 712.455 367.77 702.961C366.286 697.535 369.465 691.898 374.891 690.415C380.316 688.889 385.953 692.11 387.437 697.535C391.803 713.345 392.735 727.884 388.92 743.99C386.462 754.417 380.104 763.361 377.349 773.576C374.382 784.554 377.646 797.354 383.368 806.976C415.666 822.023 446.989 831.348 474.497 833.297C458.306 736.446 476.066 628.87 474.582 537.486C473.141 447.501 452.669 373.538 353.91 345.606C335.302 340.307 314.745 337.637 293.807 337.383ZM639.251 397.147C612.124 347.471 568.933 308.094 511.331 288.809C507.389 296.396 506.244 304.449 506.075 312.502C505.863 324.625 507.813 336.874 508.279 348.318C508.83 362.263 507.092 375.149 499.505 386.042C493.613 394.392 484.119 401.894 468.436 407.277C487.807 443.475 494.207 488.022 495.012 537.147C496.453 627.09 478.736 732.843 494.334 828.169C549.52 796.888 591.313 755.943 620.474 710.421C593.263 703.681 567.534 689.652 546.299 668.416C483.949 606.109 483.949 504.976 546.299 442.627C572.366 416.56 605.258 401.385 639.251 397.147ZM638.997 693.297C681.001 699.4 725.337 686.303 757.635 654.005C812.016 599.624 812.016 511.419 757.635 457.08C729.787 429.191 693.039 415.627 656.502 416.348C655.866 416.39 655.273 416.432 654.637 416.39C620.517 417.492 586.735 431.056 560.71 457.08C506.372 511.419 506.372 599.624 560.71 654.005C582.412 675.664 609.496 688.719 637.725 693.085C638.149 693.127 638.573 693.212 638.997 693.297ZM788.365 649.385C783.533 656.04 778.107 662.398 772.089 668.416C766.07 674.435 759.712 679.86 753.015 684.735L774.208 689.736L793.409 670.536L788.365 649.385ZM570.883 467.253C522.181 515.954 522.181 595.089 570.883 643.79C619.627 692.534 698.719 692.534 747.462 643.79C796.164 595.089 796.164 515.954 747.462 467.253C698.719 418.552 619.627 418.552 570.883 467.253ZM585.336 481.707C626.112 440.931 692.276 440.931 733.009 481.707C773.784 522.439 773.784 588.604 733.009 629.379C692.276 670.112 626.112 670.112 585.336 629.379C544.561 588.604 544.561 522.439 585.336 481.707ZM632.427 91.5872C546.257 85.1446 471.022 105.066 406.129 164.449C404.137 166.271 401.509 167.246 398.796 167.119C254.472 161.439 155.713 257.274 134.478 369.087C146.982 356.668 163.3 346.241 182.035 338.103C212.85 324.752 250.234 317.461 287.025 317.038C287.618 316.995 288.212 316.953 288.805 317.038C313.389 316.868 337.676 319.793 359.462 325.939C405.62 338.993 436.689 360.949 457.289 389.39C469.75 385.872 477.592 381.167 482.212 375.064C490.434 364.213 488.188 350.099 486.874 335.348C485.009 314.452 483.822 292.539 496.92 273.168C499.293 244.092 515.315 223.958 544.095 212.26C565.839 203.444 595.551 199.671 632.639 200.858C617.295 179.284 611.955 151.224 616.532 126.725C619.033 113.458 624.374 101.251 632.427 91.5872ZM184.96 228.875C166.734 204.969 146.855 183.607 122.101 169.535C120.406 168.602 118.499 168.602 116.464 168.984C113.031 169.704 109.428 171.527 105.698 174.028C92.0075 183.183 77.893 200.858 68.3138 217.855C63.1851 227.01 59.3704 235.996 57.9293 243.329C57.5902 245.066 57.3783 246.719 57.3783 248.203C57.3783 248.966 57.5902 250.068 57.675 250.492C84.2085 267.404 107.733 289.487 129.053 315.257C141.853 283.426 160.715 253.967 184.96 228.875ZM660.063 94.7238C647.135 101.675 639.463 115.239 636.623 130.497C631.961 155.42 640.057 185.302 661.928 202.257C664.64 201.494 666.675 198.823 668.667 195.645C672.863 188.905 675.703 179.326 677.314 168.814C680.365 148.893 679.052 125.538 672.27 109.347C669.345 102.396 665.615 96.6736 660.063 94.7238ZM232.898 189.626L233.11 189.499C239.468 185.472 245.995 181.7 252.65 178.224C259.177 174.791 265.832 171.654 272.614 168.814L272.868 168.687V103.582H233.831L232.898 189.626ZM293.256 103.582V161.015C306.098 156.819 319.492 153.428 333.395 151.012V103.582H293.256Z"/>
</mask>
<path fill-rule="evenodd" clip-rule="evenodd" d="M353.825 148.172V93.3675C353.825 87.7301 349.247 83.1525 343.61 83.1525H223.7C218.105 83.1525 213.57 87.6453 213.528 93.2403L212.341 204.206C208.06 207.555 203.864 211.031 199.795 214.676C180.212 189.287 158.638 166.865 132.189 151.818C123.754 147.028 113.709 147.24 103.113 152.114C84.7595 160.507 63.6514 184.497 50.5117 207.894C41.2716 224.424 36.1429 240.743 37.1178 251.17C37.8384 258.672 41.1021 264.098 46.3155 267.404C74.5021 285.333 99.0012 309.578 121.127 337.934C114.048 361.458 110.191 385.957 109.81 410.668C81.8349 517.947 137.53 629.548 220.098 713.939C265.45 760.309 318.857 798.329 370.228 822.998C371.245 823.676 372.305 824.227 373.45 824.523C414.14 843.639 453.474 854.363 486.493 854.066C488.188 854.151 489.926 853.77 491.537 852.922C559.269 817.53 609.03 768.744 642.176 714.235C671.21 717.33 700.923 712.498 727.795 699.739L772.216 710.251L989.697 927.691C993.682 931.675 1000.12 931.675 1004.11 927.691L1031.36 900.437C1035.35 896.452 1035.35 890.01 1031.36 886.025L813.881 668.543L803.369 624.123C831.556 564.825 821.129 491.71 772.089 442.627C741.528 412.109 701.686 396.511 661.631 395.918C659.003 390.619 656.163 385.406 653.196 380.32H719.149C723.472 380.32 727.329 377.565 728.77 373.496L743.987 330.135L761.195 374.513C762.806 378.667 766.96 381.295 771.41 380.998C775.903 380.659 779.633 377.48 780.65 373.114L810.49 244.303L845.077 425.757C845.925 430.25 849.697 433.641 854.232 434.023C858.81 434.404 863.091 431.691 864.659 427.368L889.752 359.763L900.941 376.505C902.849 379.302 906.028 380.998 909.419 380.998H1026.83C1032.42 380.998 1037 376.42 1037 370.783C1037 365.146 1032.42 360.61 1026.83 360.61H914.886L895.601 331.83C893.439 328.651 889.709 326.914 885.895 327.38C882.122 327.804 878.858 330.389 877.544 333.95L858.259 385.957L821.468 193.017C820.578 188.269 816.466 184.794 811.634 184.709C806.803 184.624 802.606 187.93 801.504 192.593L768.231 336.196L753.057 296.947C751.489 293.005 747.632 290.377 743.351 290.462C739.112 290.504 735.34 293.217 733.899 297.286L711.901 359.89H639.929C610.598 318.903 569.569 286.859 517.943 269.523C521.207 251.467 532.778 238.878 551.767 231.164C576.351 221.203 612.124 218.872 657.859 222.814H657.901H657.943H657.986C667.226 223.619 675.449 219.72 682.061 211.836C689.478 203.104 694.904 188.524 697.489 171.908C701.135 148.342 699.142 120.622 691.089 101.463C684.519 85.8652 673.838 75.6502 660.105 73.9123C558.464 60.8151 470.556 79.5073 395.448 146.604C381.121 146.223 367.261 146.774 353.825 148.172ZM804.641 688.168L791.798 700.969L996.903 906.074L1009.75 893.231L804.641 688.168ZM293.807 337.383C287.449 349.378 283.507 366.375 285.88 379.006C287.406 387.059 291.051 393.968 295.078 400.707C295.587 401.555 296.095 402.403 296.604 403.25C310.93 399.224 326.486 405.2 335.98 417.662C342.932 426.775 347.552 436.65 352.553 445.848C358.36 456.572 364.676 466.321 379.553 470.22C385.021 471.661 388.242 477.256 386.843 482.682C385.402 488.149 379.807 491.371 374.34 489.972C356.156 485.14 346.28 474.925 338.608 462.506C332.335 452.376 327.8 440.592 319.747 430.038C316.737 426.096 312.456 423.341 308.006 422.621C308.43 423.468 308.811 424.316 309.235 425.164C316.695 441.059 318.306 461.149 316.356 478.443C314.788 492.006 310.803 505.951 303.852 517.735C297.536 528.373 288.212 536.893 282.32 547.871C274.521 562.367 270.24 577.88 272.19 594.411C272.868 600.006 268.841 605.092 263.246 605.728C257.651 606.406 252.565 602.379 251.929 596.827C249.471 575.973 254.515 556.391 264.348 538.165C270.367 526.975 279.819 518.201 286.262 507.308C291.814 497.983 294.824 486.878 296.053 476.112C297.621 462.421 296.689 446.442 290.755 433.811C288.975 430.081 286.982 426.478 284.906 422.917C284.651 422.578 284.354 422.239 284.1 421.858C283.676 421.222 283.295 420.501 283.041 419.739C276.004 408.04 268.46 396.681 265.832 382.778C263.331 369.469 265.917 352.43 271.3 338.019C242.604 339.968 214.206 346.411 190.173 356.838C160.164 369.85 136.809 389.009 129.9 414.525C129.9 414.652 129.858 414.737 129.816 414.864C102.985 515.785 157.027 620.266 234.678 699.655C271.893 737.717 314.66 770.1 356.961 793.497C355.436 785.02 355.478 776.288 357.64 768.277C359.208 762.471 361.963 757.088 364.506 751.62C363.107 751.789 361.709 751.959 360.31 752.044C354.334 752.425 348.484 752.001 343.017 749.585C330.343 743.948 324.155 733.521 319.874 721.568C316.822 713.091 314.999 703.724 309.998 696.518C306.777 691.898 307.963 685.54 312.583 682.319C317.204 679.098 323.561 680.242 326.783 684.904C332.759 693.509 335.429 704.529 339.075 714.702C341.491 721.356 344.203 727.799 351.282 730.893C355.605 732.843 360.437 731.571 365.227 731.147C367.007 730.935 368.787 730.808 370.525 730.766C371.5 721.399 370.398 712.455 367.77 702.961C366.286 697.535 369.465 691.898 374.891 690.415C380.316 688.889 385.953 692.11 387.437 697.535C391.803 713.345 392.735 727.884 388.92 743.99C386.462 754.417 380.104 763.361 377.349 773.576C374.382 784.554 377.646 797.354 383.368 806.976C415.666 822.023 446.989 831.348 474.497 833.297C458.306 736.446 476.066 628.87 474.582 537.486C473.141 447.501 452.669 373.538 353.91 345.606C335.302 340.307 314.745 337.637 293.807 337.383ZM639.251 397.147C612.124 347.471 568.933 308.094 511.331 288.809C507.389 296.396 506.244 304.449 506.075 312.502C505.863 324.625 507.813 336.874 508.279 348.318C508.83 362.263 507.092 375.149 499.505 386.042C493.613 394.392 484.119 401.894 468.436 407.277C487.807 443.475 494.207 488.022 495.012 537.147C496.453 627.09 478.736 732.843 494.334 828.169C549.52 796.888 591.313 755.943 620.474 710.421C593.263 703.681 567.534 689.652 546.299 668.416C483.949 606.109 483.949 504.976 546.299 442.627C572.366 416.56 605.258 401.385 639.251 397.147ZM638.997 693.297C681.001 699.4 725.337 686.303 757.635 654.005C812.016 599.624 812.016 511.419 757.635 457.08C729.787 429.191 693.039 415.627 656.502 416.348C655.866 416.39 655.273 416.432 654.637 416.39C620.517 417.492 586.735 431.056 560.71 457.08C506.372 511.419 506.372 599.624 560.71 654.005C582.412 675.664 609.496 688.719 637.725 693.085C638.149 693.127 638.573 693.212 638.997 693.297ZM788.365 649.385C783.533 656.04 778.107 662.398 772.089 668.416C766.07 674.435 759.712 679.86 753.015 684.735L774.208 689.736L793.409 670.536L788.365 649.385ZM570.883 467.253C522.181 515.954 522.181 595.089 570.883 643.79C619.627 692.534 698.719 692.534 747.462 643.79C796.164 595.089 796.164 515.954 747.462 467.253C698.719 418.552 619.627 418.552 570.883 467.253ZM585.336 481.707C626.112 440.931 692.276 440.931 733.009 481.707C773.784 522.439 773.784 588.604 733.009 629.379C692.276 670.112 626.112 670.112 585.336 629.379C544.561 588.604 544.561 522.439 585.336 481.707ZM632.427 91.5872C546.257 85.1446 471.022 105.066 406.129 164.449C404.137 166.271 401.509 167.246 398.796 167.119C254.472 161.439 155.713 257.274 134.478 369.087C146.982 356.668 163.3 346.241 182.035 338.103C212.85 324.752 250.234 317.461 287.025 317.038C287.618 316.995 288.212 316.953 288.805 317.038C313.389 316.868 337.676 319.793 359.462 325.939C405.62 338.993 436.689 360.949 457.289 389.39C469.75 385.872 477.592 381.167 482.212 375.064C490.434 364.213 488.188 350.099 486.874 335.348C485.009 314.452 483.822 292.539 496.92 273.168C499.293 244.092 515.315 223.958 544.095 212.26C565.839 203.444 595.551 199.671 632.639 200.858C617.295 179.284 611.955 151.224 616.532 126.725C619.033 113.458 624.374 101.251 632.427 91.5872ZM184.96 228.875C166.734 204.969 146.855 183.607 122.101 169.535C120.406 168.602 118.499 168.602 116.464 168.984C113.031 169.704 109.428 171.527 105.698 174.028C92.0075 183.183 77.893 200.858 68.3138 217.855C63.1851 227.01 59.3704 235.996 57.9293 243.329C57.5902 245.066 57.3783 246.719 57.3783 248.203C57.3783 248.966 57.5902 250.068 57.675 250.492C84.2085 267.404 107.733 289.487 129.053 315.257C141.853 283.426 160.715 253.967 184.96 228.875ZM660.063 94.7238C647.135 101.675 639.463 115.239 636.623 130.497C631.961 155.42 640.057 185.302 661.928 202.257C664.64 201.494 666.675 198.823 668.667 195.645C672.863 188.905 675.703 179.326 677.314 168.814C680.365 148.893 679.052 125.538 672.27 109.347C669.345 102.396 665.615 96.6736 660.063 94.7238ZM232.898 189.626L233.11 189.499C239.468 185.472 245.995 181.7 252.65 178.224C259.177 174.791 265.832 171.654 272.614 168.814L272.868 168.687V103.582H233.831L232.898 189.626ZM293.256 103.582V161.015C306.098 156.819 319.492 153.428 333.395 151.012V103.582H293.256Z" fill="black"/>
<path fill-rule="evenodd" clip-rule="evenodd" d="M353.825 148.172V93.3675C353.825 87.7301 349.247 83.1525 343.61 83.1525H223.7C218.105 83.1525 213.57 87.6453 213.528 93.2403L212.341 204.206C208.06 207.555 203.864 211.031 199.795 214.676C180.212 189.287 158.638 166.865 132.189 151.818C123.754 147.028 113.709 147.24 103.113 152.114C84.7595 160.507 63.6514 184.497 50.5117 207.894C41.2716 224.424 36.1429 240.743 37.1178 251.17C37.8384 258.672 41.1021 264.098 46.3155 267.404C74.5021 285.333 99.0012 309.578 121.127 337.934C114.048 361.458 110.191 385.957 109.81 410.668C81.8349 517.947 137.53 629.548 220.098 713.939C265.45 760.309 318.857 798.329 370.228 822.998C371.245 823.676 372.305 824.227 373.45 824.523C414.14 843.639 453.474 854.363 486.493 854.066C488.188 854.151 489.926 853.77 491.537 852.922C559.269 817.53 609.03 768.744 642.176 714.235C671.21 717.33 700.923 712.498 727.795 699.739L772.216 710.251L989.697 927.691C993.682 931.675 1000.12 931.675 1004.11 927.691L1031.36 900.437C1035.35 896.452 1035.35 890.01 1031.36 886.025L813.881 668.543L803.369 624.123C831.556 564.825 821.129 491.71 772.089 442.627C741.528 412.109 701.686 396.511 661.631 395.918C659.003 390.619 656.163 385.406 653.196 380.32H719.149C723.472 380.32 727.329 377.565 728.77 373.496L743.987 330.135L761.195 374.513C762.806 378.667 766.96 381.295 771.41 380.998C775.903 380.659 779.633 377.48 780.65 373.114L810.49 244.303L845.077 425.757C845.925 430.25 849.697 433.641 854.232 434.023C858.81 434.404 863.091 431.691 864.659 427.368L889.752 359.763L900.941 376.505C902.849 379.302 906.028 380.998 909.419 380.998H1026.83C1032.42 380.998 1037 376.42 1037 370.783C1037 365.146 1032.42 360.61 1026.83 360.61H914.886L895.601 331.83C893.439 328.651 889.709 326.914 885.895 327.38C882.122 327.804 878.858 330.389 877.544 333.95L858.259 385.957L821.468 193.017C820.578 188.269 816.466 184.794 811.634 184.709C806.803 184.624 802.606 187.93 801.504 192.593L768.231 336.196L753.057 296.947C751.489 293.005 747.632 290.377 743.351 290.462C739.112 290.504 735.34 293.217 733.899 297.286L711.901 359.89H639.929C610.598 318.903 569.569 286.859 517.943 269.523C521.207 251.467 532.778 238.878 551.767 231.164C576.351 221.203 612.124 218.872 657.859 222.814H657.901H657.943H657.986C667.226 223.619 675.449 219.72 682.061 211.836C689.478 203.104 694.904 188.524 697.489 171.908C701.135 148.342 699.142 120.622 691.089 101.463C684.519 85.8652 673.838 75.6502 660.105 73.9123C558.464 60.8151 470.556 79.5073 395.448 146.604C381.121 146.223 367.261 146.774 353.825 148.172ZM804.641 688.168L791.798 700.969L996.903 906.074L1009.75 893.231L804.641 688.168ZM293.807 337.383C287.449 349.378 283.507 366.375 285.88 379.006C287.406 387.059 291.051 393.968 295.078 400.707C295.587 401.555 296.095 402.403 296.604 403.25C310.93 399.224 326.486 405.2 335.98 417.662C342.932 426.775 347.552 436.65 352.553 445.848C358.36 456.572 364.676 466.321 379.553 470.22C385.021 471.661 388.242 477.256 386.843 482.682C385.402 488.149 379.807 491.371 374.34 489.972C356.156 485.14 346.28 474.925 338.608 462.506C332.335 452.376 327.8 440.592 319.747 430.038C316.737 426.096 312.456 423.341 308.006 422.621C308.43 423.468 308.811 424.316 309.235 425.164C316.695 441.059 318.306 461.149 316.356 478.443C314.788 492.006 310.803 505.951 303.852 517.735C297.536 528.373 288.212 536.893 282.32 547.871C274.521 562.367 270.24 577.88 272.19 594.411C272.868 600.006 268.841 605.092 263.246 605.728C257.651 606.406 252.565 602.379 251.929 596.827C249.471 575.973 254.515 556.391 264.348 538.165C270.367 526.975 279.819 518.201 286.262 507.308C291.814 497.983 294.824 486.878 296.053 476.112C297.621 462.421 296.689 446.442 290.755 433.811C288.975 430.081 286.982 426.478 284.906 422.917C284.651 422.578 284.354 422.239 284.1 421.858C283.676 421.222 283.295 420.501 283.041 419.739C276.004 408.04 268.46 396.681 265.832 382.778C263.331 369.469 265.917 352.43 271.3 338.019C242.604 339.968 214.206 346.411 190.173 356.838C160.164 369.85 136.809 389.009 129.9 414.525C129.9 414.652 129.858 414.737 129.816 414.864C102.985 515.785 157.027 620.266 234.678 699.655C271.893 737.717 314.66 770.1 356.961 793.497C355.436 785.02 355.478 776.288 357.64 768.277C359.208 762.471 361.963 757.088 364.506 751.62C363.107 751.789 361.709 751.959 360.31 752.044C354.334 752.425 348.484 752.001 343.017 749.585C330.343 743.948 324.155 733.521 319.874 721.568C316.822 713.091 314.999 703.724 309.998 696.518C306.777 691.898 307.963 685.54 312.583 682.319C317.204 679.098 323.561 680.242 326.783 684.904C332.759 693.509 335.429 704.529 339.075 714.702C341.491 721.356 344.203 727.799 351.282 730.893C355.605 732.843 360.437 731.571 365.227 731.147C367.007 730.935 368.787 730.808 370.525 730.766C371.5 721.399 370.398 712.455 367.77 702.961C366.286 697.535 369.465 691.898 374.891 690.415C380.316 688.889 385.953 692.11 387.437 697.535C391.803 713.345 392.735 727.884 388.92 743.99C386.462 754.417 380.104 763.361 377.349 773.576C374.382 784.554 377.646 797.354 383.368 806.976C415.666 822.023 446.989 831.348 474.497 833.297C458.306 736.446 476.066 628.87 474.582 537.486C473.141 447.501 452.669 373.538 353.91 345.606C335.302 340.307 314.745 337.637 293.807 337.383ZM639.251 397.147C612.124 347.471 568.933 308.094 511.331 288.809C507.389 296.396 506.244 304.449 506.075 312.502C505.863 324.625 507.813 336.874 508.279 348.318C508.83 362.263 507.092 375.149 499.505 386.042C493.613 394.392 484.119 401.894 468.436 407.277C487.807 443.475 494.207 488.022 495.012 537.147C496.453 627.09 478.736 732.843 494.334 828.169C549.52 796.888 591.313 755.943 620.474 710.421C593.263 703.681 567.534 689.652 546.299 668.416C483.949 606.109 483.949 504.976 546.299 442.627C572.366 416.56 605.258 401.385 639.251 397.147ZM638.997 693.297C681.001 699.4 725.337 686.303 757.635 654.005C812.016 599.624 812.016 511.419 757.635 457.08C729.787 429.191 693.039 415.627 656.502 416.348C655.866 416.39 655.273 416.432 654.637 416.39C620.517 417.492 586.735 431.056 560.71 457.08C506.372 511.419 506.372 599.624 560.71 654.005C582.412 675.664 609.496 688.719 637.725 693.085C638.149 693.127 638.573 693.212 638.997 693.297ZM788.365 649.385C783.533 656.04 778.107 662.398 772.089 668.416C766.07 674.435 759.712 679.86 753.015 684.735L774.208 689.736L793.409 670.536L788.365 649.385ZM570.883 467.253C522.181 515.954 522.181 595.089 570.883 643.79C619.627 692.534 698.719 692.534 747.462 643.79C796.164 595.089 796.164 515.954 747.462 467.253C698.719 418.552 619.627 418.552 570.883 467.253ZM585.336 481.707C626.112 440.931 692.276 440.931 733.009 481.707C773.784 522.439 773.784 588.604 733.009 629.379C692.276 670.112 626.112 670.112 585.336 629.379C544.561 588.604 544.561 522.439 585.336 481.707ZM632.427 91.5872C546.257 85.1446 471.022 105.066 406.129 164.449C404.137 166.271 401.509 167.246 398.796 167.119C254.472 161.439 155.713 257.274 134.478 369.087C146.982 356.668 163.3 346.241 182.035 338.103C212.85 324.752 250.234 317.461 287.025 317.038C287.618 316.995 288.212 316.953 288.805 317.038C313.389 316.868 337.676 319.793 359.462 325.939C405.62 338.993 436.689 360.949 457.289 389.39C469.75 385.872 477.592 381.167 482.212 375.064C490.434 364.213 488.188 350.099 486.874 335.348C485.009 314.452 483.822 292.539 496.92 273.168C499.293 244.092 515.315 223.958 544.095 212.26C565.839 203.444 595.551 199.671 632.639 200.858C617.295 179.284 611.955 151.224 616.532 126.725C619.033 113.458 624.374 101.251 632.427 91.5872ZM184.96 228.875C166.734 204.969 146.855 183.607 122.101 169.535C120.406 168.602 118.499 168.602 116.464 168.984C113.031 169.704 109.428 171.527 105.698 174.028C92.0075 183.183 77.893 200.858 68.3138 217.855C63.1851 227.01 59.3704 235.996 57.9293 243.329C57.5902 245.066 57.3783 246.719 57.3783 248.203C57.3783 248.966 57.5902 250.068 57.675 250.492C84.2085 267.404 107.733 289.487 129.053 315.257C141.853 283.426 160.715 253.967 184.96 228.875ZM660.063 94.7238C647.135 101.675 639.463 115.239 636.623 130.497C631.961 155.42 640.057 185.302 661.928 202.257C664.64 201.494 666.675 198.823 668.667 195.645C672.863 188.905 675.703 179.326 677.314 168.814C680.365 148.893 679.052 125.538 672.27 109.347C669.345 102.396 665.615 96.6736 660.063 94.7238ZM232.898 189.626L233.11 189.499C239.468 185.472 245.995 181.7 252.65 178.224C259.177 174.791 265.832 171.654 272.614 168.814L272.868 168.687V103.582H233.831L232.898 189.626ZM293.256 103.582V161.015C306.098 156.819 319.492 153.428 333.395 151.012V103.582H293.256Z" stroke="black" stroke-width="10.0098" mask="url(#path-1-outside-1_68_1054)"/>
</svg>
