<svg width="1000" height="1000" viewBox="0 0 1000 1000" fill="none" xmlns="http://www.w3.org/2000/svg">
<mask id="path-1-outside-1_79_1128" maskUnits="userSpaceOnUse" x="4" y="14.6774" width="996" height="971" fill="black">
<rect fill="white" x="4" y="14.6774" width="996" height="971"/>
<path d="M558.748 652.359L492.312 643.44L521.23 578.78C522.724 575.459 522.619 571.64 520.968 568.396C519.316 565.179 516.301 562.851 512.735 562.093L457.52 550.244C454.846 549.668 452.093 550.034 449.655 551.211L225.99 661.174L166.502 640.981C137.636 631.172 106.541 633.265 78.9864 646.788C51.4576 660.337 30.8766 683.668 21.0449 712.493C3.66241 763.551 24.8727 819.944 70.4918 847.382C64.4617 900.219 96.3427 951.355 147.494 968.697C159.502 972.777 171.903 974.817 184.251 974.817C201.608 974.817 218.911 970.815 234.983 962.916C262.538 949.393 283.119 926.035 292.924 897.211L313.165 837.835L547.894 722.432C550.882 720.968 553.137 718.326 554.107 715.161L568.658 667.87C569.707 664.469 569.209 660.807 567.295 657.826C565.381 654.818 562.235 652.83 558.748 652.385V652.359ZM532.556 703.077L298.011 818.401C295.127 819.813 292.924 822.324 291.902 825.332L270.062 889.468C262.328 912.198 246.073 930.613 224.312 941.311C202.578 952.009 178.038 953.63 155.254 945.914C112.676 931.45 86.9829 887.297 95.5299 843.197C96.5786 837.888 93.9306 832.552 89.1065 830.145C48.8621 810.031 29.4608 762.792 43.9331 720.287C51.6674 697.531 67.8963 679.143 89.6571 668.419C102.373 662.168 116.059 659.029 129.744 659.029C139.497 659.029 149.277 660.624 158.741 663.815L222.975 685.63C226.016 686.65 229.32 686.441 232.204 685.028L456.577 574.7L493.124 582.521L463.708 648.331C462.161 651.783 462.345 655.785 464.206 659.107C466.041 662.429 469.371 664.679 473.12 665.176L541.444 674.357L532.582 703.077H532.556ZM982.98 188.21C972.859 135.269 926.559 96.6624 873.284 95.2761C852.362 46.3633 799.349 17.591 746.311 27.6875C684.227 39.5364 643.327 99.5657 655.177 161.557L666.949 223.182L520.81 437.849C518.477 441.301 518.084 445.67 519.709 449.436C521.387 453.255 524.874 455.923 528.99 456.525L566.43 462.201L573.43 534.89C573.797 538.525 575.789 541.821 578.883 543.835C581.977 545.849 585.805 546.32 589.318 545.143L649.776 524.819L656.226 553.173C657.301 557.829 661.05 561.439 665.769 562.328C666.503 562.459 667.264 562.511 667.998 562.511C671.957 562.511 675.706 560.575 677.987 557.227L830.103 333.798L891.82 322.054C921.787 316.351 947.795 299.219 965.047 273.873C982.324 248.527 988.669 218.081 982.953 188.184L982.98 188.21ZM945.121 260.376C931.514 280.412 910.985 293.909 887.337 298.408L820.717 311.094C817.571 311.696 814.792 313.527 812.983 316.168L673.687 520.791L670.41 506.458C669.649 503.136 667.526 500.285 664.537 498.611C662.702 497.59 660.683 497.067 658.638 497.067C657.353 497.067 656.042 497.277 654.784 497.695L596.082 517.443L589.606 450.535C589.082 445.016 584.861 440.595 579.381 439.758L551.59 435.573L689.759 232.572C691.541 229.93 692.223 226.687 691.62 223.522L678.904 157.032C669.545 108.093 701.845 60.6971 750.846 51.3592C795.023 42.9367 839.201 68.701 853.568 111.232C855.298 116.358 860.227 119.706 865.628 119.445C910.566 117.117 950.836 148.609 959.252 192.709C963.762 216.303 958.754 240.314 945.121 260.35V260.376ZM757.086 738.388C761.779 743.096 761.779 750.734 757.086 755.442C754.727 757.77 751.633 758.973 748.539 758.973C745.472 758.973 742.378 757.77 740.018 755.442L701.321 716.809C696.628 712.127 696.628 704.489 701.321 699.781C706.04 695.073 713.696 695.073 718.389 699.781L757.086 738.388ZM661.705 733.209V787.824C661.705 794.468 656.278 799.856 649.619 799.856C642.96 799.856 637.559 794.468 637.559 787.824V733.209C637.559 726.565 642.96 721.151 649.619 721.151C656.278 721.151 661.705 726.565 661.705 733.209ZM801.604 648.174C801.604 654.818 796.177 660.232 789.518 660.232H734.827C728.168 660.232 722.741 654.818 722.741 648.174C722.741 641.53 728.168 636.116 734.827 636.116H789.518C796.177 636.116 801.604 641.53 801.604 648.174ZM354.589 402.825C349.896 398.117 349.896 390.479 354.589 385.771C359.308 381.063 366.938 381.063 371.683 385.771L410.354 424.378C415.074 429.086 415.074 436.698 410.354 441.432C407.995 443.786 404.901 444.963 401.834 444.963C398.74 444.963 395.646 443.786 393.287 441.432L354.615 402.825H354.589ZM310.097 493.039C310.097 486.395 315.498 480.981 322.184 480.981H376.874C383.534 480.981 388.934 486.395 388.934 493.039C388.934 499.683 383.534 505.097 376.874 505.097H322.184C315.498 505.097 310.097 499.683 310.097 493.039ZM449.996 408.004V353.415C449.996 346.745 455.397 341.357 462.056 341.357C468.715 341.357 474.143 346.745 474.143 353.415V408.004C474.143 414.648 468.715 420.062 462.056 420.062C455.397 420.062 449.996 414.648 449.996 408.004Z"/>
</mask>
<path d="M558.748 652.359L492.312 643.44L521.23 578.78C522.724 575.459 522.619 571.64 520.968 568.396C519.316 565.179 516.301 562.851 512.735 562.093L457.52 550.244C454.846 549.668 452.093 550.034 449.655 551.211L225.99 661.174L166.502 640.981C137.636 631.172 106.541 633.265 78.9864 646.788C51.4576 660.337 30.8766 683.668 21.0449 712.493C3.66241 763.551 24.8727 819.944 70.4918 847.382C64.4617 900.219 96.3427 951.355 147.494 968.697C159.502 972.777 171.903 974.817 184.251 974.817C201.608 974.817 218.911 970.815 234.983 962.916C262.538 949.393 283.119 926.035 292.924 897.211L313.165 837.835L547.894 722.432C550.882 720.968 553.137 718.326 554.107 715.161L568.658 667.87C569.707 664.469 569.209 660.807 567.295 657.826C565.381 654.818 562.235 652.83 558.748 652.385V652.359ZM532.556 703.077L298.011 818.401C295.127 819.813 292.924 822.324 291.902 825.332L270.062 889.468C262.328 912.198 246.073 930.613 224.312 941.311C202.578 952.009 178.038 953.63 155.254 945.914C112.676 931.45 86.9829 887.297 95.5299 843.197C96.5786 837.888 93.9306 832.552 89.1065 830.145C48.8621 810.031 29.4608 762.792 43.9331 720.287C51.6674 697.531 67.8963 679.143 89.6571 668.419C102.373 662.168 116.059 659.029 129.744 659.029C139.497 659.029 149.277 660.624 158.741 663.815L222.975 685.63C226.016 686.65 229.32 686.441 232.204 685.028L456.577 574.7L493.124 582.521L463.708 648.331C462.161 651.783 462.345 655.785 464.206 659.107C466.041 662.429 469.371 664.679 473.12 665.176L541.444 674.357L532.582 703.077H532.556ZM982.98 188.21C972.859 135.269 926.559 96.6624 873.284 95.2761C852.362 46.3633 799.349 17.591 746.311 27.6875C684.227 39.5364 643.327 99.5657 655.177 161.557L666.949 223.182L520.81 437.849C518.477 441.301 518.084 445.67 519.709 449.436C521.387 453.255 524.874 455.923 528.99 456.525L566.43 462.201L573.43 534.89C573.797 538.525 575.789 541.821 578.883 543.835C581.977 545.849 585.805 546.32 589.318 545.143L649.776 524.819L656.226 553.173C657.301 557.829 661.05 561.439 665.769 562.328C666.503 562.459 667.264 562.511 667.998 562.511C671.957 562.511 675.706 560.575 677.987 557.227L830.103 333.798L891.82 322.054C921.787 316.351 947.795 299.219 965.047 273.873C982.324 248.527 988.669 218.081 982.953 188.184L982.98 188.21ZM945.121 260.376C931.514 280.412 910.985 293.909 887.337 298.408L820.717 311.094C817.571 311.696 814.792 313.527 812.983 316.168L673.687 520.791L670.41 506.458C669.649 503.136 667.526 500.285 664.537 498.611C662.702 497.59 660.683 497.067 658.638 497.067C657.353 497.067 656.042 497.277 654.784 497.695L596.082 517.443L589.606 450.535C589.082 445.016 584.861 440.595 579.381 439.758L551.59 435.573L689.759 232.572C691.541 229.93 692.223 226.687 691.62 223.522L678.904 157.032C669.545 108.093 701.845 60.6971 750.846 51.3592C795.023 42.9367 839.201 68.701 853.568 111.232C855.298 116.358 860.227 119.706 865.628 119.445C910.566 117.117 950.836 148.609 959.252 192.709C963.762 216.303 958.754 240.314 945.121 260.35V260.376ZM757.086 738.388C761.779 743.096 761.779 750.734 757.086 755.442C754.727 757.77 751.633 758.973 748.539 758.973C745.472 758.973 742.378 757.77 740.018 755.442L701.321 716.809C696.628 712.127 696.628 704.489 701.321 699.781C706.04 695.073 713.696 695.073 718.389 699.781L757.086 738.388ZM661.705 733.209V787.824C661.705 794.468 656.278 799.856 649.619 799.856C642.96 799.856 637.559 794.468 637.559 787.824V733.209C637.559 726.565 642.96 721.151 649.619 721.151C656.278 721.151 661.705 726.565 661.705 733.209ZM801.604 648.174C801.604 654.818 796.177 660.232 789.518 660.232H734.827C728.168 660.232 722.741 654.818 722.741 648.174C722.741 641.53 728.168 636.116 734.827 636.116H789.518C796.177 636.116 801.604 641.53 801.604 648.174ZM354.589 402.825C349.896 398.117 349.896 390.479 354.589 385.771C359.308 381.063 366.938 381.063 371.683 385.771L410.354 424.378C415.074 429.086 415.074 436.698 410.354 441.432C407.995 443.786 404.901 444.963 401.834 444.963C398.74 444.963 395.646 443.786 393.287 441.432L354.615 402.825H354.589ZM310.097 493.039C310.097 486.395 315.498 480.981 322.184 480.981H376.874C383.534 480.981 388.934 486.395 388.934 493.039C388.934 499.683 383.534 505.097 376.874 505.097H322.184C315.498 505.097 310.097 499.683 310.097 493.039ZM449.996 408.004V353.415C449.996 346.745 455.397 341.357 462.056 341.357C468.715 341.357 474.143 346.745 474.143 353.415V408.004C474.143 414.648 468.715 420.062 462.056 420.062C455.397 420.062 449.996 414.648 449.996 408.004Z" fill="black"/>
<path d="M558.748 652.359L492.312 643.44L521.23 578.78C522.724 575.459 522.619 571.64 520.968 568.396C519.316 565.179 516.301 562.851 512.735 562.093L457.52 550.244C454.846 549.668 452.093 550.034 449.655 551.211L225.99 661.174L166.502 640.981C137.636 631.172 106.541 633.265 78.9864 646.788C51.4576 660.337 30.8766 683.668 21.0449 712.493C3.66241 763.551 24.8727 819.944 70.4918 847.382C64.4617 900.219 96.3427 951.355 147.494 968.697C159.502 972.777 171.903 974.817 184.251 974.817C201.608 974.817 218.911 970.815 234.983 962.916C262.538 949.393 283.119 926.035 292.924 897.211L313.165 837.835L547.894 722.432C550.882 720.968 553.137 718.326 554.107 715.161L568.658 667.87C569.707 664.469 569.209 660.807 567.295 657.826C565.381 654.818 562.235 652.83 558.748 652.385V652.359ZM532.556 703.077L298.011 818.401C295.127 819.813 292.924 822.324 291.902 825.332L270.062 889.468C262.328 912.198 246.073 930.613 224.312 941.311C202.578 952.009 178.038 953.63 155.254 945.914C112.676 931.45 86.9829 887.297 95.5299 843.197C96.5786 837.888 93.9306 832.552 89.1065 830.145C48.8621 810.031 29.4608 762.792 43.9331 720.287C51.6674 697.531 67.8963 679.143 89.6571 668.419C102.373 662.168 116.059 659.029 129.744 659.029C139.497 659.029 149.277 660.624 158.741 663.815L222.975 685.63C226.016 686.65 229.32 686.441 232.204 685.028L456.577 574.7L493.124 582.521L463.708 648.331C462.161 651.783 462.345 655.785 464.206 659.107C466.041 662.429 469.371 664.679 473.12 665.176L541.444 674.357L532.582 703.077H532.556ZM982.98 188.21C972.859 135.269 926.559 96.6624 873.284 95.2761C852.362 46.3633 799.349 17.591 746.311 27.6875C684.227 39.5364 643.327 99.5657 655.177 161.557L666.949 223.182L520.81 437.849C518.477 441.301 518.084 445.67 519.709 449.436C521.387 453.255 524.874 455.923 528.99 456.525L566.43 462.201L573.43 534.89C573.797 538.525 575.789 541.821 578.883 543.835C581.977 545.849 585.805 546.32 589.318 545.143L649.776 524.819L656.226 553.173C657.301 557.829 661.05 561.439 665.769 562.328C666.503 562.459 667.264 562.511 667.998 562.511C671.957 562.511 675.706 560.575 677.987 557.227L830.103 333.798L891.82 322.054C921.787 316.351 947.795 299.219 965.047 273.873C982.324 248.527 988.669 218.081 982.953 188.184L982.98 188.21ZM945.121 260.376C931.514 280.412 910.985 293.909 887.337 298.408L820.717 311.094C817.571 311.696 814.792 313.527 812.983 316.168L673.687 520.791L670.41 506.458C669.649 503.136 667.526 500.285 664.537 498.611C662.702 497.59 660.683 497.067 658.638 497.067C657.353 497.067 656.042 497.277 654.784 497.695L596.082 517.443L589.606 450.535C589.082 445.016 584.861 440.595 579.381 439.758L551.59 435.573L689.759 232.572C691.541 229.93 692.223 226.687 691.62 223.522L678.904 157.032C669.545 108.093 701.845 60.6971 750.846 51.3592C795.023 42.9367 839.201 68.701 853.568 111.232C855.298 116.358 860.227 119.706 865.628 119.445C910.566 117.117 950.836 148.609 959.252 192.709C963.762 216.303 958.754 240.314 945.121 260.35V260.376ZM757.086 738.388C761.779 743.096 761.779 750.734 757.086 755.442C754.727 757.77 751.633 758.973 748.539 758.973C745.472 758.973 742.378 757.77 740.018 755.442L701.321 716.809C696.628 712.127 696.628 704.489 701.321 699.781C706.04 695.073 713.696 695.073 718.389 699.781L757.086 738.388ZM661.705 733.209V787.824C661.705 794.468 656.278 799.856 649.619 799.856C642.96 799.856 637.559 794.468 637.559 787.824V733.209C637.559 726.565 642.96 721.151 649.619 721.151C656.278 721.151 661.705 726.565 661.705 733.209ZM801.604 648.174C801.604 654.818 796.177 660.232 789.518 660.232H734.827C728.168 660.232 722.741 654.818 722.741 648.174C722.741 641.53 728.168 636.116 734.827 636.116H789.518C796.177 636.116 801.604 641.53 801.604 648.174ZM354.589 402.825C349.896 398.117 349.896 390.479 354.589 385.771C359.308 381.063 366.938 381.063 371.683 385.771L410.354 424.378C415.074 429.086 415.074 436.698 410.354 441.432C407.995 443.786 404.901 444.963 401.834 444.963C398.74 444.963 395.646 443.786 393.287 441.432L354.615 402.825H354.589ZM310.097 493.039C310.097 486.395 315.498 480.981 322.184 480.981H376.874C383.534 480.981 388.934 486.395 388.934 493.039C388.934 499.683 383.534 505.097 376.874 505.097H322.184C315.498 505.097 310.097 499.683 310.097 493.039ZM449.996 408.004V353.415C449.996 346.745 455.397 341.357 462.056 341.357C468.715 341.357 474.143 346.745 474.143 353.415V408.004C474.143 414.648 468.715 420.062 462.056 420.062C455.397 420.062 449.996 414.648 449.996 408.004Z" stroke="black" stroke-width="20.8602" mask="url(#path-1-outside-1_79_1128)"/>
</svg>
