<svg width="1000" height="1000" viewBox="0 0 1000 1000" fill="none" xmlns="http://www.w3.org/2000/svg">
<g clip-path="url(#clip0_68_1061)">
<mask id="mask0_68_1061" style="mask-type:luminance" maskUnits="userSpaceOnUse" x="251" y="45" width="234" height="910">
<path d="M251.602 45H484.291V954.328H251.602V45Z" fill="white"/>
</mask>
<g mask="url(#mask0_68_1061)">
<path d="M367.917 953.274C304.793 953.274 253.414 901.966 253.414 838.89C253.414 775.814 304.793 724.507 367.917 724.507V759.429C324.049 759.429 288.385 795.07 288.385 838.866C288.385 882.711 324.049 918.351 367.917 918.351C411.786 918.351 447.474 882.711 447.474 838.866V159.932C447.474 116.135 411.786 80.4713 367.917 80.4713C324.049 80.4713 288.385 116.135 288.385 159.932C288.385 203.753 324.049 239.393 367.917 239.393V274.316C304.793 274.316 253.438 223.008 253.438 159.932C253.438 96.8802 304.793 45.5726 367.917 45.5726C431.041 45.5726 482.42 96.8802 482.42 159.932V838.89C482.396 901.966 431.041 953.274 367.917 953.274Z" fill="black"/>
</g>
<path d="M319.404 468.764C256.28 468.764 204.924 417.456 204.924 354.404H239.871C239.871 398.201 275.535 433.841 319.404 433.841V468.764Z" fill="black"/>
<path d="M239.871 644.453H204.924C204.924 581.377 256.28 530.07 319.404 530.07V564.992C275.535 564.992 239.871 600.633 239.871 644.453Z" fill="black"/>
<path d="M482.394 693.248H447.448C447.448 649.428 411.784 613.787 367.915 613.787V578.889C431.039 578.865 482.394 630.172 482.394 693.248Z" fill="black"/>
<path d="M367.915 419.969V385.046C411.784 385.046 447.472 349.406 447.472 305.585H482.418C482.394 368.661 431.039 419.969 367.915 419.969Z" fill="black"/>
<path d="M124.079 256.308C122.189 248.032 121.208 239.493 121.208 230.93C121.208 167.854 172.588 116.546 235.712 116.546C250.805 116.546 265.492 119.464 279.389 125.181L266.018 157.449C256.402 153.478 246.212 151.469 235.712 151.469C191.867 151.469 156.179 187.109 156.179 230.93C156.179 236.862 156.849 242.77 158.164 248.463L124.079 256.308Z" fill="black"/>
<path d="M64.1604 430.088C19.5025 385.478 19.5025 312.929 64.1604 268.319C85.7837 246.72 114.511 234.832 145.104 234.832C175.698 234.832 204.425 246.72 226.048 268.343L201.339 293.028C186.318 278.007 166.345 269.755 145.104 269.755C123.84 269.755 103.891 278.007 88.8694 293.004C57.8456 323.98 57.8456 374.403 88.8694 405.379L64.1604 430.088Z" fill="black"/>
<mask id="mask1_68_1061" style="mask-type:luminance" maskUnits="userSpaceOnUse" x="-3" y="383" width="120" height="234">
<path d="M-3 383.751H116.885V616.441H-3V383.751Z" fill="white"/>
</mask>
<g mask="url(#mask1_68_1061)">
<path d="M111.479 613.784C48.3554 613.784 -3 562.477 -3 499.425C-3 436.349 48.3554 385.041 111.479 385.041V419.94C67.6107 419.94 31.9465 455.604 31.9465 499.425C31.9465 543.221 67.6346 578.862 111.479 578.862V613.784Z" fill="black"/>
</g>
<path d="M145.101 764.026C114.532 764.026 85.7802 752.114 64.1569 730.514C42.5335 708.915 30.6216 680.187 30.6216 649.642C30.6216 619.097 42.5335 590.369 64.1569 568.77L88.8658 593.455C73.8443 608.452 65.5681 628.401 65.5681 649.642C65.5681 670.859 73.8443 690.808 88.8658 705.829C103.887 720.827 123.86 729.103 145.101 729.103C166.365 729.103 186.338 720.827 201.36 705.829L226.045 730.514C204.445 752.114 175.694 764.026 145.101 764.026Z" fill="black"/>
<path d="M235.712 882.264C172.588 882.264 121.208 830.956 121.208 767.928C121.208 759.341 122.189 750.802 124.079 742.526L158.14 750.347C156.825 756.064 156.155 761.972 156.155 767.928C156.155 811.725 191.843 847.341 235.712 847.341C246.212 847.341 256.402 845.332 265.994 841.361L279.389 873.605C265.515 879.346 250.829 882.264 235.712 882.264Z" fill="black"/>
<mask id="mask2_68_1061" style="mask-type:luminance" maskUnits="userSpaceOnUse" x="514" y="45" width="234" height="910">
<path d="M514.905 45H747.595V954.328H514.905V45Z" fill="white"/>
</mask>
<g mask="url(#mask2_68_1061)">
<path d="M631.84 953.274C568.692 953.274 517.336 901.966 517.336 838.89V159.932C517.336 96.8802 568.692 45.5726 631.84 45.5726C694.963 45.5726 746.319 96.8802 746.319 159.932C746.319 223.008 694.963 274.316 631.84 274.316V239.393C675.684 239.393 711.372 203.753 711.372 159.932C711.372 116.135 675.684 80.4713 631.84 80.4713C587.971 80.4713 552.283 116.135 552.283 159.932V838.89C552.283 882.711 587.971 918.351 631.84 918.351C675.684 918.351 711.372 882.711 711.372 838.89C711.372 795.07 675.684 759.429 631.84 759.429V724.507C694.963 724.507 746.319 775.814 746.319 838.89C746.319 901.966 694.963 953.274 631.84 953.274Z" fill="black"/>
</g>
<path d="M680.353 468.764V433.841C724.198 433.841 759.886 398.201 759.886 354.404H794.832C794.832 417.456 743.477 468.764 680.353 468.764Z" fill="black"/>
<path d="M794.832 644.453H759.886C759.886 600.633 724.198 564.992 680.353 564.992V530.07C743.477 530.07 794.832 581.377 794.832 644.453Z" fill="black"/>
<path d="M552.282 693.249H517.335C517.335 630.173 568.691 578.865 631.839 578.865V613.788C587.97 613.788 552.282 649.428 552.282 693.249Z" fill="black"/>
<path d="M631.839 419.969C568.691 419.969 517.335 368.661 517.335 305.585H552.282C552.282 349.406 587.97 385.046 631.839 385.046V419.969Z" fill="black"/>
<path d="M875.657 256.308L841.62 248.463C842.935 242.77 843.605 236.862 843.605 230.93C843.605 187.109 807.893 151.469 764.048 151.469C753.548 151.469 743.358 153.478 733.742 157.449L720.395 125.181C734.268 119.464 748.955 116.546 764.048 116.546C827.196 116.546 878.551 167.854 878.551 230.93C878.528 239.493 877.571 248.032 875.657 256.308Z" fill="black"/>
<path d="M935.596 430.086L910.887 405.377C941.911 374.425 941.911 324.002 910.887 293.003C879.887 262.027 829.417 262.027 798.417 293.027L773.684 268.342C818.342 223.731 890.962 223.731 935.62 268.318C980.23 312.928 980.23 385.5 935.596 430.086Z" fill="black"/>
<mask id="mask3_68_1061" style="mask-type:luminance" maskUnits="userSpaceOnUse" x="882" y="383" width="121" height="234">
<path d="M882.3 383.751H1002.76V616.441H882.3V383.751Z" fill="white"/>
</mask>
<g mask="url(#mask3_68_1061)">
<path d="M888.254 613.784V578.885C932.123 578.885 967.787 543.221 967.787 499.425C967.787 455.604 932.123 419.964 888.254 419.964V385.041C951.378 385.041 1002.76 436.349 1002.76 499.425C1002.76 562.477 951.378 613.784 888.254 613.784Z" fill="black"/>
</g>
<path d="M854.628 763.954C825.327 763.954 796.001 752.807 773.684 730.514L798.393 705.829C829.393 736.805 879.863 736.805 910.887 705.829C941.911 674.853 941.911 624.455 910.887 593.455L935.596 568.77C980.23 613.356 980.23 685.928 935.596 730.514C913.279 752.807 883.953 763.954 854.628 763.954Z" fill="black"/>
<path d="M764.045 882.261C748.928 882.261 734.242 879.343 720.368 873.602L733.739 841.358C743.355 845.329 753.545 847.338 764.021 847.338C807.89 847.338 843.578 811.722 843.578 767.901C843.578 761.969 842.908 756.061 841.593 750.344L875.654 742.499C877.568 750.775 878.525 759.338 878.525 767.901C878.525 830.953 827.169 882.261 764.045 882.261Z" fill="black"/>
</g>
<defs>
<clipPath id="clip0_68_1061">
<rect width="1000" height="1000" fill="white"/>
</clipPath>
</defs>
</svg>
