<svg width="71" height="66" viewBox="0 0 71 66" fill="none" xmlns="http://www.w3.org/2000/svg">
<path fill-rule="evenodd" clip-rule="evenodd" d="M23.1826 36.5034C19.3672 35.4902 11.6753 32.6473 11.6753 26.1989C11.6753 17.6235 22.1408 5.83784 22.1408 5.83784C22.1408 5.83784 25.5487 0 35.1331 0C44.7177 0 49.6164 5.83784 49.6164 5.83784C49.6164 5.83784 56.432 13.4788 56.432 26.1989C56.432 32.7524 52.5874 35.4129 48.8598 36.4524C45.8329 40.0544 41.1644 42.3362 35.9996 42.3362C30.8594 42.3362 26.2105 40.076 23.1826 36.5034ZM24.3146 30.9742C26.1119 35.3012 30.6035 38.4443 35.9996 38.4443C38.2176 38.4443 40.2826 37.9133 42.0708 36.9874C41.991 36.9786 41.9488 36.973 41.9488 36.973C41.9488 36.973 53.5808 25.748 43.7834 11.6757C42.7184 9.69675 26.5071 14.5946 24.3239 17.5135C23.0132 19.266 23.6201 25.9291 24.3146 30.9742Z" fill="white"/>
<path d="M16.4094 49.1438C14.737 50.1704 13.6216 52.0162 13.6216 54.1223C13.6216 57.3465 16.2352 59.9601 19.4595 59.9601C22.6837 59.9601 25.2973 57.3465 25.2973 54.1223C25.2973 51.1566 23.0859 48.7075 20.2221 48.3338C20.1582 48.1052 20.0917 47.8417 20.024 47.5461C19.7909 46.5276 19.5684 45.2355 19.4028 43.9084C19.2368 42.5787 19.1339 41.2603 19.1271 40.1844C19.1246 39.79 19.1353 39.4463 19.1571 39.1581C19.9057 38.9433 20.6564 38.7499 21.4054 38.5792C22.2642 38.3836 22.7724 39.3973 23.1842 40.2187C23.1914 40.2329 23.1986 40.2473 23.2058 40.2615C23.2554 40.3607 23.3039 40.4567 23.3514 40.5468H31.2595C33.028 40.5464 33.9089 40.5466 34.7929 40.5468H34.8285C35.6941 40.547 36.5754 40.5471 38.3061 40.5468H46.2149C46.6589 39.7032 47.6702 38.3564 48.6487 38.5792C49.6923 38.817 50.7396 39.0992 51.7795 39.4218L51.7731 39.4249C51.7707 39.4204 51.7709 39.4212 51.7733 39.4278C51.7824 39.4551 51.8252 39.5823 51.8676 39.8583C51.9161 40.1724 51.9497 40.5806 51.9636 41.0722C51.9912 42.0535 51.9361 43.2464 51.82 44.4484C51.7036 45.6488 51.5308 46.8111 51.3362 47.7287C51.2932 47.9318 51.2502 48.1173 51.208 48.2844H48.6487C47.9115 48.2844 47.2378 48.7009 46.9082 49.3601L44.9622 53.252C44.827 53.5221 44.7568 53.8202 44.7568 54.1223V58.0141C44.7568 59.0889 45.628 59.9601 46.7027 59.9601H50.5946V56.0682H48.6487V54.5817L49.8512 52.1763H55.2298L56.4324 54.5817V56.0682H54.4865V59.9601H58.3784C59.4531 59.9601 60.3243 59.0889 60.3243 58.0141V54.1223C60.3243 53.8202 60.2541 53.5221 60.1188 53.252L58.1729 49.3601C57.8432 48.7009 57.1696 48.2844 56.4324 48.2844H55.1954C55.4032 47.2478 55.5762 46.0365 55.6936 44.8232C55.8206 43.5116 55.8872 42.1504 55.8539 40.963L55.8523 40.9095C63.612 44.188 70.0541 49.5806 70.0541 55.2313V65.7979H0V55.2313C0 49.3306 7.02473 43.7113 15.2387 40.487C15.2609 41.6966 15.3755 43.0658 15.5407 44.3902C15.7192 45.8199 15.9624 47.2439 16.2304 48.4146C16.2878 48.6654 16.3475 48.9097 16.4094 49.1438Z" fill="white"/>
</svg>
