<svg width="1000" height="1000" viewBox="0 0 1000 1000" fill="none" xmlns="http://www.w3.org/2000/svg">
<g clip-path="url(#clip0_68_1059)">
<path d="M566.488 368.634C572.118 365.689 579.002 367.774 582.001 373.355C582.834 374.902 592.473 393.714 586.782 420.811C581.088 447.917 560.065 483.257 499.68 517.874L499.67 517.88L499.66 517.885C497.877 518.687 482.711 525.462 469.94 537.393C457.17 549.323 446.845 566.355 454.592 587.708C464.529 615.104 495.719 635.094 531.553 626.167H531.554C537.785 624.629 544.042 628.409 545.581 634.615C547.119 640.819 543.338 647.102 537.133 648.641H537.132C514.255 654.296 492.942 651.732 473.505 641.526C472.543 644.047 470.755 646.288 468.181 647.651C464.376 649.662 417.924 674.781 381.448 719.643C344.98 764.495 318.495 829.06 354.544 910.017C357.152 915.858 354.519 922.689 348.679 925.296V925.295C342.942 927.877 336.033 925.322 333.4 919.43C295.137 833.515 320.26 763.768 357.612 714C394.628 664.68 443.662 634.966 454.945 628.527C445.209 619.582 437.467 608.427 432.822 595.609C423.637 570.297 430.893 548.651 443.876 531.864C456.85 515.089 475.549 503.149 489.319 497.202C538.999 468.681 557.316 440.964 563.092 420.133C568.509 400.6 562.912 387.077 561.732 384.554L561.559 384.198C558.692 378.542 560.855 371.581 566.488 368.634Z" fill="black" stroke="black" stroke-width="0.489995"/>
<path d="M563.08 362.121C572.1 357.403 583.196 360.608 588.238 369.448L588.474 369.874L588.478 369.881L589.324 371.589L589.327 371.595C592.084 377.523 599.385 396.55 593.972 422.322C587.731 452.034 564.982 488.906 503.335 524.247L503.336 524.248L503.024 524.43L503.014 524.436L503.003 524.441L502.678 524.59H502.677C501.02 525.335 486.793 531.705 474.956 542.763C463.131 553.809 455.223 567.891 461.499 585.197L462.37 587.432C471.905 610.227 498.67 626.778 529.763 619.04L529.773 619.037L529.782 619.034L529.792 619.032C539.955 616.524 550.197 622.701 552.713 632.849C555.219 642.964 549.078 653.212 538.967 655.757L538.962 655.763L538.896 655.779C516.623 661.286 495.49 659.54 476.009 650.897C474.765 652.139 473.318 653.239 471.656 654.124L471.648 654.133L471.616 654.149C468.109 656.003 422.691 680.566 387.148 724.28C352.131 767.349 327.057 828.372 360.456 905.205L361.256 907.023L361.259 907.029L361.627 907.919L361.629 907.925C365.245 917.274 360.907 927.868 351.691 931.994C342.26 936.238 330.989 932.047 326.69 922.43L326.686 922.42C287.055 833.432 313.246 760.867 351.73 709.59C383.681 667.019 424.266 638.8 443.181 627.015C435.798 618.679 429.844 608.961 425.913 598.117L425.911 598.113L425.007 595.486L425.006 595.482C416.187 568.366 424.381 545.052 438.061 527.365C451.828 509.564 471.377 497.035 485.927 490.664C534.321 462.818 550.919 436.526 556.01 418.168C561.126 399.717 555.075 387.666 554.998 387.514L554.972 387.461V387.454C550.366 378.282 553.846 366.952 563.08 362.121ZM581.568 373.585C578.698 368.247 572.114 366.249 566.722 369.064L565.734 369.641C561.078 372.719 559.422 378.896 561.996 383.975V383.976C562.588 385.148 569.384 399.273 563.563 420.263C557.741 441.258 539.31 469.069 489.548 497.635L489.538 497.641L489.527 497.645L486.897 498.83C473.054 505.287 455.224 517.281 443.071 533.745C430.925 550.2 424.454 571.11 433.283 595.442C437.939 608.289 445.724 619.459 455.521 628.391L455.771 628.618L455.478 628.785C444.795 634.853 395.287 664.616 358.003 714.294C320.727 763.961 295.676 833.519 333.847 919.229C336.369 924.872 342.985 927.319 348.477 924.849V924.848C354.07 922.35 356.591 915.81 354.095 910.218C320.208 834.12 341.441 772.445 374.342 727.995C407.234 683.556 451.794 656.322 464.614 649.055L464.617 649.053L467.947 647.221L467.951 647.219C470.494 645.873 472.241 643.625 473.142 641.099L473.236 640.832L473.487 640.964C492.878 651.219 514.152 653.815 537.013 648.164L537.562 648.013C543.176 646.315 546.53 640.489 545.103 634.732C543.675 628.976 538.008 625.398 532.229 626.519L531.671 626.642C496.715 635.35 466.118 616.732 455.13 590.443L455.128 590.437L454.133 587.883L454.131 587.877C446.777 567.608 455.531 551.197 467.228 539.347C478.921 527.5 493.589 520.168 498.185 518.019H498.187L499.438 517.448C559.736 482.88 580.644 447.642 586.301 420.709C591.959 393.77 582.372 375.08 581.568 373.585Z" fill="black" stroke="black" stroke-width="0.489995"/>
<path d="M664.319 300.292C670.411 299.372 676.152 303.329 677.39 309.392H677.389C677.446 309.661 680.028 321.752 686.358 336.607C692.601 351.258 702.477 368.566 717.147 379.888L717.849 380.422L717.851 380.424C720.297 382.303 775.508 425.485 781.134 508.625L822.782 733.472C826.978 756.116 822.781 779.298 810.985 798.797C738.737 918.325 623.612 1008.51 483.163 990.624C476.827 989.816 472.343 984.002 473.151 977.667C473.933 971.303 479.723 966.873 486.082 967.654H486.083C568.087 978.12 635.078 948.262 686.217 908.104C737.36 867.945 772.637 817.492 791.196 786.804C800.045 772.182 803.174 754.736 800.02 737.695L758.217 511.531L758.214 511.518L758.213 511.504C753.459 442.455 710.243 404.187 704.459 399.373L703.825 398.856C685.261 384.911 673.105 364.279 665.534 346.862C657.962 329.445 654.965 315.22 654.732 314.058C653.455 307.801 657.47 301.674 663.728 300.396L664.319 300.292Z" fill="black" stroke="black" stroke-width="0.489995"/>
<path d="M662.268 293.192C672.505 291.119 682.465 297.641 684.582 307.87L685.059 309.896L685.499 311.607C686.697 316.142 689.128 324.359 693.12 333.727C699.076 347.705 708.141 363.367 721.003 373.571L722.266 374.547L722.273 374.552L722.292 374.568L722.321 374.589L722.328 374.594C725.353 376.919 782.411 421.659 788.428 507.658L830.008 732.134C834.529 756.532 830.01 781.549 817.272 802.604C744.858 922.405 628.628 1014.86 485.618 998.326H485.617L482.233 997.914L482.232 997.913C471.856 996.59 464.541 987.083 465.861 976.734C467.166 966.28 476.683 959.093 486.977 960.358H486.982L487.016 960.363H487.015C566.538 970.511 631.612 941.637 681.679 902.322C731.845 862.928 766.582 813.303 784.908 782.999L786.331 780.516C792.684 768.824 795.12 755.312 793.258 741.902V741.901L792.79 739.028V739.027L750.912 512.453L750.909 512.439L750.908 512.425L750.879 512.009C746.047 441.827 699.65 404.936 699.403 404.731L699.394 404.723C679.383 389.685 666.591 367.738 658.791 349.793C650.99 331.85 647.857 317.149 647.53 315.526L647.529 315.52L647.362 314.578L647.361 314.572C645.863 304.718 652.297 295.247 662.227 293.203L662.237 293.199L662.268 293.192ZM676.911 309.488C675.687 303.497 669.868 299.649 663.825 300.872L663.826 300.873C658.022 302.058 654.231 307.604 655.112 313.398L655.211 313.959L655.212 313.96C655.44 315.1 658.428 329.291 665.982 346.667C673.42 363.777 685.274 383.953 703.257 397.811L704.119 398.465V398.466C704.703 398.907 753.61 437.642 758.702 511.447L800.503 737.604C803.679 754.76 800.527 772.331 791.615 787.057L791.614 787.058L787.939 793.039L787.938 793.041C768.083 824.819 732.818 873.139 682.894 911.299C632.967 949.462 568.367 977.472 489.858 968.601H489.857L486.024 968.141H486.023C479.927 967.392 474.383 971.638 473.634 977.728V977.729C472.861 983.796 477.156 989.36 483.222 990.135C623.397 1007.98 738.366 917.988 810.565 798.541C821.931 779.753 826.203 757.526 822.664 735.675L822.3 733.557V733.558L780.651 508.697L780.648 508.683V508.668C775.041 425.748 719.978 382.676 717.552 380.812C702.394 369.43 692.262 351.71 685.908 336.797C679.552 321.879 676.964 309.74 676.911 309.489V309.488Z" fill="black" stroke="black" stroke-width="0.489995"/>
<path d="M641.515 453.279C645.4 448.195 652.648 447.23 657.731 451.115L657.732 451.116C662.789 455.026 663.755 462.273 659.896 467.357L659.896 467.358C639.742 493.688 645.719 530.878 656.882 561.686C667.982 592.323 684.172 616.544 684.652 617.25C689.126 622.448 692.861 630.255 695.98 639.779C699.104 649.315 701.617 660.592 703.634 672.737C707.668 697.027 709.723 724.812 710.706 749.125C711.169 760.32 705.095 770.571 695.254 775.208C667.586 788.278 639.011 815.585 617.104 839.89C606.155 852.039 596.876 863.431 590.218 871.908C586.889 876.146 584.214 879.655 582.312 882.166C581.362 883.42 580.604 884.427 580.055 885.149C579.512 885.862 579.159 886.319 579.027 886.454L579.026 886.455C518.036 948.365 433.548 948.007 429.948 948.134H429.935C428.635 948.108 427.358 947.9 426.13 947.456C422.77 946.244 418.554 946.152 413.929 946.824C409.306 947.495 404.295 948.927 399.36 950.742C389.49 954.371 379.95 959.524 374.465 963.151H374.464C369.12 966.644 361.95 965.185 358.43 959.84C354.91 954.496 356.397 947.326 361.715 943.806C363.878 942.372 374.421 935.625 387.905 930.253C401.367 924.891 417.811 920.879 431.781 924.955C443.211 924.641 512.335 920.617 561.925 870.808C565.301 866.158 581.781 843.832 604.589 819.274C627.421 794.69 656.617 767.845 685.372 754.273C686.745 753.609 687.653 751.952 687.58 750.064L687.462 747.264C686.198 718.438 683.554 692.806 679.959 672.766C678.104 662.423 675.996 653.573 673.696 646.545C671.394 639.511 668.906 634.325 666.304 631.288L666.295 631.278L666.288 631.268C664.381 628.529 645.571 600.549 633.54 565.009C621.513 529.481 616.235 486.315 641.515 453.279Z" fill="black" stroke="black" stroke-width="0.489995"/>
<path d="M636.115 448.267C642.256 440.811 652.993 439.217 661.014 444.443L661.403 444.704L661.408 444.707L662.187 445.271L662.22 445.294L662.228 445.3C670.468 451.672 672.054 463.498 665.751 471.802L665.749 471.807L665.557 471.654L665.748 471.807L665.729 471.832L665.728 471.831C648.095 494.872 652.713 528.603 663.792 559.181C669.199 574.106 675.877 587.522 681.265 597.289C683.954 602.162 686.309 606.105 688.001 608.843C688.847 610.211 689.526 611.277 689.999 612.007C690.255 612.404 690.449 612.694 690.572 612.878C695.801 619.13 699.801 627.831 702.965 637.492C706.245 647.504 708.831 659.175 710.883 671.531C714.732 694.703 716.795 720.87 717.852 744.196L718.05 748.822V748.826L718.079 750.127V750.131C718.148 763.663 710.61 776.1 698.386 781.86L698.231 781.933L698.227 781.929C672.021 794.363 644.341 820.65 622.563 844.813C611.755 856.804 602.586 868.061 595.997 876.449C592.704 880.64 590.058 884.113 588.171 886.604C587.241 887.832 586.456 888.873 585.903 889.6C585.555 890.057 584.829 891.03 584.294 891.58L584.258 891.616C552.555 923.796 514.85 939.692 484.828 947.574C469.796 951.52 456.609 953.479 446.926 954.461C442.081 954.953 438.103 955.2 435.208 955.329C433.761 955.393 432.587 955.428 431.714 955.449C431.28 955.459 430.92 955.467 430.651 955.472C430.504 955.475 430.415 955.475 430.326 955.477C430.29 955.478 430.264 955.479 430.248 955.48C430.239 955.48 430.232 955.481 430.227 955.481C430.225 955.481 430.215 955.482 430.208 955.482H430.207L430.001 955.487H429.99L429.784 955.482V955.481C427.92 955.443 425.973 955.158 424.024 954.503L423.634 954.367C421.89 953.738 419.047 953.507 414.986 954.097C411.032 954.672 406.536 955.933 401.896 957.639C392.595 961.06 383.564 965.943 378.525 969.274L378.526 969.275L378.492 969.299L378.484 969.305C369.774 974.998 358.054 972.633 352.292 963.884C346.537 955.146 348.968 943.428 357.653 937.677L358.939 936.843C362.834 934.362 372.813 928.356 385.183 923.428C398.656 918.061 416.502 913.348 432.619 917.566C446.249 917.045 510.191 912.023 556.337 865.991C560.488 860.302 576.838 838.355 599.204 814.274C621.638 790.119 650.774 763.103 680.157 748.63C678.922 719.605 676.288 693.936 672.723 674.064C670.904 663.923 668.871 655.429 666.711 648.832C664.486 642.031 662.354 637.98 660.719 636.072L660.718 636.071L660.479 635.789L660.465 635.771L660.254 635.469C658.162 632.464 638.925 603.837 626.58 567.368C614.357 531.26 608.062 484.902 635.675 448.814L636.115 448.24V448.267ZM657.431 451.502C652.562 447.784 645.623 448.709 641.903 453.577H641.902C616.779 486.409 621.99 529.362 634.003 564.851C645.997 600.28 664.744 628.188 666.683 630.976C669.348 634.09 671.857 639.349 674.162 646.393C676.471 653.45 678.583 662.324 680.44 672.681C684.039 692.749 686.685 718.404 687.949 747.246L688.067 750.046V750.047C688.145 752.087 687.169 753.952 685.583 754.717L685.582 754.718C656.915 768.249 627.77 795.035 604.946 819.61C582.126 844.179 565.646 866.513 562.306 871.116L562.294 871.13L562.281 871.144C512.498 921.155 443.105 925.139 431.758 925.446L431.722 925.447L431.687 925.437L430.375 925.079V925.078C416.628 921.583 400.606 925.646 387.459 930.96C374.321 936.272 364.102 942.813 361.986 944.215L361.072 944.884C356.73 948.435 355.679 954.773 358.839 959.572C361.999 964.368 368.228 965.897 373.212 963.314L374.195 962.741C379.71 959.094 389.284 953.926 399.191 950.283C404.145 948.461 409.189 947.018 413.856 946.34C418.519 945.663 422.826 945.746 426.293 946.997C427.171 947.314 428.081 947.503 429.008 947.59H429.007L429.934 947.646C433.548 947.521 515.246 947.834 575.807 888.961L578.678 886.11C578.786 885.998 579.113 885.577 579.664 884.854C580.213 884.132 580.97 883.127 581.921 881.871C583.824 879.359 586.5 875.847 589.832 871.606C596.495 863.124 605.779 851.722 616.739 839.563C638.651 815.251 667.281 787.88 695.043 774.765C704.699 770.215 710.67 760.154 710.215 749.148C709.233 724.844 707.179 697.082 703.149 672.82C701.134 660.689 698.625 649.437 695.512 639.933C692.398 630.425 688.683 622.685 684.267 617.559L684.258 617.548L684.25 617.538C683.902 617.028 667.584 592.677 656.413 561.836C645.249 531.015 639.187 493.604 659.505 467.06C663.2 462.191 662.275 455.248 657.431 451.502Z" fill="black" stroke="black" stroke-width="0.489995"/>
<path d="M478.143 117.788C483.957 115.077 490.841 117.605 493.526 123.393C501.141 139.725 518.634 160.195 541.847 173.125L542.956 173.735C548.561 176.792 554.396 179.392 560.242 182.021C570.166 186.486 580.473 191.114 589.988 197.79C606.998 209.693 615.752 225.707 617.942 238.765C619.037 245.291 618.495 251.099 616.501 255.288C614.501 259.489 611.036 262.063 606.334 262.063C599.191 262.063 593.794 255.727 594.889 248.714L594.972 248.115C595.738 241.931 593.638 235.856 590.165 230.477C586.581 224.926 581.546 220.137 576.743 216.77C570.383 212.318 562.923 208.676 555.176 205.133C547.918 201.813 540.404 198.579 533.335 194.85L531.927 194.098C503.784 178.812 482.437 154.401 472.538 133.171L472.414 132.898C469.905 127.167 472.446 120.457 478.143 117.788Z" fill="black" stroke="black" stroke-width="0.489995"/>
<path d="M475.483 110.926C484.888 106.827 495.871 110.975 500.197 120.299L500.358 120.648H500.357C507.512 135.736 524.23 155.214 546.452 167.269L546.47 167.279L546.478 167.283C551.786 170.178 557.344 172.658 563.257 175.318C572.779 179.601 583.347 184.326 593.249 191.106L594.205 191.768L594.207 191.77L595.915 192.995L595.917 192.996C613.362 205.848 622.74 222.925 625.193 237.549C626.444 245.009 625.985 252.468 623.139 258.449C620.115 264.801 614.299 269.412 606.337 269.412C594.686 269.412 585.845 259.057 587.625 247.596L587.719 246.828C588.077 243.005 586.791 238.8 583.991 234.464C581.016 229.858 576.709 225.727 572.533 222.797L570.312 221.307L569.309 220.673C564.247 217.527 558.452 214.712 552.121 211.816C544.621 208.385 536.228 204.782 528.481 200.588H528.474L528.419 200.558C498.921 184.536 476.456 158.961 465.878 136.278L465.806 136.122L465.812 136.116C461.488 126.649 465.657 115.521 475.026 111.132L475.036 111.127L475.483 110.926ZM493.082 123.602C490.51 118.06 483.921 115.635 478.353 118.231L478.354 118.232C472.983 120.748 470.541 127.015 472.754 132.443L472.983 132.965C482.837 154.098 504.109 178.431 532.161 193.667C539.616 197.707 547.624 201.141 555.38 204.688C563.13 208.232 570.626 211.889 577.026 216.369L577.937 217.022C582.5 220.372 587.18 224.949 590.578 230.212C594.089 235.651 596.243 241.842 595.458 248.177L595.373 248.791C594.391 255.086 598.871 260.807 605.069 261.5L606.337 261.572C610.752 261.571 614.025 259.208 615.968 255.264C617.917 251.308 618.524 245.761 617.556 239.446C615.622 226.819 607.406 211.2 591.267 199.31V199.309L589.706 198.193V198.192C582.604 193.209 575.055 189.368 567.535 185.875L560.042 182.468C554.929 180.169 549.809 177.884 544.841 175.294L544.839 175.293L542.724 174.169L542.722 174.168C519.611 161.634 501.992 141.588 493.84 125.177L493.839 125.174L493.083 123.605L493.082 123.602Z" fill="black" stroke="black" stroke-width="0.489995"/>
<mask id="mask0_68_1059" style="mask-type:luminance" maskUnits="userSpaceOnUse" x="398" y="-1" width="509" height="575">
<path d="M904.018 2.20483V571.09H401.155V2.20483H904.018Z" fill="white" stroke="white" stroke-width="0.489995"/>
<path d="M906.469 -0.245117V573.539H398.705V-0.245117H906.469ZM401.646 570.6H903.529V2.69531H401.646V570.6Z" fill="white" stroke="white" stroke-width="0.489995"/>
</mask>
<g mask="url(#mask0_68_1059)">
<path d="M514.839 4.78418C566.474 -0.680607 611.1 4.60349 651.187 21.0059C683.942 34.4046 710.733 61.6343 724.691 95.6855C731.606 112.545 734.685 129.682 737.457 146.483C740.23 163.293 742.696 179.76 748.378 195.327C754.409 211.846 764.755 228.83 777.37 246.762C789.987 264.696 804.855 283.554 819.933 303.842C850.079 344.405 881.028 390.634 896.251 446.341C903.217 471.868 903.829 493.164 898.058 511.408L897.778 512.274C886.845 545.407 851.163 568.905 815.854 565.27L815.854 565.269C809.492 564.591 804.878 558.881 805.556 552.52L805.591 552.224C806.388 546.236 811.74 542.009 817.686 542.188L818.272 542.221L818.278 542.222C842.69 544.762 868.051 528.472 875.773 505.026L875.985 504.37C880.353 490.54 879.704 473.545 873.933 452.442C859.042 397.915 829.22 354.765 799.612 315.675C770.017 276.6 740.61 241.552 726.634 203.278C720.576 186.69 717.798 169.434 715.004 152.611C712.209 135.78 709.399 119.384 703.286 104.472C691.672 76.0994 669.465 53.4873 642.426 42.4375C605.951 27.5263 565.007 22.7304 517.264 27.8057C502.2 29.4101 482.764 35.0725 465.8 43.9209C449.092 52.6357 434.832 64.4143 429.467 78.4014L429.218 79.0693C427.028 85.0899 420.381 88.221 414.408 86.0303V86.0293C408.386 83.8646 405.283 77.2169 407.447 71.2207C414.494 51.7073 431.927 36.1023 452.281 24.8789C472.64 13.6531 495.96 6.79096 514.839 4.78418Z" fill="black" stroke="black" stroke-width="0.489995"/>
<path d="M519.432 1.86475C569.349 -2.80776 612.85 2.67389 652.114 18.7397C684.982 32.1848 711.909 59.2622 726.283 93.1382L726.958 94.7563L726.959 94.7583L728.231 97.9692L728.233 97.9722C734.379 114.069 737.276 130.337 739.874 146.086C742.66 162.973 745.096 179.183 750.682 194.487L751.842 197.534L752.419 198.966C758.493 213.788 767.953 229.114 779.377 245.353C791.974 263.259 806.762 282.009 821.902 302.381C851.611 342.355 882.29 388.073 897.883 443.07L898.614 445.696L898.615 445.699L899.878 450.56L899.879 450.563C905.818 474.664 905.983 495.191 900.108 513.039L900.09 513.094L900.084 513.099C888.771 547.286 852.044 571.461 815.604 567.708L815.56 567.704L815.549 567.698C807.867 566.854 802.301 559.953 803.121 552.26L803.122 552.248H803.123L803.343 550.851L803.345 550.837H803.346C804.727 544.334 810.57 539.851 817.065 539.734H817.077L818.455 539.777H818.466V539.778L818.528 539.783H818.535C841.805 542.203 866.089 526.604 873.449 504.258V504.257C877.564 491.776 877.404 476.35 872.593 457.008V457.009L871.569 453.085V453.084C856.809 399.039 827.238 356.204 797.662 317.155C768.211 278.271 738.472 242.836 724.334 204.12C718.184 187.279 715.375 169.789 712.589 153.014C709.787 136.14 707.01 120.018 701.02 105.402C689.642 77.6067 667.9 55.4962 641.502 44.7075L641.456 44.689L641.451 44.6841C605.437 29.9719 564.928 25.2005 517.523 30.2397C502.78 31.8101 483.637 37.3816 466.932 46.0952C450.129 54.8597 436.368 66.5021 431.524 79.9019L431.506 79.9536L431.499 79.9585C428.834 87.1991 420.814 90.9881 413.567 88.3315L413.406 88.2729V88.2661C406.22 85.5765 402.543 77.5961 405.143 70.3901C412.477 50.0796 430.5 34.092 451.101 22.7329C471.747 11.3488 495.381 4.38911 514.582 2.34814H514.583L519.431 1.86475H519.432ZM650.997 21.4595C611.002 5.09501 566.462 -0.187216 514.895 5.27002L511.312 5.70166L511.311 5.70068C492.573 8.22311 470.104 15.2629 450.625 26.3696C431.145 37.4771 414.687 52.6344 407.914 71.3784L407.574 72.4839C406.223 77.9185 409.174 83.6288 414.576 85.5698H414.578C419.932 87.5333 425.859 85.0297 428.312 79.9614L428.757 78.9019C433.819 64.8975 447.665 53.1146 463.985 44.3276C480.314 35.5361 499.17 29.7178 514.326 27.6675L514.329 27.6665L517.21 27.3179L517.214 27.3169C565.02 22.2351 606.047 27.0382 642.611 41.9858C669.778 53.0879 692.08 75.8003 703.741 104.288H703.74C709.877 119.259 712.694 135.709 715.488 152.532C718.284 169.363 721.057 186.572 727.096 203.109C741.039 241.294 770.38 276.265 800.005 315.378C829.618 354.477 859.489 397.689 874.406 452.313C880.282 473.8 880.88 491.107 876.24 505.181L876.238 505.187L875.458 507.374L875.456 507.379C866.847 529.85 842.104 545.19 818.237 542.71V542.711C812.211 542.236 806.693 546.51 806.044 552.571C805.395 558.663 809.816 564.131 815.908 564.781L816.729 564.86C851.537 568.026 886.536 544.777 897.312 512.12C902.964 494.95 902.877 475.015 897.025 451.271L895.777 446.469V446.47C880.817 391.725 850.641 346.133 820.953 306.039C806.115 285.999 791.386 267.317 778.76 249.573C766.131 231.825 755.586 214.986 749.104 198.609L749.103 198.605L747.921 195.5L747.919 195.497C742.396 180.365 739.904 164.39 737.234 148.137C734.564 131.878 731.716 115.336 725.489 99.0259L724.241 95.8706L723.601 94.3335C709.968 62.1708 684.798 36.2941 654.043 22.7515V22.7505L650.997 21.4604V21.4595Z" fill="black" stroke="black" stroke-width="0.489995"/>
</g>
<path d="M163.143 471.107C165.145 465.152 171.544 461.928 177.536 463.793L177.821 463.885L178.103 463.985C183.877 466.116 186.972 472.406 185.137 478.304L185.044 478.59C171.459 518.528 173.019 555.131 189.648 587.345C207.392 621.685 239.436 645.92 267.185 661.608C294.929 677.294 318.351 684.421 318.813 684.558L319.099 684.648C324.954 686.555 328.298 692.719 326.715 698.663L326.635 698.95C324.81 705.129 318.318 708.571 312.243 706.772H312.242C310.153 706.144 284.415 698.354 254.186 681.035C223.959 663.718 189.219 636.859 169.154 598.086C149.443 560.018 147.429 517.302 163.143 471.107Z" fill="black" stroke="black" stroke-width="0.489995"/>
<path d="M158.638 469.143C161.599 461.028 170.333 456.649 178.586 458.991L178.593 458.993L179.387 459.242L179.406 459.248L179.419 459.255C188.025 462.196 192.608 471.545 189.686 480.164L189.667 480.218L189.663 480.221C176.452 519.099 178.092 554.272 194 585.094L195.644 588.173H195.645C213.048 619.677 243.055 642.336 269.596 657.342H269.595C283.236 665.054 295.824 670.67 305.052 674.368C309.664 676.216 313.429 677.583 316.057 678.493C317.37 678.947 318.402 679.287 319.11 679.515C319.461 679.629 319.733 679.715 319.921 679.773C320.018 679.803 320.091 679.826 320.139 679.842C320.155 679.846 320.168 679.85 320.178 679.853H320.18L320.214 679.863C328.929 682.46 333.896 691.619 331.337 700.332L331.32 700.391L331.313 700.397C328.689 709.16 319.479 714.019 310.86 711.472L310.84 711.468L310.83 711.465C308.549 710.779 282.423 702.861 251.749 685.287C222.085 668.292 187.702 642.002 166.783 604.047L166.781 604.044L164.805 600.341L164.803 600.338C144.392 560.917 142.425 516.796 158.501 469.532L158.638 469.143ZM177.666 464.349C171.848 462.377 165.555 465.472 163.607 471.26L162.186 475.574L162.187 475.575C148.072 520.008 150.561 561.111 169.588 597.858C189.589 636.509 224.233 663.307 254.418 680.602C284.6 697.896 310.301 705.675 312.382 706.301H312.381C318.199 708.023 324.416 704.727 326.164 698.81L326.31 698.26C327.674 692.561 324.357 686.72 318.672 685.027C318.148 684.871 295.406 677.943 268.203 662.743C240.999 647.543 209.307 624.056 190.923 590.773L190.922 590.77L189.213 587.574L189.212 587.57C173.034 556.229 171.072 520.765 183.349 482.174L183.35 482.172L184.58 478.434L184.581 478.432C186.553 472.614 183.457 466.322 177.666 464.349ZM320.136 679.889C320.073 679.943 320.043 680.004 320.029 680.062C320.07 680.075 320.099 680.085 320.118 680.091L320.136 679.889Z" fill="black" stroke="black" stroke-width="0.489995"/>
<path d="M104.225 292.773C120.46 272.302 156.482 269.742 181.677 292.981C189.818 285.986 199.747 281.068 210.283 278.955C229.327 275.121 248.792 281.71 258.976 295.393L259.454 296.05L260.018 296.864C271.597 314.035 267.353 336.039 259.471 351.047V351.048C252.67 363.933 243.875 375.152 234.826 386.283L230.938 391.054C210.026 416.663 197.709 426.81 195.754 428.766L195.748 428.772C191.224 433.001 186.588 435.636 181.934 436.132C177.268 436.629 172.625 434.972 168.105 430.71C156.723 420.042 143.644 407.45 132.429 393.271C122.098 380.196 110.501 365.517 102.628 349.738L101.878 348.207C94.3822 332.704 90.9508 310.083 103.844 293.261L104.225 292.773ZM145.287 299.928C135.891 298.632 127.09 301.262 122.442 307.062L122.225 307.34C118.605 312.055 117.604 317.67 118.387 323.76C119.17 329.855 121.74 336.413 125.245 342.987C132.257 356.134 142.978 369.277 150.499 378.803L151.386 379.913C160.543 391.296 171.185 401.793 180.903 410.975C186.018 405.92 194.989 398.499 213 376.402L215.89 372.874C222.887 364.342 231.463 353.775 237.344 343.133C244.074 330.954 247.211 318.791 240.578 309.477H240.577C235.853 302.817 225.273 299.558 214.82 301.663L214.819 301.664C205.386 303.541 196.38 309.299 190.699 317.059C186.032 323.446 176.334 323.395 171.797 316.721V316.72C164.922 306.598 154.821 301.243 145.287 299.928Z" fill="black" stroke="black" stroke-width="0.489995"/>
<path d="M102.295 291.262C119.223 269.898 155.772 267.269 181.731 289.749C189.859 283.216 199.546 278.61 209.8 276.554L209.803 276.553L211.684 276.204L211.688 276.203C230.91 273 250.465 279.834 260.956 293.952L261.449 294.63L262.048 295.495C274.341 313.721 269.72 336.766 261.667 352.133V352.139L261.639 352.193C253.746 367.147 243.22 379.868 232.889 392.533V392.537L232.834 392.606C211.821 418.339 199.342 428.64 197.484 430.497L197.421 430.561C192.695 434.979 187.583 437.994 182.191 438.568C176.675 439.156 171.35 437.14 166.422 432.493L166.346 432.421V432.416C154.977 421.759 141.815 409.088 130.505 394.789C119.874 381.335 107.682 365.921 99.6699 349.276L99.6689 349.273L98.9648 347.76L98.9639 347.758C91.7755 331.915 88.6178 309.099 101.897 291.771L102.295 291.262ZM180.312 292.407C155.148 270.156 119.862 273.193 104.236 293.551L104.237 293.552L103.087 295.13L103.088 295.131C91.7171 311.559 95.0914 333.05 102.317 347.995L103.064 349.521C110.911 365.246 122.476 379.886 132.813 392.968H132.812C143.304 406.232 155.436 418.107 166.289 428.329L168.442 430.352C172.88 434.537 177.387 436.121 181.882 435.643C186.388 435.163 190.927 432.605 195.411 428.413C197.282 426.547 208.19 417.538 226.742 395.36L230.561 390.743C240.301 378.801 250 367.056 257.557 353.542L259.039 350.818C266.757 336.12 270.91 314.784 260.146 297.952L259.051 296.33V296.329C249.136 282.388 229.566 275.574 210.379 279.437L210.378 279.436L208.412 279.866C198.623 282.172 189.435 286.916 181.833 293.493L181.669 293.635L181.509 293.489L180.312 292.408V292.407ZM121.837 307.04C126.566 300.861 135.703 298.111 145.354 299.443C155.017 300.776 165.243 306.202 172.2 316.444C176.544 322.836 185.834 322.885 190.304 316.768L190.853 316.037C196.626 308.549 205.469 303.024 214.724 301.183L215.219 301.087C225.635 299.155 236.182 302.432 240.978 309.191H240.979C247.795 318.761 244.511 331.175 237.772 343.368C231.024 355.578 220.747 367.683 213.378 376.709C195.148 399.075 186.152 406.44 181.08 411.486L180.911 411.654L180.738 411.49L176.915 407.859H176.914C168.547 399.837 159.725 390.904 151.901 381.326L151.9 381.325L150.116 379.109L150.114 379.109C142.721 369.745 132.185 356.825 125.146 343.837C121.625 337.342 118.97 330.816 118.023 324.695C117.076 318.571 117.838 312.839 121.169 307.96L121.173 307.954L121.833 307.045L121.837 307.04ZM144.952 302.355C135.986 301.118 128.109 303.744 124.219 308.764V308.766L124.169 308.831C121.04 312.907 120.092 317.824 120.814 323.446C121.544 329.126 123.968 335.386 127.406 341.833C134.291 354.742 144.847 367.688 152.423 377.282L152.735 377.68C161.387 388.542 171.476 398.625 180.903 407.587C186.269 402.481 195.032 394.57 211.103 374.854L214.006 371.311C221.009 362.768 229.436 352.38 235.2 341.949C241.865 329.89 244.282 319.021 238.655 310.999H238.651L238.578 310.896C234.586 305.269 225.138 302.084 215.304 304.066L215.279 304.07H215.274C206.454 305.832 197.991 311.247 192.676 318.507C187.02 326.244 175.27 326.188 169.771 318.098C163.308 308.584 153.84 303.58 144.952 302.355Z" fill="black" stroke="black" stroke-width="0.489995"/>
<path d="M396.117 114.369C400.447 109.675 407.799 109.443 412.465 113.796C417.132 118.15 417.392 125.476 413.039 130.169L413.035 130.172C413.025 130.19 413.015 130.211 413.003 130.233C412.953 130.325 412.88 130.464 412.789 130.652C412.607 131.028 412.354 131.603 412.083 132.393C411.54 133.974 410.922 136.417 410.65 139.85C410.125 146.501 410.904 156.873 416.072 171.888L416.586 173.356L416.588 173.359V173.36C417.159 175.048 428.307 209.584 407.227 245.937L407.223 245.945L407.218 245.953C406.435 247.102 405.791 248.27 405.334 249.281C404.957 250.117 404.715 250.828 404.621 251.328C404.959 251.325 405.335 251.418 405.803 251.537C406.454 251.702 407.347 251.94 408.701 252.147C411.241 252.535 415.414 252.818 422.613 252.296L424.094 252.18C427.489 251.791 430.773 253.072 433.166 255.414H433.167C436.052 258.246 436.686 261.341 436.621 264.832C436.589 266.57 436.384 268.417 436.196 270.377C436.013 272.286 435.847 274.312 435.867 276.48L450.54 280.439H450.541C456.198 281.977 459.796 287.453 458.988 293.24L458.987 293.241L455.721 316.356L455.722 316.357C455.456 318.555 455.418 322.429 456.042 326.144C456.354 328.001 456.831 329.809 457.521 331.343C458.213 332.88 459.112 334.124 460.258 334.88C462.147 336.124 470.578 339.434 495.447 324.921C500.975 321.687 508.041 323.566 511.273 329.092H511.274C514.481 334.619 512.63 341.71 507.102 344.918L507.103 344.919C498.023 350.218 487.49 355.438 477.042 357.88C466.593 360.323 456.199 359.994 447.432 354.149C438.459 348.176 434.711 338.657 433.251 330.295C431.79 321.93 432.61 314.686 432.803 313.208L432.804 313.206L434.636 300.124L420.732 296.378C415.414 294.944 411.842 289.963 412.181 284.463L412.727 275.677C402.617 275.268 390.298 272.701 384.44 262.873L384.165 262.395C380.445 255.807 381.096 248.916 382.808 243.498C384.508 238.115 387.263 234.158 387.87 233.333C402.851 207.343 395.056 182.034 394.688 180.844L394.312 179.781C386.556 157.544 386.465 141.775 388.582 131.274C390.733 120.607 395.159 115.392 396.117 114.369Z" fill="black" stroke="black" stroke-width="0.489995"/>
<path d="M394.331 112.694C399.594 107.005 408.495 106.74 414.137 112.004C419.696 117.19 420.078 125.835 415.093 131.522C415.063 131.58 415.031 131.642 414.995 131.717C414.852 132.011 414.636 132.5 414.398 133.192C413.923 134.576 413.345 136.816 413.09 140.042C412.612 146.096 413.263 155.689 417.91 169.678H417.911L418.896 172.539L418.9 172.551V172.552L418.906 172.573C419.551 174.479 430.961 209.884 409.345 247.165L409.346 247.166L409.303 247.243L409.293 247.259L409.246 247.33L409.244 247.332C408.738 248.074 408.309 248.828 407.956 249.518C408.286 249.589 408.651 249.664 409.069 249.727C411.373 250.08 415.338 250.363 422.366 249.856L423.812 249.745C427.625 249.307 431.273 250.582 434.058 252.92L434.326 253.15L434.33 253.153L434.875 253.656L434.954 253.728V253.739C438.423 257.189 439.14 261.02 439.069 264.88C439.034 266.738 438.814 268.716 438.632 270.612C438.507 271.922 438.396 273.244 438.344 274.609L451.147 278.067H451.15L451.181 278.075C457.603 279.821 461.837 285.763 461.535 292.272V292.283L461.291 292.261L461.534 292.283L461.415 293.57L461.414 293.582L461.17 293.548L461.413 293.582L458.167 316.529L458.169 316.532L458.155 316.651C457.917 318.625 457.875 322.264 458.459 325.739C458.75 327.468 459.181 329.059 459.757 330.341L459.98 330.804C460.505 331.83 461.068 332.479 461.607 332.835H461.606C462.238 333.25 469.489 337.235 494.212 322.807L494.508 322.64C500.646 319.243 508.236 320.943 512.404 326.389L512.603 326.655L512.61 326.666L513.367 327.827L513.375 327.836L513.392 327.863C517.218 334.457 515.098 342.903 508.603 346.869L508.611 346.877L508.336 347.037C499.183 352.379 488.402 357.74 477.601 360.266C466.787 362.793 455.612 362.548 446.072 356.187C436.315 349.692 432.354 339.413 430.835 330.718C429.319 322.033 430.162 314.53 430.373 312.907V312.882L430.375 312.865L431.91 301.925L420.093 298.742C413.649 297.004 409.325 290.971 409.735 284.311L410.125 277.973C400.155 277.225 387.952 274.146 382.027 263.594L381.995 263.537V263.529C377.862 256.155 378.649 248.526 380.47 242.762C382.207 237.264 384.964 233.175 385.798 232.017C399.897 207.47 392.947 183.546 392.371 181.653L392.34 181.567C384.126 158.48 383.927 141.951 386.177 130.791C388.29 120.312 392.534 114.722 394.062 112.99L394.331 112.694ZM411.702 113.778C407.221 110.004 400.488 110.351 396.474 114.703L396.473 114.704C395.566 115.673 391.189 120.81 389.059 131.376C386.963 141.777 387.042 157.455 394.773 179.62L395.147 180.681L395.15 180.69L395.294 181.176C396.389 184.977 402.479 208.975 388.291 233.584L388.284 233.596L388.275 233.606C387.709 234.373 384.964 238.299 383.275 243.645C381.587 248.991 380.963 255.729 384.592 262.156V262.157C390.239 272.214 402.691 274.818 412.994 275.201L413.245 275.21L413.229 275.461L412.669 284.495L412.65 285.474C412.776 290.344 416.083 294.617 420.858 295.905L434.973 299.709L435.182 299.766L435.153 299.979L433.287 313.272C433.096 314.734 432.285 321.919 433.733 330.21C435.182 338.506 438.888 347.873 447.703 353.741C456.315 359.483 466.553 359.829 476.929 357.403C487.306 354.977 497.79 349.785 506.855 344.494V344.493C512.147 341.422 513.92 334.633 510.848 329.339C507.751 324.046 500.986 322.25 495.694 325.346L495.692 325.347L493.405 326.653L493.404 326.654C471.758 338.832 463.188 336.978 460.469 335.568L460.46 335.563L460 335.3L459.994 335.296L459.988 335.292C458.735 334.466 457.787 333.13 457.074 331.547C456.36 329.962 455.875 328.11 455.558 326.228C454.925 322.466 454.962 318.544 455.233 316.301L455.234 316.296L458.501 293.174L458.562 292.655C459.042 287.479 455.876 282.66 450.914 281.061L450.412 280.912L435.559 276.907L435.38 276.859L435.377 276.674C435.345 274.408 435.519 272.299 435.708 270.331C435.896 268.359 436.099 266.537 436.131 264.823C436.195 261.41 435.579 258.468 432.824 255.763V255.762C430.524 253.512 427.379 252.295 424.143 252.668L424.132 252.669L421.247 252.88H421.245C414.415 253.3 410.506 252.959 408.13 252.551C406.943 252.347 406.141 252.127 405.562 251.981C404.968 251.832 404.657 251.777 404.392 251.844L404.064 251.926L404.088 251.589C404.125 251.078 404.353 250.325 404.719 249.46C405.088 248.588 405.606 247.582 406.24 246.558L406.243 246.554L406.8 245.693C427.775 209.521 416.675 175.153 416.121 173.516V173.515C410.507 157.751 409.623 146.888 410.152 139.936C410.416 136.46 411.034 133.963 411.59 132.322C411.868 131.502 412.13 130.896 412.325 130.489C412.422 130.286 412.501 130.133 412.557 130.028C412.582 129.981 412.61 129.931 412.621 129.91C412.628 129.896 412.632 129.889 412.634 129.885C412.634 129.885 412.633 129.887 412.632 129.89C412.631 129.892 412.629 129.896 412.626 129.903C412.625 129.908 412.62 129.926 412.617 129.949L412.815 129.961L412.68 129.836C416.587 125.624 416.612 119.198 412.923 114.975L412.128 114.156L411.702 113.778Z" fill="black" stroke="black" stroke-width="0.489995"/>
</g>
<defs>
<clipPath id="clip0_68_1059">
<rect width="1000" height="1000" fill="white"/>
</clipPath>
</defs>
</svg>
