<svg width="1000" height="1000" viewBox="0 0 1000 1000" fill="none" xmlns="http://www.w3.org/2000/svg">
<mask id="path-1-outside-1_79_1124" maskUnits="userSpaceOnUse" x="39" y="2" width="923" height="996" fill="black">
<rect fill="white" x="39" y="2" width="923" height="996"/>
<path d="M338.402 109.232C304.576 109.232 272.203 121.821 247.292 144.666C225.098 165.023 210.519 191.886 205.583 221.235C147.113 235.967 103.681 288.927 103.681 351.835C103.681 362.397 104.906 372.805 107.24 382.831C70.5818 411.453 49 455.344 49 502.143C49 540.064 63.4261 576.799 88.9875 604.579C72.0359 629.222 62.0868 659.07 62.0868 691.174C62.0868 771.8 124.728 838.076 203.975 843.969C203.784 846.992 203.669 849.977 203.669 853C203.669 927.196 264.129 987.579 338.402 987.579C374.257 987.579 408.084 973.345 433.722 947.554C459.13 921.916 473.135 888.357 473.135 853V243.812C473.135 170.839 411.451 109.232 338.402 109.232ZM445.469 853C445.469 910.972 396.451 959.913 338.402 959.913C279.359 959.913 231.335 911.967 231.335 853C231.335 849.862 231.488 846.686 231.756 843.548C266.54 839.913 298.759 824.645 323.861 799.619C329.257 794.262 329.295 785.499 323.9 780.104C318.466 774.67 309.703 774.67 304.308 780.065C280.583 803.752 249.014 816.762 215.493 816.762C146.156 816.762 89.7528 760.435 89.7528 691.174C89.7528 621.952 146.156 565.587 215.493 565.587C223.147 565.587 229.346 559.388 229.346 551.773C229.346 544.12 223.147 537.959 215.493 537.959C173.095 537.959 134.677 555.217 106.858 583.074C87.5334 560.727 76.666 531.875 76.666 502.143C76.666 467.053 91.5513 433.953 117.113 410.65C126.067 429.094 139.307 445.433 156.182 458.443C162.228 463.112 170.914 462.002 175.582 455.956C180.251 449.91 179.141 441.224 173.095 436.555C155.723 423.162 143.21 405.292 136.628 385.165C136.475 384.514 136.284 383.864 136.016 383.213C132.955 373.188 131.347 362.665 131.347 351.835C131.347 299.412 169.307 255.674 219.205 246.567C220.009 246.49 220.736 246.376 221.463 246.184C227.011 245.304 232.713 244.845 238.491 244.845C267.343 244.845 294.435 256.133 314.716 276.644C320.073 282.077 328.836 282.116 334.27 276.759C339.703 271.401 339.78 262.639 334.385 257.205C308.861 231.414 274.805 217.179 238.491 217.179C237.19 217.179 235.927 217.217 234.664 217.256C246.45 170.419 288.428 136.86 338.402 136.86C395.456 136.86 445.469 186.834 445.469 243.812V853ZM951.646 502.143C951.646 455.344 930.026 411.453 893.368 382.831C895.702 372.805 896.926 362.397 896.926 351.835C896.926 325.279 889.35 299.986 874.962 278.098L935.23 202.791C938.559 198.659 939.21 192.957 936.914 188.174C934.618 183.391 929.758 180.329 924.439 180.329H804.247L848.674 29.7544C850.549 23.4023 847.64 16.6293 841.786 13.568C835.931 10.5068 828.737 12.0374 824.604 17.2033L734.145 130.01C712.678 116.388 688.073 109.232 662.206 109.232C589.195 109.232 527.472 170.839 527.472 243.812V853C527.472 888.357 541.478 921.916 566.886 947.554C592.524 973.345 626.389 987.579 662.206 987.579C736.517 987.579 796.939 927.196 796.939 853C796.939 850.015 796.862 846.992 796.632 843.969C875.88 838.076 938.521 771.8 938.521 691.174C938.521 659.07 928.61 629.222 911.62 604.579C937.182 576.799 951.646 540.064 951.646 502.143ZM774.668 202.447C777.27 205.929 781.364 207.995 785.727 207.995H895.625L757.64 380.382L787.525 279.59C788.788 275.381 787.984 270.866 785.344 267.383C782.742 263.901 778.648 261.835 774.247 261.835H664.004L802.219 89.3338L772.449 190.278C771.224 194.449 772.028 198.965 774.668 202.447ZM785.114 816.762C751.594 816.762 720.063 803.752 696.3 780.065C690.905 774.67 682.142 774.67 676.746 780.104C671.351 785.499 671.351 794.262 676.746 799.619C701.849 824.645 734.068 839.913 768.852 843.548C769.119 846.686 769.273 849.862 769.273 853C769.273 911.967 721.249 959.913 662.206 959.913C604.195 959.913 555.138 910.972 555.138 853V243.812C555.138 186.834 605.19 136.86 662.206 136.86C681.721 136.86 700.318 141.987 716.734 151.783L624.361 267.001C621.07 271.172 620.42 276.835 622.715 281.656C625.011 286.44 629.871 289.463 635.19 289.463H755.726L710.994 440.267C709.119 446.619 711.989 453.392 717.844 456.454C719.872 457.525 722.091 458.022 724.272 458.022C728.367 458.022 732.385 456.224 735.063 452.857L856.518 301.134C864.898 316.593 869.26 333.851 869.26 351.835C869.26 362.665 867.653 373.188 864.592 383.213C864.362 383.864 864.133 384.514 863.98 385.165C857.436 405.292 844.924 423.162 827.551 436.555C821.505 441.224 820.357 449.91 825.025 455.956C829.732 462.002 838.418 463.112 844.464 458.443C861.301 445.433 874.541 429.094 883.495 410.65C909.095 433.953 923.942 467.053 923.942 502.143C923.942 531.875 913.074 560.727 893.75 583.074C865.97 555.217 827.513 537.959 785.114 537.959C777.5 537.959 771.301 544.12 771.301 551.773C771.301 559.388 777.5 565.587 785.114 565.587C854.452 565.587 910.855 621.914 910.855 691.174C910.855 760.435 854.452 816.762 785.114 816.762Z"/>
</mask>
<path d="M338.402 109.232C304.576 109.232 272.203 121.821 247.292 144.666C225.098 165.023 210.519 191.886 205.583 221.235C147.113 235.967 103.681 288.927 103.681 351.835C103.681 362.397 104.906 372.805 107.24 382.831C70.5818 411.453 49 455.344 49 502.143C49 540.064 63.4261 576.799 88.9875 604.579C72.0359 629.222 62.0868 659.07 62.0868 691.174C62.0868 771.8 124.728 838.076 203.975 843.969C203.784 846.992 203.669 849.977 203.669 853C203.669 927.196 264.129 987.579 338.402 987.579C374.257 987.579 408.084 973.345 433.722 947.554C459.13 921.916 473.135 888.357 473.135 853V243.812C473.135 170.839 411.451 109.232 338.402 109.232ZM445.469 853C445.469 910.972 396.451 959.913 338.402 959.913C279.359 959.913 231.335 911.967 231.335 853C231.335 849.862 231.488 846.686 231.756 843.548C266.54 839.913 298.759 824.645 323.861 799.619C329.257 794.262 329.295 785.499 323.9 780.104C318.466 774.67 309.703 774.67 304.308 780.065C280.583 803.752 249.014 816.762 215.493 816.762C146.156 816.762 89.7528 760.435 89.7528 691.174C89.7528 621.952 146.156 565.587 215.493 565.587C223.147 565.587 229.346 559.388 229.346 551.773C229.346 544.12 223.147 537.959 215.493 537.959C173.095 537.959 134.677 555.217 106.858 583.074C87.5334 560.727 76.666 531.875 76.666 502.143C76.666 467.053 91.5513 433.953 117.113 410.65C126.067 429.094 139.307 445.433 156.182 458.443C162.228 463.112 170.914 462.002 175.582 455.956C180.251 449.91 179.141 441.224 173.095 436.555C155.723 423.162 143.21 405.292 136.628 385.165C136.475 384.514 136.284 383.864 136.016 383.213C132.955 373.188 131.347 362.665 131.347 351.835C131.347 299.412 169.307 255.674 219.205 246.567C220.009 246.49 220.736 246.376 221.463 246.184C227.011 245.304 232.713 244.845 238.491 244.845C267.343 244.845 294.435 256.133 314.716 276.644C320.073 282.077 328.836 282.116 334.27 276.759C339.703 271.401 339.78 262.639 334.385 257.205C308.861 231.414 274.805 217.179 238.491 217.179C237.19 217.179 235.927 217.217 234.664 217.256C246.45 170.419 288.428 136.86 338.402 136.86C395.456 136.86 445.469 186.834 445.469 243.812V853ZM951.646 502.143C951.646 455.344 930.026 411.453 893.368 382.831C895.702 372.805 896.926 362.397 896.926 351.835C896.926 325.279 889.35 299.986 874.962 278.098L935.23 202.791C938.559 198.659 939.21 192.957 936.914 188.174C934.618 183.391 929.758 180.329 924.439 180.329H804.247L848.674 29.7544C850.549 23.4023 847.64 16.6293 841.786 13.568C835.931 10.5068 828.737 12.0374 824.604 17.2033L734.145 130.01C712.678 116.388 688.073 109.232 662.206 109.232C589.195 109.232 527.472 170.839 527.472 243.812V853C527.472 888.357 541.478 921.916 566.886 947.554C592.524 973.345 626.389 987.579 662.206 987.579C736.517 987.579 796.939 927.196 796.939 853C796.939 850.015 796.862 846.992 796.632 843.969C875.88 838.076 938.521 771.8 938.521 691.174C938.521 659.07 928.61 629.222 911.62 604.579C937.182 576.799 951.646 540.064 951.646 502.143ZM774.668 202.447C777.27 205.929 781.364 207.995 785.727 207.995H895.625L757.64 380.382L787.525 279.59C788.788 275.381 787.984 270.866 785.344 267.383C782.742 263.901 778.648 261.835 774.247 261.835H664.004L802.219 89.3338L772.449 190.278C771.224 194.449 772.028 198.965 774.668 202.447ZM785.114 816.762C751.594 816.762 720.063 803.752 696.3 780.065C690.905 774.67 682.142 774.67 676.746 780.104C671.351 785.499 671.351 794.262 676.746 799.619C701.849 824.645 734.068 839.913 768.852 843.548C769.119 846.686 769.273 849.862 769.273 853C769.273 911.967 721.249 959.913 662.206 959.913C604.195 959.913 555.138 910.972 555.138 853V243.812C555.138 186.834 605.19 136.86 662.206 136.86C681.721 136.86 700.318 141.987 716.734 151.783L624.361 267.001C621.07 271.172 620.42 276.835 622.715 281.656C625.011 286.44 629.871 289.463 635.19 289.463H755.726L710.994 440.267C709.119 446.619 711.989 453.392 717.844 456.454C719.872 457.525 722.091 458.022 724.272 458.022C728.367 458.022 732.385 456.224 735.063 452.857L856.518 301.134C864.898 316.593 869.26 333.851 869.26 351.835C869.26 362.665 867.653 373.188 864.592 383.213C864.362 383.864 864.133 384.514 863.98 385.165C857.436 405.292 844.924 423.162 827.551 436.555C821.505 441.224 820.357 449.91 825.025 455.956C829.732 462.002 838.418 463.112 844.464 458.443C861.301 445.433 874.541 429.094 883.495 410.65C909.095 433.953 923.942 467.053 923.942 502.143C923.942 531.875 913.074 560.727 893.75 583.074C865.97 555.217 827.513 537.959 785.114 537.959C777.5 537.959 771.301 544.12 771.301 551.773C771.301 559.388 777.5 565.587 785.114 565.587C854.452 565.587 910.855 621.914 910.855 691.174C910.855 760.435 854.452 816.762 785.114 816.762Z" fill="black"/>
<path d="M338.402 109.232C304.576 109.232 272.203 121.821 247.292 144.666C225.098 165.023 210.519 191.886 205.583 221.235C147.113 235.967 103.681 288.927 103.681 351.835C103.681 362.397 104.906 372.805 107.24 382.831C70.5818 411.453 49 455.344 49 502.143C49 540.064 63.4261 576.799 88.9875 604.579C72.0359 629.222 62.0868 659.07 62.0868 691.174C62.0868 771.8 124.728 838.076 203.975 843.969C203.784 846.992 203.669 849.977 203.669 853C203.669 927.196 264.129 987.579 338.402 987.579C374.257 987.579 408.084 973.345 433.722 947.554C459.13 921.916 473.135 888.357 473.135 853V243.812C473.135 170.839 411.451 109.232 338.402 109.232ZM445.469 853C445.469 910.972 396.451 959.913 338.402 959.913C279.359 959.913 231.335 911.967 231.335 853C231.335 849.862 231.488 846.686 231.756 843.548C266.54 839.913 298.759 824.645 323.861 799.619C329.257 794.262 329.295 785.499 323.9 780.104C318.466 774.67 309.703 774.67 304.308 780.065C280.583 803.752 249.014 816.762 215.493 816.762C146.156 816.762 89.7528 760.435 89.7528 691.174C89.7528 621.952 146.156 565.587 215.493 565.587C223.147 565.587 229.346 559.388 229.346 551.773C229.346 544.12 223.147 537.959 215.493 537.959C173.095 537.959 134.677 555.217 106.858 583.074C87.5334 560.727 76.666 531.875 76.666 502.143C76.666 467.053 91.5513 433.953 117.113 410.65C126.067 429.094 139.307 445.433 156.182 458.443C162.228 463.112 170.914 462.002 175.582 455.956C180.251 449.91 179.141 441.224 173.095 436.555C155.723 423.162 143.21 405.292 136.628 385.165C136.475 384.514 136.284 383.864 136.016 383.213C132.955 373.188 131.347 362.665 131.347 351.835C131.347 299.412 169.307 255.674 219.205 246.567C220.009 246.49 220.736 246.376 221.463 246.184C227.011 245.304 232.713 244.845 238.491 244.845C267.343 244.845 294.435 256.133 314.716 276.644C320.073 282.077 328.836 282.116 334.27 276.759C339.703 271.401 339.78 262.639 334.385 257.205C308.861 231.414 274.805 217.179 238.491 217.179C237.19 217.179 235.927 217.217 234.664 217.256C246.45 170.419 288.428 136.86 338.402 136.86C395.456 136.86 445.469 186.834 445.469 243.812V853ZM951.646 502.143C951.646 455.344 930.026 411.453 893.368 382.831C895.702 372.805 896.926 362.397 896.926 351.835C896.926 325.279 889.35 299.986 874.962 278.098L935.23 202.791C938.559 198.659 939.21 192.957 936.914 188.174C934.618 183.391 929.758 180.329 924.439 180.329H804.247L848.674 29.7544C850.549 23.4023 847.64 16.6293 841.786 13.568C835.931 10.5068 828.737 12.0374 824.604 17.2033L734.145 130.01C712.678 116.388 688.073 109.232 662.206 109.232C589.195 109.232 527.472 170.839 527.472 243.812V853C527.472 888.357 541.478 921.916 566.886 947.554C592.524 973.345 626.389 987.579 662.206 987.579C736.517 987.579 796.939 927.196 796.939 853C796.939 850.015 796.862 846.992 796.632 843.969C875.88 838.076 938.521 771.8 938.521 691.174C938.521 659.07 928.61 629.222 911.62 604.579C937.182 576.799 951.646 540.064 951.646 502.143ZM774.668 202.447C777.27 205.929 781.364 207.995 785.727 207.995H895.625L757.64 380.382L787.525 279.59C788.788 275.381 787.984 270.866 785.344 267.383C782.742 263.901 778.648 261.835 774.247 261.835H664.004L802.219 89.3338L772.449 190.278C771.224 194.449 772.028 198.965 774.668 202.447ZM785.114 816.762C751.594 816.762 720.063 803.752 696.3 780.065C690.905 774.67 682.142 774.67 676.746 780.104C671.351 785.499 671.351 794.262 676.746 799.619C701.849 824.645 734.068 839.913 768.852 843.548C769.119 846.686 769.273 849.862 769.273 853C769.273 911.967 721.249 959.913 662.206 959.913C604.195 959.913 555.138 910.972 555.138 853V243.812C555.138 186.834 605.19 136.86 662.206 136.86C681.721 136.86 700.318 141.987 716.734 151.783L624.361 267.001C621.07 271.172 620.42 276.835 622.715 281.656C625.011 286.44 629.871 289.463 635.19 289.463H755.726L710.994 440.267C709.119 446.619 711.989 453.392 717.844 456.454C719.872 457.525 722.091 458.022 724.272 458.022C728.367 458.022 732.385 456.224 735.063 452.857L856.518 301.134C864.898 316.593 869.26 333.851 869.26 351.835C869.26 362.665 867.653 373.188 864.592 383.213C864.362 383.864 864.133 384.514 863.98 385.165C857.436 405.292 844.924 423.162 827.551 436.555C821.505 441.224 820.357 449.91 825.025 455.956C829.732 462.002 838.418 463.112 844.464 458.443C861.301 445.433 874.541 429.094 883.495 410.65C909.095 433.953 923.942 467.053 923.942 502.143C923.942 531.875 913.074 560.727 893.75 583.074C865.97 555.217 827.513 537.959 785.114 537.959C777.5 537.959 771.301 544.12 771.301 551.773C771.301 559.388 777.5 565.587 785.114 565.587C854.452 565.587 910.855 621.914 910.855 691.174C910.855 760.435 854.452 816.762 785.114 816.762Z" stroke="black" stroke-width="19.543" mask="url(#path-1-outside-1_79_1124)"/>
</svg>
