<svg width="38" height="69" viewBox="0 0 38 69" fill="none" xmlns="http://www.w3.org/2000/svg">
<g clip-path="url(#clip0_744_3509)">
<path d="M12.0418 27.4084L7.68896 30.9625C6.98997 33.2678 6.92642 36.1815 6.22743 38.4228C5.08361 42.0409 0.254181 41.3365 0 37.6544C1.01672 33.7801 0.508361 27.4725 3.46321 24.5588C4.89298 23.15 10.7709 18.8595 12.5184 18.1551C16.7441 16.4261 22.8763 16.7463 24.6237 21.7411C25.7676 25.007 24.6873 32.5634 25.005 36.4377C25.291 40.1198 28.9766 42.3291 31.2642 44.8906C36.1572 50.3978 35.8712 58.7226 37.9682 65.5425C37.7776 69.2567 33.2659 70.3773 31.5502 66.9193C29.5485 62.853 28.5635 57.4739 26.5936 53.2794C22.8763 49.7574 18.3328 46.8117 14.6154 43.3537C10.898 39.8957 11.6923 36.8539 11.8512 32.1152C11.9147 30.5463 11.8194 28.9773 12.01 27.4084H12.0418Z" fill="white"/>
<path d="M11.1206 43.1289L12.8045 44.8899L18.5554 49.5646C18.746 49.7247 18.746 49.8208 18.7142 50.0449C18.6189 50.8774 17.5069 53.727 17.1256 54.6236C15.0286 59.3623 9.08715 64.069 5.94167 68.2955C3.49518 70.1846 0.317921 67.9753 0.953372 64.9656C1.08046 64.3892 1.52528 63.8769 1.843 63.3967C4.48013 59.2342 7.81625 55.328 10.4534 51.1335L11.1206 43.1289Z" fill="white"/>
<path d="M18.5868 0.0322179C27.7056 -0.89632 29.7073 12.5515 21.0651 14.5366C10.9297 16.906 8.51494 1.08883 18.5868 0.0322179Z" fill="white"/>
<path d="M27.3245 26.1914L29.2626 28.7849C31.2007 30.3218 35.2994 31.5705 36.9516 33.2035C38.9215 35.1246 37.5552 38.5186 34.8863 38.5186C34.3144 38.5186 28.373 36.5654 27.7057 36.2132C27.5786 36.1492 27.4198 36.1172 27.3245 35.9571V26.1914Z" fill="white"/>
</g>
<defs>
<clipPath id="clip0_744_3509">
<rect width="38" height="69" fill="white"/>
</clipPath>
</defs>
</svg>
