<svg width="34" height="34" viewBox="0 0 34 34" fill="none" xmlns="http://www.w3.org/2000/svg">
<path fill-rule="evenodd" clip-rule="evenodd" d="M17 34C3.0005 34 6.11938e-07 30.9995 0 17C-6.11938e-07 3.0005 3.0005 6.11938e-07 17 0C30.9995 -6.11938e-07 34 3.0005 34 17C34 30.9995 30.9995 34 17 34ZM17 31.1667C13.5648 31.1667 10.9977 30.9789 9.0524 30.5466C7.13928 30.1214 6.0056 29.4983 5.25366 28.7463C4.50172 27.9944 3.8786 26.8607 3.45342 24.9476C3.0211 23.0023 2.83333 20.4352 2.83333 17C2.83333 13.5648 3.0211 10.9977 3.45342 9.0524C3.8786 7.13928 4.50171 6.0056 5.25366 5.25366C6.0056 4.50172 7.13928 3.8786 9.0524 3.45342C10.9977 3.0211 13.5648 2.83333 17 2.83333C20.4352 2.83333 23.0023 3.0211 24.9476 3.45342C26.8607 3.8786 27.9944 4.50172 28.7463 5.25366C29.4983 6.0056 30.1214 7.13928 30.5466 9.0524C30.9789 10.9977 31.1667 13.5648 31.1667 17C31.1667 20.4352 30.9789 23.0023 30.5466 24.9476C30.1214 26.8607 29.4983 27.9944 28.7463 28.7463C27.9944 29.4983 26.8607 30.1214 24.9476 30.5466C23.0023 30.9789 20.4352 31.1667 17 31.1667Z" fill="#5FC1A3"/>
<path d="M20.8351 15.9982C21.3883 16.5515 21.3883 17.4485 20.8351 18.0017L15.1684 23.6684C14.6152 24.2216 13.7182 24.2216 13.1649 23.6684C12.6117 23.1151 12.6117 22.2181 13.1649 21.6649L17.8299 17L13.1649 12.335C12.6117 11.7818 12.6117 10.8848 13.1649 10.3316C13.7182 9.77832 14.6152 9.77832 15.1684 10.3316L20.8351 15.9982Z" fill="#5FC1A3"/>
</svg>
