<svg width="194" height="67" viewBox="0 0 194 67" fill="none" xmlns="http://www.w3.org/2000/svg">
<path d="M65.3846 43.8033C65.3846 48.1891 61.9169 51.7468 57.6409 51.7468H50.4952V59.0607C50.4952 63.4466 47.0274 66.9958 42.7515 66.9958C38.4756 66.9958 35.0078 63.4423 35.0078 59.0607V52.0045C42.3515 49.3722 48.1861 43.3935 50.7549 35.8683H57.6409C61.921 35.8683 65.3846 39.4217 65.3846 43.8033Z" fill="#5FC1A3"/>
<path d="M52.1894 13.6349V27.2022C52.1894 30.236 51.6822 33.1556 50.7503 35.8683H49.9257C41.6954 35.8683 35.0032 42.7259 35.0032 51.1679V52.0045C32.356 52.9594 29.5068 53.4792 26.5462 53.4792H13.3061C5.95413 53.4792 0 47.3779 0 39.8442C0 32.3106 5.95413 26.2093 13.3061 26.2093H25.5731V13.6391C25.5772 6.10973 31.5313 0 38.8833 0C46.2352 0 52.1894 6.10973 52.1894 13.6349Z" fill="#157DC1"/>
<path d="M50.75 35.8683C48.1812 43.3935 42.3466 49.3722 35.0029 52.0045V51.1679C35.0029 42.7259 41.6951 35.8683 49.9254 35.8683H50.75Z" fill="#17624D"/>
<path d="M76.5956 36.2823V13.5927H82.4136C87.5761 13.5927 90.0748 15.6757 90.0748 19.5207C90.0748 21.701 88.7925 23.5601 86.6978 24.1981V24.3248C89.3862 24.8699 91.2335 26.9192 91.2335 29.805C91.2335 34.0979 88.5121 36.2781 82.5373 36.2781H76.5956V36.2823ZM79.6592 23.3657H82.5662C85.6298 23.3657 87.1019 22.1488 87.1019 19.6813C87.1019 17.4377 85.6628 16.2842 82.2239 16.2842H79.6592V23.3657ZM79.6592 33.5908H82.4136C86.5411 33.5908 88.1368 32.374 88.1368 29.712C88.1368 27.0501 86.4793 25.7699 82.727 25.7699H79.6633V33.5908H79.6592Z" fill="#157DC1"/>
<path d="M95.1221 13.5927H98.1858V33.4303H108.507L108.16 36.2823H95.118V13.5927H95.1221Z" fill="#157DC1"/>
<path d="M109.129 24.9375C109.129 18.2067 114.04 12.9842 120.984 12.9842C127.927 12.9842 132.805 18.2067 132.805 24.9375C132.805 31.6683 127.832 36.8908 120.984 36.8908C114.135 36.8908 109.129 31.6683 109.129 24.9375ZM129.581 24.9375C129.581 19.808 126.047 15.9335 120.979 15.9335C115.912 15.9335 112.345 19.8123 112.345 24.9375C112.345 30.0627 115.941 33.9415 120.979 33.9415C126.018 33.9415 129.581 29.9994 129.581 24.9375Z" fill="#157DC1"/>
<path d="M135.687 24.9375C135.687 18.2067 140.598 12.9842 147.542 12.9842C154.486 12.9842 159.364 18.2067 159.364 24.9375C159.364 31.6683 154.391 36.8908 147.542 36.8908C140.693 36.8908 135.687 31.6683 135.687 24.9375ZM156.139 24.9375C156.139 19.808 152.606 15.9335 147.538 15.9335C142.47 15.9335 138.904 19.8123 138.904 24.9375C138.904 30.0627 142.499 33.9415 147.538 33.9415C152.577 33.9415 156.139 29.9994 156.139 24.9375Z" fill="#157DC1"/>
<path d="M174.781 28.4952H174.843L182.1 13.5927H186.166V36.2823H183.164V17.6616H183.102L175.066 33.8148H174.505L166.435 17.6616H166.373L166.406 36.2823H163.372V13.5927H167.47L174.789 28.4952H174.781Z" fill="#157DC1"/>
<path d="M76.5956 58.4988V40.3386H79.049V48.1638H88.3348V40.3386H90.7882V58.4988H88.3348V50.4454H79.049V58.4988H76.5956Z" fill="#5FC1A3"/>
<path d="M94.9696 40.3344H105.307L105.558 42.5907H97.423V48.0793H104.932V50.3102H97.423V56.234H105.558L105.307 58.4903H94.9696V40.3301V40.3344Z" fill="#5FC1A3"/>
<path d="M121.788 58.4988L120.011 53.9566H111.723L109.97 58.4988H107.265L114.799 40.3386H117.001L124.485 58.4988H121.78H121.788ZM112.547 51.8778H119.182L117.054 46.4906C116.605 45.3117 116.205 44.2596 115.879 43.2329H115.83C115.479 44.2596 115.104 45.3117 114.63 46.4906L112.552 51.8778H112.547Z" fill="#5FC1A3"/>
<path d="M126.567 40.3344H129.02V56.2129H137.279L137.003 58.4946H126.562V40.3344H126.567Z" fill="#5FC1A3"/>
<path d="M141.489 42.6202H135.481V40.3386H149.95V42.6202H143.942V58.4988H141.489V42.6202Z" fill="#5FC1A3"/>
<path d="M152.206 58.4988V40.3386H154.659V48.1638H163.945V40.3386H166.399V58.4988H163.945V50.4454H154.659V58.4988H152.206Z" fill="#5FC1A3"/>
</svg>
