<svg width="76" height="62" viewBox="0 0 76 62" fill="none" xmlns="http://www.w3.org/2000/svg">
<rect width="76" height="62" fill="#FE5A58"/>
<path d="M34 37C34 37.3294 34 41.2086 34 44.4935C34 46.3589 34.491 48.2166 35.6053 49.7125C41.7672 57.9851 48.7301 58.3219 53.9332 49.3666C54.688 48.0674 55 46.5666 55 45.0641V38.6337" stroke="#742F40" stroke-width="2"/>
<path d="M16.5 30.5217C21.1176 34.2197 23.5115 35.4054 28.5 36.0217M41 29.2717C36.7677 31.9002 34.2109 33.2239 29.5 33.0217M41 15.5217V24.0217V34.0646C41 34.3549 40.8741 34.6318 40.6521 34.8189C37.3582 37.5953 34.9498 38.4999 29.5 38.0217" stroke="white" stroke-width="2"/>
<path d="M29 17.5214C35.1517 17.9998 41.5417 17.2037 41.5 13.5214C41.4583 9.8392 23.5 5.52173 16 13.5214M16 13.5214C19.5 22.0217 29 19.5224 29 21.022C29 22.302 29 35.6017 29 39.4714C29 40.0461 28.516 40.4958 27.943 40.4516C23.1621 40.0823 20.4631 39.1081 16.8132 35.8087C16.6124 35.6272 16.4965 35.3693 16.4904 35.0988L16 13.5214Z" stroke="#742F40" stroke-width="2" stroke-linecap="round"/>
<path d="M55 29.5217C57.1216 29.5217 59 31.4446 59 34.0217C59 36.5988 57.1216 38.5217 55 38.5217C52.8784 38.5217 51 36.5988 51 34.0217C51 31.4446 52.8784 29.5217 55 29.5217Z" stroke="#742F40" stroke-width="2"/>
<circle cx="55" cy="19" r="6" stroke="white" stroke-width="2"/>
<path d="M54.5 19.5L59 14.5" stroke="white" stroke-width="2" stroke-linecap="round"/>
</svg>
