<svg width="1080" height="1080" viewBox="0 0 1080 1080" fill="none" xmlns="http://www.w3.org/2000/svg">
<g clip-path="url(#clip0_325_1049)">
<path d="M954.432 120V960H114.432V120H954.432ZM954.432 0H114.432C47.8321 0 -5.56787 53.4 -5.56787 120V960C-5.56787 1026.6 47.8321 1080 114.432 1080H954.432C1021.03 1080 1074.43 1026.6 1074.43 960V120C1074.43 53.4 1021.03 0 954.432 0ZM534.432 180C567.432 180 594.432 207 594.432 240V300H784.632C795.432 318.6 804.432 339 814.032 360H594.432V420H834.432C840.432 439.8 844.632 460.2 845.832 480H594.432V540H846.432C844.032 561 843.432 581.4 840.432 600H594.432V660H834.432C834.432 660 830.832 840 744.432 840C663.432 840 684.432 748.2 594.432 720V840C594.432 873 567.432 900 534.432 900C501.432 900 474.432 873 474.432 840V720C384.432 748.2 405.432 840 324.432 840C238.032 840 234.432 660 234.432 660H474.432V600H228.432C225.432 581.4 224.832 561 222.432 540H474.432V480H223.032C224.232 460.2 229.032 439.8 234.432 420H474.432V360H254.832C264.432 339 273.432 318.6 284.232 300H474.432V240C474.432 207 501.432 180 534.432 180Z" fill="white" stroke="#3499B5" stroke-width="33.75"/>
</g>
<defs>
<clipPath id="clip0_325_1049">
<rect width="1080" height="1080" fill="white"/>
</clipPath>
</defs>
</svg>
