<svg width="42" height="60" viewBox="0 0 42 60" fill="none" xmlns="http://www.w3.org/2000/svg">
<path fill-rule="evenodd" clip-rule="evenodd" d="M27.7496 6.74999C27.7496 10.4779 24.7276 13.5 20.9996 13.5C17.2717 13.5 14.2496 10.4779 14.2496 6.74999C14.2496 3.02207 17.2717 0 20.9996 0C24.7276 0 27.7496 3.02207 27.7496 6.74999ZM29.9996 44.9999H22.8964L24.0119 57.2715C24.1571 58.8689 25.5332 60.0695 27.1355 59.9969C28.738 59.9241 29.9996 58.6038 29.9996 56.9999V44.9999ZM19.1029 44.9999H11.9996V56.9999C11.9996 58.6038 13.2614 59.9241 14.8637 59.9969C16.466 60.0695 17.8421 58.8689 17.9873 57.2715L19.1029 44.9999ZM38.9328 15H39.069C39.0237 14.9989 38.9784 14.9989 38.9328 15ZM2.93066 15C2.97551 14.9989 3.02036 14.9989 3.06536 15H2.93066Z" fill="black"/>
<path fill-rule="evenodd" clip-rule="evenodd" d="M1.5 16.5C0.671549 16.5 0 17.1715 0 18V40.5C0 41.3284 0.671549 41.9999 1.5 41.9999H40.4999C41.3284 41.9999 41.9999 41.3284 41.9999 40.5V18C41.9999 17.1715 41.3284 16.5 40.4999 16.5H1.5ZM19.5 19.5V21.75H18.75C17.3536 21.75 15.8386 22.2012 14.7687 22.5903C14.2132 22.7922 13.735 22.9936 13.3947 23.1448C13.224 23.2207 13.0867 23.2846 12.9901 23.3304C12.9418 23.3533 12.9037 23.3718 12.8766 23.385L12.8443 23.4009L12.8346 23.4057L12.8313 23.4073L12.8296 23.4081C12.8293 23.4082 12.8292 23.4084 13.5 24.75C14.1708 26.0916 14.1706 26.0917 14.1705 26.0917L14.173 26.0905L14.1919 26.0812C14.2098 26.0725 14.2383 26.0587 14.2764 26.0407C14.3527 26.0044 14.4673 25.951 14.6131 25.8864C14.9055 25.7563 15.318 25.5828 15.7938 25.4097C16.7863 25.0488 17.8963 24.75 18.75 24.75H19.5V27.75H18.3C16.504 27.75 14.6197 28.7037 13.36 29.4672C12.6918 29.8722 12.1182 30.2749 11.7118 30.5758C11.5078 30.727 11.344 30.8539 11.2294 30.9445C11.172 30.99 11.1268 31.0264 11.0949 31.0524L11.0569 31.0834L11.0457 31.0927L11.0421 31.0957L11.0407 31.0968C11.0404 31.0971 11.0397 31.0977 12 32.25C12.9603 33.4023 12.9601 33.4024 12.9598 33.4026L12.9639 33.3994L12.9873 33.3802C13.0095 33.3622 13.0441 33.3342 13.0905 33.2976C13.1832 33.2242 13.3218 33.1167 13.4976 32.9866C13.8505 32.725 14.3457 32.3778 14.9149 32.0328C16.1302 31.2963 17.3959 30.75 18.3 30.75H19.5V34.0017C18.4479 34.2975 17.4378 34.8154 16.6191 35.4024C16.0194 35.8324 15.4629 36.3414 15.0414 36.9009C14.6386 37.4358 14.25 38.1636 14.25 39H17.25C17.25 39.0064 17.2498 39.012 17.2497 39.0163C17.2495 39.0202 17.2492 39.0232 17.2492 39.0256C17.2489 39.0288 17.2489 39.0306 17.2491 39.0306C17.2492 39.0306 17.2498 39.0289 17.251 39.0256C17.2588 39.0022 17.2945 38.896 17.4378 38.7057C17.6334 38.446 17.9485 38.1408 18.3673 37.8405C19.2078 37.2378 20.2315 36.8196 21.048 36.7506C21.7405 36.7675 22.7217 37.1467 23.5864 37.7755C24.0106 38.0841 24.3388 38.4049 24.5461 38.6812C24.6979 38.8836 24.7381 38.9982 24.748 39.0261L24.7492 39.0297C24.7499 39.0318 24.7504 39.0328 24.7507 39.0328C24.7514 39.0327 24.7499 39.0217 24.7499 39H27.7499C27.7499 38.1568 27.3485 37.4178 26.9461 36.8812C26.5204 36.3138 25.958 35.7909 25.351 35.3494C24.5512 34.7677 23.5483 34.2385 22.5 33.9586V30.75H24.15C25.2733 30.75 26.4278 31.2994 27.3946 31.9779C27.8602 32.3046 28.2427 32.6334 28.5071 32.8795C28.6387 33.0018 28.739 33.1018 28.8038 33.1683C28.8361 33.2014 28.8595 33.226 28.8731 33.2407L28.8856 33.2541C28.8853 33.2538 28.885 33.2535 29.9999 32.25C31.1149 31.2465 31.1146 31.2462 31.1143 31.2459L31.112 31.2435L31.1083 31.2393L31.0976 31.2276L31.0645 31.1919C31.0372 31.1626 30.9994 31.1227 30.9518 31.074C30.8566 30.9763 30.7213 30.8419 30.5504 30.6829C30.2104 30.3666 29.7209 29.9454 29.1178 29.5221C27.947 28.7005 26.1766 27.75 24.15 27.75H22.5V24.75H23.625C24.6664 24.75 25.6789 25.0516 26.4647 25.3824C26.8504 25.5448 27.1637 25.7067 27.3763 25.8253C27.4822 25.8846 27.562 25.9323 27.6119 25.963C27.637 25.9783 27.6544 25.9894 27.664 25.9956L27.6685 25.9984C27.6682 25.9983 27.6679 25.9981 28.4999 24.75C29.332 23.5018 29.3317 23.5017 29.3312 23.5014L29.329 23.4999L29.3251 23.4973L29.3147 23.4906L29.2841 23.4708C29.2594 23.4549 29.2259 23.4337 29.1842 23.4081C29.101 23.3568 28.9844 23.2873 28.8383 23.2059C28.5472 23.0433 28.1338 22.8301 27.6289 22.6176C26.6335 22.1983 25.2085 21.75 23.625 21.75H22.5013L22.5 19.5H19.5Z" fill="url(#paint0_linear_3012_2882)"/>
<defs>
<linearGradient id="paint0_linear_3012_2882" x1="0" y1="29.25" x2="41.9999" y2="29.25" gradientUnits="userSpaceOnUse">
<stop stop-color="#5FC1A3"/>
<stop offset="1" stop-color="#00C4FF"/>
</linearGradient>
</defs>
</svg>
