<svg width="76" height="62" viewBox="0 0 76 62" fill="none" xmlns="http://www.w3.org/2000/svg">
<rect width="76" height="62" fill="#FE5A58"/>
<path d="M32 37.0037L38.5 52.0037L44 37.0037H50.5C54.7517 38.7972 55.8055 40.306 56.5 43.5037V54.0037" stroke="#742F40" stroke-width="2"/>
<path d="M20 53.5037V42.0037C21.7643 38.7057 23.3321 38.2526 26.5 37.0037L33 37" stroke="#742F40" stroke-width="2"/>
<path d="M32.5 32.5036H30.5C27.1863 32.5036 24.5 29.8174 24.5 26.5036V18.6103C24.5 17.5577 24.7666 16.513 25.3418 15.6315C32.6644 4.40748 44.3681 3.99349 51.2446 15.1901C51.7643 16.0362 52 17.0234 52 18.0163V26.5036C52 29.8173 49.3137 32.5036 46 32.5036H45" stroke="#742F40" stroke-width="2"/>
<path d="M43 18.0625L29.5 17.0037V29.3708C29.5 29.6368 29.6084 29.8949 29.7985 30.0809C36.1593 36.3036 40.7288 37.1512 47.2587 29.5773C47.413 29.3983 47.5 29.1649 47.5 28.9286V22.4117" stroke="#742F40" stroke-width="2"/>
<circle cx="1" cy="1" r="1" transform="matrix(-1 0 0 1 36 21.5037)" fill="#742F40"/>
<circle cx="1" cy="1" r="1" transform="matrix(-1 0 0 1 42 21.5037)" fill="#742F40"/>
<path d="M35.5 28.0037C37.5652 29.3218 38.7013 29.3631 41 28.0037" stroke="#742F40"/>
<path d="M49 44V52M45 48H53" stroke="white"/>
</svg>
