<svg width="76" height="62" viewBox="0 0 76 62" fill="none" xmlns="http://www.w3.org/2000/svg">
<rect width="76" height="62" fill="#FE5A58"/>
<path d="M16.9492 21.3225C19.2734 12.5058 29.5748 6.28469 39.3849 18.3274C50.4561 4.74499 62.1431 14.3938 62.2971 24.7978C62.2971 40.2865 43.7657 53 39.3849 53C36.7637 53 29.0835 48.4542 23.3317 41.4852" stroke="#742F40" stroke-width="0.960227" stroke-linecap="round" stroke-linejoin="round"/>
<g clip-path="url(#clip0_43_1575)">
<rect x="53" y="9" width="12" height="12" rx="6" fill="#FE5A58"/>
<path fill-rule="evenodd" clip-rule="evenodd" d="M52.9961 15C52.9961 11.6857 55.6827 8.99902 58.9971 8.99902C62.3114 8.99902 64.998 11.6857 64.998 15C64.998 18.3143 62.3114 21.001 58.9971 21.001C55.6827 21.001 52.9961 18.3143 52.9961 15ZM58.9971 10.1992C57.7238 10.1992 56.5027 10.705 55.6024 11.6053C54.7021 12.5057 54.1963 13.7268 54.1963 15C54.1963 16.2732 54.7021 17.4943 55.6024 18.3947C56.5027 19.295 57.7238 19.8008 58.9971 19.8008C60.2703 19.8008 61.4914 19.295 62.3917 18.3947C63.2921 17.4943 63.7979 16.2732 63.7979 15C63.7979 13.7268 63.2921 12.5057 62.3917 11.6053C61.4914 10.705 60.2703 10.1992 58.9971 10.1992Z" fill="white"/>
<path fill-rule="evenodd" clip-rule="evenodd" d="M59.5991 11.9998C59.5991 11.8406 59.5359 11.688 59.4234 11.5754C59.3108 11.4629 59.1582 11.3997 58.999 11.3997C58.8399 11.3997 58.6872 11.4629 58.5747 11.5754C58.4622 11.688 58.3989 11.8406 58.3989 11.9998V14.4001H55.9985C55.8394 14.4001 55.6867 14.4634 55.5742 14.5759C55.4617 14.6885 55.3984 14.8411 55.3984 15.0002C55.3984 15.1594 55.4617 15.312 55.5742 15.4246C55.6867 15.5371 55.8394 15.6003 55.9985 15.6003H58.3989V18.0007C58.3989 18.1599 58.4622 18.3125 58.5747 18.4251C58.6872 18.5376 58.8399 18.6008 58.999 18.6008C59.1582 18.6008 59.3108 18.5376 59.4234 18.4251C59.5359 18.3125 59.5991 18.1599 59.5991 18.0007V15.6003H61.9995C62.1587 15.6003 62.3113 15.5371 62.4238 15.4246C62.5364 15.312 62.5996 15.1594 62.5996 15.0002C62.5996 14.8411 62.5364 14.6885 62.4238 14.5759C62.3113 14.4634 62.1587 14.4001 61.9995 14.4001H59.5991V11.9998Z" fill="white"/>
</g>
<path d="M63.5 32.5L42 32.5L38.5 28.5L34 37.5L27.5 25L23 32.5H12" stroke="white" stroke-width="2" stroke-linecap="round"/>
<defs>
<clipPath id="clip0_43_1575">
<rect x="53" y="9" width="12" height="12" rx="6" fill="white"/>
</clipPath>
</defs>
</svg>
