<svg width="76" height="62" viewBox="0 0 76 62" fill="none" xmlns="http://www.w3.org/2000/svg">
<rect width="76" height="62" fill="#FE5A58"/>
<path d="M13 26.5H31L33 23L36 31L40.5 21L43.5 26.5H54.5" stroke="white" stroke-width="2"/>
<circle cx="56.5" cy="26.5" r="2" stroke="white"/>
<path d="M25.7333 26.75C25.0743 26.0954 24.5522 25.3162 24.1974 24.4578C23.8426 23.5993 23.6622 22.6789 23.6667 21.75C23.6667 19.8714 24.4129 18.0697 25.7413 16.7414C27.0697 15.413 28.8714 14.6667 30.75 14.6667C33.3833 14.6667 35.6833 16.1 36.9 18.2334H38.7667C39.3852 17.1485 40.2802 16.2468 41.3605 15.6203C42.4408 14.9938 43.6678 14.6648 44.9167 14.6667C46.7953 14.6667 48.597 15.413 49.9253 16.7414C51.2537 18.0697 52 19.8714 52 21.75C52 23.7 51.1667 25.5 49.9333 26.75L37.8333 38.8334L25.7333 26.75ZM51.1 27.9334C52.6833 26.3334 53.6667 24.1667 53.6667 21.75C53.6667 19.4294 52.7448 17.2038 51.1039 15.5628C49.4629 13.9219 47.2373 13 44.9167 13C42 13 39.4167 14.4167 37.8333 16.6167C37.0252 15.4942 35.961 14.5806 34.7291 13.9516C33.4973 13.3226 32.1332 12.9964 30.75 13C28.4294 13 26.2038 13.9219 24.5628 15.5628C22.9219 17.2038 22 19.4294 22 21.75C22 24.1667 22.9833 26.3334 24.5667 27.9334L37.8333 41.2L51.1 27.9334Z" fill="#742F40"/>
<path d="M48.5 26.5H55" stroke="white" stroke-width="2"/>
<mask id="mask0_43_1576" style="mask-type:luminance" maskUnits="userSpaceOnUse" x="15" y="40" width="32" height="17">
<path d="M46.5234 40.75V55.9189H15.75V40.75H46.5234Z" fill="white" stroke="white" stroke-width="0.5"/>
</mask>
<g mask="url(#mask0_43_1576)">
<path d="M30.4668 40.7659L31.1641 40.7805C34.4548 40.9139 36.7362 41.943 37.3066 42.2258L43.209 42.2288H43.208C44.0879 42.2288 44.9121 42.6013 45.5273 43.2698C46.1415 43.9371 46.4765 44.8222 46.4756 45.7581L46.4658 45.9661C46.3751 46.9266 45.6667 47.7163 44.749 47.8176L44.5488 47.8293L34.4883 47.8245C34.1459 47.8242 33.9033 47.5297 33.9033 47.2102C33.9034 46.8908 34.1459 46.5962 34.4883 46.5959H34.4893L44.5488 46.5999C44.9455 46.5999 45.3047 46.2422 45.3057 45.7581L45.2949 45.5266C45.2468 44.9938 45.0326 44.5035 44.6836 44.1243V44.1233C44.2857 43.6908 43.7614 43.4573 43.208 43.4573L37.1729 43.4543C37.1019 43.4543 37.0324 43.4406 36.9678 43.4153L36.9043 43.386L36.9033 43.385L36.7842 43.3254C36.705 43.2872 36.5877 43.2334 36.4355 43.1682C36.1308 43.0376 35.6853 42.8634 35.1201 42.6897C34.0596 42.3638 32.5802 42.0392 30.8223 41.9993L30.4668 41.9954H30.4648C28.7639 41.9954 27.2501 43.104 25.9385 44.6204C24.632 46.1308 23.57 47.9932 22.7656 49.4065L22.6426 49.6233C22.2418 50.3274 21.8688 50.8321 21.4336 51.2454L16.7715 55.6731C16.6618 55.7777 16.5213 55.8323 16.3779 55.8323C16.2088 55.8322 16.0448 55.7549 15.9316 55.6145C15.7295 55.3633 15.7499 54.9867 15.9863 54.7629H15.9854L20.6475 50.3342C20.8994 50.0951 21.1335 49.8043 21.3828 49.4153L21.6387 48.9915L21.7607 48.7766C22.598 47.3053 23.7325 45.3115 25.1641 43.6868C26.5924 42.0658 28.357 40.7659 30.4648 40.7659H30.4668Z" fill="#742F40" stroke="#742F40" stroke-width="0.5"/>
</g>
<mask id="mask1_43_1576" style="mask-type:luminance" maskUnits="userSpaceOnUse" x="26" y="40" width="32" height="19">
<path d="M57.248 40.75V58.0254H27.1406V40.75H57.248Z" fill="white" stroke="white" stroke-width="0.5"/>
</mask>
<g mask="url(#mask1_43_1576)">
<path d="M52.5605 41.196C53.9134 40.4124 55.5538 40.6826 56.6318 41.8533C57.0519 42.3097 57.258 42.9301 57.2021 43.5544C57.1553 44.1706 56.8526 44.7416 56.3672 45.113L56.3662 45.114L45.8125 53.1023V53.1033C44.7046 53.9348 43.4095 54.3767 42.0693 54.3767H31.9268C31.1916 54.3767 30.4983 54.7342 30.0273 55.3699L28.2432 57.78L28.2422 57.7791C28.1296 57.9313 27.9583 58.0164 27.7803 58.0164C27.6792 58.0163 27.5797 57.9892 27.4912 57.9363L27.4062 57.8748C27.1614 57.661 27.1268 57.2836 27.3184 57.0251L29.1025 54.615C29.7898 53.6877 30.8185 53.1472 31.9268 53.1472H42.0693C43.1601 53.1472 44.2191 52.7881 45.1299 52.1042L55.6797 44.1189C55.884 43.9618 56.0157 43.7175 56.0361 43.448V43.4451C56.0608 43.1698 55.9698 42.9034 55.79 42.7078L55.6514 42.5691C54.9886 41.9566 54.0822 41.8122 53.293 42.1843L53.126 42.2722L46.1758 46.283C45.9127 46.4367 45.6062 46.35 45.4365 46.1296L45.3721 46.0271C45.2313 45.7401 45.3246 45.3727 45.6104 45.2078L52.5605 41.196Z" fill="#742F40" stroke="#742F40" stroke-width="0.5"/>
</g>
</svg>
