<svg width="76" height="62" viewBox="0 0 76 62" fill="none" xmlns="http://www.w3.org/2000/svg">
<rect width="76" height="62" fill="#FE5A58"/>
<path d="M36.25 53.5C40.2551 53.5 44.1702 52.3124 47.5003 50.0873C50.8304 47.8622 53.4259 44.6996 54.9586 40.9994C56.4912 37.2991 56.8923 33.2275 56.1109 29.2994C55.3296 25.3713 53.4009 21.7631 50.5689 18.9311C47.7369 16.0991 44.1287 14.1705 40.2006 13.3891C36.2725 12.6078 32.2009 13.0088 28.5007 14.5414C24.8005 16.0741 21.6378 18.6696 19.4127 21.9997C17.1876 25.3298 16 29.2449 16 33.25C16 36.598 16.81 39.7525 18.25 42.5358L16 53.5L26.9643 51.25C29.7453 52.6878 32.9043 53.5 36.25 53.5Z" stroke="#742F40" stroke-linecap="round" stroke-linejoin="round"/>
<path d="M35 9.27341C41.5 8.5 45 10.0001 49 13M16 19.2733C18.2679 15.6207 20.0372 13.9447 24 11.7733" stroke="#742F40"/>
<path d="M60.5 32C60.9198 39.3117 59.8697 43.0594 55 49" stroke="#742F40"/>
<path d="M31.5 27.5V21C31.5 20.4477 31.9477 20 32.5 20H39.5C40.0523 20 40.5 20.4477 40.5 21V28C40.5 28.5523 40.9477 29 41.5 29H48C48.5523 29 49 29.4477 49 30V36C49 36.5523 48.5523 37 48 37H41.5C40.9477 37 40.5 37.4477 40.5 38V45C40.5 45.5523 40.0523 46 39.5 46H32.5C31.9477 46 31.5 45.5523 31.5 45V38.5C31.5 37.9477 31.0523 37.5 30.5 37.5H24C23.4477 37.5 23 37.0523 23 36.5V29.5C23 28.9477 23.4477 28.5 24 28.5H30.5C31.0523 28.5 31.5 28.0523 31.5 27.5Z" stroke="white" stroke-width="1.5"/>
</svg>
