<svg width="1457" height="1457" viewBox="0 0 1457 1457" fill="none" xmlns="http://www.w3.org/2000/svg">
<path d="M1269.06 188.778V1237.22H215.944V188.778H1269.06ZM1269.06 39H215.944C132.448 39 65.5 105.651 65.5 188.778V1237.22C65.5 1320.35 132.448 1387 215.944 1387H1269.06C1352.55 1387 1419.5 1320.35 1419.5 1237.22V188.778C1419.5 105.651 1352.55 39 1269.06 39ZM742.5 263.667C783.872 263.667 817.722 297.367 817.722 338.556V413.444H1056.18C1069.72 436.66 1081 462.122 1093.04 488.333H817.722V563.222H1118.61C1126.13 587.936 1131.4 613.398 1132.9 638.111H817.722V713H1133.66C1130.65 739.211 1129.89 764.673 1126.13 787.889H817.722V862.778H1118.61C1118.61 862.778 1114.1 1087.44 1005.78 1087.44C904.228 1087.44 930.556 972.864 817.722 937.667V1087.44C817.722 1128.63 783.872 1162.33 742.5 1162.33C701.128 1162.33 667.278 1128.63 667.278 1087.44V937.667C554.444 972.864 580.772 1087.44 479.222 1087.44C370.902 1087.44 366.389 862.778 366.389 862.778H667.278V787.889H358.867C355.106 764.673 354.353 739.211 351.344 713H667.278V638.111H352.097C353.601 613.398 359.619 587.936 366.389 563.222H667.278V488.333H391.964C404 462.122 415.283 436.66 428.823 413.444H667.278V338.556C667.278 297.367 701.128 263.667 742.5 263.667Z" fill="white" stroke="#3499B5" stroke-width="33.75"/>
</svg>
