<svg width="1080" height="1080" viewBox="0 0 1080 1080" fill="none" xmlns="http://www.w3.org/2000/svg">
<path d="M472.5 922.499L922.5 472.499C943.527 451.892 960.261 427.322 971.733 400.208C983.206 373.094 989.189 343.974 989.338 314.533C989.487 285.092 983.798 255.914 972.6 228.685C961.402 201.457 944.917 176.718 924.099 155.9C903.281 135.082 878.542 118.597 851.314 107.399C824.085 96.2015 794.907 90.5123 765.466 90.661C736.025 90.8097 706.906 96.7933 679.792 108.266C652.677 119.738 628.107 136.472 607.5 157.499L157.5 607.499C136.473 628.106 119.739 652.677 108.266 679.791C96.794 706.905 90.8105 736.024 90.6618 765.465C90.5131 794.906 96.2022 824.084 107.4 851.313C118.598 878.542 135.083 903.28 155.901 924.098C176.719 944.916 201.458 961.401 228.686 972.599C255.915 983.797 285.093 989.486 314.534 989.337C343.975 989.189 373.094 983.205 400.208 971.733C427.322 960.26 451.893 943.527 472.5 922.499Z" stroke="white" stroke-width="67.5" stroke-linecap="round" stroke-linejoin="round"/>
<path d="M382.5 382.5L697.5 697.5" stroke="white" stroke-width="67.5" stroke-linecap="round" stroke-linejoin="round"/>
</svg>
