<svg width="1663" height="1654" viewBox="0 0 1663 1654" fill="none" xmlns="http://www.w3.org/2000/svg">
<path d="M772.617 372.939V523.461C772.617 629.257 772.617 682.155 786.768 733.01C800.92 783.714 828.693 830.406 884.239 923.716L959.537 1050.1C1101.05 1287.8 1171.81 1406.69 1113.77 1494.77L1112.86 1496.14C1053.98 1583.77 904.142 1583.77 604.389 1583.77C304.711 1583.77 154.872 1583.77 95.8442 1496.14L95.0118 1494.77C36.9681 1406.69 107.725 1287.8 249.24 1050.1L324.538 923.716C380.084 830.406 407.782 783.714 422.009 733.01C436.16 682.231 436.16 629.333 436.16 523.461V372.939" stroke="white" stroke-width="67.5"/>
<path d="M377.36 372.939H831.417" stroke="white" stroke-width="67.5" stroke-linecap="round" stroke-linejoin="round"/>
<path d="M339.521 923.919C389.997 879.95 508.581 911.659 604.539 952.979C730.616 1007.39 844.054 963.422 869.254 923.919" stroke="white" stroke-width="67.5" stroke-linecap="round"/>
<path d="M793.579 448.636C793.579 599.99 972.327 767.387 1094.24 751.344C1094.24 876.741 1204.8 978.375 1341.17 978.375C1477.69 978.375 1588.18 876.741 1588.18 751.344C1588.18 625.947 1512.5 524.313 1361.15 524.313C1361.15 372.96 1247.64 221.606 1087.2 221.606C1087.2 104.836 1020.61 70.252 944.932 70.252C869.256 70.252 831.418 145.929 831.418 145.929C831.418 145.929 604.389 145.929 604.389 372.96" stroke="white" stroke-width="67.5" stroke-linecap="round" stroke-linejoin="round"/>
</svg>
