<svg width="76" height="62" viewBox="0 0 76 62" fill="none" xmlns="http://www.w3.org/2000/svg">
<rect width="76" height="62" fill="#FE5A58"/>
<path d="M23 15.9998V11.9998C23 11.4476 23.4477 10.9998 24 10.9998H26.5315C26.8283 10.9998 27.1089 10.8668 27.3037 10.6427C30.2318 7.27397 31.928 7.57253 34.6978 10.6573C34.8914 10.8729 35.1664 10.9998 35.4562 10.9998H38C38.5523 10.9998 39 11.4476 39 11.9998V15.9998C39 16.5521 38.5523 16.9998 38 16.9998H24C23.4477 16.9998 23 16.5521 23 15.9998Z" stroke="#742F40" stroke-width="2"/>
<path d="M43 51V53H19V51H43ZM45 49V18C45 16.8954 44.1046 16 43 16H19C17.9643 16 17.113 16.7872 17.0107 17.7959L17 18V49C17 50.1046 17.8954 51 19 51V53C16.86 53 15.1121 51.3194 15.0049 49.2061L15 49V18C15 15.7909 16.7909 14 19 14H23V16H28.5H31.5H35H39V14H43C45.2091 14 47 15.7909 47 18V49C47 51.2091 45.2091 53 43 53V51C44.1046 51 45 50.1046 45 49Z" fill="#742F40"/>
<g clip-path="url(#clip0_43_1584)">
<path d="M19.1992 23.5333H22.5326V20.2H26.5326V23.5333H29.8659V27.5333H26.5326V30.8666H22.5326V27.5333H19.1992V23.5333ZM23.8659 26.2V29.5333H25.1992V26.2H28.5326V24.8666H25.1992V21.5333H23.8659V24.8666H20.5326V26.2H23.8659Z" fill="white"/>
</g>
<rect x="21" y="36" width="2" height="2" stroke="#742F40" stroke-width="2"/>
<rect x="21" y="41" width="2" height="2" stroke="#742F40" stroke-width="2"/>
<rect x="21" y="46" width="2" height="2" stroke="#742F40" stroke-width="2"/>
<path d="M57.1951 35.1986C57.197 39.3416 54.9456 43.6937 50.8982 45.3773C46.8508 47.061 42.1799 45.9578 39.3134 42.6412C36.447 39.3247 36.0319 34.5432 38.2839 30.7823C40.536 27.0214 45.2396 25.1655 49.5423 25.9602" stroke="white" stroke-width="2" stroke-linecap="round" stroke-linejoin="round"/>
<path d="M43.3324 36.3205L48.1142 39.5051L55.5977 27.2322" stroke="white" stroke-width="1.5" stroke-linecap="round" stroke-linejoin="round"/>
<rect x="27" y="46" width="6" height="2" fill="#742F40"/>
<rect x="27" y="41" width="6" height="2" fill="#742F40"/>
<rect x="27" y="36" width="6" height="2" fill="#742F40"/>
<defs>
<clipPath id="clip0_43_1584">
<rect width="16" height="16" fill="white" transform="translate(16 17)"/>
</clipPath>
</defs>
</svg>
