<svg width="59" height="60" viewBox="0 0 59 60" fill="none" xmlns="http://www.w3.org/2000/svg">
<path fill-rule="evenodd" clip-rule="evenodd" d="M19.3192 30.4195C16.1397 29.5751 9.72974 27.2061 9.72974 21.8324C9.72974 14.6862 18.451 4.86487 18.451 4.86487C18.451 4.86487 21.2909 0 29.2779 0C37.265 0 41.3473 4.86487 41.3473 4.86487C41.3473 4.86487 47.027 11.2323 47.027 21.8324C47.027 27.2937 43.8232 29.5108 40.7168 30.377C38.1944 33.3787 34.304 35.2802 30 35.2802C25.7165 35.2802 21.8424 33.3966 19.3192 30.4195ZM20.2625 25.8118C21.7602 29.4177 25.5033 32.0369 30 32.0369C31.8483 32.0369 33.5692 31.5944 35.0593 30.8228C34.9928 30.8155 34.9576 30.8108 34.9576 30.8108C34.9576 30.8108 44.651 21.4566 36.4865 9.72973C35.599 8.08062 22.0896 12.1622 20.2703 14.5946C19.178 16.055 19.6837 21.6076 20.2625 25.8118Z" fill="black"/>
<path d="M13.6745 46.1215C12.2809 46.977 11.3514 48.5151 11.3514 50.2702C11.3514 52.9571 13.5294 55.1351 16.2162 55.1351C18.9031 55.1351 21.0811 52.9571 21.0811 50.2702C21.0811 47.7989 19.2383 45.7579 16.8517 45.4465C16.7985 45.256 16.7431 45.0364 16.6866 44.7901C16.4924 43.9414 16.307 42.8646 16.169 41.7586C16.0307 40.6506 15.9449 39.5519 15.9392 38.6554C15.9371 38.3266 15.9461 38.0403 15.9642 37.8001C16.5881 37.6211 17.2137 37.4599 17.8378 37.3177C18.5535 37.1547 18.977 37.9994 19.3202 38.6839C19.3262 38.6957 19.3322 38.7077 19.3382 38.7196C19.3795 38.8023 19.4199 38.8822 19.4595 38.9573H26.0496C27.5233 38.957 28.2574 38.9571 28.9941 38.9573H29.0238C29.7451 38.9575 30.4795 38.9576 31.9218 38.9573H38.5124C38.8824 38.2543 39.7252 37.132 40.5405 37.3177C41.4102 37.5158 42.283 37.751 43.1496 38.0198L43.1442 38.0224C43.1423 38.0187 43.1424 38.0194 43.1444 38.0249C43.152 38.0476 43.1877 38.1536 43.223 38.3836C43.2634 38.6453 43.2915 38.9855 43.303 39.3951C43.326 40.2129 43.2801 41.207 43.1833 42.2086C43.0863 43.209 42.9423 44.1776 42.7802 44.9422C42.7443 45.1115 42.7085 45.2661 42.6733 45.4054H40.5405C39.9263 45.4054 39.3649 45.7524 39.0902 46.3018L37.4685 49.545C37.3558 49.7701 37.2973 50.0185 37.2973 50.2702V53.5135C37.2973 54.4091 38.0233 55.1351 38.9189 55.1351H42.1622V51.8918H40.5405V50.6531L41.5427 48.6486H46.0249L47.027 50.6531V51.8918H45.4054V55.1351H48.6486C49.5443 55.1351 50.2703 54.4091 50.2703 53.5135V50.2702C50.2703 50.0185 50.2117 49.7701 50.099 49.545L48.4774 46.3018C48.2027 45.7524 47.6413 45.4054 47.027 45.4054H45.9962C46.1693 44.5415 46.3135 43.5321 46.4113 42.521C46.5172 41.428 46.5727 40.2937 46.5449 39.3042L46.5436 39.2596C53.01 41.9917 58.3784 46.4855 58.3784 51.1944V59.9999H0V51.1944C0 46.2771 5.85394 41.5944 12.6989 38.9075C12.7174 39.9155 12.8129 41.0565 12.9506 42.1602C13.0993 43.3516 13.302 44.5383 13.5253 45.5138C13.5731 45.7229 13.6229 45.9264 13.6745 46.1215Z" fill="url(#paint0_linear_3012_2873)"/>
<defs>
<linearGradient id="paint0_linear_3012_2873" x1="0" y1="48.6486" x2="58.3784" y2="48.6486" gradientUnits="userSpaceOnUse">
<stop stop-color="#5FC1A3"/>
<stop offset="1" stop-color="#00C4FF"/>
</linearGradient>
</defs>
</svg>
