<svg width="1080" height="1080" viewBox="0 0 1080 1080" fill="none" xmlns="http://www.w3.org/2000/svg">
<path d="M990 540H878.4C858.734 539.958 839.595 546.359 823.91 558.224C808.226 570.088 796.86 586.764 791.55 605.7L685.8 981.9C685.118 984.237 683.697 986.29 681.75 987.75C679.803 989.211 677.434 990 675 990C672.566 990 670.197 989.211 668.25 987.75C666.303 986.29 664.882 984.237 664.2 981.9L415.8 98.1C415.118 95.7632 413.697 93.7105 411.75 92.25C409.803 90.7895 407.434 90 405 90C402.566 90 400.197 90.7895 398.25 92.25C396.303 93.7105 394.882 95.7632 394.2 98.1L288.45 474.3C283.161 493.162 271.862 509.783 256.269 521.641C240.676 533.498 221.639 539.944 202.05 540H90" stroke="white" stroke-width="67.5" stroke-linecap="round" stroke-linejoin="round"/>
</svg>
