<svg width="38" height="69" viewBox="0 0 38 69" fill="none" xmlns="http://www.w3.org/2000/svg">
<g clip-path="url(#clip0_3012_2861)">
<path d="M12.0418 27.4079L7.68896 30.962C6.98997 33.2673 6.92642 36.181 6.22743 38.4223C5.08361 42.0404 0.254181 41.336 0 37.6539C1.01672 33.7796 0.508361 27.472 3.46321 24.5583C4.89298 23.1495 10.7709 18.859 12.5184 18.1546C16.7441 16.4256 22.8763 16.7458 24.6237 21.7407C25.7676 25.0066 24.6873 32.5629 25.005 36.4372C25.291 40.1193 28.9766 42.3286 31.2642 44.8901C36.1572 50.3973 35.8712 58.7221 37.9682 65.5421C37.7776 69.2562 33.2659 70.3769 31.5502 66.9189C29.5485 62.8525 28.5635 57.4734 26.5936 53.2789C22.8763 49.7569 18.3328 46.8112 14.6154 43.3532C10.898 39.8952 11.6923 36.8534 11.8512 32.1147C11.9147 30.5458 11.8194 28.9769 12.01 27.4079H12.0418Z" fill="black"/>
<path d="M11.1204 43.129L12.8043 44.89L18.5552 49.5648C18.7458 49.7249 18.7458 49.8209 18.714 50.045C18.6187 50.8775 17.5067 53.7272 17.1254 54.6237C15.0284 59.3624 9.08695 64.0692 5.94147 68.2956C3.49498 70.1847 0.317723 67.9754 0.953174 64.9657C1.08026 64.3894 1.52508 63.8771 1.84281 63.3968C4.47993 59.2344 7.81605 55.3281 10.4532 51.1337L11.1204 43.129Z" fill="url(#paint0_linear_3012_2861)"/>
<path d="M18.587 0.0320958C27.7057 -0.896443 29.7074 12.5514 21.0652 14.5365C10.9298 16.9059 8.51505 1.08871 18.587 0.0320958Z" fill="black"/>
<path d="M27.3244 26.1913L29.2625 28.7848C31.2007 30.3217 35.2993 31.5704 36.9515 33.2033C38.9214 35.1245 37.5552 38.5184 34.8863 38.5184C34.3144 38.5184 28.3729 36.5653 27.7057 36.2131C27.5786 36.1491 27.4197 36.117 27.3244 35.9569V26.1913Z" fill="url(#paint1_linear_3012_2861)"/>
</g>
<defs>
<linearGradient id="paint0_linear_3012_2861" x1="0.870895" y1="56.0625" x2="18.7298" y2="56.0625" gradientUnits="userSpaceOnUse">
<stop stop-color="#5FC1A3"/>
<stop offset="1" stop-color="#00C4FF"/>
</linearGradient>
<linearGradient id="paint1_linear_3012_2861" x1="27.3244" y1="32.3549" x2="37.8849" y2="32.3549" gradientUnits="userSpaceOnUse">
<stop stop-color="#5FC1A3"/>
<stop offset="1" stop-color="#00C4FF"/>
</linearGradient>
<clipPath id="clip0_3012_2861">
<rect width="38" height="69" fill="white"/>
</clipPath>
</defs>
</svg>
