<svg width="57" height="57" viewBox="0 0 57 57" fill="none" xmlns="http://www.w3.org/2000/svg">
<path d="M28.8929 1L5 8.96429V32.8571C5 46.0542 15.6958 56.75 28.8929 56.75C42.0899 56.75 52.7857 46.0542 52.7857 32.8571V8.96429L28.8929 1ZM48.3058 32.8571C48.3058 43.5778 39.6135 52.2701 28.8929 52.2701C18.1722 52.2701 9.47991 43.5778 9.47991 32.8571V12.3242L28.8929 5.47991L48.3058 12.3242V32.8571Z" fill="white"/>
<path d="M20.5809 26.5735C20.3733 26.3649 20.1266 26.1994 19.8548 26.0865C19.5831 25.9736 19.2917 25.9155 18.9974 25.9155C18.7031 25.9155 18.4118 25.9736 18.14 26.0865C17.8683 26.1994 17.6215 26.3649 17.4139 26.5735C17.2053 26.7811 17.0398 27.0279 16.9269 27.2996C16.814 27.5714 16.7559 27.8627 16.7559 28.157C16.7559 28.4513 16.814 28.7427 16.9269 29.0144C17.0398 29.2862 17.2053 29.5329 17.4139 29.7405L25.4653 37.7919L25.5959 37.9226C25.7923 38.1194 26.0256 38.2754 26.2824 38.3819C26.5391 38.4884 26.8144 38.5433 27.0924 38.5433C27.3703 38.5433 27.6456 38.4884 27.9024 38.3819C28.1591 38.2754 28.3924 38.1194 28.5888 37.9226L42.4952 24.0162C42.6919 23.8198 42.848 23.5866 42.9545 23.3298C43.061 23.073 43.1158 22.7978 43.1158 22.5198C43.1158 22.2418 43.061 21.9666 42.9545 21.7098C42.848 21.453 42.6919 21.2198 42.4952 21.0234L42.3209 20.8492C42.1246 20.6524 41.8913 20.4963 41.6345 20.3898C41.3778 20.2833 41.1025 20.2285 40.8245 20.2285C40.5466 20.2285 40.2713 20.2833 40.0145 20.3898C39.7578 20.4963 39.5245 20.6524 39.3281 20.8492L27.0893 33.0818L20.5809 26.5735Z" fill="white"/>
</svg>
